<svg width="30" height="30" viewBox="0 0 30 30" fill="none" xmlns="http://www.w3.org/2000/svg">
<g filter="url(#filter0_d_264_2569)">
<path d="M24.6719 23.4434L19.1758 17.9473C20.3652 16.5117 21.0215 14.666 21.0215 12.6562C21.0215 7.98047 17.166 4.125 12.4902 4.125C7.77344 4.125 4 7.98047 4 12.6562C4 17.373 7.81445 21.1875 12.4902 21.1875C14.459 21.1875 16.3047 20.5312 17.7812 19.3418L23.2773 24.8379C23.4824 25.043 23.7285 25.125 24.0156 25.125C24.2617 25.125 24.5078 25.043 24.6719 24.8379C25.082 24.4688 25.082 23.8535 24.6719 23.4434ZM5.96875 12.6562C5.96875 9.04688 8.88086 6.09375 12.5312 6.09375C16.1406 6.09375 19.0938 9.04688 19.0938 12.6562C19.0938 16.3066 16.1406 19.2188 12.5312 19.2188C8.88086 19.2188 5.96875 16.3066 5.96875 12.6562Z" fill="white" fill-opacity="0.6" shape-rendering="crispEdges"/>
</g>
<defs>
<filter id="filter0_d_264_2569" x="0" y="0.125" width="29.082" height="29" filterUnits="userSpaceOnUse" color-interpolation-filters="sRGB">
<feFlood flood-opacity="0" result="BackgroundImageFix"/>
<feColorMatrix in="SourceAlpha" type="matrix" values="0 0 0 0 0 0 0 0 0 0 0 0 0 0 0 0 0 0 127 0" result="hardAlpha"/>
<feOffset/>
<feGaussianBlur stdDeviation="2"/>
<feComposite in2="hardAlpha" operator="out"/>
<feColorMatrix type="matrix" values="0 0 0 0 0 0 0 0 0 0 0 0 0 0 0 0 0 0 0.15 0"/>
<feBlend mode="normal" in2="BackgroundImageFix" result="effect1_dropShadow_264_2569"/>
<feBlend mode="normal" in="SourceGraphic" in2="effect1_dropShadow_264_2569" result="shape"/>
</filter>
</defs>
</svg>
