<svg width="786" height="235" preserveAspectRatio="none" viewBox="0 0 786 235" fill="none" xmlns="http://www.w3.org/2000/svg">
<g opacity="0.3">
<mask id="mask0_996_13916" style="mask-type:alpha" maskUnits="userSpaceOnUse" x="0" y="0" width="786" height="235">
<path d="M0 0H589.709L603.412 18.9803H651.748L664.206 0H681.647H786V201.003L764.573 235H191.326L179.367 219.868H94.4172L84.9493 235H0V30.148V0Z" fill="#D9D9D9"/>
</mask>
<g mask="url(#mask0_996_13916)">
<path fill-rule="evenodd" clip-rule="evenodd" d="M83.223 -212.834L76.5664 -215L-40.9987 146.356L-34.3422 148.522L83.223 -212.834ZM71.223 -136.834L64.5665 -139L-52.9987 222.356L-46.3421 224.522L71.223 -136.834ZM75.9766 -135.287L82.6332 -133.122L-34.9319 228.235L-41.5885 226.069L75.9766 -135.287ZM94.0453 -129.409L87.3888 -131.575L-30.1764 229.782L-23.5198 231.947L94.0453 -129.409ZM98.7989 -127.862L105.455 -125.697L-12.1096 235.66L-18.7662 233.494L98.7989 -127.862ZM116.868 -121.984L110.211 -124.15L-7.35409 237.207L-0.697527 239.372L116.868 -121.984ZM121.621 -120.437L128.278 -118.271L10.7125 243.085L4.05598 240.919L121.621 -120.437ZM139.69 -114.559L133.033 -116.725L15.4681 244.632L22.1247 246.797L139.69 -114.559ZM144.443 -113.012L151.1 -110.846L33.5348 250.51L26.8783 248.344L144.443 -113.012ZM162.512 -107.134L155.855 -109.299L38.2904 252.057L44.9469 254.223L162.512 -107.134ZM167.268 -105.587L173.924 -103.421L56.359 257.935L49.7025 255.77L167.268 -105.587ZM185.334 -99.7085L178.678 -101.874L61.1128 259.482L67.7693 261.648L185.334 -99.7085ZM190.09 -98.1616L196.747 -95.9959L79.1815 265.36L72.5249 263.195L190.09 -98.1616ZM208.157 -92.2833L201.5 -94.449L83.9351 266.907L90.5916 269.073L208.157 -92.2833ZM212.912 -90.7364L219.569 -88.5708L102.004 272.786L95.3472 270.62L212.912 -90.7364ZM230.979 -84.8582L224.322 -87.0238L106.757 274.333L113.414 276.498L230.979 -84.8582ZM235.735 -83.3113L242.391 -81.1456L124.826 280.211L118.169 278.045L235.735 -83.3113ZM253.803 -77.433L247.147 -79.5987L129.582 281.758L136.238 283.923L253.803 -77.433ZM258.557 -75.8861L265.213 -73.7204L147.648 287.636L140.992 285.47L258.557 -75.8861ZM276.626 -70.0078L269.969 -72.1735L152.404 289.183L159.06 291.349L276.626 -70.0078ZM281.379 -68.4609L288.036 -66.2953L170.471 295.061L163.814 292.895L281.379 -68.4609ZM299.448 -62.5827L292.791 -64.7483L175.226 296.608L181.883 298.774L299.448 -62.5827ZM304.201 -61.0357L310.858 -58.8701L193.293 302.486L186.636 300.321L304.201 -61.0357ZM322.27 -55.1575L315.613 -57.3232L198.048 304.033L204.705 306.199L322.27 -55.1575ZM327.024 -53.6106L333.68 -51.4449L216.115 309.911L209.459 307.746L327.024 -53.6106ZM345.092 -47.7323L338.436 -49.898L220.871 311.458L227.527 313.624L345.092 -47.7323ZM349.848 -46.1854L356.504 -44.0197L238.939 317.337L232.283 315.171L349.848 -46.1854ZM368.223 -40.8343L361.567 -43L244.001 318.356L250.658 320.522L368.223 -40.8343Z" fill="#181919"/>
<path fill-rule="evenodd" clip-rule="evenodd" d="M728.867 -63.4651L722.211 -65.6308L568.442 407.004L575.098 409.17L728.867 -63.4651ZM708.828 -64.4531L715.485 -62.2874L561.716 410.347L555.059 408.182L708.828 -64.4531ZM594.35 -100.877L601.007 -98.7116L447.238 373.923L440.582 371.758L594.35 -100.877ZM418.427 -158.113L411.77 -160.279L258.001 312.356L264.658 314.522L418.427 -158.113ZM429.837 -154.4L423.18 -156.566L269.412 316.069L276.068 318.235L429.837 -154.4ZM434.593 -152.853L441.249 -150.688L287.48 321.947L280.824 319.781L434.593 -152.853ZM452.659 -146.975L446.003 -149.141L292.234 323.494L298.89 325.66L452.659 -146.975ZM457.415 -145.428L464.071 -143.262L310.303 329.372L303.646 327.207L457.415 -145.428ZM475.482 -139.55L468.825 -141.716L315.056 330.919L321.713 333.085L475.482 -139.55ZM480.237 -138.003L486.894 -135.837L333.125 336.797L326.468 334.632L480.237 -138.003ZM498.304 -132.125L491.647 -134.29L337.878 338.345L344.535 340.51L498.304 -132.125ZM503.059 -130.578L509.716 -128.412L355.947 344.223L349.291 342.057L503.059 -130.578ZM521.128 -124.7L514.471 -126.865L360.703 345.769L367.359 347.935L521.128 -124.7ZM525.882 -123.153L532.538 -120.987L378.769 351.648L372.113 349.482L525.882 -123.153ZM543.95 -117.274L537.294 -119.44L383.525 353.195L390.181 355.36L543.95 -117.274ZM548.704 -115.727L555.36 -113.562L401.592 359.073L394.935 356.907L548.704 -115.727ZM566.773 -109.849L560.116 -112.015L406.347 360.62L413.004 362.786L566.773 -109.849ZM571.526 -108.302L578.183 -106.137L424.414 366.498L417.757 364.332L571.526 -108.302ZM589.595 -102.424L582.938 -104.59L429.169 368.045L435.826 370.211L589.595 -102.424ZM612.417 -94.9988L605.761 -97.1645L451.992 375.47L458.648 377.636L612.417 -94.9988ZM617.173 -93.4521L623.829 -91.2864L470.06 381.348L463.404 379.183L617.173 -93.4521ZM635.239 -87.5736L628.583 -89.7393L474.814 382.895L481.471 385.061L635.239 -87.5736ZM639.995 -86.0269L646.651 -83.8612L492.883 388.774L486.226 386.608L639.995 -86.0269ZM658.062 -80.1485L651.405 -82.3141L497.636 390.321L504.293 392.486L658.062 -80.1485ZM662.817 -78.6016L669.474 -76.436L515.705 396.199L509.048 394.033L662.817 -78.6016ZM680.884 -72.7232L674.227 -74.8889L520.458 397.746L527.115 399.912L680.884 -72.7232ZM685.639 -71.1765L692.296 -69.0108L538.527 403.624L531.871 401.458L685.639 -71.1765ZM703.708 -65.2983L697.052 -67.4639L543.283 405.171L549.939 407.337L703.708 -65.2983Z" fill="#181919"/>
<path fill-rule="evenodd" clip-rule="evenodd" d="M1046.22 49.1658L1039.57 47.0001L922.001 408.356L928.658 410.522L1046.22 49.1658ZM1026.57 47L1033.22 49.1656L915.658 410.522L909.001 408.356L1026.57 47ZM912.146 10.4013L918.803 12.5669L801.238 373.923L794.581 371.758L912.146 10.4013ZM736.223 -46.8344L729.566 -49L612.001 312.356L618.658 314.522L736.223 -46.8344ZM747.633 -43.1218L740.976 -45.2874L623.411 316.069L630.068 318.235L747.633 -43.1218ZM752.389 -41.5749L759.045 -39.4092L641.48 321.947L634.823 319.782L752.389 -41.5749ZM770.455 -35.6966L763.799 -37.8623L646.234 323.494L652.89 325.66L770.455 -35.6966ZM775.211 -34.1497L781.867 -31.984L664.302 329.372L657.646 327.207L775.211 -34.1497ZM793.278 -28.2714L786.621 -30.4371L669.056 330.919L675.712 333.085L793.278 -28.2714ZM798.033 -26.7246L804.69 -24.5589L687.125 336.797L680.468 334.632L798.033 -26.7246ZM816.1 -20.8463L809.443 -23.012L691.878 338.344L698.535 340.51L816.1 -20.8463ZM820.855 -19.2994L827.512 -17.1337L709.947 344.223L703.29 342.057L820.855 -19.2994ZM838.924 -13.4212L832.267 -15.5868L714.702 345.77L721.359 347.935L838.924 -13.4212ZM843.678 -11.8742L850.334 -9.70857L732.769 351.648L726.113 349.482L843.678 -11.8742ZM861.746 -5.99598L855.09 -8.16165L737.525 353.195L744.181 355.36L861.746 -5.99598ZM866.5 -4.44907L873.156 -2.2834L755.591 359.073L748.935 356.907L866.5 -4.44907ZM884.569 1.42918L877.912 -0.736489L760.347 360.62L767.003 362.786L884.569 1.42918ZM889.322 2.9761L895.979 5.14177L778.414 366.498L771.757 364.332L889.322 2.9761ZM907.391 8.85436L900.734 6.68868L783.169 368.045L789.826 370.211L907.391 8.85436ZM930.213 16.2795L923.557 14.1139L805.991 375.47L812.648 377.636L930.213 16.2795ZM934.969 17.8264L941.625 19.9921L824.06 381.348L817.404 379.183L934.969 17.8264ZM953.035 23.7047L946.379 21.539L828.814 382.895L835.47 385.061L953.035 23.7047ZM957.791 25.2516L964.447 27.4173L846.882 388.774L840.226 386.608L957.791 25.2516ZM975.858 31.1299L969.201 28.9642L851.636 390.321L858.292 392.486L975.858 31.1299ZM980.613 32.6768L987.27 34.8425L869.705 396.199L863.048 394.033L980.613 32.6768ZM998.68 38.5551L992.023 36.3894L874.458 397.746L881.115 399.911L998.68 38.5551ZM1003.44 40.102L1010.09 42.2676L892.527 403.624L885.87 401.458L1003.44 40.102ZM1021.5 45.9802L1014.85 43.8145L897.282 405.171L903.939 407.337L1021.5 45.9802Z" fill="#181919"/>
</g>
</g>
</svg>
