<svg width="37" height="980" viewBox="0 0 37 980" fill="none" xmlns="http://www.w3.org/2000/svg">
<g clip-path="url(#clip0_362_235)">
<path d="M23.6838 432H17.3953L14.0005 428.605V422.339L23.6838 432Z" fill="#C71A33"/>
<path d="M14.0005 418.443L27.5799 432V425.734L14.0005 412.178V418.443Z" fill="#C71A33"/>
<path d="M14.0005 408.259L27.5799 421.838V415.573L14.0005 401.993V408.259Z" fill="#C71A33"/>
<path d="M14.0005 398.097L27.5799 411.677V405.411L14.0005 391.831V398.097Z" fill="#C71A33"/>
<path d="M14.0005 387.935L27.5799 401.515V395.249L14.0005 381.67V387.935Z" fill="#C71A33"/>
<path d="M14.0005 377.774L27.5799 391.33V385.065L14.0005 371.508V377.774Z" fill="#C71A33"/>
<path d="M14.0005 367.589L27.5799 381.169V374.903L14.0005 361.323V367.589Z" fill="#C71A33"/>
<path d="M14.0005 357.427L27.5799 371.007V364.741L14.0005 351.162V357.427Z" fill="#C71A33"/>
<path d="M14.0005 347.266L27.5799 360.845V354.579L14.0005 341V347.266Z" fill="#C71A33"/>
</g>
<g clip-path="url(#clip1_362_235)">
<path d="M32.0001 517L24 525L24 571.648L31.9068 579.531L32.0001 517Z" fill="#C71A33"/>
</g>
<g clip-path="url(#clip2_362_235)">
<path d="M36.2827 14.5128L36.2827 0L31.9998 -1.8721e-07L31.9998 14.5128L36.2827 14.5128Z" fill="#C71A33"/>
<path d="M36.2827 27.3859L36.2827 21.4878L31.9998 21.4878L31.9998 27.3859L36.2827 27.3859Z" fill="#C71A33"/>
<path d="M36.2827 46.7444L36.2827 39.7694L31.9998 39.7694L31.9998 46.7444L36.2827 46.7444Z" fill="#C71A33"/>
<path d="M36.2827 68.795L36.2827 53.2053L31.9998 53.2053L31.9998 68.795L36.2827 68.795Z" fill="#C71A33"/>
<path d="M36.2827 100.488L36.2827 89.2058L31.9998 89.2058L31.9998 100.488L36.2827 100.488Z" fill="#C71A33"/>
<path d="M36.2827 126.308L36.2827 108.026L31.9998 108.026L31.9998 126.308L36.2827 126.308Z" fill="#C71A33"/>
<path d="M36.2827 155.848L36.2827 149.387L31.9998 149.387L31.9998 155.848L36.2827 155.848Z" fill="#C71A33"/>
<path d="M36.2827 168.745L36.2827 160.693L31.9998 160.693L31.9998 168.745L36.2827 168.745Z" fill="#C71A33"/>
<path d="M36.2827 187.198L36.2827 171.975L31.9998 171.975L31.9998 187.198L36.2827 187.198Z" fill="#C71A33"/>
</g>
<g clip-path="url(#clip3_362_235)">
<path d="M24.2827 762.513L24.2827 748L19.9998 748L19.9998 762.513L24.2827 762.513Z" fill="#C71A33"/>
<path d="M24.2827 775.386L24.2827 769.488L19.9998 769.488L19.9998 775.386L24.2827 775.386Z" fill="#C71A33"/>
<path d="M24.2827 794.744L24.2827 787.769L19.9998 787.769L19.9998 794.744L24.2827 794.744Z" fill="#C71A33"/>
<path d="M24.2827 816.795L24.2827 801.205L19.9998 801.205L19.9998 816.795L24.2827 816.795Z" fill="#C71A33"/>
<path d="M24.2827 848.488L24.2827 837.206L19.9998 837.206L19.9998 848.488L24.2827 848.488Z" fill="#C71A33"/>
<path d="M24.2827 874.308L24.2827 856.026L19.9998 856.026L19.9998 874.308L24.2827 874.308Z" fill="#C71A33"/>
<path d="M24.2827 903.848L24.2827 897.387L19.9998 897.387L19.9998 903.848L24.2827 903.848Z" fill="#C71A33"/>
<path d="M24.2827 916.745L24.2827 908.693L19.9998 908.693L19.9998 916.745L24.2827 916.745Z" fill="#C71A33"/>
<path d="M24.2827 935.198L24.2827 919.975L19.9998 919.975L19.9998 935.198L24.2827 935.198Z" fill="#C71A33"/>
</g>
<path d="M32.5 980V463L1 437.5V336L32.5 312.5V114.5" stroke="#C71A33"/>
<defs>
<clipPath id="clip0_362_235">
<rect width="13.5794" height="91" fill="white" transform="translate(14 341)"/>
</clipPath>
<clipPath id="clip1_362_235">
<rect width="62.5311" height="8.00007" fill="white" transform="matrix(4.37114e-08 1 1 -4.37114e-08 24 517)"/>
</clipPath>
<clipPath id="clip2_362_235">
<rect width="187.174" height="4.28287" fill="white" transform="translate(36.2827) rotate(90)"/>
</clipPath>
<clipPath id="clip3_362_235">
<rect width="187.174" height="4.28287" fill="white" transform="translate(24.2827 748) rotate(90)"/>
</clipPath>
</defs>
</svg>
