<svg width="665" height="128" viewBox="0 0 665 128" fill="none" preserveAspectRatio="none" xmlns="http://www.w3.org/2000/svg">
<path fill-rule="evenodd" clip-rule="evenodd" d="M137.39 127.43L138.82 126H526.11L527.54 127.43H542.47L552.43 118.5L550.036 116.704L646.733 1.49994H665V0.499941H646V0.817887L549.234 116.103L548.43 115.5L539.6 123.61H531.12L528.879 125H136.051L133.81 123.61H125.33L116.5 115.5L116.042 115.844L18.8829 0.178345L18.5 0.499941H0V1.49994H18.687L115.24 116.444L112.5 118.5L122.46 127.43H137.39ZM411 121H417V117H411V121ZM403.686 121.283H397.787V117H403.686V121.283ZM378.429 121.283H385.404V117H378.429V121.283ZM371.968 121.283H356.379V117H371.968V121.283Z" fill="#C71A33"/>
</svg>
