<svg width="70" height="20" viewBox="0 0 70 20" fill="none" xmlns="http://www.w3.org/2000/svg">
<path d="M44.6945 9.59231C36.5713 9.98245 28.7756 10.6327 21.004 11.6755C16.1873 12.3233 11.3804 13.1181 6.50112 13.2578C4.98147 13.3011 3.48109 13.1277 1.97349 13.0651C1.2823 13.0362 0.147989 11.8682 0.0227569 11.1938C-0.172316 10.1366 0.819908 9.14195 1.8603 9.49357C4.28065 10.31 6.74195 9.96319 9.18398 9.85722C15.6792 9.57304 22.0757 8.3448 28.5299 7.68492C34.9336 7.02986 41.3494 6.43019 47.8037 6.58192C50.1951 6.63972 50.1951 6.61804 50.5588 4.229C50.6864 3.39813 50.737 2.57208 50.6912 1.72194C50.6214 0.464805 51.5679 -0.250464 52.7528 0.0794746C53.3982 0.260098 54.0845 0.407005 54.6481 0.746577C57.8656 2.69249 61.4227 3.96167 64.6883 5.80403C65.907 6.4904 67.0943 7.23216 68.3899 7.77885C69.0137 8.04376 69.5266 8.43391 69.7771 9.14677C70.2202 10.4087 70.042 10.9915 68.8114 11.5719C67.3495 12.2631 65.8636 12.9086 64.3921 13.5805C60.6255 15.3024 57.066 17.4579 53.1814 18.9366C51.2283 19.6783 49.8965 18.8185 50.0458 16.7619C50.1879 14.7991 50.0458 12.8435 50.0241 10.8856C50.0121 9.76811 49.8628 9.62602 48.7598 9.59712C47.3051 9.55859 45.8481 9.58749 44.6921 9.58749L44.6945 9.59231ZM57.0371 10.0162C56.0353 9.93429 54.9828 9.84277 53.9256 9.76089C53.2513 9.71031 52.8684 9.97523 52.89 10.7098C52.9189 11.767 52.8804 12.8291 52.9526 13.8839C53.0321 15.0086 53.2103 15.1073 54.3422 14.6787C57.0564 13.6503 59.5466 12.1596 62.1476 10.8952C62.2993 10.8205 62.4799 10.6929 62.3667 10.5219C62.2969 10.4184 62.0753 10.3991 61.9188 10.3702C60.3245 10.0595 58.7085 10.0234 57.0371 10.0162ZM56.8613 6.91426C57.5838 6.9552 58.3039 6.99855 59.0264 7.03227C59.1902 7.0395 59.3684 6.99615 59.4166 6.81311C59.4671 6.62767 59.3395 6.50726 59.1805 6.4326C57.5742 5.66676 55.9751 4.88406 54.2965 4.28439C54.0894 4.20973 53.8413 4.11099 53.6703 4.29643C53.22 4.79013 53.2681 5.42593 53.2609 6.03041C53.2561 6.52893 53.6414 6.67102 54.0316 6.76013C54.9636 6.96965 55.9149 6.89981 56.8589 6.91426H56.8613Z" fill="#3C3C40"/>
</svg>
