<svg width="185" height="175" viewBox="0 0 185 175" fill="none" xmlns="http://www.w3.org/2000/svg">
<circle opacity="0.9" cx="93" cy="96" r="62" fill="white"/>
<g opacity="0.2">
<path style="mix-blend-mode:screen" opacity="0.5" d="M155.061 95.9897C155.061 97.4399 155.011 98.8802 154.901 100.3C154.559 105.512 153.55 110.658 151.9 115.613C151.885 115.671 151.865 115.728 151.84 115.783C149.698 122.113 146.55 128.057 142.519 133.386C136.191 141.757 127.842 148.384 118.255 152.649C113.736 154.673 108.987 156.134 104.112 157C100.482 157.656 96.8 157.991 93.1105 158C81.7043 158.003 70.5176 154.864 60.7784 148.927C51.0391 142.99 43.1238 134.485 37.9013 124.344C37.1212 122.814 36.391 121.234 35.7409 119.624C32.6497 112.135 31.0659 104.111 31.0802 96.0097C31.0802 95.4596 31.0802 94.9295 31.0802 94.3694C31.0802 93.8093 31.0802 93.4893 31.0802 93.0592C31.0802 92.8392 31.0802 92.5991 31.0802 92.3791C31.1335 91.4189 31.2135 90.4688 31.3202 89.5286C31.3202 88.9885 31.4402 88.4384 31.5002 87.8983C31.5602 87.3583 31.6503 86.8982 31.7303 86.3681C31.8103 85.838 31.9003 85.3679 32.0003 84.7878C32.1503 83.9177 32.3304 83.0775 32.5304 82.2274C32.6404 81.6873 32.7804 81.1672 32.9105 80.6271C33.3839 78.7868 33.934 76.9799 34.5607 75.2062C34.6507 74.9462 34.7408 74.6962 34.8408 74.4461C34.9408 74.1961 35.0908 73.786 35.2208 73.4459C35.3509 73.1059 35.6009 72.4458 35.7909 72.0157C35.981 71.5856 36.191 71.0856 36.401 70.6255C37.645 67.8551 39.0926 65.1806 40.7318 62.6241C40.9118 62.3341 41.1018 62.044 41.3018 61.764C41.5019 61.484 41.7919 61.0039 42.062 60.6338C43.3401 58.7862 44.7226 57.013 46.2027 55.3229C51.3989 49.3578 57.6857 44.439 64.7258 40.8305C70.2161 38.0033 76.1043 36.0271 82.1887 34.9696C85.739 34.35 89.3364 34.0388 92.9404 34.0394C102.246 34.0199 111.435 36.1128 119.815 40.1604C121.035 40.7405 122.235 41.3506 123.406 42.0207L123.766 42.2208L123.906 42.3008C131.383 46.6274 137.878 52.4619 142.979 59.4336C146.685 64.4211 149.627 69.9324 151.71 75.7863L151.92 76.3764C151.99 76.5765 152.06 76.7865 152.12 76.9865C153.38 80.9153 154.247 84.959 154.711 89.0585C154.831 90.1887 154.931 91.3289 154.981 92.4891C155.031 93.6493 155.061 94.8095 155.061 95.9897Z" fill="url(#paint0_radial_979_17566)"/>
<g style="mix-blend-mode:multiply" opacity="0.2">
<path d="M155.061 95.99C155.061 97.4402 155.011 98.8805 154.901 100.301C154.738 100.996 154.393 101.634 153.901 102.151C152.993 102.934 151.891 103.456 150.71 103.661C149.01 104.041 147.229 104.211 145.499 104.461C143.388 104.737 141.308 105.216 139.288 105.892C135.457 107.192 131.715 108.742 128.086 110.532C124.27 112.44 120.327 114.081 116.284 115.443C114.124 116.153 111.874 116.593 109.693 117.273C108.693 117.594 107.633 117.834 106.603 118.074C105.162 118.424 103.792 118.884 102.372 119.204C100.532 119.624 98.7614 120.204 96.9211 120.624C94.8507 121.054 92.8104 121.824 90.72 122.134C89.0682 122.409 87.3914 122.503 85.7192 122.414C84.9891 122.354 84.269 122.254 83.5488 122.214C82.5487 122.144 81.5485 122.164 80.6184 122.094C79.2146 122.024 77.8074 122.095 76.4177 122.304C74.8454 122.546 73.2486 122.583 71.6669 122.414C70.1275 122.159 68.6096 121.788 67.1261 121.304C65.5549 120.851 63.9304 120.609 62.2953 120.584C61.6652 120.584 61.0351 120.704 60.415 120.754C59.7949 120.804 59.1048 120.844 58.4147 120.914C57.4335 121.009 56.4454 121.009 55.4642 120.914C53.9275 120.745 52.428 120.33 51.0234 119.684C49.4623 119.018 47.832 118.529 46.1626 118.224C44.6724 117.994 43.1621 117.434 41.6619 117.764C41.4135 117.802 41.163 117.826 40.9117 117.834C40.5817 117.834 40.2716 118.004 39.9116 118.044C39.5166 118.051 39.1278 118.143 38.7714 118.314C38.596 118.439 38.429 118.576 38.2713 118.724C38.1159 118.874 37.9487 119.011 37.7712 119.134C37.489 119.258 37.1982 119.362 36.9011 119.444C36.5069 119.598 36.0803 119.649 35.6609 119.594C32.5696 112.106 30.9858 104.081 31.0001 95.98C31.0001 95.4299 31.0001 94.8998 31.0001 94.3397C31.0001 93.7796 31.0001 93.4595 31.0001 93.0295C31.0001 92.8094 31.0001 92.5694 31.0001 92.3494C31.0534 91.3892 31.1334 90.439 31.2401 89.4989C31.2401 88.9588 31.3602 88.4087 31.4202 87.8686C31.4802 87.3285 31.5702 86.8684 31.6502 86.3384C31.7302 85.8083 31.8202 85.3382 31.9203 84.7581C32.0703 83.888 32.2503 83.0478 32.4503 82.1977C32.5604 81.6576 32.7004 81.1375 32.8304 80.5974C33.3038 78.7571 33.8539 76.9501 34.4807 75.1765C34.5707 74.9165 34.6607 74.6664 34.7607 74.4164C34.8607 74.1663 35.0108 73.7563 35.1408 73.4162C35.2708 73.0762 35.5208 72.416 35.7109 71.986C35.9009 71.5559 36.111 71.0558 36.321 70.5957C37.565 67.8253 39.0125 65.1509 40.6517 62.5944C40.8317 62.3044 41.0218 62.0143 41.2218 61.7343C41.4218 61.4542 41.7119 60.9741 41.9819 60.6041C43.26 58.7565 44.6425 56.9833 46.1226 55.2932C45.5925 56.5334 44.9224 57.8736 45.2325 59.2939C45.3118 59.6836 45.436 60.0629 45.6025 60.424C45.6319 60.4746 45.6554 60.5283 45.6725 60.5841C46.1826 59.824 46.6727 59.0438 47.2328 58.2937C47.9229 57.2935 48.583 56.2934 49.3332 55.3932C50.0833 54.4931 50.6934 53.903 51.3335 53.1628C51.5735 52.9128 52.1636 52.1627 52.5537 52.1627C52.6837 52.5827 52.2936 53.1628 52.1236 53.5129C51.8736 54.053 51.4635 54.5131 51.2535 55.0732C51.1935 55.2732 51.0834 55.6332 51.3735 55.6232C51.4913 55.557 51.6048 55.4835 51.7135 55.4032C52.0536 55.1632 52.3636 54.8931 52.7137 54.6431C53.1938 54.273 53.7139 53.973 54.204 53.6429C54.694 53.3129 55.5142 52.6428 56.2043 52.1827C58.0046 50.9025 59.8249 49.5623 61.7252 48.4321C63.7307 47.2501 65.7972 46.1751 67.9162 45.2115C69.0264 44.7014 70.1166 44.1514 71.2568 43.6813C72.1203 43.3424 73.0101 43.0748 73.9172 42.8811C74.6797 42.7347 75.4519 42.6444 76.2276 42.6111C76.8677 42.5511 77.5078 42.4811 78.1579 42.4811C78.808 42.4811 79.2681 42.3811 79.8382 42.3811C80.1762 42.3938 80.5116 42.4441 80.8384 42.5311C80.9284 42.5311 81.2685 42.5911 81.3385 42.6911C81.6385 43.1612 80.2883 43.0712 80.0883 43.1612C79.3306 43.6633 78.6414 44.2617 78.0379 44.9415C77.4578 45.4516 76.8577 45.8916 76.3076 46.4517C75.6977 46.9176 75.1932 47.5073 74.8274 48.182C74.7274 48.4421 74.5773 48.8221 74.7274 49.0822C74.8774 49.3422 75.3175 49.3222 75.6075 49.2722C76.4606 49.088 77.3021 48.8543 78.1279 48.5721C79.1781 48.242 80.2483 47.942 81.2784 47.5719C82.1665 47.2161 83.0929 46.9644 84.0389 46.8218C85.0391 46.7018 85.9292 46.5117 86.8794 46.3917C87.4285 46.3021 87.9834 46.252 88.5397 46.2417C89.0197 46.2417 89.4498 46.1017 89.9199 46.1117C90.78 46.1117 90.1399 47.0418 89.7198 47.2919C88.3962 48.1989 86.9286 48.8752 85.3791 49.2922C83.5774 49.5905 81.7967 50.0048 80.0483 50.5324C78.8281 50.9625 77.5678 51.3325 76.3576 51.8026C75.6975 52.0627 75.0574 52.3427 74.4173 52.6227C73.4972 53.0128 72.627 53.5129 71.7069 53.923C70.3021 54.6135 68.963 55.4303 67.7062 56.3634C66.496 57.1735 65.3658 58.0837 64.2056 58.9638C63.1815 59.7388 62.2216 60.595 61.3352 61.5242C60.502 62.3346 59.8241 63.2904 59.3348 64.3447C58.753 65.4711 58.3834 66.6951 58.2446 67.9553C58.2485 68.4564 58.3678 68.9499 58.5933 69.3974C58.8188 69.8449 59.1444 70.2345 59.5448 70.5357C60.4535 71.2298 61.545 71.6435 62.6854 71.7259C63.472 71.7427 64.2586 71.6892 65.0358 71.5659C66.1382 71.2493 67.261 71.0087 68.3963 70.8458C69.6326 70.7223 70.8769 70.6989 72.1169 70.7758C73.535 70.9073 74.9228 71.2653 76.2276 71.8359C77.4819 72.5093 78.6823 73.2783 79.8182 74.1363C81.4279 75.2751 82.9339 76.5536 84.319 77.957C85.1091 78.7071 85.7992 79.5372 86.6394 80.2173C87.2794 80.7677 87.9471 81.2851 88.6397 81.7676C90.2492 82.8155 92.0297 83.5738 93.9006 84.008C95.3977 84.4728 96.9897 84.5417 98.5213 84.208C99.6315 83.8979 100.622 83.3179 101.732 83.0278C102.409 82.8678 103.115 82.8678 103.792 83.0278C104.835 83.2434 105.898 83.3441 106.963 83.3279C107.503 83.3279 108.033 83.2478 108.583 83.2078C109.128 83.1882 109.672 83.2592 110.193 83.4179C110.573 83.5079 111.123 83.7379 110.643 84.148C110.163 84.5581 109.003 84.448 108.343 84.448C107.178 84.4046 106.011 84.4514 104.852 84.5881C104.442 84.6581 103.242 84.8281 103.162 85.3782C103.062 86.0883 104.802 86.0583 105.162 86.0083C106.223 85.8583 107.293 85.7683 108.353 85.6883C109.665 85.7014 110.973 85.8252 112.264 86.0583C113.564 86.1883 114.824 86.5884 116.134 86.6684C116.695 86.6664 117.254 86.589 117.795 86.4384C118.68 86.2429 119.554 86.0026 120.415 85.7183C121.865 85.2682 123.265 84.7181 124.746 84.428C126.029 84.1579 127.354 84.1579 128.636 84.428C129.266 84.5481 129.927 84.6381 130.567 84.7281C131.207 84.8181 131.857 84.7881 132.487 84.8681C134.328 84.9434 136.16 84.562 137.818 83.7579C139.713 82.7967 141.656 81.9321 143.639 81.1675C144.94 80.7724 146.282 80.5274 147.639 80.4374C147.964 80.3459 148.303 80.312 148.64 80.3374C148.81 80.3374 148.94 80.4974 149.1 80.5374C149.52 80.6674 149.6 80.3774 149.74 80.0573C149.917 79.7699 150.071 79.469 150.2 79.1572C150.29 78.8471 150.37 78.5171 150.48 78.157C150.59 77.7969 150.58 77.4169 150.71 77.0468C150.8 76.8468 151.37 75.8266 151.6 75.7966C151.75 75.8466 151.76 76.1667 151.77 76.3867C151.78 76.6067 151.77 76.5067 151.77 76.5467C151.789 76.71 151.851 76.8653 151.95 76.9968C153.267 80.9164 154.191 84.9568 154.711 89.0588C154.231 88.9088 153.71 88.7488 153.29 88.6287C152.59 88.4487 151.87 88.3687 151.16 88.2387C150.45 88.1086 149.86 87.9486 149.21 87.8686C147.808 87.7754 146.403 88.0118 145.109 88.5587C144.463 88.7808 143.834 89.0516 143.229 89.3689C142.659 89.6689 142.089 89.969 141.498 90.229C140.908 90.489 140.268 90.7391 139.618 90.9691C138.618 91.2992 137.758 91.7893 136.788 92.1393C135.287 92.6594 133.787 93.4295 132.297 93.7996C130.896 94.1964 129.458 94.4511 128.006 94.5597C126.746 94.6397 125.466 94.2997 124.196 94.4697C123.696 94.5397 123.195 94.7098 122.725 94.7998C122.311 94.9179 121.89 95.0114 121.465 95.0798C120.785 95.0798 120.125 95.1398 119.465 95.2098C118.345 95.3298 117.244 95.4299 116.124 95.4399C115.288 95.4564 114.453 95.5232 113.624 95.6399C112.844 95.7499 112.074 95.7799 111.293 95.8999C110.527 96.0016 109.779 96.2138 109.073 96.5301C108.883 96.6201 108.383 96.8501 108.423 97.1202C108.463 97.3902 108.723 97.4402 108.883 97.5002C109.431 97.6781 110.01 97.7428 110.583 97.6903C111.069 97.6835 111.553 97.6467 112.034 97.5802C112.704 97.5202 113.374 97.5802 114.034 97.5302C116.162 97.3506 118.306 97.5298 120.375 98.0603C121.664 98.3547 122.995 98.4157 124.306 98.2403C126.116 97.9803 127.846 97.4102 129.647 97.1202C132.807 96.6101 135.968 96.02 139.088 95.3899C140.598 95.0998 142.039 94.5897 143.549 94.3297L145.549 93.9496C146.469 93.7596 147.419 93.7196 148.35 93.5896C149.74 93.3995 151.07 92.9094 152.46 92.7394C153.31 92.6294 154.151 92.5294 154.991 92.4894C155.021 93.6396 155.061 94.8098 155.061 95.99Z" fill="#312C2F"/>
</g>
<g style="mix-blend-mode:multiply" opacity="0.2">
<path d="M142.51 133.397C133.131 145.816 119.418 154.246 104.103 157.011C104.089 156.98 104.069 156.953 104.043 156.931C103.203 156.051 102.283 155.271 101.373 154.45C100.385 153.508 99.3426 152.623 98.2524 151.8C96.2627 150.425 94.1956 149.166 92.0613 148.029C89.8695 146.685 87.5473 145.566 85.1302 144.689C83.8031 144.22 82.4508 143.826 81.0795 143.509C79.3793 143.179 77.619 143.108 75.8987 142.908C70.4455 142.213 64.9055 142.763 59.696 144.519C58.6165 144.873 57.5637 145.305 56.5455 145.809L56.3254 145.929C48.6081 140.245 42.304 132.86 37.9023 124.345C38.4466 124.13 39.0194 123.995 39.6026 123.945C40.0627 123.945 40.5228 123.945 40.9829 123.945C41.7994 124.046 42.5956 124.272 43.3433 124.615C45.3673 125.483 47.566 125.867 49.7643 125.736C50.3207 125.684 50.8723 125.59 51.4146 125.456C51.9247 125.316 52.4148 125.055 52.9249 124.965C53.6635 124.9 54.4065 124.9 55.1452 124.965C55.7358 125.028 56.3209 125.135 56.8955 125.286C57.4256 125.376 57.9657 125.416 58.5058 125.516C59.0599 125.666 59.6251 125.773 60.1961 125.836C62.058 125.829 63.9038 125.49 65.647 124.835C66.5335 124.583 67.4465 124.435 68.3674 124.395C70.7578 124.125 72.9982 124.965 75.2486 125.676C76.5226 126.01 77.8321 126.192 79.1492 126.216C80.4963 126.329 81.8483 126.372 83.1999 126.346C85.2807 126.284 87.357 126.117 89.4209 125.846C90.2511 125.756 91.0812 125.636 91.8913 125.466C93.4216 125.166 94.9618 124.945 96.4921 124.655C100.262 123.931 103.988 122.996 107.654 121.855C109.254 121.345 110.814 120.705 112.425 120.195C113.082 119.991 113.749 119.824 114.425 119.695C115.075 119.486 115.775 119.486 116.425 119.695C116.525 119.725 116.616 119.776 116.694 119.845C116.772 119.914 116.833 119.999 116.875 120.094C116.917 120.189 116.938 120.291 116.936 120.395C116.934 120.499 116.91 120.601 116.865 120.695C116.655 121.125 115.965 121.475 115.585 121.695C115.003 121.991 114.389 122.219 113.755 122.375C112.585 122.775 111.425 123.245 110.254 123.635C109.544 123.875 108.814 123.995 108.094 124.165C107.256 124.383 106.434 124.657 105.634 124.985C104.923 125.266 104.323 125.716 103.583 125.986C102.583 126.356 101.583 126.626 100.583 126.986C98.0624 127.986 95.702 129.426 93.0215 129.986C92.1614 130.189 91.3133 130.439 90.4811 130.736C90.101 130.856 89.4809 131.076 89.4809 131.607C89.4809 132.407 90.6411 132.667 91.2012 132.797C92.0814 133.007 92.9215 133.337 93.8017 133.547C94.3875 133.708 94.9492 133.947 95.4719 134.257C96.2575 134.67 97.0904 134.986 97.9523 135.197C99.8753 135.699 101.856 135.944 103.843 135.927C106.594 135.817 109.304 135.267 112.065 135.427C113.24 135.528 114.403 135.746 115.535 136.077C116.645 136.367 117.756 136.557 118.896 136.737C121.854 137.129 124.847 137.186 127.817 136.907C129.925 136.756 132.02 136.466 134.088 136.037C135.538 135.861 136.963 135.526 138.339 135.037C138.969 134.777 139.629 134.647 140.259 134.347C140.639 134.157 140.979 134.007 141.37 133.847C141.741 133.675 142.121 133.525 142.51 133.397Z" fill="#282527"/>
</g>
<g style="mix-blend-mode:multiply" opacity="0.2">
<path d="M151.889 115.622C151.138 117.853 150.263 120.04 149.268 122.173L149.118 122.253C148.384 122.64 147.71 123.132 147.118 123.714C146.64 124.142 146.105 124.502 145.528 124.784C145.148 124.974 144.808 125.224 144.427 125.404C144.047 125.584 143.617 125.864 143.217 126.084C142.582 126.503 141.983 126.975 141.427 127.494C141.217 127.674 141.037 127.884 140.817 128.064C140.597 128.244 140.467 128.314 140.307 128.464C139.977 128.764 139.667 129.084 139.307 129.354C138.565 129.923 137.763 130.409 136.916 130.805C136.365 131.048 135.797 131.248 135.216 131.405C134.566 131.605 133.936 131.775 133.296 131.925C132.655 132.075 132.035 132.305 131.405 132.505C130.715 132.711 130.009 132.862 129.295 132.955C128.175 133.115 127.055 133.075 125.944 133.325C125.364 133.435 124.804 133.625 124.214 133.755C123.624 133.885 123.094 134.065 122.514 134.145C121.519 134.289 120.508 134.289 119.513 134.145C119.181 134.107 118.847 134.087 118.513 134.085C118.293 134.085 118.073 134.025 117.843 134.025L117.453 134.025C116.516 133.91 115.569 133.91 114.632 134.025C113.682 134.115 112.722 134.165 111.782 134.215C111.32 134.261 110.854 134.261 110.392 134.215C109.849 134.17 109.304 134.17 108.762 134.215C107.575 134.279 106.386 134.222 105.211 134.045C105.225 133.605 105.4 133.186 105.701 132.865C105.791 132.725 105.801 132.615 105.961 132.525C106.146 132.426 106.34 132.346 106.541 132.285C106.676 132.216 106.817 132.159 106.961 132.115C107.291 132.036 107.625 131.976 107.961 131.935C108.32 131.849 108.684 131.789 109.052 131.755C109.472 131.755 109.902 131.755 110.322 131.755L111.402 131.815C112.077 131.858 112.747 131.965 113.402 132.135C114.042 132.315 114.693 132.525 115.403 132.685C117.453 133.175 119.513 133.955 121.634 133.505C121.904 133.445 122.144 133.425 122.394 133.355C122.874 133.255 123.294 133.045 123.764 132.935C124.978 132.716 126.18 132.432 127.365 132.085C127.903 131.904 128.43 131.694 128.945 131.455C129.435 131.205 129.865 130.875 130.365 130.655C130.865 130.435 131.365 130.165 131.855 129.945L133.296 129.314C134.444 128.813 135.566 128.252 136.656 127.634C137.674 127.025 138.656 126.357 139.597 125.634C140.727 124.804 141.777 123.864 142.937 123.073C143.769 122.521 144.631 122.013 145.518 121.553C146.116 121.319 146.668 120.98 147.148 120.553C147.583 119.95 147.977 119.319 148.328 118.663C148.746 118.018 149.287 117.461 149.918 117.022C150.218 116.802 150.548 116.612 150.849 116.382C151.149 116.152 151.539 115.902 151.889 115.622Z" fill="#470024"/>
</g>
<g style="mix-blend-mode:multiply" opacity="0.2">
<path d="M131.708 45.6413C131.708 45.7313 131.758 45.8413 131.788 45.9414C131.708 46.0114 131.648 45.9614 131.708 45.6413Z" fill="#470024"/>
</g>
<g style="mix-blend-mode:multiply" opacity="0.2">
<path d="M147.442 66.2352C146.14 67.5055 144.614 68.5229 142.941 69.2357C140.62 70.2358 138.06 69.9458 135.63 70.2358C135.17 70.2858 134.819 70.5259 134.379 70.5859C133.939 70.6459 133.489 70.5059 133.059 70.5859C132.011 70.7689 130.952 70.8858 129.889 70.936C128.408 70.936 127.078 71.276 125.598 71.276C124.118 71.276 122.097 71.6661 120.807 71.206C120.937 70.5659 122.807 70.2659 123.418 70.0258C124.612 69.5424 125.889 69.2945 127.178 69.2957C127.938 69.2957 128.578 69.0056 129.329 68.9356C130.079 68.8656 130.639 69.0156 131.329 68.8856C132.019 68.7556 133.979 68.3455 133.769 67.2854C133.562 66.9169 133.302 66.5801 132.999 66.2852C132.635 65.9967 132.206 65.8011 131.749 65.7151C130.919 65.5351 130.369 65.5951 131.169 64.7149C131.689 64.1448 132.279 63.2047 131.089 62.9346C130.185 62.8769 129.278 63.0098 128.428 63.3247C127.984 63.3166 127.54 63.3333 127.098 63.3747C126.668 63.4747 126.218 63.7748 125.788 63.8848C125.358 63.9948 124.678 63.8848 124.108 64.0448C123.542 64.1884 122.961 64.2656 122.377 64.2749C120.147 64.3449 117.817 65.7351 115.576 65.215L112.856 64.6049C111.506 64.3149 109.925 64.7949 108.615 64.965C106.925 65.185 105.245 65.355 103.534 65.6151C102.534 65.7751 101.314 66.2652 100.344 65.8851C100.724 65.4851 101.674 65.435 102.194 65.285C103.614 64.925 105.095 64.6449 106.525 64.3749C107.955 64.1048 109.675 63.8848 111.226 63.7048C112.226 63.5647 113.306 63.7648 114.296 63.5947C117.148 63.2244 119.949 62.5367 122.647 61.5444C125.198 60.5442 127.138 58.2739 129.099 56.3335C130.229 55.3973 131.178 54.2617 131.899 52.983C132.198 52.2274 132.455 51.4561 132.669 50.6726C132.837 49.8562 132.781 49.0098 132.509 48.2222C138.589 53.2197 143.658 59.3338 147.442 66.2352Z" fill="#470024"/>
</g>
<g style="mix-blend-mode:multiply" opacity="0.2">
<path d="M38.8527 70.4459C39.3879 68.9491 40.082 67.514 40.9231 66.1652C41.1883 65.9136 41.4725 65.6829 41.7732 65.4751C42.2033 65.095 42.7734 63.9848 43.4735 63.9748C44.3437 63.9748 43.2635 65.305 44.3237 65.235C45.3838 65.165 46.274 63.9848 47.1241 63.4547C47.5879 63.1392 48.1335 62.9654 48.6944 62.9546C49.1645 63.0847 49.0044 63.2347 49.0845 63.7048C49.4768 63.6517 49.8344 63.4515 50.0846 63.1447C50.747 62.3968 51.5153 61.7498 52.365 61.2243C52.8151 60.9743 54.6554 59.7441 55.2455 60.2842C55.8356 60.8243 54.1353 62.7646 53.9153 63.0346C52.9026 64.3432 52.1922 65.8598 51.8349 67.4754C51.2748 69.8758 53.1551 72.7063 55.2155 73.7364C55.7455 73.9965 56.2156 74.3565 56.6957 74.6666C57.3916 75.0684 58.1537 75.3428 58.9461 75.4767C60.7171 76.0553 62.5205 76.5296 64.347 76.897C66.288 77.0928 68.2475 76.9917 70.1579 76.5969C70.6099 76.379 71.1006 76.253 71.6016 76.2261C72.1026 76.1993 72.604 76.2722 73.0766 76.4406C73.5492 76.609 73.9837 76.8695 74.3548 77.2071C74.726 77.5447 75.0265 77.9526 75.2388 78.4072C75.8794 79.0545 76.6146 79.6008 77.4192 80.0275C78.3593 80.6476 79.4195 81.0877 80.4197 81.6377C81.0498 81.9978 81.5899 82.4679 82.21 82.8279C82.82 83.0815 83.3922 83.4181 83.9102 83.8281C84.3437 84.1529 84.7014 84.5679 84.9587 85.0446C85.216 85.5212 85.3668 86.048 85.4005 86.5886C85.4005 87.2887 84.8404 87.3487 84.4803 87.8788C85.3205 88.5189 86.4107 88.6089 87.2408 89.189C87.5008 89.359 88.241 89.6691 88.1109 90.0591C87.9309 90.6993 86.1106 90.5592 85.7805 90.5592C82.1799 90.5592 78.5694 90.4492 74.9788 90.5592C73.7141 90.5944 72.4553 90.745 71.2181 91.0093C70.9918 91.0245 70.7714 91.0877 70.5714 91.1946C70.3714 91.3015 70.1963 91.4497 70.0579 91.6294C70.6907 92.0771 71.4433 92.3245 72.2183 92.3395C74.0586 92.5696 75.8689 93.0396 77.7092 93.3397C79.5495 93.6397 81.0098 94.3399 82.7101 94.7899C83.4002 94.95 84.0703 95.19 84.7604 95.35C85.6672 95.4965 86.5826 95.5834 87.5008 95.6101C91.2314 95.9501 95.0021 95.08 98.7527 95.09C100.153 95.107 101.553 95.0335 102.943 94.8699C104.179 94.7016 105.391 94.3895 106.554 93.9398C107.274 93.6898 108.014 93.5797 108.744 93.3597C109.475 93.1397 110.185 92.8296 110.935 92.6496C112.244 92.3189 113.586 92.1377 114.935 92.1095C116.136 92.1095 117.286 92.4295 118.486 92.3395C120.396 92.1895 122.077 91.4194 123.947 91.1693C127.352 90.6879 130.684 89.7876 133.869 88.4889C135.128 88.0429 136.438 87.7573 137.769 87.6387C138.139 87.5887 138.459 87.4087 138.829 87.3687C139.162 87.3899 139.496 87.3899 139.83 87.3687C140.516 87.1598 141.164 86.8424 141.75 86.4285C142.587 85.8029 143.466 85.2348 144.38 84.7283C145.38 84.3082 146.471 84.0881 147.491 83.7281C147.891 83.5981 148.281 83.408 148.681 83.288C149.081 83.168 149.371 83.228 149.581 83.028C148.811 83.5417 147.958 83.9205 147.061 84.1482C146.19 84.4774 145.369 84.925 144.62 85.4784C144.21 85.9094 143.758 86.2981 143.27 86.6386C142.226 87.4685 141.067 88.1424 139.83 88.6389C137.759 89.199 135.779 90.0792 133.689 90.6392C131.598 91.1993 129.418 91.5194 127.307 91.9795C122.818 92.9436 118.276 93.6449 113.705 94.0798C111.878 94.2517 110.066 94.5592 108.284 95C107.584 95.18 107.044 95.5901 106.334 95.7601C105.464 95.9701 104.644 96.2802 103.794 96.5602C102.063 97.1503 100.333 97.6404 98.6227 98.3105C97.7426 98.6606 96.1823 98.6606 95.8422 99.7308C96.5236 100.067 97.2937 100.179 98.0426 100.051C98.618 100.106 99.1974 100.106 99.7729 100.051C100.459 99.8697 101.129 99.6287 101.773 99.3307C102.403 99.0506 102.993 98.8106 103.644 98.5806C104.294 98.3505 104.554 98.0605 105.254 98.0705C105.651 98.1133 106.052 98.0964 106.444 98.0205C106.784 97.9204 106.984 97.7104 107.444 97.8704C107.284 98.2305 106.514 98.5206 106.164 98.7006C105.814 98.8806 105.224 98.9606 104.784 99.3707C104.344 99.7808 104.104 100.051 104.784 100.371C105.665 100.637 106.595 100.698 107.504 100.551C110.195 100.481 112.775 99.3607 115.505 99.9108C117.036 100.221 118.506 100.601 120.056 100.911C121.905 101.207 123.786 101.255 125.647 101.051C127.497 100.831 129.288 100.271 131.148 100.101C132.148 100.001 133.148 99.7207 134.149 99.5407C135.439 99.2907 136.739 99.0906 138.029 98.8506C139.64 98.5606 141.26 98.1705 142.87 97.9105C144.11 97.7004 145.37 97.6304 146.611 97.4204C147 97.352 147.396 97.3285 147.791 97.3504C148.231 97.3504 148.081 97.4804 148.381 97.5504C148.787 97.6434 149.184 97.7671 149.571 97.9205C149.951 98.0805 150.711 98.0205 150.791 98.5406C148.031 100.481 144.15 100.691 141 101.541C138.859 102.141 136.769 102.871 134.659 103.541C132.148 104.332 129.658 105.032 127.117 105.832C124.577 106.632 122.437 107.492 120.116 108.272C118.176 108.912 116.316 109.692 114.355 110.272C113.355 110.553 112.445 111.033 111.455 111.343C110.465 111.653 109.524 111.913 108.564 112.273C107.752 112.561 106.924 112.805 106.084 113.003C104.984 113.283 104.014 113.753 102.953 114.113C101.893 114.473 100.733 114.623 99.6729 115.053C98.8437 115.446 97.9881 115.78 97.1124 116.053C95.7022 116.434 94.302 116.764 92.8817 117.054C91.8816 117.284 90.8814 117.744 89.8812 117.934C88.7427 118.113 87.5931 118.213 86.4407 118.234C85.3505 118.234 84.3203 118.484 83.2101 118.484C82.2797 118.439 81.3473 118.459 80.4197 118.544C78.909 118.713 77.3884 118.776 75.8689 118.734L74.1386 118.734C73.4962 118.82 72.8441 118.799 72.2083 118.674C72.2883 118.464 73.2985 118.364 73.6485 118.294C74.3117 118.208 74.9818 118.188 75.6489 118.234C76.3493 118.267 77.0512 118.25 77.7492 118.184C78.5393 118.064 79.3795 118.094 80.1696 117.934C81.325 117.776 82.4704 117.552 83.6002 117.264C84.2703 117.064 84.7704 116.644 85.4105 116.414C85.9488 116.26 86.4968 116.143 87.0508 116.063C87.9148 115.851 88.7895 115.684 89.6712 115.563C90.1713 115.493 90.6714 115.563 91.1815 115.453C91.9706 115.301 92.7415 115.066 93.4818 114.753C94.8121 114.293 96.0322 113.813 97.3125 113.253C98.0085 113.01 98.6268 112.586 99.1028 112.023C100.003 110.753 97.8625 111.023 97.1924 111.163C95.383 111.776 93.5218 112.225 91.6315 112.503C90.7914 112.573 89.9913 112.703 89.1511 112.753C88.091 112.813 87.1508 113.023 86.0406 113.013C84.9304 113.003 84.1003 113.223 83.1101 113.273C81.7199 113.273 80.3396 113.443 78.9494 113.563C77.3892 113.703 75.8589 114.023 74.3186 114.203C73.1584 114.343 72.0083 114.373 70.8481 114.533C69.1478 114.773 67.5075 115.223 65.8472 115.533C64.9071 115.713 63.9769 115.993 63.0468 116.163C62.0445 116.287 61.0281 116.23 60.0463 115.993C58.366 115.713 56.6857 115.593 55.0454 115.173C52.7343 114.548 50.6096 113.371 48.8544 111.743C47.2107 110.193 45.1422 109.17 42.9134 108.802C41.147 108.59 39.3555 108.81 37.6926 109.442C36.4072 109.884 35.049 110.074 33.6919 110.002C32.0716 109.912 32.9317 108.532 32.9618 107.452C33.0318 104.652 32.9618 101.851 33.2518 99.0606C33.3418 98.1205 34.252 89.6691 35.6422 90.3692C35.7743 91.03 35.8678 91.6979 35.9223 92.3695C35.9823 92.9396 36.4423 93.2397 36.4923 93.7698C36.9024 93.7698 37.2925 92.1095 37.3725 91.7694C37.6825 90.4592 38.0326 89.169 38.3026 87.8488C38.6606 86.2075 38.7785 84.523 38.6527 82.8479C38.6548 82.2077 38.493 81.5776 38.1826 81.0176C37.8826 80.5976 37.6825 80.6776 37.1825 80.6676C36.3223 80.6676 35.9423 79.6674 35.9322 78.9373C35.9515 77.6458 36.2269 76.371 36.7424 75.1867C37.1925 74.0665 37.7426 72.9863 38.1526 71.8261C38.2026 71.406 38.6927 70.2559 38.8527 70.4459Z" fill="#262626"/>
</g>
<g style="mix-blend-mode:multiply" opacity="0.2">
<path d="M137.709 139.006C132.155 144.766 125.544 149.402 118.235 152.659C117.093 152.251 115.914 151.956 114.715 151.779C113.995 151.779 112.524 151.728 111.954 151.108C111.384 150.488 112.955 150.378 113.405 150.288C113.855 150.198 115.045 150.288 115.225 149.558C115.645 147.988 110.224 147.478 109.224 147.238C107.576 146.925 105.9 146.787 104.223 146.828C103.231 146.79 102.249 146.619 101.303 146.318C100.382 146.018 99.4723 145.848 98.5521 145.567C96.7414 145.005 94.8835 144.606 93.0012 144.377C92.7011 144.377 90.6108 144.207 90.5508 143.887C91.5647 143.543 92.6049 143.282 93.6613 143.107C94.0814 143.037 94.2314 143.197 94.5614 143.277C94.8915 143.357 95.4316 143.387 95.8817 143.507C100.222 144.471 104.674 144.835 109.114 144.587C109.704 144.587 110.204 144.347 110.784 144.327C111.364 144.307 111.714 144.327 112.174 144.327C113.648 144.332 115.116 144.134 116.535 143.737C117.795 143.387 119.156 143.207 120.386 142.837C120.776 142.717 122.056 142.587 122.106 142.127C121.367 142.017 120.615 142.017 119.876 142.127C118.767 142.163 117.657 142.12 116.555 141.997C115.255 141.827 113.955 141.857 112.654 141.687C111.811 141.705 110.978 141.494 110.244 141.077C110.604 140.587 111.644 140.487 112.194 140.387C113.375 140.177 114.585 140.057 115.765 139.887C118.765 139.476 121.766 139.326 124.766 139.176C126.387 139.096 128.027 138.806 129.657 138.876C130.917 138.876 132.138 139.166 133.398 139.146C134.398 139.146 135.328 139.146 136.288 139.146C136.765 139.143 137.24 139.096 137.709 139.006Z" fill="#470024"/>
</g>
<g style="mix-blend-mode:soft-light" opacity="0.5">
<g style="mix-blend-mode:soft-light" opacity="0.5">
<path d="M62.6952 79.0275C62.5152 80.0277 62.0351 81.1879 62.5552 82.148C62.8353 82.5838 63.2549 82.9117 63.7454 83.0782C65.0703 83.8577 66.6043 84.2071 68.1361 84.0784C69.3594 83.9387 70.5519 83.6009 71.6667 83.0782C72.3944 82.5556 72.8896 81.7698 73.0469 80.8878C73.215 80.5045 73.2451 80.0748 73.1321 79.6718C73.019 79.2688 72.7698 78.9174 72.4268 78.6775C72.2068 78.5674 72.0168 78.3874 71.7867 78.2974C71.4197 78.2026 71.0447 78.1423 70.6665 78.1174C69.8359 78.0325 69.0007 78.0024 68.1661 78.0274C67.586 78.0274 67.0159 78.0274 66.4358 78.0274C65.9228 78.0649 65.416 78.1622 64.9256 78.3174C64.1555 78.5174 63.1953 78.4774 62.6952 79.0275Z" fill="white"/>
</g>
<g style="mix-blend-mode:soft-light" opacity="0.5">
<path d="M73.6973 82.389C74.0883 81.9895 74.5246 81.637 74.9975 81.3389C75.2875 81.5689 75.7576 81.6189 75.9076 81.989C75.9968 82.1319 76.0345 82.3011 76.0145 82.4684C75.9944 82.6357 75.918 82.7912 75.7976 82.9091C75.6763 83.0501 75.5199 83.1566 75.3444 83.2181C75.1688 83.2795 74.9802 83.2937 74.7975 83.2592C74.4174 83.1692 73.8673 82.9991 73.7973 82.539L73.6973 82.389Z" fill="white"/>
</g>
<g style="mix-blend-mode:soft-light" opacity="0.5">
<path d="M69.5785 84.8677C70.1536 84.5463 70.7602 84.2848 71.3888 84.0876C71.7088 84.0076 71.9789 83.8276 72.3089 83.7575C72.6207 83.6835 72.9389 83.6399 73.2591 83.6275C73.6792 83.6275 73.8792 83.5575 74.1793 83.8776C74.4006 84.1072 74.5983 84.3585 74.7694 84.6277C74.8903 84.7608 74.9764 84.9218 75.0201 85.0963C75.0637 85.2709 75.0635 85.4534 75.0194 85.6278C74.8911 86.11 74.6354 86.5487 74.2793 86.8981C73.7133 87.4508 73.0294 87.868 72.2789 88.1183C71.4754 88.5163 70.5949 88.7347 69.6985 88.7584C69.2737 88.6641 68.856 88.5405 68.4483 88.3883C67.8082 88.2283 67.1481 88.2283 66.508 88.1183C65.8679 88.0082 64.9777 87.6082 65.2378 86.778C65.4718 86.3452 65.8015 85.9715 66.2019 85.6855C66.6024 85.3995 67.0628 85.2087 67.5481 85.1278C67.9182 85.0478 68.2883 85.0078 68.6683 84.9377C68.969 84.8872 69.2736 84.8638 69.5785 84.8677Z" fill="white"/>
</g>
<g style="mix-blend-mode:soft-light" opacity="0.5">
<path d="M77.0375 83.5084C76.6838 83.9097 76.4483 84.4014 76.3574 84.9286C76.5174 84.9286 76.5974 85.0086 76.7475 85.0086C76.8587 84.992 76.9666 84.9582 77.0675 84.9086C77.3576 84.7986 77.5676 84.7586 77.6476 84.4385C77.6782 84.3379 77.6887 84.2322 77.6784 84.1275C77.6681 84.0228 77.6373 83.9212 77.5876 83.8284C77.3937 83.6687 77.1636 83.5588 76.9175 83.5084L77.0375 83.5084Z" fill="white"/>
</g>
<g style="mix-blend-mode:soft-light" opacity="0.5">
<path d="M83.8783 96.8108C81.748 96.481 79.601 96.2707 77.4472 96.1806C75.0163 96.2372 72.6745 97.107 70.7961 98.6511C70.036 99.3012 69.1659 99.9513 69.1759 101.051C69.1993 101.413 69.3109 101.764 69.5009 102.072C69.691 102.381 69.9537 102.638 70.266 102.822C71.2872 103.475 72.4194 103.936 73.6066 104.182C74.7508 104.521 75.9219 104.762 77.1072 104.902C78.2002 105.032 79.3047 105.032 80.3977 104.902C81.5365 104.713 82.6573 104.429 83.7483 104.052C84.6724 103.864 85.5049 103.366 86.1087 102.642C86.4293 102.154 86.6061 101.585 86.6188 101.001C86.6188 99.7913 86.7188 98.6311 85.8186 97.7109C85.581 97.4278 85.284 97.2003 84.9487 97.0448C84.6134 96.8892 84.2479 96.8093 83.8783 96.8108Z" fill="white"/>
</g>
<g style="mix-blend-mode:soft-light" opacity="0.5">
<path d="M89.3496 96.9396C89.5164 97.4737 89.7809 97.9722 90.1297 98.4098C90.3998 98.1498 91.1299 98.2998 91.44 98.2998C91.7532 98.2901 92.0647 98.2498 92.3701 98.1798C92.8902 98.0898 93.5803 98.0297 93.5803 97.3696C93.5803 96.5495 92.6602 96.4295 92.03 96.4395C91.1599 96.4395 90.2498 96.2595 89.5997 96.9396L89.3496 96.9396Z" fill="white"/>
</g>
<g style="mix-blend-mode:soft-light" opacity="0.5">
<path d="M70.4453 105.642C71.2755 105.762 72.0856 105.852 72.9057 105.912C73.7283 105.952 74.5454 106.07 75.3461 106.262C75.5755 106.285 75.7969 106.359 75.9942 106.479C76.1914 106.598 76.3596 106.76 76.4863 106.952C76.6264 107.203 76.7264 107.353 76.6063 107.633C76.3584 108.01 75.9755 108.278 75.5362 108.383C74.9185 108.66 74.2797 108.887 73.6258 109.063C72.2669 109.47 70.8625 109.705 69.4452 109.763C69.076 109.759 68.7134 109.665 68.3879 109.491C68.0623 109.317 67.7835 109.067 67.5748 108.763C67.3968 108.48 67.2925 108.157 67.2715 107.823C67.2505 107.489 67.3136 107.156 67.4548 106.852C67.6217 106.481 67.8929 106.166 68.2357 105.945C68.5784 105.725 68.9778 105.61 69.3851 105.612C69.6838 105.605 69.9815 105.649 70.2653 105.742C70.4553 105.832 70.8054 105.852 70.4453 105.642Z" fill="white"/>
</g>
<g style="mix-blend-mode:soft-light" opacity="0.5">
<path d="M35.3714 102.782C35.1853 104.017 35.0984 105.264 35.1114 106.513C35.1042 106.768 35.1586 107.021 35.2701 107.251C35.3815 107.481 35.5466 107.68 35.7515 107.833C36.3577 108.085 37.0325 108.121 37.6618 107.933C38.4311 107.635 39.1602 107.242 39.8322 106.763C40.2776 106.437 40.6605 106.034 40.9623 105.573C41.4983 104.82 41.8417 103.948 41.9625 103.032C42.1408 101.992 42.1744 100.931 42.0625 99.8816C41.9135 98.8825 41.6062 97.9136 41.1523 97.0111C41.0333 96.5881 40.7652 96.2223 40.3975 95.9815C40.0298 95.7407 39.5874 95.641 39.152 95.7009C38.3738 95.8619 37.6315 96.1636 36.9616 96.5911C36.5036 96.8821 36.1309 97.2893 35.8815 97.7713C35.6601 98.2191 35.4954 98.6929 35.3914 99.1815C35.2784 99.5884 35.1948 100.003 35.1414 100.422C34.9777 101.214 35.0579 102.037 35.3714 102.782Z" fill="white"/>
</g>
<g style="mix-blend-mode:soft-light" opacity="0.5">
<path d="M38.8527 93.0796C38.7327 92.5095 38.3827 91.6794 38.6427 91.0793C38.6927 90.9793 38.7927 90.8392 38.8527 90.7392C38.9029 90.634 38.9754 90.541 39.0652 90.4667C39.155 90.3924 39.26 90.3386 39.3728 90.3092C39.9729 90.2192 40.503 90.8293 40.613 91.3093C40.7732 91.8544 40.7232 92.4396 40.473 92.9496C40.273 93.2497 39.4728 93.5997 39.2228 93.2497L38.8527 93.0796Z" fill="white"/>
</g>
<g style="mix-blend-mode:soft-light" opacity="0.5">
<path d="M40.2232 88.1084C40.0932 86.4981 39.5131 84.5678 40.5933 83.1075C40.9533 82.6175 41.5335 81.8673 42.2336 81.9573C42.6536 82.0174 43.0637 82.4974 43.3338 82.7975C43.7372 83.2761 44.0338 83.8354 44.2039 84.4378C44.4167 84.9406 44.5483 85.474 44.594 86.018C44.5851 86.6519 44.4736 87.2801 44.2639 87.8783C44.1211 88.2722 43.8941 88.6302 43.5987 88.9273C43.3033 89.2244 42.9466 89.4535 42.5536 89.5986C42.2822 89.6695 41.9984 89.6784 41.7232 89.6247C41.4479 89.5711 41.1882 89.4562 40.9633 89.2886C40.7605 89.1587 40.5889 88.9856 40.4609 88.7815C40.3329 88.5774 40.2517 88.3476 40.2232 88.1084Z" fill="white"/>
</g>
<g style="mix-blend-mode:soft-light" opacity="0.5">
<path d="M39.1027 80.2671C39.215 80.797 39.4363 81.2977 39.7528 81.7373C39.9128 81.6073 40.1328 81.6273 40.3129 81.5473C40.552 81.4529 40.7575 81.2892 40.903 81.0772C40.9953 80.9411 41.0574 80.7867 41.085 80.6245C41.1126 80.4623 41.1051 80.2961 41.063 80.1371C40.963 79.837 40.4629 79.487 40.2129 79.2969C39.6828 78.9069 39.3627 79.3769 38.9727 79.767L39.1027 80.2671Z" fill="white"/>
</g>
<g style="mix-blend-mode:soft-light" opacity="0.5">
<path d="M96.1927 104.901C96.8558 104.518 97.5562 104.203 98.283 103.961C98.7231 103.861 99.1432 103.681 99.5733 103.551C100.658 103.278 101.767 103.114 102.884 103.061C103.504 103.011 104.094 103.061 104.704 102.911C105.164 102.831 105.594 102.751 106.054 102.691C107.395 102.511 108.705 102.121 110.055 101.941C110.695 101.851 111.365 101.701 112.055 101.661C112.475 101.661 112.875 101.541 113.286 101.541C114.056 101.541 114.826 101.421 115.606 101.411C118.606 101.411 121.207 102.511 123.987 103.311C124.617 103.491 125.268 103.641 125.908 103.761C126.787 104.018 127.708 104.099 128.618 104.001C129.538 103.771 129.238 102.851 128.618 102.421C127.908 101.964 127.071 101.743 126.228 101.791C125.745 101.751 125.26 101.751 124.777 101.791C124.057 101.911 122.887 102.161 122.777 103.031C122.742 103.33 122.742 103.632 122.777 103.931C122.797 104.131 122.797 104.332 122.777 104.531C122.531 105.254 122.025 105.86 121.357 106.231C121.037 106.422 120.727 106.532 120.417 106.752C120.059 106.989 119.685 107.199 119.297 107.382C118.706 107.682 118.096 107.932 117.516 108.252C117.117 108.439 116.706 108.6 116.286 108.732C115.158 109.236 113.999 109.667 112.815 110.022C111.875 110.262 110.985 110.662 110.035 110.882C109.497 111.053 108.97 111.253 108.455 111.482C108.205 111.577 107.947 111.65 107.685 111.702C107.265 111.782 106.904 111.972 106.484 112.072C105.035 112.58 103.531 112.916 102.004 113.073C101.344 113.073 100.943 113.073 100.583 112.463C100.235 111.898 99.9399 111.302 99.7033 110.682C99.5093 109.984 99.0732 109.378 98.4731 108.972C97.715 108.68 96.9737 108.346 96.2527 107.972C95.9583 107.762 95.7234 107.479 95.5709 107.151C95.4183 106.824 95.3535 106.462 95.3826 106.101C95.3457 105.835 95.3984 105.564 95.5326 105.331C95.7207 105.144 95.9454 104.998 96.1927 104.901Z" fill="white"/>
</g>
<g style="mix-blend-mode:soft-light" opacity="0.5">
<path d="M128.537 101.34C129.061 101.257 129.574 101.116 130.067 100.92L130.317 100.83C130.544 100.81 130.771 100.81 130.998 100.83C131.258 100.83 131.718 100.76 131.938 100.95C132.318 101.29 131.938 101.66 131.648 101.95C131.436 102.081 131.202 102.172 130.958 102.22C130.858 102.22 130.747 102.22 130.647 102.22C130.547 102.22 130.407 102.36 130.277 102.37C130.118 102.334 129.961 102.287 129.807 102.23C129.644 102.206 129.485 102.155 129.337 102.08C129.067 101.9 129.117 101.52 128.907 101.36L128.537 101.34Z" fill="white"/>
</g>
<g style="mix-blend-mode:soft-light" opacity="0.5">
<path d="M80.0284 131.347C78.3682 131.587 76.7979 131.537 75.4177 132.507C74.8829 132.884 74.4018 133.331 73.9875 133.838C72.9873 135.028 75.1977 135.198 75.9878 135.298C77.6007 135.49 79.1774 135.914 80.6686 136.558C81.9483 137.228 83.4323 137.396 84.8293 137.028C85.7594 136.708 86.5395 136.518 86.9396 135.548C87.1003 135.126 87.1137 134.662 86.9775 134.232C86.8414 133.802 86.5636 133.43 86.1895 133.177C85.3066 132.422 84.328 131.786 83.279 131.287C82.1728 130.819 80.9369 130.755 79.7884 131.107L80.0284 131.347Z" fill="white"/>
</g>
<g style="mix-blend-mode:soft-light" opacity="0.5">
<path d="M77.4284 129.166C77.1007 129.342 76.7979 129.56 76.5282 129.816C76.4941 129.869 76.4824 129.934 76.4955 129.996C76.5086 130.057 76.5455 130.111 76.5982 130.146C76.9994 130.395 77.4666 130.517 77.9385 130.496C78.2585 130.496 78.5486 130.426 78.8586 130.416C79.3904 130.427 79.9108 130.262 80.3389 129.946C80.5589 129.796 80.5289 129.506 80.5089 129.256C80.5014 129.111 80.4534 128.972 80.3702 128.853C80.2871 128.735 80.1722 128.642 80.0388 128.586C79.5831 128.463 79.1056 128.444 78.6417 128.531C78.1777 128.618 77.7392 128.807 77.3584 129.086L77.4284 129.166Z" fill="white"/>
</g>
<g style="mix-blend-mode:soft-light" opacity="0.5">
<path d="M69.6375 135.777C70.0804 135.704 70.5298 135.681 70.9777 135.707C71.2078 135.707 71.4378 135.847 71.6679 135.897C72.328 136.047 72.9981 136.137 73.6682 136.287C74.0659 136.352 74.4237 136.566 74.6684 136.887C74.8684 137.137 75.0084 137.277 74.9484 137.617C74.7384 138.967 73.1781 139.297 72.0479 139.437C71.1518 139.529 70.2476 139.505 69.3575 139.367C68.3573 139.227 67.3572 139.137 66.427 138.927C65.7369 138.787 65.0368 138.647 64.3566 138.457C63.8994 138.401 63.4826 138.168 63.1964 137.807C63.0964 137.653 63.0308 137.479 63.0039 137.297C62.9771 137.115 62.9898 136.93 63.041 136.753C63.0922 136.577 63.1809 136.413 63.3009 136.274C63.4209 136.135 63.5695 136.023 63.7365 135.947C64.8386 135.461 66.056 135.298 67.2471 135.477C67.6772 135.477 68.0872 135.607 68.5273 135.617C68.894 135.691 69.2647 135.745 69.6375 135.777Z" fill="white"/>
</g>
</g>
<g style="mix-blend-mode:multiply" opacity="0.2">
<path d="M98.1828 66.0855C97.5448 66.4656 96.8241 66.6853 96.0825 66.7256C95.6964 66.6892 95.3124 66.6325 94.9323 66.5556L93.182 66.2155C92.5789 66.1021 91.9648 66.0585 91.3517 66.0855C90.2615 66.0855 89.1813 66.2155 88.0812 66.2155C87.1175 66.2276 86.1544 66.1641 85.2007 66.0255C84.3205 65.8955 83.4704 65.6354 82.6102 65.4354C82.2602 65.3554 81.9201 65.2154 81.6101 65.1554C81.3 65.0953 80.7499 65.0953 80.3098 65.0353C79.4742 64.9697 78.6449 64.8393 77.8295 64.6453C77.5413 64.5844 77.2832 64.4253 77.0993 64.1952C77.0293 64.0952 76.8893 63.7451 76.9693 63.6251C77.1493 63.345 77.8495 63.4751 78.0795 63.5451C78.8143 63.7785 79.5218 64.0903 80.1898 64.4752C81.38 65.1854 82.9503 64.7253 84.2605 64.9453C84.8206 65.0353 85.3907 64.8953 85.9508 64.9453C86.2984 65.0574 86.6335 65.2048 86.951 65.3854C87.3769 65.4871 87.8187 65.5041 88.2512 65.4354C89.29 65.3126 90.3028 65.0257 91.2517 64.5853C92.2921 64.0265 93.4356 63.6862 94.6122 63.5851C95.591 63.5322 96.5721 63.6266 97.5227 63.8651C97.8043 63.9237 98.0651 64.0567 98.2779 64.2501C98.4907 64.4436 98.6478 64.6906 98.7329 64.9653C98.8029 65.4954 98.3729 65.6754 98.1828 66.0855Z" fill="#470024"/>
</g>
<g style="mix-blend-mode:multiply" opacity="0.2">
<path d="M94.2905 46.8113C94.7333 46.8111 95.1753 46.8513 95.6108 46.9314C95.2514 46.9651 94.8941 47.0185 94.5406 47.0914C94.3045 47.1471 94.063 47.1773 93.8205 47.1814C93.6104 47.1814 92.5402 47.2814 92.9403 46.9314C93.3404 46.5813 93.9805 46.8113 94.2905 46.8113Z" fill="#470024"/>
</g>
<g style="mix-blend-mode:multiply" opacity="0.2">
<path d="M124.057 42.1997L124.057 42.2697C123.489 43.2389 122.818 44.1443 122.057 44.9702C121.345 45.7046 120.517 46.3163 119.606 46.7805C118.496 47.3961 117.314 47.8699 116.086 48.1907C114.838 48.517 113.562 48.7247 112.275 48.8108C111.315 48.7889 110.356 48.7121 109.405 48.5808C108.204 48.4608 107.004 48.3207 105.814 48.1507L103.024 47.7806C102.103 47.6506 101.183 47.4006 100.253 47.3206C99.583 47.2606 98.9029 47.2005 98.2528 47.1905C97.8427 47.1905 97.4726 47.0605 97.0726 47.0605C96.7994 47.0755 96.5256 47.0755 96.2524 47.0605L95.6523 46.9605C95.9224 46.9605 96.2024 46.9605 96.4725 46.8705C97.2226 46.7605 97.9827 46.8105 98.7328 46.7305C99.483 46.6504 100.163 46.7305 100.893 46.6004C102.124 46.4435 103.363 46.3566 104.604 46.3404C105.744 46.3404 106.914 46.4204 108.054 46.3404C108.226 46.3486 108.398 46.3188 108.557 46.2531C108.716 46.1874 108.859 46.0874 108.975 45.9603C109.145 45.6603 109.225 45.3402 108.925 45.1202C108.624 44.9002 107.074 44.4801 107.294 43.85C107.364 43.66 107.754 43.64 107.954 43.5999C108.644 43.4899 109.375 43.4499 110.075 43.3299C110.515 43.2599 110.895 43.0899 111.325 42.9798C111.755 42.8698 112.045 42.8398 112.405 42.7298C112.926 42.5963 113.459 42.5125 113.995 42.4798C115.146 42.4197 116.406 42.8998 117.536 42.4798C118.076 42.2998 118.543 41.9487 118.866 41.4796C119.016 41.2896 119.216 41.1295 119.376 40.9295C119.563 40.6495 119.763 40.3792 119.976 40.1194C121.197 40.6995 122.397 41.3096 123.567 41.9797C123.417 42.0497 123.337 42.1697 123.927 42.1797L124.057 42.1997Z" fill="#470024"/>
</g>
<g style="mix-blend-mode:multiply" opacity="0.2">
<path d="M123.434 45.4418C122.58 46.3562 121.635 47.1807 120.613 47.9023C119.656 48.4644 118.652 48.9429 117.613 49.3325C116.847 49.6638 116.044 49.9022 115.222 50.0426C114.823 50.114 114.432 50.2211 114.052 50.3627C113.847 50.3946 113.65 50.466 113.472 50.5727C113.212 50.8227 113.372 51.0828 113.642 51.1628C114.363 51.3227 115.111 51.3227 115.832 51.1628C117.281 51.0365 118.721 50.8194 120.143 50.5127C121.048 50.2884 121.911 49.924 122.703 49.4325C123.777 48.9123 124.69 48.1103 125.344 47.1121C125.674 46.422 125.864 45.7219 125.164 45.2218C124.887 44.9747 124.534 44.8299 124.164 44.8117C123.974 44.8117 123.123 44.8417 123.434 45.4418Z" fill="#470024"/>
</g>
<path style="mix-blend-mode:soft-light" opacity="0.5" d="M155.061 95.9905C155.061 97.4407 155.011 98.8809 154.901 100.301C154.558 105.513 153.55 110.659 151.9 115.614C151.884 115.672 151.864 115.729 151.84 115.784C151.962 115.188 152.029 114.582 152.04 113.973C152.098 113.632 152.189 113.297 152.31 112.973C152.345 112.577 152.345 112.179 152.31 111.783L152.31 106.502C152.31 105.502 152.57 104.502 152.56 103.502C152.56 102.972 152.56 102.442 152.56 101.901C152.56 101.361 152.77 100.901 152.82 100.341C152.98 98.8009 152.37 97.3407 152.31 95.8204C152.31 95.1203 152.31 94.4102 152.31 93.7001C152.29 93.4013 152.222 93.1076 152.11 92.8299C152.07 92.4376 152.07 92.0421 152.11 91.6497C152.045 91.2708 151.955 90.8966 151.84 90.5296C151.81 90.1768 151.81 89.8221 151.84 89.4694C151.86 88.843 151.793 88.2169 151.64 87.6091C151.56 87.279 151.64 86.949 151.54 86.6089C151.44 86.2688 151.31 86.0288 151.22 85.7387C151.03 85.0986 150.74 84.5185 150.54 83.8784C150.036 82.6913 149.722 81.4324 149.61 80.1478C149.494 78.8636 149.181 77.6051 148.679 76.4172C148.175 75.2298 147.501 74.1215 146.679 73.1266C146.259 72.4965 146.519 71.9965 146.349 71.3364C146.2 70.9132 145.933 70.5417 145.579 70.2662C145.021 69.9351 144.395 69.7366 143.749 69.6861C143.099 69.6161 142.598 70.1161 141.918 69.8961C142.008 69.516 143.109 69.056 143.519 68.976C143.929 68.8959 144.959 68.976 145.089 68.2158C145.169 67.6657 144.529 67.2157 144.199 66.8956C144.018 66.6764 143.851 66.4459 143.699 66.2055C143.459 65.9054 143.149 65.9055 142.869 65.6654C142.588 65.4254 142.438 65.1553 142.138 64.9153C141.942 64.7138 141.758 64.5 141.588 64.2752C141.143 63.808 140.665 63.3735 140.158 62.975C139.107 62.246 137.909 61.7577 136.647 61.5447C136.107 61.4977 135.584 61.3302 135.117 61.0546C134.761 60.7615 134.465 60.4013 134.247 59.9945C133.847 59.3744 133.847 59.2543 134.377 58.7443C134.587 58.5661 134.743 58.3339 134.83 58.0728C134.916 57.8118 134.929 57.532 134.867 57.264C134.643 56.1711 134.128 55.1588 133.377 54.3335C132.587 53.6921 131.648 53.2619 130.646 53.0833C130.146 52.9733 129.646 53.0833 129.136 52.9733C128.811 52.8698 128.476 52.8028 128.136 52.7733C127.376 52.7733 126.766 52.5232 126.006 52.5332L123.515 52.5332C122.852 52.6314 122.178 52.6314 121.515 52.5332C121.615 52.0831 122.595 51.8431 122.995 51.6531C123.781 51.3064 124.531 50.8844 125.236 50.3929C125.776 50.0345 126.255 49.5922 126.656 49.0826C126.959 48.7204 127.294 48.3857 127.656 48.0825C126.938 47.4481 126.133 46.9194 125.266 46.5122C124.265 46.0621 123.265 45.7021 122.265 45.332C121.265 44.962 120.395 44.892 119.475 44.6519C118.347 44.3488 117.332 43.7231 116.554 42.8516C115.878 42.1317 115.07 41.5478 114.174 41.1313C113.359 40.8323 112.508 40.6406 111.643 40.5612C111.233 40.4598 110.815 40.3929 110.393 40.3612C109.934 40.3912 109.472 40.3912 109.013 40.3612C108.461 40.2285 107.899 40.1415 107.333 40.1012C106.836 40.1448 106.335 40.128 105.842 40.0511C105.352 39.9311 104.842 39.9111 104.352 39.8011C102.922 39.4611 102.152 38.0408 101.192 37.0506C100.695 36.6047 100.058 36.3464 99.3913 36.3205C98.4121 36.0539 97.4051 35.9029 96.3908 35.8705C95.2306 35.8705 94.0604 35.8705 92.9102 35.8705C92.2611 35.8606 91.6132 35.9277 90.9799 36.0705C90.3898 36.1905 89.8197 36.0705 89.2496 36.0705C88.2494 36.1905 87.2493 36.5406 86.1891 36.5806C85.7637 36.5424 85.3442 36.4551 84.9389 36.3205C84.5988 36.2605 83.9887 36.4906 83.6787 36.3205C83.0186 36.0305 84.4388 34.8703 82.8986 35.0503C81.3583 35.2303 79.608 35.7704 77.8977 36.1305C76.1691 36.4915 74.4654 36.9625 72.7969 37.5407C71.7731 37.8984 70.7712 38.3159 69.7964 38.7909C68.2313 39.5846 66.6059 40.2534 64.9355 40.7913C70.4259 37.9641 76.3142 35.9878 82.3985 34.9303C85.9489 34.3107 89.5462 33.9995 93.1503 34.0001C102.456 33.9806 111.645 36.0735 120.025 40.1212C121.245 40.7013 122.445 41.3114 123.615 41.9815L123.975 42.1815L124.115 42.2615C131.592 46.5881 138.088 52.4226 143.189 59.3944C146.824 64.4071 149.696 69.9315 151.71 75.7871L151.92 76.3772C151.99 76.5772 152.06 76.7873 152.12 76.9873C153.379 80.9161 154.247 84.9598 154.71 89.0593C154.83 90.1895 154.93 91.3297 154.981 92.4899C155.031 93.6501 155.061 94.8103 155.061 95.9905Z" fill="url(#paint1_radial_979_17566)"/>
<path style="mix-blend-mode:soft-light" opacity="0.5" d="M154.948 92.4901C154.898 91.3299 154.798 90.1897 154.678 89.0595C154.215 84.96 153.347 80.9163 152.088 76.9875C152.028 76.7875 151.958 76.5775 151.888 76.3774L151.678 75.7873C149.644 69.9317 146.752 64.4106 143.096 59.4046C137.996 52.4329 131.5 46.5984 124.023 42.2718L123.883 42.1917L123.523 41.9917C122.353 41.3216 121.153 40.7115 119.933 40.1314C111.553 36.0838 102.364 33.9908 93.0581 34.0104C89.4541 34.0098 85.8567 34.321 82.3063 34.9405C76.222 35.9981 70.3338 37.9743 64.8434 40.8015C57.8 44.4219 51.5129 49.3544 46.3204 55.3339C45.9203 55.794 45.5502 56.2741 45.1602 56.7442C50.2711 50.9914 56.4104 46.2427 63.2632 42.7418C71.7731 38.3926 81.173 36.0691 90.7292 35.9529C100.285 35.8366 109.739 37.9308 118.352 42.0717C119.573 42.6418 120.773 43.2619 121.943 43.932L122.303 44.1321L122.433 44.2121C132.283 49.9061 140.385 58.1908 145.857 68.1661C147.545 71.2241 148.964 74.4234 150.098 77.7276C150.168 77.9277 150.228 78.1177 150.308 78.3177C150.388 78.5178 150.438 78.7278 150.508 78.9278C151.767 82.8566 152.635 86.9003 153.098 90.9999C153.208 92.13 153.318 93.2702 153.368 94.4304C153.418 95.5906 153.478 96.7508 153.478 97.931C153.478 99.3812 153.418 100.821 153.318 102.242C152.976 107.453 151.968 112.599 150.318 117.554C150.302 117.612 150.282 117.669 150.258 117.724C148.108 124.063 144.95 130.014 140.906 135.347C140.466 135.927 139.996 136.477 139.546 137.038C140.546 135.877 141.546 134.697 142.546 133.447C146.578 128.118 149.726 122.174 151.868 115.844C151.892 115.789 151.912 115.732 151.928 115.674C153.578 110.719 154.586 105.573 154.928 100.361C155.038 98.9412 155.088 97.5009 155.088 96.0507C155.058 94.8105 155.018 93.6403 154.948 92.4901Z" fill="url(#paint2_radial_979_17566)"/>
<g style="mix-blend-mode:soft-light" opacity="0.5">
<path d="M114.473 81.4671C115.28 81.5871 116.097 81.6373 116.913 81.6171C116.853 81.3471 117.313 81.3271 117.283 81.007C116.957 80.7495 116.548 80.6181 116.133 80.637C115.833 80.637 115.043 80.797 114.973 81.137L114.473 81.4671Z" fill="#303132"/>
</g>
<g style="mix-blend-mode:soft-light" opacity="0.5">
<path d="M97.291 52.9426C98.0953 53.0622 98.9085 53.1124 99.7214 53.0926C99.7214 52.8225 100.122 52.8025 100.092 52.4825C99.769 52.2248 99.3637 52.0933 98.9513 52.1124C98.6512 52.1124 97.8511 52.2724 97.7911 52.6125L97.291 52.9426Z" fill="#D4CBCF"/>
</g>
<g style="mix-blend-mode:soft-light" opacity="0.5">
<path d="M87.7012 139.547C88.5096 139.659 89.3257 139.706 90.1416 139.687C90.0816 139.417 90.5416 139.397 90.5116 139.077C90.1852 138.819 89.7769 138.688 89.3614 138.707C89.0614 138.707 88.2713 138.867 88.2013 139.217L87.7012 139.547Z" fill="#43DFF6"/>
</g>
<g style="mix-blend-mode:soft-light" opacity="0.5">
<path d="M45.0723 92.5503C45.8766 92.6699 46.6897 92.7201 47.5027 92.7003C47.4427 92.4302 47.9027 92.4102 47.8727 92.0902C47.5502 91.8325 47.1449 91.701 46.7325 91.7201C46.4325 91.7201 45.6324 91.8802 45.5723 92.2202L45.0723 92.5503Z" fill="#303132"/>
</g>
<g style="mix-blend-mode:soft-light" opacity="0.5">
<path d="M129.896 117.463C130.278 116.852 130.754 116.305 131.307 115.842C131.427 116.242 131.897 116.293 132.107 116.613C132.203 116.846 132.253 117.095 132.253 117.348C132.253 117.6 132.203 117.85 132.107 118.083C131.557 119.503 129.966 120.183 128.596 120.463C128.126 120.563 127.646 120.773 127.246 120.413C127.075 120.285 126.96 120.096 126.926 119.885C126.893 119.674 126.943 119.458 127.066 119.283C127.407 118.928 127.806 118.634 128.246 118.413C128.486 118.273 129.016 118.043 129.066 117.793L129.896 117.463Z" fill="#303132"/>
</g>
<g style="mix-blend-mode:soft-light" opacity="0.5">
<path d="M136.037 116.964C135.467 117.484 134.917 117.964 134.377 118.524C134.577 118.874 135.297 118.254 135.537 118.164C135.777 118.074 135.987 118.094 136.167 117.924C136.347 117.754 136.547 117.314 136.167 117.294L136.037 116.964Z" fill="#303132"/>
</g>
<g style="mix-blend-mode:soft-light" opacity="0.5">
<path d="M125.397 95.1697C124.827 95.6898 124.276 96.1699 123.736 96.73C123.936 97.08 124.656 96.4599 124.897 96.3599C125.137 96.2599 125.347 96.2999 125.527 96.1299C125.707 95.9598 125.907 95.5198 125.527 95.4998L125.397 95.1697Z" fill="#303132"/>
</g>
<g style="mix-blend-mode:soft-light" opacity="0.5">
<path d="M74.4083 39.3308C73.8482 39.8608 73.2881 40.3309 72.748 40.901C72.9481 41.2511 73.6682 40.631 73.9082 40.531C74.1483 40.4309 74.3683 40.471 74.5384 40.3009C74.7084 40.1309 74.9184 39.6808 74.5384 39.6708L74.4083 39.3308Z" fill="#43DFF6"/>
</g>
<g style="mix-blend-mode:soft-light" opacity="0.5">
<path d="M48.8032 100.341C48.6606 101.049 48.6949 101.78 48.9033 102.471C48.9033 102.711 48.9033 102.831 49.1433 102.851C49.3834 102.871 49.6334 103.171 49.8434 103.332C50.0534 103.492 50.6335 103.872 50.9636 103.802C51.2874 103.638 51.5606 103.389 51.7537 103.081C51.932 102.69 51.9742 102.25 51.8737 101.831C51.6837 101.161 51.3937 100.201 50.7135 99.9209C50.4491 99.8012 50.17 99.7172 49.8834 99.6709C49.4534 99.6109 49.3833 99.6709 49.1333 100.011L48.8032 100.341Z" fill="#303132"/>
</g>
<g style="mix-blend-mode:soft-light" opacity="0.5">
<path d="M74.4278 62.5837C74.2971 62.6744 74.1934 62.7988 74.1277 62.9438C74.1213 62.9494 74.1162 62.9563 74.1127 62.9641C74.1092 62.9718 74.1074 62.9803 74.1074 62.9888C74.1074 62.9973 74.1092 63.0057 74.1127 63.0135C74.1162 63.0212 74.1213 63.0281 74.1277 63.0338C74.1277 63.0838 74.1277 63.1638 74.1277 63.2138C74.1369 63.3038 74.1756 63.3881 74.2378 63.4538C74.3124 63.479 74.3932 63.479 74.4678 63.4538C74.5546 63.4168 74.6279 63.354 74.6778 63.2738C74.7378 63.1338 74.8379 62.9438 74.7678 62.7937C74.7405 62.7369 74.7069 62.6832 74.6678 62.6337C74.6078 62.5637 74.5878 62.5637 74.4978 62.5737L74.4278 62.5837Z" fill="#43DFF6"/>
</g>
<g style="mix-blend-mode:soft-light" opacity="0.5">
<path d="M74.4991 65.3346C74.358 66.0451 74.3889 66.7789 74.5892 67.475C74.5892 67.705 74.6392 67.8351 74.8292 67.8451C75.0569 68.0211 75.294 68.1847 75.5393 68.3351C75.8497 68.6112 76.2447 68.7734 76.6595 68.7952C76.9833 68.6313 77.2565 68.3824 77.4496 68.0751C77.6279 67.6834 77.6701 67.2434 77.5697 66.8249C77.3696 66.1548 77.0896 65.2046 76.3995 64.9146C76.1326 64.8014 75.8543 64.7176 75.5693 64.6645C75.1392 64.6145 75.0692 64.6645 74.8292 65.0046L74.4991 65.3346Z" fill="#303132"/>
</g>
<g style="mix-blend-mode:soft-light" opacity="0.5">
<path d="M53.6152 57.0931C54.43 57.3486 55.2939 57.4069 56.1356 57.2632C56.4889 57.0634 56.8236 56.8324 57.1358 56.5731C57.6228 56.3159 58.0625 55.9777 58.436 55.5729C58.5216 55.4733 58.5817 55.3545 58.6111 55.2265C58.6405 55.0986 58.6384 54.9654 58.6049 54.8385C58.5715 54.7115 58.5077 54.5946 58.419 54.4978C58.3303 54.401 58.2195 54.3271 58.096 54.2827C56.9858 53.8226 53.9553 54.2027 53.9853 55.903L53.6152 57.0931Z" fill="#303132"/>
</g>
<g style="mix-blend-mode:soft-light" opacity="0.5">
<path d="M114.795 76.3371C115.613 76.5924 116.48 76.6506 117.325 76.5072C117.675 76.3022 118.01 76.0715 118.326 75.817C118.81 75.5598 119.246 75.2215 119.616 74.8169C119.704 74.7189 119.766 74.6007 119.798 74.4728C119.829 74.3448 119.829 74.2111 119.796 74.0834C119.763 73.9558 119.7 73.8382 119.611 73.741C119.522 73.6439 119.41 73.5703 119.286 73.5267C118.165 73.0666 115.135 73.4467 115.175 75.1469L114.795 76.3371Z" fill="#303132"/>
</g>
<g style="mix-blend-mode:soft-light" opacity="0.5">
<path d="M49.9219 96.8707C50.0019 97.0507 50.432 98.3009 50.922 97.8008C51.0503 97.624 51.1251 97.4141 51.1375 97.196C51.1499 96.9779 51.0994 96.7608 50.992 96.5706C50.872 96.3906 50.582 95.9705 50.3119 96.0805C50.0419 96.1906 50.1619 96.2506 50.1219 96.3706C50.0862 96.4844 50.074 96.6042 50.0861 96.7228C50.0981 96.8415 50.1341 96.9564 50.1919 97.0607L49.9219 96.8707Z" fill="#303132"/>
</g>
<g style="mix-blend-mode:soft-light" opacity="0.5">
<path d="M51.6016 99.4212C51.6042 99.166 51.6695 98.9153 51.7916 98.6911C51.8716 98.7611 51.9916 98.6911 52.0817 98.7911C52.1622 98.8662 52.2298 98.9541 52.2817 99.0512C52.3572 99.1279 52.4137 99.2212 52.4467 99.3237C52.4797 99.4262 52.4882 99.5349 52.4717 99.6413C52.4342 99.7093 52.3811 99.7674 52.3168 99.8109C52.2525 99.8544 52.1787 99.8819 52.1016 99.8913C51.9416 99.8913 51.6616 99.8113 51.6616 99.6113L51.6016 99.4212Z" fill="#303132"/>
</g>
<g style="mix-blend-mode:soft-light" opacity="0.5">
<path d="M54.5254 135.126C54.938 135.828 55.4314 136.479 55.9956 137.066C56.4357 137.436 56.7758 137.896 57.1958 138.287C57.7965 138.887 58.4927 139.384 59.2562 139.757C59.6563 139.927 59.6863 139.757 59.5362 139.357C59.2762 138.697 58.7461 138.527 58.186 138.136C57.4263 137.689 56.7357 137.133 56.1357 136.486C55.7456 135.976 55.3955 135.106 54.5254 135.126Z" fill="#303132"/>
</g>
<g style="mix-blend-mode:soft-light" opacity="0.5">
<path d="M54.8949 134.006C54.6627 133.477 54.4915 132.924 54.3848 132.356C54.4243 132.282 54.4788 132.218 54.5448 132.166C54.5891 132.142 54.6386 132.128 54.6892 132.125C54.7398 132.123 54.7903 132.132 54.8367 132.153C54.8831 132.173 54.9242 132.204 54.9569 132.242C54.9895 132.281 55.0127 132.327 55.0249 132.376C55.0849 132.874 55.0849 133.378 55.0249 133.876L54.8949 134.006Z" fill="#303132"/>
</g>
<g style="mix-blend-mode:soft-light" opacity="0.5">
<path d="M132.878 113.902C133.075 113.695 133.296 113.514 133.538 113.362C133.598 113.422 133.678 113.362 133.748 113.362C133.818 113.362 133.958 113.562 134.008 113.662C134.118 113.912 133.948 114.122 133.748 114.272C133.548 114.422 132.678 114.472 132.748 113.972L132.878 113.902Z" fill="#303132"/>
</g>
<g style="mix-blend-mode:soft-light" opacity="0.5">
<path d="M55.2758 82.5974C55.4666 82.3911 55.6855 82.2127 55.9259 82.0673C55.996 82.1273 56.066 82.0673 56.146 82.0673C56.2602 82.1414 56.3478 82.25 56.396 82.3773C56.506 82.6174 56.336 82.8374 56.136 82.9774C55.9359 83.1175 55.0758 83.1875 55.1358 82.6874L55.2758 82.5974Z" fill="#43DFF6"/>
</g>
<g style="mix-blend-mode:soft-light" opacity="0.5">
<path d="M56.0446 101.76C56.4334 101.344 56.8777 100.984 57.3648 100.69C57.4848 100.81 57.6349 100.69 57.7849 100.78C58.0177 100.919 58.1946 101.135 58.285 101.39C58.505 101.88 58.1749 102.31 57.7749 102.6C57.3748 102.89 55.6445 103.01 55.7745 102.01L56.0446 101.76Z" fill="#303132"/>
</g>
<g style="mix-blend-mode:soft-light" opacity="0.5">
<path d="M70.9369 63.4446C71.3257 63.0288 71.77 62.6687 72.2571 62.3744C72.3772 62.4944 72.5372 62.3744 72.6772 62.4644C72.9099 62.6014 73.0896 62.8128 73.1873 63.0645C73.2811 63.299 73.2827 63.5603 73.1917 63.7959C73.1008 64.0315 72.9242 64.224 72.6972 64.3347C72.1771 64.7248 70.5669 64.7448 70.6969 63.7446L70.9369 63.4446Z" fill="#303132"/>
</g>
<g style="mix-blend-mode:soft-light" opacity="0.5">
<path d="M119.207 148.429C119.613 147.944 120.054 147.489 120.527 147.069C120.821 146.888 121.125 146.724 121.437 146.579C121.542 146.505 121.663 146.457 121.79 146.438C121.916 146.419 122.046 146.43 122.168 146.469C122.548 146.659 122.498 147.189 122.318 147.469C121.952 147.998 121.431 148.4 120.827 148.619C120.587 148.719 119.547 148.929 119.577 148.399L119.207 148.429Z" fill="#303132"/>
</g>
</g>
<g clip-path="url(#clip0_979_17566)">
<path d="M140.299 9.11237C139.609 8.96237 138.919 9.42237 138.789 10.1224C138.719 10.4924 138.819 10.8524 139.029 11.1324C137.589 13.9224 133.269 22.3424 127.089 35.1024C126.079 34.8824 125.389 35.0424 125.109 35.5824C124.889 36.0124 124.999 36.5124 125.419 37.0624C124.639 37.0524 124.149 37.2724 123.909 37.7224C123.659 38.1724 123.649 38.8724 124.599 39.9124C123.749 39.9124 123.109 40.1924 122.889 40.7324C122.719 41.1424 122.769 41.7024 123.609 42.3524C122.699 44.2424 121.769 46.2024 120.809 48.2424L121.819 48.7224C122.759 46.7324 123.689 44.7924 124.559 42.9324C124.739 42.5824 124.899 42.2524 125.049 41.9124C124.549 41.6624 124.269 41.4624 124.109 41.3224C123.989 41.2324 123.939 41.1724 123.919 41.1624C123.979 41.1224 124.079 41.0824 124.229 41.0624C124.499 41.0024 124.909 41.0024 125.429 41.1324C125.729 41.1924 126.069 41.2924 126.439 41.4324C126.709 41.5324 127.009 41.4324 127.149 41.1724C127.279 40.9224 127.219 40.6124 126.979 40.4524C126.619 40.2024 126.329 39.9724 126.079 39.7724C125.699 39.4324 125.429 39.1524 125.239 38.9324C124.939 38.5524 124.869 38.3124 124.879 38.2624C124.939 38.2024 125.169 38.1424 125.609 38.1724C125.899 38.2024 126.269 38.2724 126.729 38.4224C126.969 38.5024 127.219 38.5924 127.509 38.7124C127.779 38.8224 128.089 38.7124 128.229 38.4424C128.359 38.1824 128.259 37.8624 128.019 37.7124C127.739 37.5424 127.499 37.4024 127.299 37.2524C126.889 36.9524 126.609 36.7024 126.419 36.5024C126.269 36.3324 126.199 36.2124 126.149 36.1224C126.239 36.1024 126.389 36.1024 126.599 36.1324C126.859 36.1624 127.229 36.2424 127.699 36.4324C127.859 36.0924 128.019 35.7624 128.179 35.4224C134.329 22.7424 138.609 14.3824 140.039 11.6224C140.639 11.6324 141.199 11.2324 141.329 10.6124C141.459 9.90237 141.009 9.23237 140.309 9.10237L140.299 9.11237Z" fill="#3E4B82"/>
<path d="M147.869 91.4624L145.119 87.8024L151.189 80.7724L155.479 83.3124L154.789 84.5124L151.039 82.1524L146.719 87.6224L149.109 90.0924L147.869 91.4624Z" fill="#C71A33"/>
<path d="M148.117 92.3124L147.188 91.4324L149.167 88.9624L150.327 89.6824L153.787 86.1524L152.917 84.6224L154.988 82.3024L156.727 83.1624L153.488 89.8624L148.117 92.3124Z" fill="white"/>
<path d="M185.379 90.2924L181.089 95.5824L177.589 99.9124L169.139 110.372L165.799 114.502L161.089 120.312L140.029 101.132L144.399 96.2224L148.019 92.1424L156.789 82.2924L160.779 77.8124L165.059 73.0024L185.379 90.2924Z" fill="#E11432"/>
<g style="mix-blend-mode:multiply" opacity="0.9">
<path d="M183.909 90.4724L180.599 94.5624L177.099 98.8924L168.649 109.352L165.309 113.482L160.599 119.302L142.869 103.152C158.689 108.712 173.729 93.7824 178.849 86.1524L179.079 86.3524L183.919 90.4724H183.909Z" fill="#E22440"/>
</g>
<g style="mix-blend-mode:multiply" opacity="0.4">
<path d="M168.758 110.442L165.418 114.572C161.548 111.192 147.678 99.1224 144.018 96.2924L147.638 92.2124C150.458 95.4324 164.578 107.022 168.758 110.442Z" fill="#E22440"/>
</g>
<g style="mix-blend-mode:multiply" opacity="0.4">
<path d="M180.708 95.6524L177.208 99.9824C173.078 96.3124 160.268 85.0024 156.408 82.3624L160.398 77.8724C163.858 82.3424 176.388 92.2824 180.708 95.6424V95.6524Z" fill="#E22440"/>
</g>
<g style="mix-blend-mode:multiply" opacity="0.3">
<path d="M160.538 118.572L160.448 118.492L140.988 100.922L164.528 74.7124L164.608 74.7824L183.248 90.4524L183.178 90.5424L160.518 118.582L160.538 118.572ZM141.308 100.902L160.508 118.242L182.948 90.4724L164.558 75.0124L141.308 100.902Z" fill="#E22440"/>
</g>
<path d="M169.188 111.582L168.578 112.242L168.358 112.492L166.948 114.072L166.718 114.312L166.268 114.822L143.488 95.1524L146.418 92.0524L169.188 111.582Z" fill="#C71A33"/>
<path d="M181.448 97.3724L179.208 99.8624L178.978 100.112L178.538 100.612L155.758 80.9424L156.298 80.3624L156.538 80.1224L157.878 78.6924L158.118 78.4524L158.678 77.8524L181.448 97.3724Z" fill="#C71A33"/>
<path d="M143.969 94.7824L144.489 95.2324L144.709 94.9824L144.189 94.5324L143.969 94.7824ZM145.309 95.4924L145.089 95.7424L145.609 96.1924L145.839 95.9324L145.319 95.4924H145.309ZM146.219 96.7024L146.749 97.1524L146.969 96.9024L146.439 96.4524L146.219 96.7024ZM147.349 97.6724L147.869 98.1224L148.089 97.8724L147.569 97.4224L147.349 97.6724ZM148.699 98.3924L148.479 98.6424L148.999 99.0824L149.219 98.8324L148.699 98.3924ZM149.609 99.6024L150.129 100.052L150.349 99.8024L149.829 99.3524L149.609 99.6024ZM150.729 100.572L151.259 101.022L151.479 100.772L150.949 100.322L150.729 100.572ZM151.859 101.542L152.379 101.982L152.599 101.732L152.079 101.282L151.849 101.542H151.859ZM152.989 102.502L153.509 102.952L153.729 102.702L153.209 102.252L152.989 102.502ZM154.109 103.472L154.629 103.922L154.849 103.672L154.329 103.222L154.109 103.472ZM155.239 104.432L155.769 104.882L155.989 104.632L155.459 104.182L155.239 104.432ZM156.369 105.402L156.889 105.852L157.109 105.602L156.589 105.152L156.369 105.402ZM157.499 106.372L158.019 106.822L158.239 106.572L157.719 106.122L157.499 106.372ZM158.619 107.342L159.139 107.782L159.359 107.532L158.839 107.082L158.609 107.342H158.619ZM159.749 108.302L160.279 108.752L160.499 108.502L159.969 108.052L159.749 108.302ZM160.879 109.272L161.399 109.722L161.619 109.472L161.099 109.022L160.879 109.272ZM162.009 110.232L162.539 110.682L162.759 110.432L162.229 109.982L162.009 110.232ZM163.139 111.202L163.659 111.652L163.879 111.402L163.359 110.952L163.139 111.202ZM164.479 111.912L164.259 112.162L164.789 112.612L165.019 112.352L164.489 111.902L164.479 111.912ZM165.399 113.132L165.919 113.582L166.139 113.332L165.619 112.882L165.399 113.132ZM166.519 114.102L166.759 114.302L166.989 114.052L166.739 113.842L166.519 114.092V114.102Z" fill="#E22440"/>
<path d="M145.979 93.1724L146.489 93.6124L146.709 93.3624L146.199 92.9224L145.979 93.1724ZM147.089 94.1324L147.599 94.5724L147.819 94.3224L147.309 93.8824L147.089 94.1324ZM148.199 95.0924L148.719 95.5424L148.939 95.2924L148.419 94.8424L148.199 95.0924ZM149.309 96.0524L149.829 96.5024L150.049 96.2524L149.529 95.8024L149.309 96.0524ZM150.419 97.0124L150.939 97.4624L151.159 97.2124L150.639 96.7624L150.419 97.0124ZM151.529 97.9724L152.049 98.4224L152.269 98.1724L151.749 97.7224L151.529 97.9724ZM152.639 98.9324L153.159 99.3824L153.379 99.1324L152.859 98.6824L152.639 98.9324ZM153.749 99.8924L154.269 100.342L154.489 100.092L153.969 99.6424L153.749 99.8924ZM154.869 100.862L155.379 101.302L155.599 101.052L155.089 100.612L154.869 100.862ZM155.979 101.822L156.489 102.262L156.709 102.012L156.199 101.572L155.979 101.822ZM157.089 102.782L157.599 103.222L157.819 102.972L157.309 102.532L157.089 102.782ZM158.199 103.742L158.709 104.182L158.929 103.932L158.419 103.492L158.199 103.742ZM159.309 104.702L159.819 105.142L160.039 104.892L159.529 104.452L159.309 104.702ZM160.419 105.662L160.929 106.102L161.149 105.852L160.639 105.412L160.419 105.662ZM161.529 106.622L162.039 107.062L162.259 106.812L161.749 106.372L161.529 106.622ZM162.639 107.582L163.149 108.022L163.369 107.772L162.859 107.332L162.639 107.582ZM163.749 108.542L164.259 108.982L164.479 108.732L163.969 108.292L163.749 108.542ZM164.859 109.502L165.379 109.952L165.599 109.702L165.079 109.252L164.859 109.502ZM165.969 110.462L166.489 110.912L166.709 110.662L166.189 110.212L165.969 110.462ZM167.079 111.422L167.599 111.872L167.819 111.622L167.299 111.172L167.079 111.422ZM168.189 112.382L168.359 112.532L168.579 112.282L168.409 112.132L168.189 112.382Z" fill="#E22440"/>
<path d="M156.299 80.3624L156.509 80.5424L156.729 80.2924L156.539 80.1224L156.299 80.3624ZM157.089 81.0624L157.579 81.4824L157.809 81.2324L157.309 80.8024L157.089 81.0524V81.0624ZM158.169 81.9924L158.669 82.4224L158.889 82.1724L158.389 81.7424L158.169 81.9924ZM159.239 82.9324L159.739 83.3624L159.959 83.1124L159.459 82.6824L159.239 82.9324ZM160.329 83.8724L160.819 84.2924L161.049 84.0424L160.549 83.6124L160.329 83.8624V83.8724ZM161.399 84.8124L161.899 85.2424L162.119 84.9924L161.619 84.5624L161.399 84.8124ZM162.479 85.7424L162.979 86.1724L163.199 85.9224L162.699 85.4924L162.479 85.7424ZM163.549 86.6824L164.049 87.1124L164.269 86.8624L163.779 86.4424L163.549 86.6924V86.6824ZM164.639 87.6224L165.129 88.0424L165.359 87.7924L164.859 87.3624L164.639 87.6124V87.6224ZM165.709 88.5624L166.209 88.9924L166.429 88.7424L165.929 88.3124L165.709 88.5624ZM166.789 89.4924L167.289 89.9224L167.509 89.6724L167.009 89.2424L166.789 89.4924ZM167.869 90.4424L168.359 90.8624L168.589 90.6124L168.089 90.1824L167.869 90.4324V90.4424ZM168.949 91.3724L169.449 91.8024L169.669 91.5524L169.169 91.1224L168.949 91.3724ZM170.019 92.3124L170.519 92.7424L170.739 92.4924L170.239 92.0624L170.019 92.3124ZM171.099 93.2424L171.599 93.6724L171.819 93.4224L171.329 93.0024L171.099 93.2524V93.2424ZM172.179 94.1924L172.679 94.6224L172.899 94.3724L172.399 93.9424L172.179 94.1924ZM173.259 95.1224L173.759 95.5524L173.979 95.3024L173.479 94.8724L173.259 95.1224ZM174.329 96.0624L174.829 96.4924L175.049 96.2424L174.559 95.8224L174.329 96.0724V96.0624ZM175.409 97.0024L175.899 97.4224L176.129 97.1724L175.629 96.7424L175.409 96.9924V97.0024ZM176.479 97.9424L176.979 98.3724L177.199 98.1224L176.699 97.6924L176.479 97.9424ZM177.559 98.8724L178.059 99.3024L178.279 99.0524L177.779 98.6224L177.559 98.8724ZM178.629 99.8124L179.019 100.152L179.249 99.9024L178.859 99.5624L178.629 99.8124Z" fill="#E22440"/>
<path d="M180.348 97.3524L180.128 97.6024L180.648 98.0424L180.858 97.7824L180.338 97.3524H180.348ZM179.228 96.4024L179.008 96.6524L179.528 97.0924L179.738 96.8324L179.218 96.4024H179.228ZM178.108 95.4524L177.888 95.7024L178.408 96.1524L178.628 95.8824L178.108 95.4524ZM176.988 94.5024L176.768 94.7524L177.288 95.1924L177.508 94.9424L176.988 94.5024ZM175.868 93.5524L175.658 93.8124L176.178 94.2424L176.398 93.9924L175.878 93.5524H175.868ZM174.758 92.6124L174.538 92.8624L175.058 93.2924L175.278 93.0424L174.758 92.6124ZM173.638 91.6624L173.418 91.9124L173.938 92.3424L174.158 92.0924L173.638 91.6624ZM172.518 90.7124L172.298 90.9624L172.818 91.4124L173.038 91.1424L172.518 90.7124ZM171.398 89.7624L171.178 90.0124L171.698 90.4524L171.918 90.2024L171.398 89.7624ZM170.278 88.8124L170.068 89.0724L170.588 89.5024L170.808 89.2524L170.288 88.8124H170.278ZM169.168 87.8724L168.948 88.1224L169.468 88.5524L169.688 88.3024L169.168 87.8724ZM168.048 86.9224L167.828 87.1724L168.348 87.6124L168.568 87.3624L168.048 86.9224ZM166.928 85.9724L166.718 86.2324L167.238 86.6624L167.458 86.4124L166.938 85.9724H166.928ZM165.818 85.0324L165.598 85.2824L166.118 85.7124L166.228 85.5824L166.328 85.4524L165.818 85.0324ZM164.698 84.0824L164.478 84.3324L164.998 84.7624L165.218 84.5124L164.698 84.0824ZM163.948 83.7324L163.888 83.8224L163.998 83.6924L163.948 83.7224V83.7324ZM163.578 83.1324L163.358 83.3824L163.868 83.8024L163.948 83.7224L164.088 83.5424L163.578 83.1224V83.1324ZM162.458 82.1824L162.238 82.4324L162.758 82.8624L162.828 82.8024L162.968 82.6024L162.458 82.1824ZM161.708 81.8324L161.648 81.9224L161.758 81.7924L161.708 81.8324ZM161.338 81.2324L161.128 81.4924L161.628 81.9124L161.708 81.8324L161.848 81.6524L161.338 81.2324ZM160.228 80.2924L160.008 80.5424L160.508 80.9624L160.638 80.8524L160.728 80.7124L160.228 80.2924ZM159.108 79.3424L158.888 79.5924L159.378 80.0024L159.518 79.8924L159.598 79.7424L159.108 79.3324V79.3424ZM158.078 78.4624L157.838 78.7024L158.288 79.0724L158.508 78.8224L158.078 78.4624Z" fill="#E22440"/>
<path d="M151.428 103.782L157.618 108.922L161.868 103.592L156.178 98.5324L151.438 103.792L151.428 103.782ZM160.398 103.812L157.458 107.422L152.788 103.562L154.108 102.122L156.568 104.092L156.958 103.692L154.728 101.452L156.238 99.8124L160.408 103.812H160.398Z" fill="white"/>
<path d="M163.699 89.5724L169.889 94.7124L174.139 89.3824L168.449 84.3224L163.709 89.5824L163.699 89.5724ZM172.669 89.6024L169.729 93.2124L165.059 89.3524L166.379 87.9124L168.839 89.8824L169.229 89.4824L166.999 87.2424L168.509 85.6024L172.679 89.6024H172.669Z" fill="white"/>
<path d="M80.3393 55.9024L78.3493 63.1124C78.3493 63.1124 77.7493 63.0224 76.7793 62.8724C73.2593 62.3824 64.9193 61.2624 63.5393 61.7424C62.9493 61.9524 60.5193 63.1324 57.5793 64.5624C57.2193 64.7524 56.8593 64.9324 56.4893 65.1124C50.9993 67.8324 44.3693 71.1924 44.3693 71.1924C44.3693 71.1924 43.6193 76.7924 42.3793 76.3024C41.1393 75.8124 41.6393 71.8224 41.6393 71.8224C41.6393 71.8224 32.9793 73.9824 32.5693 70.3524C32.5493 70.1924 32.5493 70.0124 32.5593 69.8224C32.9293 65.4624 43.1293 67.7024 43.1293 67.7024C43.1293 67.7024 48.3693 63.6724 53.4993 59.9724C53.8393 59.7224 54.1693 59.4824 54.5193 59.2324C58.4693 56.4124 62.1493 53.9424 63.0393 53.8924C65.1493 53.7724 80.3293 55.8824 80.3293 55.8824L80.3393 55.9024Z" fill="white"/>
<path d="M77.6084 60.3224L76.7784 62.8824C73.2584 62.3924 64.9184 61.2724 63.5384 61.7524C62.9484 61.9624 60.5184 63.1424 57.5784 64.5724C57.2184 64.7624 56.8584 64.9424 56.4884 65.1224C50.9984 67.8424 44.3684 71.2024 44.3684 71.2024C44.3684 71.2024 43.6184 76.8024 42.3784 76.3124C41.1384 75.8224 41.6384 71.8324 41.6384 71.8324C41.6384 71.8324 32.9784 73.9924 32.5684 70.3624C34.9284 73.1024 45.0084 69.6024 47.8584 68.0024C51.0184 66.2224 62.7984 57.1724 62.7984 57.1724L77.5984 60.3224H77.6084Z" fill="#EDEDED"/>
<path d="M123.33 56.2424L101.99 115.752L71.5098 106.912L82.5798 48.3124L104.22 51.8224L118.34 54.1124L123.33 56.2424Z" fill="#EDEDED"/>
<path d="M118.34 54.1124L98.8095 110.742L85.0195 105.492L104.22 51.8224L118.34 54.1124Z" fill="#BBBBBB"/>
<path d="M86.0786 55.7124C83.0786 52.7924 78.8486 53.7824 76.9886 58.3924C75.1186 62.9924 76.1186 69.0924 76.1186 69.0924L86.0686 59.6324V55.7124H86.0786Z" fill="#3E4B82"/>
<path d="M119.829 170.482C119.829 170.482 115.539 171.802 113.169 167.242C110.809 162.672 110.019 155.842 110.019 155.842C110.019 155.842 107.159 153.352 103.669 150.132C101.899 148.492 99.9587 146.672 98.1487 144.882C96.1287 142.892 94.2787 140.942 92.9787 139.372C92.4887 138.792 92.0787 138.252 91.7787 137.782C89.2487 133.912 81.3987 121.922 77.7987 116.422C76.6787 114.702 75.9587 113.612 75.9587 113.612L74.7987 113.262L74.5087 113.172L52.8487 106.692L46.0987 112.562L43.0887 115.392L33.8287 124.102L34.3587 127.862L16.0387 130.672C16.0387 130.672 15.5987 126.552 18.1487 125.152C20.6887 123.742 31.2987 122.962 31.2987 122.962C31.2987 122.962 36.3687 115.232 41.2887 108.172C45.2887 102.462 49.1887 97.1724 50.2387 96.7524C52.6087 95.7924 71.3687 97.4624 71.3687 97.4624C71.3687 97.4624 71.3987 96.9724 71.4787 96.0924C71.6087 94.3824 71.9187 91.2024 72.3887 87.4024C73.0687 81.9824 74.1387 75.2924 75.6687 69.8424C78.8287 58.6224 86.0987 55.7224 86.0987 55.7224C86.0987 55.7224 96.1887 60.9824 102.239 60.4624C108.289 59.9324 113.639 60.8124 113.639 60.8124C113.639 60.8124 108.489 65.2624 106.089 70.5824C105.659 71.5124 105.339 72.4524 105.139 73.4124C105.129 73.4324 105.129 73.4424 105.129 73.4424C101.029 79.0824 98.2187 91.1724 96.6487 99.7924C96.4487 100.892 96.2687 101.942 96.0987 102.902C95.4487 106.822 95.1387 109.462 95.1387 109.462L100.129 135.592L103.229 140.352L106.469 145.312L111.789 153.472L116.779 153.562L119.849 170.482H119.829Z" fill="white"/>
<path d="M74.5085 113.172L52.8485 106.692L46.0985 112.562L43.0885 115.392L41.9785 113.242L51.2985 103.232C51.2985 103.232 66.0985 107.492 67.4785 99.6724C68.7885 106.002 72.4885 111.282 74.5085 113.182V113.172Z" fill="#EDEDED"/>
<path d="M106.448 145.302C105.388 147.192 104.378 148.932 103.668 150.132C101.898 148.492 99.9583 146.672 98.1483 144.882C96.1283 142.892 94.2783 140.942 92.9783 139.372C96.6383 139.332 97.8183 131.642 92.0183 121.192C85.4383 109.342 79.2583 114.842 77.8083 116.422C76.6883 114.702 75.9683 113.612 75.9683 113.612L74.8083 113.262L73.2383 111.182C73.2383 111.182 83.5183 107.752 79.5383 100.902L93.3783 98.4424L96.6283 99.7824C96.4283 100.882 96.2483 101.932 96.0783 102.892C95.4283 106.812 95.1183 109.452 95.1183 109.452L100.108 135.582L103.208 140.342L106.448 145.302Z" fill="#EDEDED"/>
<path d="M85.2598 56.3524C88.8498 62.9524 104.06 63.5124 111.16 61.4524C110.23 58.7424 85.2598 56.3524 85.2598 56.3524Z" fill="#EDEDED"/>
<path d="M113.86 55.9624L113.08 60.7624C113.08 60.7624 108.88 61.7924 103.42 61.8524C101.15 61.8624 98.6498 61.7224 96.1398 61.2624C91.4698 60.4024 88.6498 59.0124 87.0598 57.9224C85.7398 57.0224 85.2698 56.3524 85.2698 56.3524C85.2698 56.3524 85.1798 54.6924 86.1498 52.7324L88.9398 53.0524L108.15 55.2924L113.87 55.9524L113.86 55.9624Z" fill="white"/>
<path d="M89.0381 53.7224C87.5681 53.8924 86.5681 55.6124 87.0481 57.9224C85.7281 57.0224 85.2581 56.3524 85.2581 56.3524C85.2581 56.3524 85.1681 54.6924 86.1381 52.7324L88.9281 53.0524C89.4481 53.3924 89.6181 53.6424 89.0381 53.7124V53.7224Z" fill="#EDEDED"/>
<path d="M113.86 55.9624L113.08 60.7624C113.08 60.7624 108.88 61.7924 103.42 61.8524C104.43 60.9024 106.35 58.5424 104.45 55.9124L108.15 55.2924L113.87 55.9524L113.86 55.9624Z" fill="#EDEDED"/>
<path d="M148.5 87.9024C147.1 87.3724 146.92 86.0524 146.92 86.0524L145.52 87.2824L144.38 82.1124L140.27 78.0224L134.48 72.2524L133.57 71.3524L129.48 67.2824L105.1 73.4224C105.1 73.4224 105.1 73.4124 105.11 73.3924C105.22 73.1424 105.94 71.5924 107.1 69.6624C109.28 66.0524 113.09 61.1024 117.64 60.8824C117.64 60.8824 130.88 59.2224 132.8 59.4824C133.55 59.5824 135.89 62.7324 138.47 66.5224C138.69 66.8424 138.92 67.1824 139.13 67.5124C143.03 73.3024 147.18 80.0924 147.18 80.0924C147.18 80.0924 152.09 81.5824 152.88 83.6824C153.66 85.7924 149.9 88.4224 148.49 87.8924L148.5 87.9024Z" fill="white"/>
<path d="M140.269 78.0224L134.479 72.2524L133.569 71.3524L129.479 67.2824L105.099 73.4224C100.469 79.7924 97.4992 94.3524 96.0692 102.882C90.4792 102.602 77.4592 101.402 71.4492 96.0724C71.5792 94.3624 71.8892 91.1824 72.3592 87.3824C74.1792 93.4124 82.5892 94.6224 90.5292 89.3024C97.3192 84.7524 103.769 74.1924 105.369 71.4524C105.559 71.1324 105.779 70.8224 106.059 70.5424C106.359 70.2324 106.709 69.9224 107.099 69.6424C113.329 65.1824 130.199 65.6024 130.199 65.6024L140.259 78.0024L140.269 78.0224Z" fill="#EDEDED"/>
<path d="M125.168 42.5224C125.018 43.1224 124.868 43.7124 124.678 44.2824C124.668 44.3124 124.658 44.3424 124.658 44.3624C123.888 46.7124 122.758 48.7724 121.298 50.5224C121.258 50.5824 121.208 50.6324 121.148 50.6924C116.448 56.2224 108.548 58.5924 99.1383 57.6224C96.1383 57.3124 91.6983 56.0924 88.6983 54.6124C88.1383 54.3324 87.6183 54.0424 87.1783 53.7524C80.2983 49.1924 78.7683 41.5424 82.0583 32.0924C86.6383 18.9224 96.6183 13.9424 108.698 16.7624C109.798 17.0224 110.858 17.3524 111.868 17.7624C121.968 21.7124 127.568 32.2724 125.168 42.5224Z" fill="white"/>
<path d="M125.169 42.5224C125.019 43.1224 124.869 43.7124 124.679 44.2824C124.669 44.3124 124.659 44.3424 124.659 44.3624C123.889 46.6324 122.749 48.7124 121.299 50.5224C121.259 50.5824 121.209 50.6324 121.149 50.6924C116.449 56.2224 108.549 58.5924 99.1392 57.6224C96.1392 57.3124 91.6992 56.0924 88.6992 54.6124C114.949 53.1924 121.239 28.6824 111.859 17.7724C121.959 21.7224 127.559 32.2824 125.159 42.5324L125.169 42.5224Z" fill="#EDEDED"/>
<path d="M114.148 47.7124C112.868 50.6024 111.468 52.9824 110.358 53.7124C105.788 56.7324 99.2985 56.6824 93.2085 54.8524C88.7785 53.5224 84.3285 50.2824 81.4585 46.7124C81.0585 46.2124 80.7485 45.6524 80.5485 45.0424C79.3885 41.5424 79.2285 38.1724 80.6485 32.6524C82.2685 27.4424 84.6985 22.1824 86.3385 21.3724C89.2385 19.9324 96.5485 20.3524 102.278 21.9324C102.548 22.0024 102.798 22.0624 103.038 22.1424C103.198 22.2024 103.358 22.2424 103.518 22.3024C103.898 22.4124 104.278 22.5524 104.648 22.6924C104.938 22.7924 105.218 22.9024 105.508 23.0324C105.798 23.1424 106.078 23.2724 106.368 23.3924C106.648 23.5124 106.928 23.6524 107.208 23.7824C107.488 23.9124 107.768 24.0624 108.048 24.2124C108.868 24.6424 109.668 25.1124 110.438 25.6224C110.698 25.7924 110.938 25.9724 111.188 26.1424C111.618 26.4524 112.028 26.7724 112.428 27.0924C112.678 27.2924 112.908 27.4924 113.148 27.7124C113.388 27.9124 113.608 28.1224 113.828 28.3524C114.048 28.5824 114.258 28.7824 114.468 29.0024C114.878 29.4524 115.268 29.9124 115.618 30.3824C116.448 31.4624 117.108 32.6024 117.558 33.8024C118.318 35.8524 116.418 42.5924 114.138 47.7224L114.148 47.7124Z" fill="url(#paint3_linear_979_17566)"/>
<path d="M114.148 47.7124C112.868 50.6024 111.468 52.9824 110.358 53.7124C105.788 56.7324 99.2985 56.6824 93.2085 54.8524C88.7785 53.5224 84.3285 50.2824 81.4585 46.7124C81.0585 46.2124 80.7485 45.6524 80.5485 45.0424C79.3885 41.5424 79.2285 38.1724 80.6485 32.6524C82.2085 31.8324 83.3585 31.6924 84.3885 31.9124C85.3985 32.1524 86.2885 32.7324 87.3085 33.4024C88.9985 34.4624 91.0685 35.7524 94.6685 36.0524C96.0585 36.1624 97.4185 36.2924 98.7585 36.4524C104.828 37.2224 110.068 39.0024 113.258 45.6224C113.288 45.7024 113.338 45.7724 113.368 45.8424C113.648 46.4224 113.908 47.0424 114.138 47.6924L114.148 47.7124Z" fill="url(#paint4_linear_979_17566)"/>
<path style="mix-blend-mode:screen" opacity="0.4" d="M113.368 45.8624C112.728 47.3524 110.068 47.1824 106.368 45.7624C100.698 43.5824 97.8884 36.3924 90.8984 36.9324C83.9184 37.4624 84.7784 32.3724 80.6484 32.6624C82.2084 31.8424 83.3584 31.7024 84.3884 31.9224C85.3984 32.1524 86.2784 32.7324 87.3084 33.4124C88.9984 34.4824 91.0684 35.7724 94.6584 36.0624C96.0484 36.1724 97.4184 36.2924 98.7484 36.4724C104.818 37.2424 110.058 39.0224 113.258 45.6324C113.288 45.7124 113.328 45.7824 113.368 45.8624Z" fill="url(#paint5_linear_979_17566)"/>
<g style="mix-blend-mode:multiply" opacity="0.2">
<path d="M108.358 51.6024C105.268 54.0424 94.4684 51.8824 89.5784 46.0524C85.1884 40.8024 90.0984 38.3624 87.3184 33.4024C89.0084 34.4724 91.0784 35.7624 94.6684 36.0524C96.0584 36.1624 97.4284 36.2824 98.7584 36.4624C93.6984 38.9524 97.5784 48.1424 108.358 51.6024Z" fill="#757475"/>
</g>
<g style="mix-blend-mode:multiply" opacity="0.2">
<path d="M114.148 47.7124C112.868 50.6024 111.468 52.9824 110.358 53.7124C105.788 56.7324 99.2985 56.6824 93.2085 54.8524C88.7785 53.5224 84.3285 50.2824 81.4585 46.7124C81.0585 46.2124 80.7485 45.6524 80.5485 45.0424C79.3885 41.5424 79.2285 38.1724 80.6485 32.6524C82.2085 31.8324 83.3585 31.6924 84.3885 31.9124C83.7185 32.1524 83.1085 32.5324 82.5785 33.0124C78.9185 36.3624 78.9985 44.8724 90.4485 49.8824C94.6885 51.7424 98.3985 52.4124 101.528 52.3324C103.738 52.2924 105.638 51.8624 107.248 51.2124C110.208 50.0324 112.138 48.1224 112.958 46.3924C113.088 46.1324 113.198 45.8724 113.258 45.6324C113.298 45.7124 113.338 45.7924 113.368 45.8724C113.648 46.4424 113.908 47.0624 114.138 47.7124H114.148Z" fill="#757475"/>
</g>
<g style="mix-blend-mode:multiply" opacity="0.4">
<path d="M102.728 38.9524C101.258 41.2824 109.798 44.4524 110.608 43.2924C111.418 42.1324 103.838 37.1924 102.728 38.9524Z" fill="#444246"/>
</g>
<path d="M115.628 30.3724C114.818 31.5524 113.718 32.4624 112.448 33.0424C110.758 33.8324 108.788 34.0224 106.858 33.4424C102.678 32.1824 100.308 27.7824 101.558 23.5924C101.738 23.0024 101.978 22.4424 102.278 21.9424C102.538 22.0124 102.788 22.0824 103.028 22.1524C103.278 22.2224 103.518 22.3024 103.768 22.4024C108.438 23.9324 112.908 26.8024 115.618 30.3724H115.628Z" fill="url(#paint6_linear_979_17566)"/>
<path style="mix-blend-mode:screen" opacity="0.4" d="M112.458 33.0424C110.768 33.8324 108.798 34.0224 106.868 33.4424C102.688 32.1824 100.318 27.7824 101.568 23.5924C101.748 23.0024 101.988 22.4424 102.288 21.9424C102.548 22.0124 102.798 22.0824 103.038 22.1524C103.288 22.2224 103.528 22.3024 103.778 22.4024C101.768 27.9524 106.298 34.5224 112.448 33.0424H112.458Z" fill="url(#paint7_linear_979_17566)"/>
<g opacity="0.6">
<path d="M93.6391 30.2224C93.5391 30.5624 93.1691 30.7624 92.8291 30.6624C92.4891 30.5624 92.2891 30.1924 92.3891 29.8524C92.4891 29.5024 92.8591 29.3124 93.1991 29.4124C93.5391 29.5124 93.7391 29.8824 93.6391 30.2224Z" fill="#EDE6F4"/>
<path d="M96.7785 27.4124C96.7185 27.6324 96.4885 27.7524 96.2685 27.6824C96.0485 27.6224 95.9285 27.3924 95.9985 27.1724C96.0585 26.9524 96.2885 26.8324 96.5085 26.9024C96.7285 26.9624 96.8485 27.1924 96.7785 27.4124Z" fill="#EDE6F4"/>
<path d="M89.3795 23.1524C89.2995 23.4124 89.0295 23.5624 88.7695 23.4824C88.5095 23.4024 88.3595 23.1324 88.4395 22.8724C88.5195 22.6124 88.7895 22.4624 89.0495 22.5424C89.3095 22.6224 89.4595 22.8924 89.3795 23.1524Z" fill="#EDE6F4"/>
<path d="M88.7489 30.3624C88.6589 30.6624 88.3389 30.8324 88.0389 30.7424C87.7389 30.6524 87.5689 30.3324 87.6589 30.0324C87.7489 29.7324 88.0689 29.5624 88.3689 29.6524C88.6689 29.7424 88.8389 30.0624 88.7489 30.3624Z" fill="#EDE6F4"/>
<path d="M106.239 35.6224C106.159 35.8824 105.889 36.0324 105.629 35.9524C105.369 35.8724 105.219 35.6024 105.299 35.3424C105.379 35.0824 105.649 34.9324 105.909 35.0124C106.169 35.0924 106.319 35.3624 106.239 35.6224Z" fill="#EDE6F4"/>
</g>
<path opacity="0.3" d="M114.668 32.7724C114.668 32.7724 114.578 32.7424 114.518 32.7124C94.8182 25.5124 82.0182 30.3224 82.5882 44.4624C78.4982 36.6124 85.5982 24.2024 87.7782 23.6924C98.4982 21.1724 109.618 27.7924 114.668 32.7724Z" fill="white"/>
<path d="M126.689 47.2724C124.619 52.2124 120.739 55.3024 118.039 54.1624C115.339 53.0324 114.829 48.1024 116.909 43.1624C118.979 38.2224 122.859 35.1324 125.559 36.2724C128.259 37.4124 128.769 42.3324 126.689 47.2724Z" fill="#3E4B82"/>
<path d="M126.058 46.8924C124.758 49.9824 122.338 51.9124 120.648 51.2024C118.958 50.4924 118.638 47.4124 119.938 44.3224C121.238 41.2324 123.658 39.3024 125.348 40.0124C127.038 40.7224 127.358 43.8024 126.058 46.8924Z" fill="#66D4D9"/>
<path d="M125.319 46.5824C124.159 49.3424 122.069 51.0924 120.639 50.5024C119.209 49.9124 118.999 47.1824 120.159 44.4224C121.319 41.6624 123.409 39.9124 124.839 40.5024C126.259 41.1024 126.479 43.8224 125.319 46.5824Z" fill="#3E4B82"/>
<path opacity="0.3" d="M93.9785 51.7324C93.9785 51.7324 102.239 54.6624 106.809 52.8224C111.369 50.9724 114.529 42.3924 114.529 42.3924C114.529 42.3924 111.379 47.1724 104.859 49.7824C98.6985 52.2424 93.9885 51.7424 93.9885 51.7424L93.9785 51.7324Z" fill="white"/>
<path d="M104.318 75.6224C103.618 69.9224 108.438 61.4224 112.298 59.4924C116.158 57.5624 117.648 60.8924 117.648 60.8924C117.648 60.8924 114.138 62.2124 110.718 66.0624C107.298 69.9124 104.318 75.6224 104.318 75.6224Z" fill="#3E4B82"/>
<path d="M93.6199 68.4324L92.9199 70.8824L99.1399 72.2924L100.37 68.8724L93.6199 68.4324Z" fill="#EDEDED"/>
<path d="M71.3295 94.3524L71.1895 96.5924C71.1895 96.5924 75.5495 103.462 96.3295 103.892C96.5095 103.102 96.6395 101.572 96.6395 101.572C96.6395 101.572 78.6995 102.242 71.3295 94.3524Z" fill="#3E4B82"/>
<path d="M75.969 113.612C81.309 108.692 95.819 110.222 95.819 110.222C95.819 110.222 99.519 107.432 96.539 104.722C93.569 102.022 78.279 108.522 75.959 113.602L75.969 113.612Z" fill="#3E4B82"/>
<path d="M75.968 113.612C70.408 109.052 68.868 99.1424 71.218 96.8824C65.898 91.9224 62.878 109.062 75.968 113.612Z" fill="#3E4B82"/>
<path d="M119.828 170.482C119.828 170.482 115.538 171.802 113.168 167.242C110.808 162.672 110.018 155.842 110.018 155.842C110.018 155.842 103.518 150.182 98.1484 144.882L103.208 140.342L111.768 153.472L116.758 153.562L119.828 170.482Z" fill="#3E4B82"/>
<path d="M33.819 124.102L34.349 127.862L16.029 130.672C16.029 130.672 15.589 126.552 18.139 125.152C20.679 123.742 31.289 122.962 31.289 122.962C31.289 122.962 36.359 115.232 41.279 108.172L46.109 112.562L33.839 124.112L33.819 124.102Z" fill="#3E4B82"/>
<path d="M128.369 69.0924L129.609 57.6424C129.609 57.6424 134.339 55.4024 135.579 60.1324C132.839 63.2424 129.609 69.7124 129.609 69.7124L128.369 69.0924Z" fill="#3E4B82"/>
<path d="M139.138 67.5224C138.378 67.6924 137.458 68.0424 136.618 68.7024C135.518 69.5624 134.808 70.7624 134.478 72.2624L133.568 71.3624C133.998 69.9024 134.798 68.7124 135.918 67.8224C136.758 67.1524 137.668 66.7624 138.468 66.5324C138.688 66.8524 138.918 67.1924 139.128 67.5224H139.138Z" fill="#EDEDED"/>
<path d="M63.4186 62.9924L60.5586 52.9124C60.5586 52.9124 62.7986 50.3024 65.6586 52.9124C65.2886 56.0224 64.6586 62.7424 64.6586 62.7424L63.4186 62.9924Z" fill="#3E4B82"/>
<path d="M57.5898 64.5724C57.2298 64.7624 56.8698 64.9424 56.4998 65.1224C56.4398 64.0224 56.1898 62.6824 55.4498 61.5824C54.9698 60.8924 54.3198 60.3524 53.5098 59.9924C53.8498 59.7424 54.1798 59.5024 54.5298 59.2524C55.2698 59.6824 55.8898 60.2524 56.3698 60.9524C57.1498 62.0924 57.4798 63.4124 57.5898 64.5724Z" fill="#EDEDED"/>
<path d="M76.2581 97.0124L75.3281 101.402L81.6681 103.102L82.8481 99.3524L76.2581 97.0124Z" fill="#3E4B82"/>
<path d="M76.9186 97.9424L76.3086 100.932L81.0486 102.212L81.8586 99.6624L76.9186 97.9424Z" fill="#66D4D9"/>
<path d="M77.1787 98.2024L76.6387 100.842L80.8087 101.962L81.5187 99.7124L77.1787 98.2024Z" fill="#3E4B82"/>
<g style="mix-blend-mode:screen" opacity="0.6">
<path d="M76.5284 97.5824L75.8984 100.942L81.3284 102.602L81.6584 101.612L76.5284 97.5824Z" fill="#6778C2"/>
</g>
</g>
<defs>
<radialGradient id="paint0_radial_979_17566" cx="0" cy="0" r="1" gradientUnits="userSpaceOnUse" gradientTransform="translate(128.596 59.5135) rotate(3.3486) scale(94.1764 94.1764)">
<stop stop-color="#DBE7EE"/>
<stop offset="1" stop-color="#B7C5CD"/>
</radialGradient>
<radialGradient id="paint1_radial_979_17566" cx="0" cy="0" r="1" gradientUnits="userSpaceOnUse" gradientTransform="translate(140.098 49.1627) scale(49.9383 49.9383)">
<stop stop-color="#EBEBEB"/>
<stop offset="1" stop-color="#555F71"/>
</radialGradient>
<radialGradient id="paint2_radial_979_17566" cx="0" cy="0" r="1" gradientUnits="userSpaceOnUse" gradientTransform="translate(100.124 85.5239) rotate(90) scale(51.5136 54.9641)">
<stop stop-color="#DFDFDF"/>
<stop offset="1" stop-color="#DFDFDF" stop-opacity="0"/>
</radialGradient>
<linearGradient id="paint3_linear_979_17566" x1="99.0985" y1="34.4524" x2="100.908" y2="23.8324" gradientUnits="userSpaceOnUse">
<stop stop-color="#5A397A"/>
<stop offset="1" stop-color="#372E63"/>
</linearGradient>
<linearGradient id="paint4_linear_979_17566" x1="94.9385" y1="53.1124" x2="98.3285" y2="34.9424" gradientUnits="userSpaceOnUse">
<stop stop-color="#5A397A"/>
<stop offset="1" stop-color="#804A8F"/>
</linearGradient>
<linearGradient id="paint5_linear_979_17566" x1="80.2075" y1="34.1961" x2="113.852" y2="44.3028" gradientUnits="userSpaceOnUse">
<stop stop-color="#5A397A"/>
<stop offset="1" stop-color="#804A8F"/>
</linearGradient>
<linearGradient id="paint6_linear_979_17566" x1="100.69" y1="26.5246" x2="115.458" y2="30.9609" gradientUnits="userSpaceOnUse">
<stop stop-color="#76397A"/>
<stop offset="1" stop-color="#251F42"/>
</linearGradient>
<linearGradient id="paint7_linear_979_17566" x1="100.69" y1="26.5246" x2="113.284" y2="30.3078" gradientUnits="userSpaceOnUse">
<stop stop-color="#5A397A"/>
<stop offset="1" stop-color="#804A8F"/>
</linearGradient>
<clipPath id="clip0_979_17566">
<rect width="185" height="175" fill="white"/>
</clipPath>
</defs>
</svg>
