<svg width="185" height="175" viewBox="0 0 185 175" fill="none" xmlns="http://www.w3.org/2000/svg">
<circle opacity="0.9" cx="94" cy="96" r="62" fill="white"/>
<g opacity="0.2">
<path style="mix-blend-mode:screen" opacity="0.5" d="M156.061 95.9897C156.061 97.4399 156.011 98.8802 155.901 100.3C155.559 105.512 154.55 110.658 152.9 115.613C152.885 115.671 152.865 115.728 152.84 115.783C150.698 122.113 147.55 128.057 143.519 133.386C137.191 141.757 128.842 148.384 119.255 152.649C114.736 154.673 109.987 156.134 105.112 157C101.482 157.656 97.8 157.991 94.1105 158C82.7043 158.003 71.5176 154.864 61.7784 148.927C52.0391 142.99 44.1238 134.485 38.9013 124.344C38.1212 122.814 37.391 121.234 36.7409 119.624C33.6497 112.135 32.0659 104.111 32.0802 96.0097C32.0802 95.4596 32.0802 94.9295 32.0802 94.3694C32.0802 93.8093 32.0802 93.4893 32.0802 93.0592C32.0802 92.8392 32.0802 92.5991 32.0802 92.3791C32.1335 91.4189 32.2135 90.4688 32.3202 89.5286C32.3202 88.9885 32.4402 88.4384 32.5002 87.8983C32.5602 87.3583 32.6503 86.8982 32.7303 86.3681C32.8103 85.838 32.9003 85.3679 33.0003 84.7878C33.1503 83.9177 33.3304 83.0775 33.5304 82.2274C33.6404 81.6873 33.7804 81.1672 33.9105 80.6271C34.3839 78.7868 34.934 76.9799 35.5607 75.2062C35.6507 74.9462 35.7408 74.6962 35.8408 74.4461C35.9408 74.1961 36.0908 73.786 36.2208 73.4459C36.3509 73.1059 36.6009 72.4458 36.7909 72.0157C36.981 71.5856 37.191 71.0856 37.401 70.6255C38.645 67.8551 40.0926 65.1806 41.7318 62.6241C41.9118 62.3341 42.1018 62.044 42.3018 61.764C42.5019 61.484 42.7919 61.0039 43.062 60.6338C44.3401 58.7862 45.7226 57.013 47.2027 55.3229C52.3989 49.3578 58.6857 44.439 65.7258 40.8305C71.2161 38.0033 77.1043 36.0271 83.1887 34.9696C86.739 34.35 90.3364 34.0388 93.9404 34.0394C103.246 34.0199 112.435 36.1128 120.815 40.1604C122.035 40.7405 123.235 41.3506 124.406 42.0207L124.766 42.2208L124.906 42.3008C132.383 46.6274 138.878 52.4619 143.979 59.4336C147.685 64.4211 150.627 69.9324 152.71 75.7863L152.92 76.3764C152.99 76.5765 153.06 76.7865 153.12 76.9865C154.38 80.9153 155.247 84.959 155.711 89.0585C155.831 90.1887 155.931 91.3289 155.981 92.4891C156.031 93.6493 156.061 94.8095 156.061 95.9897Z" fill="url(#paint0_radial_979_17567)"/>
<g style="mix-blend-mode:multiply" opacity="0.2">
<path d="M156.061 95.99C156.061 97.4402 156.011 98.8805 155.901 100.301C155.738 100.996 155.393 101.634 154.901 102.151C153.993 102.934 152.891 103.456 151.71 103.661C150.01 104.041 148.229 104.211 146.499 104.461C144.388 104.737 142.308 105.216 140.288 105.892C136.457 107.192 132.715 108.742 129.086 110.532C125.27 112.44 121.327 114.081 117.284 115.443C115.124 116.153 112.874 116.593 110.693 117.273C109.693 117.594 108.633 117.834 107.603 118.074C106.162 118.424 104.792 118.884 103.372 119.204C101.532 119.624 99.7614 120.204 97.9211 120.624C95.8507 121.054 93.8104 121.824 91.72 122.134C90.0682 122.409 88.3914 122.503 86.7192 122.414C85.9891 122.354 85.269 122.254 84.5488 122.214C83.5487 122.144 82.5485 122.164 81.6184 122.094C80.2146 122.024 78.8074 122.095 77.4177 122.304C75.8454 122.546 74.2486 122.583 72.6669 122.414C71.1275 122.159 69.6096 121.788 68.1261 121.304C66.5549 120.851 64.9304 120.609 63.2953 120.584C62.6652 120.584 62.0351 120.704 61.415 120.754C60.7949 120.804 60.1048 120.844 59.4147 120.914C58.4335 121.009 57.4454 121.009 56.4642 120.914C54.9275 120.745 53.428 120.33 52.0234 119.684C50.4623 119.018 48.832 118.529 47.1626 118.224C45.6724 117.994 44.1621 117.434 42.6619 117.764C42.4135 117.802 42.163 117.826 41.9117 117.834C41.5817 117.834 41.2716 118.004 40.9116 118.044C40.5166 118.051 40.1278 118.143 39.7714 118.314C39.596 118.439 39.429 118.576 39.2713 118.724C39.1159 118.874 38.9487 119.011 38.7712 119.134C38.489 119.258 38.1982 119.362 37.9011 119.444C37.5069 119.598 37.0803 119.649 36.6609 119.594C33.5696 112.106 31.9858 104.081 32.0001 95.98C32.0001 95.4299 32.0001 94.8998 32.0001 94.3397C32.0001 93.7796 32.0001 93.4595 32.0001 93.0295C32.0001 92.8094 32.0001 92.5694 32.0001 92.3494C32.0534 91.3892 32.1334 90.439 32.2401 89.4989C32.2401 88.9588 32.3602 88.4087 32.4202 87.8686C32.4802 87.3285 32.5702 86.8684 32.6502 86.3384C32.7302 85.8083 32.8202 85.3382 32.9203 84.7581C33.0703 83.888 33.2503 83.0478 33.4503 82.1977C33.5604 81.6576 33.7004 81.1375 33.8304 80.5974C34.3038 78.7571 34.8539 76.9501 35.4807 75.1765C35.5707 74.9165 35.6607 74.6664 35.7607 74.4164C35.8607 74.1663 36.0108 73.7563 36.1408 73.4162C36.2708 73.0762 36.5208 72.416 36.7109 71.986C36.9009 71.5559 37.111 71.0558 37.321 70.5957C38.565 67.8253 40.0125 65.1509 41.6517 62.5944C41.8317 62.3044 42.0218 62.0143 42.2218 61.7343C42.4218 61.4542 42.7119 60.9741 42.9819 60.6041C44.26 58.7565 45.6425 56.9833 47.1226 55.2932C46.5925 56.5334 45.9224 57.8736 46.2325 59.2939C46.3118 59.6836 46.436 60.0629 46.6025 60.424C46.6319 60.4746 46.6554 60.5283 46.6725 60.5841C47.1826 59.824 47.6727 59.0438 48.2328 58.2937C48.9229 57.2935 49.583 56.2934 50.3332 55.3932C51.0833 54.4931 51.6934 53.903 52.3335 53.1628C52.5735 52.9128 53.1636 52.1627 53.5537 52.1627C53.6837 52.5827 53.2936 53.1628 53.1236 53.5129C52.8736 54.053 52.4635 54.5131 52.2535 55.0732C52.1935 55.2732 52.0834 55.6332 52.3735 55.6232C52.4913 55.557 52.6048 55.4835 52.7135 55.4032C53.0536 55.1632 53.3636 54.8931 53.7137 54.6431C54.1938 54.273 54.7139 53.973 55.204 53.6429C55.694 53.3129 56.5142 52.6428 57.2043 52.1827C59.0046 50.9025 60.8249 49.5623 62.7252 48.4321C64.7307 47.2501 66.7972 46.1751 68.9162 45.2115C70.0264 44.7014 71.1166 44.1514 72.2568 43.6813C73.1203 43.3424 74.0101 43.0748 74.9172 42.8811C75.6797 42.7347 76.4519 42.6444 77.2276 42.6111C77.8677 42.5511 78.5078 42.4811 79.1579 42.4811C79.808 42.4811 80.2681 42.3811 80.8382 42.3811C81.1762 42.3938 81.5116 42.4441 81.8384 42.5311C81.9284 42.5311 82.2685 42.5911 82.3385 42.6911C82.6385 43.1612 81.2883 43.0712 81.0883 43.1612C80.3306 43.6633 79.6414 44.2617 79.0379 44.9415C78.4578 45.4516 77.8577 45.8916 77.3076 46.4517C76.6977 46.9176 76.1932 47.5073 75.8274 48.182C75.7274 48.4421 75.5773 48.8221 75.7274 49.0822C75.8774 49.3422 76.3175 49.3222 76.6075 49.2722C77.4606 49.088 78.3021 48.8543 79.1279 48.5721C80.1781 48.242 81.2483 47.942 82.2784 47.5719C83.1665 47.2161 84.0929 46.9644 85.0389 46.8218C86.0391 46.7018 86.9292 46.5117 87.8794 46.3917C88.4285 46.3021 88.9834 46.252 89.5397 46.2417C90.0197 46.2417 90.4498 46.1017 90.9199 46.1117C91.78 46.1117 91.1399 47.0418 90.7198 47.2919C89.3962 48.1989 87.9286 48.8752 86.3791 49.2922C84.5774 49.5905 82.7967 50.0048 81.0483 50.5324C79.8281 50.9625 78.5678 51.3325 77.3576 51.8026C76.6975 52.0627 76.0574 52.3427 75.4173 52.6227C74.4972 53.0128 73.627 53.5129 72.7069 53.923C71.3021 54.6135 69.963 55.4303 68.7062 56.3634C67.496 57.1735 66.3658 58.0837 65.2056 58.9638C64.1815 59.7388 63.2216 60.595 62.3352 61.5242C61.502 62.3346 60.8241 63.2904 60.3348 64.3447C59.753 65.4711 59.3834 66.6951 59.2446 67.9553C59.2485 68.4564 59.3678 68.9499 59.5933 69.3974C59.8188 69.8449 60.1444 70.2345 60.5448 70.5357C61.4535 71.2298 62.545 71.6435 63.6854 71.7259C64.472 71.7427 65.2586 71.6892 66.0358 71.5659C67.1382 71.2493 68.261 71.0087 69.3963 70.8458C70.6326 70.7223 71.8769 70.6989 73.1169 70.7758C74.535 70.9073 75.9228 71.2653 77.2276 71.8359C78.4819 72.5093 79.6823 73.2783 80.8182 74.1363C82.4279 75.2751 83.9339 76.5536 85.319 77.957C86.1091 78.7071 86.7992 79.5372 87.6394 80.2173C88.2794 80.7677 88.9471 81.2851 89.6397 81.7676C91.2492 82.8155 93.0297 83.5738 94.9006 84.008C96.3977 84.4728 97.9897 84.5417 99.5213 84.208C100.632 83.8979 101.622 83.3179 102.732 83.0278C103.409 82.8678 104.115 82.8678 104.792 83.0278C105.835 83.2434 106.898 83.3441 107.963 83.3279C108.503 83.3279 109.033 83.2478 109.583 83.2078C110.128 83.1882 110.672 83.2592 111.193 83.4179C111.573 83.5079 112.123 83.7379 111.643 84.148C111.163 84.5581 110.003 84.448 109.343 84.448C108.178 84.4046 107.011 84.4514 105.852 84.5881C105.442 84.6581 104.242 84.8281 104.162 85.3782C104.062 86.0883 105.802 86.0583 106.162 86.0083C107.223 85.8583 108.293 85.7683 109.353 85.6883C110.665 85.7014 111.973 85.8252 113.264 86.0583C114.564 86.1883 115.824 86.5884 117.134 86.6684C117.695 86.6664 118.254 86.589 118.795 86.4384C119.68 86.2429 120.554 86.0026 121.415 85.7183C122.865 85.2682 124.265 84.7181 125.746 84.428C127.029 84.1579 128.354 84.1579 129.636 84.428C130.266 84.5481 130.927 84.6381 131.567 84.7281C132.207 84.8181 132.857 84.7881 133.487 84.8681C135.328 84.9434 137.16 84.562 138.818 83.7579C140.713 82.7967 142.656 81.9321 144.639 81.1675C145.94 80.7724 147.282 80.5274 148.639 80.4374C148.964 80.3459 149.303 80.312 149.64 80.3374C149.81 80.3374 149.94 80.4974 150.1 80.5374C150.52 80.6674 150.6 80.3774 150.74 80.0573C150.917 79.7699 151.071 79.469 151.2 79.1572C151.29 78.8471 151.37 78.5171 151.48 78.157C151.59 77.7969 151.58 77.4169 151.71 77.0468C151.8 76.8468 152.37 75.8266 152.6 75.7966C152.75 75.8466 152.76 76.1667 152.77 76.3867C152.78 76.6067 152.77 76.5067 152.77 76.5467C152.789 76.71 152.851 76.8653 152.95 76.9968C154.267 80.9164 155.191 84.9568 155.711 89.0588C155.231 88.9088 154.71 88.7488 154.29 88.6287C153.59 88.4487 152.87 88.3687 152.16 88.2387C151.45 88.1086 150.86 87.9486 150.21 87.8686C148.808 87.7754 147.403 88.0118 146.109 88.5587C145.463 88.7808 144.834 89.0516 144.229 89.3689C143.659 89.6689 143.089 89.969 142.498 90.229C141.908 90.489 141.268 90.7391 140.618 90.9691C139.618 91.2992 138.758 91.7893 137.788 92.1393C136.287 92.6594 134.787 93.4295 133.297 93.7996C131.896 94.1964 130.458 94.4511 129.006 94.5597C127.746 94.6397 126.466 94.2997 125.196 94.4697C124.696 94.5397 124.195 94.7098 123.725 94.7998C123.311 94.9179 122.89 95.0114 122.465 95.0798C121.785 95.0798 121.125 95.1398 120.465 95.2098C119.345 95.3298 118.244 95.4299 117.124 95.4399C116.288 95.4564 115.453 95.5232 114.624 95.6399C113.844 95.7499 113.074 95.7799 112.293 95.8999C111.527 96.0016 110.779 96.2138 110.073 96.5301C109.883 96.6201 109.383 96.8501 109.423 97.1202C109.463 97.3902 109.723 97.4402 109.883 97.5002C110.431 97.6781 111.01 97.7428 111.583 97.6903C112.069 97.6835 112.553 97.6467 113.034 97.5802C113.704 97.5202 114.374 97.5802 115.034 97.5302C117.162 97.3506 119.306 97.5298 121.375 98.0603C122.664 98.3547 123.995 98.4157 125.306 98.2403C127.116 97.9803 128.846 97.4102 130.647 97.1202C133.807 96.6101 136.968 96.02 140.088 95.3899C141.598 95.0998 143.039 94.5897 144.549 94.3297L146.549 93.9496C147.469 93.7596 148.419 93.7196 149.35 93.5896C150.74 93.3995 152.07 92.9094 153.46 92.7394C154.31 92.6294 155.151 92.5294 155.991 92.4894C156.021 93.6396 156.061 94.8098 156.061 95.99Z" fill="#312C2F"/>
</g>
<g style="mix-blend-mode:multiply" opacity="0.2">
<path d="M143.51 133.397C134.131 145.816 120.418 154.246 105.103 157.011C105.089 156.98 105.069 156.953 105.043 156.931C104.203 156.051 103.283 155.271 102.373 154.45C101.385 153.508 100.343 152.623 99.2524 151.8C97.2627 150.425 95.1956 149.166 93.0613 148.029C90.8695 146.685 88.5473 145.566 86.1302 144.689C84.8031 144.22 83.4508 143.826 82.0795 143.509C80.3793 143.179 78.619 143.108 76.8987 142.908C71.4455 142.213 65.9055 142.763 60.696 144.519C59.6165 144.873 58.5637 145.305 57.5455 145.809L57.3254 145.929C49.6081 140.245 43.304 132.86 38.9023 124.345C39.4466 124.13 40.0194 123.995 40.6026 123.945C41.0627 123.945 41.5228 123.945 41.9829 123.945C42.7994 124.046 43.5956 124.272 44.3433 124.615C46.3673 125.483 48.566 125.867 50.7643 125.736C51.3207 125.684 51.8723 125.59 52.4146 125.456C52.9247 125.316 53.4148 125.055 53.9249 124.965C54.6635 124.9 55.4065 124.9 56.1452 124.965C56.7358 125.028 57.3209 125.135 57.8955 125.286C58.4256 125.376 58.9657 125.416 59.5058 125.516C60.0599 125.666 60.6251 125.773 61.1961 125.836C63.058 125.829 64.9038 125.49 66.647 124.835C67.5335 124.583 68.4465 124.435 69.3674 124.395C71.7578 124.125 73.9982 124.965 76.2486 125.676C77.5226 126.01 78.8321 126.192 80.1492 126.216C81.4963 126.329 82.8483 126.372 84.1999 126.346C86.2807 126.284 88.357 126.117 90.4209 125.846C91.2511 125.756 92.0812 125.636 92.8913 125.466C94.4216 125.166 95.9618 124.945 97.4921 124.655C101.262 123.931 104.988 122.996 108.654 121.855C110.254 121.345 111.814 120.705 113.425 120.195C114.082 119.991 114.749 119.824 115.425 119.695C116.075 119.486 116.775 119.486 117.425 119.695C117.525 119.725 117.616 119.776 117.694 119.845C117.772 119.914 117.833 119.999 117.875 120.094C117.917 120.189 117.938 120.291 117.936 120.395C117.934 120.499 117.91 120.601 117.865 120.695C117.655 121.125 116.965 121.475 116.585 121.695C116.003 121.991 115.389 122.219 114.755 122.375C113.585 122.775 112.425 123.245 111.254 123.635C110.544 123.875 109.814 123.995 109.094 124.165C108.256 124.383 107.434 124.657 106.634 124.985C105.923 125.266 105.323 125.716 104.583 125.986C103.583 126.356 102.583 126.626 101.583 126.986C99.0624 127.986 96.702 129.426 94.0215 129.986C93.1614 130.189 92.3133 130.439 91.4811 130.736C91.101 130.856 90.4809 131.076 90.4809 131.607C90.4809 132.407 91.6411 132.667 92.2012 132.797C93.0814 133.007 93.9215 133.337 94.8017 133.547C95.3875 133.708 95.9492 133.947 96.4719 134.257C97.2575 134.67 98.0904 134.986 98.9523 135.197C100.875 135.699 102.856 135.944 104.843 135.927C107.594 135.817 110.304 135.267 113.065 135.427C114.24 135.528 115.403 135.746 116.535 136.077C117.645 136.367 118.756 136.557 119.896 136.737C122.854 137.129 125.847 137.186 128.817 136.907C130.925 136.756 133.02 136.466 135.088 136.037C136.538 135.861 137.963 135.526 139.339 135.037C139.969 134.777 140.629 134.647 141.259 134.347C141.639 134.157 141.979 134.007 142.37 133.847C142.741 133.675 143.121 133.525 143.51 133.397Z" fill="#282527"/>
</g>
<g style="mix-blend-mode:multiply" opacity="0.2">
<path d="M152.889 115.622C152.138 117.853 151.263 120.04 150.268 122.173L150.118 122.253C149.384 122.64 148.71 123.132 148.118 123.714C147.64 124.142 147.105 124.502 146.528 124.784C146.148 124.974 145.808 125.224 145.427 125.404C145.047 125.584 144.617 125.864 144.217 126.084C143.582 126.503 142.983 126.975 142.427 127.494C142.217 127.674 142.037 127.884 141.817 128.064C141.597 128.244 141.467 128.314 141.307 128.464C140.977 128.764 140.667 129.084 140.307 129.354C139.565 129.923 138.763 130.409 137.916 130.805C137.365 131.048 136.797 131.248 136.216 131.405C135.566 131.605 134.936 131.775 134.296 131.925C133.655 132.075 133.035 132.305 132.405 132.505C131.715 132.711 131.009 132.862 130.295 132.955C129.175 133.115 128.055 133.075 126.944 133.325C126.364 133.435 125.804 133.625 125.214 133.755C124.624 133.885 124.094 134.065 123.514 134.145C122.519 134.289 121.508 134.289 120.513 134.145C120.181 134.107 119.847 134.087 119.513 134.085C119.293 134.085 119.073 134.025 118.843 134.025L118.453 134.025C117.516 133.91 116.569 133.91 115.632 134.025C114.682 134.115 113.722 134.165 112.782 134.215C112.32 134.261 111.854 134.261 111.392 134.215C110.849 134.17 110.304 134.17 109.762 134.215C108.575 134.279 107.386 134.222 106.211 134.045C106.225 133.605 106.4 133.186 106.701 132.865C106.791 132.725 106.801 132.615 106.961 132.525C107.146 132.426 107.34 132.346 107.541 132.285C107.676 132.216 107.817 132.159 107.961 132.115C108.291 132.036 108.625 131.976 108.961 131.935C109.32 131.849 109.684 131.789 110.052 131.755C110.472 131.755 110.902 131.755 111.322 131.755L112.402 131.815C113.077 131.858 113.747 131.965 114.402 132.135C115.042 132.315 115.693 132.525 116.403 132.685C118.453 133.175 120.513 133.955 122.634 133.505C122.904 133.445 123.144 133.425 123.394 133.355C123.874 133.255 124.294 133.045 124.764 132.935C125.978 132.716 127.18 132.432 128.365 132.085C128.903 131.904 129.43 131.694 129.945 131.455C130.435 131.205 130.865 130.875 131.365 130.655C131.865 130.435 132.365 130.165 132.855 129.945L134.296 129.314C135.444 128.813 136.566 128.252 137.656 127.634C138.674 127.025 139.656 126.357 140.597 125.634C141.727 124.804 142.777 123.864 143.937 123.073C144.769 122.521 145.631 122.013 146.518 121.553C147.116 121.319 147.668 120.98 148.148 120.553C148.583 119.95 148.977 119.319 149.328 118.663C149.746 118.018 150.287 117.461 150.918 117.022C151.218 116.802 151.548 116.612 151.849 116.382C152.149 116.152 152.539 115.902 152.889 115.622Z" fill="#470024"/>
</g>
<g style="mix-blend-mode:multiply" opacity="0.2">
<path d="M132.708 45.6413C132.708 45.7313 132.758 45.8413 132.788 45.9414C132.708 46.0114 132.648 45.9614 132.708 45.6413Z" fill="#470024"/>
</g>
<g style="mix-blend-mode:multiply" opacity="0.2">
<path d="M148.442 66.2352C147.14 67.5055 145.614 68.5229 143.941 69.2357C141.62 70.2358 139.06 69.9458 136.63 70.2358C136.17 70.2858 135.819 70.5259 135.379 70.5859C134.939 70.6459 134.489 70.5059 134.059 70.5859C133.011 70.7689 131.952 70.8858 130.889 70.936C129.408 70.936 128.078 71.276 126.598 71.276C125.118 71.276 123.097 71.6661 121.807 71.206C121.937 70.5659 123.807 70.2659 124.418 70.0258C125.612 69.5424 126.889 69.2945 128.178 69.2957C128.938 69.2957 129.578 69.0056 130.329 68.9356C131.079 68.8656 131.639 69.0156 132.329 68.8856C133.019 68.7556 134.979 68.3455 134.769 67.2854C134.562 66.9169 134.302 66.5801 133.999 66.2852C133.635 65.9967 133.206 65.8011 132.749 65.7151C131.919 65.5351 131.369 65.5951 132.169 64.7149C132.689 64.1448 133.279 63.2047 132.089 62.9346C131.185 62.8769 130.278 63.0098 129.428 63.3247C128.984 63.3166 128.54 63.3333 128.098 63.3747C127.668 63.4747 127.218 63.7748 126.788 63.8848C126.358 63.9948 125.678 63.8848 125.108 64.0448C124.542 64.1884 123.961 64.2656 123.377 64.2749C121.147 64.3449 118.817 65.7351 116.576 65.215L113.856 64.6049C112.506 64.3149 110.925 64.7949 109.615 64.965C107.925 65.185 106.245 65.355 104.534 65.6151C103.534 65.7751 102.314 66.2652 101.344 65.8851C101.724 65.4851 102.674 65.435 103.194 65.285C104.614 64.925 106.095 64.6449 107.525 64.3749C108.955 64.1048 110.675 63.8848 112.226 63.7048C113.226 63.5647 114.306 63.7648 115.296 63.5947C118.148 63.2244 120.949 62.5367 123.647 61.5444C126.198 60.5442 128.138 58.2739 130.099 56.3335C131.229 55.3973 132.178 54.2617 132.899 52.983C133.198 52.2274 133.455 51.4561 133.669 50.6726C133.837 49.8562 133.781 49.0098 133.509 48.2222C139.589 53.2197 144.658 59.3338 148.442 66.2352Z" fill="#470024"/>
</g>
<g style="mix-blend-mode:multiply" opacity="0.2">
<path d="M39.8527 70.4459C40.3879 68.9491 41.082 67.514 41.9231 66.1652C42.1883 65.9136 42.4725 65.6829 42.7732 65.4751C43.2033 65.095 43.7734 63.9848 44.4735 63.9748C45.3437 63.9748 44.2635 65.305 45.3237 65.235C46.3838 65.165 47.274 63.9848 48.1241 63.4547C48.5879 63.1392 49.1335 62.9654 49.6944 62.9546C50.1645 63.0847 50.0044 63.2347 50.0845 63.7048C50.4768 63.6517 50.8344 63.4515 51.0846 63.1447C51.747 62.3968 52.5153 61.7498 53.365 61.2243C53.8151 60.9743 55.6554 59.7441 56.2455 60.2842C56.8356 60.8243 55.1353 62.7646 54.9153 63.0346C53.9026 64.3432 53.1922 65.8598 52.8349 67.4754C52.2748 69.8758 54.1551 72.7063 56.2155 73.7364C56.7455 73.9965 57.2156 74.3565 57.6957 74.6666C58.3916 75.0684 59.1537 75.3428 59.9461 75.4767C61.7171 76.0553 63.5205 76.5296 65.347 76.897C67.288 77.0928 69.2475 76.9917 71.1579 76.5969C71.6099 76.379 72.1006 76.253 72.6016 76.2261C73.1026 76.1993 73.604 76.2722 74.0766 76.4406C74.5492 76.609 74.9837 76.8695 75.3548 77.2071C75.726 77.5447 76.0265 77.9526 76.2388 78.4072C76.8794 79.0545 77.6146 79.6008 78.4192 80.0275C79.3593 80.6476 80.4195 81.0877 81.4197 81.6377C82.0498 81.9978 82.5899 82.4679 83.21 82.8279C83.82 83.0815 84.3922 83.4181 84.9102 83.8281C85.3437 84.1529 85.7014 84.5679 85.9587 85.0446C86.216 85.5212 86.3668 86.048 86.4005 86.5886C86.4005 87.2887 85.8404 87.3487 85.4803 87.8788C86.3205 88.5189 87.4107 88.6089 88.2408 89.189C88.5008 89.359 89.241 89.6691 89.1109 90.0591C88.9309 90.6993 87.1106 90.5592 86.7805 90.5592C83.1799 90.5592 79.5694 90.4492 75.9788 90.5592C74.7141 90.5944 73.4553 90.745 72.2181 91.0093C71.9918 91.0245 71.7714 91.0877 71.5714 91.1946C71.3714 91.3015 71.1963 91.4497 71.0579 91.6294C71.6907 92.0771 72.4433 92.3245 73.2183 92.3395C75.0586 92.5696 76.8689 93.0396 78.7092 93.3397C80.5495 93.6397 82.0098 94.3399 83.7101 94.7899C84.4002 94.95 85.0703 95.19 85.7604 95.35C86.6672 95.4965 87.5826 95.5834 88.5008 95.6101C92.2314 95.9501 96.0021 95.08 99.7527 95.09C101.153 95.107 102.553 95.0335 103.943 94.8699C105.179 94.7016 106.391 94.3895 107.554 93.9398C108.274 93.6898 109.014 93.5797 109.744 93.3597C110.475 93.1397 111.185 92.8296 111.935 92.6496C113.244 92.3189 114.586 92.1377 115.935 92.1095C117.136 92.1095 118.286 92.4295 119.486 92.3395C121.396 92.1895 123.077 91.4194 124.947 91.1693C128.352 90.6879 131.684 89.7876 134.869 88.4889C136.128 88.0429 137.438 87.7573 138.769 87.6387C139.139 87.5887 139.459 87.4087 139.829 87.3687C140.162 87.3899 140.496 87.3899 140.83 87.3687C141.516 87.1598 142.164 86.8424 142.75 86.4285C143.587 85.8029 144.466 85.2348 145.38 84.7283C146.38 84.3082 147.471 84.0881 148.491 83.7281C148.891 83.5981 149.281 83.408 149.681 83.288C150.081 83.168 150.371 83.228 150.581 83.028C149.811 83.5417 148.958 83.9205 148.061 84.1482C147.19 84.4774 146.369 84.925 145.62 85.4784C145.21 85.9094 144.758 86.2981 144.27 86.6386C143.226 87.4685 142.067 88.1424 140.83 88.6389C138.759 89.199 136.779 90.0792 134.689 90.6392C132.598 91.1993 130.418 91.5194 128.307 91.9795C123.818 92.9436 119.276 93.6449 114.705 94.0798C112.878 94.2517 111.066 94.5592 109.284 95C108.584 95.18 108.044 95.5901 107.334 95.7601C106.464 95.9701 105.644 96.2802 104.794 96.5602C103.063 97.1503 101.333 97.6404 99.6227 98.3105C98.7426 98.6606 97.1823 98.6606 96.8422 99.7308C97.5236 100.067 98.2937 100.179 99.0426 100.051C99.618 100.106 100.197 100.106 100.773 100.051C101.459 99.8697 102.129 99.6287 102.773 99.3307C103.403 99.0506 103.993 98.8106 104.644 98.5806C105.294 98.3505 105.554 98.0605 106.254 98.0705C106.651 98.1133 107.052 98.0964 107.444 98.0205C107.784 97.9204 107.984 97.7104 108.444 97.8704C108.284 98.2305 107.514 98.5206 107.164 98.7006C106.814 98.8806 106.224 98.9606 105.784 99.3707C105.344 99.7808 105.104 100.051 105.784 100.371C106.665 100.637 107.595 100.698 108.504 100.551C111.195 100.481 113.775 99.3607 116.505 99.9108C118.036 100.221 119.506 100.601 121.056 100.911C122.905 101.207 124.786 101.255 126.647 101.051C128.497 100.831 130.288 100.271 132.148 100.101C133.148 100.001 134.148 99.7207 135.149 99.5407C136.439 99.2907 137.739 99.0906 139.029 98.8506C140.64 98.5606 142.26 98.1705 143.87 97.9105C145.11 97.7004 146.37 97.6304 147.611 97.4204C148 97.352 148.396 97.3285 148.791 97.3504C149.231 97.3504 149.081 97.4804 149.381 97.5504C149.787 97.6434 150.184 97.7671 150.571 97.9205C150.951 98.0805 151.711 98.0205 151.791 98.5406C149.031 100.481 145.15 100.691 142 101.541C139.859 102.141 137.769 102.871 135.659 103.541C133.148 104.332 130.658 105.032 128.117 105.832C125.577 106.632 123.437 107.492 121.116 108.272C119.176 108.912 117.316 109.692 115.355 110.272C114.355 110.553 113.445 111.033 112.455 111.343C111.465 111.653 110.524 111.913 109.564 112.273C108.752 112.561 107.924 112.805 107.084 113.003C105.984 113.283 105.014 113.753 103.953 114.113C102.893 114.473 101.733 114.623 100.673 115.053C99.8437 115.446 98.9881 115.78 98.1124 116.053C96.7022 116.434 95.302 116.764 93.8817 117.054C92.8816 117.284 91.8814 117.744 90.8812 117.934C89.7427 118.113 88.5931 118.213 87.4407 118.234C86.3505 118.234 85.3203 118.484 84.2101 118.484C83.2797 118.439 82.3473 118.459 81.4197 118.544C79.909 118.713 78.3884 118.776 76.8689 118.734L75.1386 118.734C74.4962 118.82 73.8441 118.799 73.2083 118.674C73.2883 118.464 74.2985 118.364 74.6485 118.294C75.3117 118.208 75.9818 118.188 76.6489 118.234C77.3493 118.267 78.0512 118.25 78.7492 118.184C79.5393 118.064 80.3795 118.094 81.1696 117.934C82.325 117.776 83.4704 117.552 84.6002 117.264C85.2703 117.064 85.7704 116.644 86.4105 116.414C86.9488 116.26 87.4968 116.143 88.0508 116.063C88.9148 115.851 89.7895 115.684 90.6712 115.563C91.1713 115.493 91.6714 115.563 92.1815 115.453C92.9706 115.301 93.7415 115.066 94.4818 114.753C95.8121 114.293 97.0322 113.813 98.3125 113.253C99.0085 113.01 99.6268 112.586 100.103 112.023C101.003 110.753 98.8625 111.023 98.1924 111.163C96.383 111.776 94.5218 112.225 92.6315 112.503C91.7914 112.573 90.9913 112.703 90.1511 112.753C89.091 112.813 88.1508 113.023 87.0406 113.013C85.9304 113.003 85.1003 113.223 84.1101 113.273C82.7199 113.273 81.3396 113.443 79.9494 113.563C78.3892 113.703 76.8589 114.023 75.3186 114.203C74.1584 114.343 73.0083 114.373 71.8481 114.533C70.1478 114.773 68.5075 115.223 66.8472 115.533C65.9071 115.713 64.9769 115.993 64.0468 116.163C63.0445 116.287 62.0281 116.23 61.0463 115.993C59.366 115.713 57.6857 115.593 56.0454 115.173C53.7343 114.548 51.6096 113.371 49.8544 111.743C48.2107 110.193 46.1422 109.17 43.9134 108.802C42.147 108.59 40.3555 108.81 38.6926 109.442C37.4072 109.884 36.049 110.074 34.6919 110.002C33.0716 109.912 33.9317 108.532 33.9618 107.452C34.0318 104.652 33.9618 101.851 34.2518 99.0606C34.3418 98.1205 35.252 89.6691 36.6422 90.3692C36.7743 91.03 36.8678 91.6979 36.9223 92.3695C36.9823 92.9396 37.4423 93.2397 37.4923 93.7698C37.9024 93.7698 38.2925 92.1095 38.3725 91.7694C38.6825 90.4592 39.0326 89.169 39.3026 87.8488C39.6606 86.2075 39.7785 84.523 39.6527 82.8479C39.6548 82.2077 39.493 81.5776 39.1826 81.0176C38.8826 80.5976 38.6825 80.6776 38.1825 80.6676C37.3223 80.6676 36.9423 79.6674 36.9322 78.9373C36.9515 77.6458 37.2269 76.371 37.7424 75.1867C38.1925 74.0665 38.7426 72.9863 39.1526 71.8261C39.2026 71.406 39.6927 70.2559 39.8527 70.4459Z" fill="#262626"/>
</g>
<g style="mix-blend-mode:multiply" opacity="0.2">
<path d="M138.709 139.006C133.155 144.766 126.544 149.402 119.235 152.659C118.093 152.251 116.914 151.956 115.715 151.779C114.995 151.779 113.524 151.728 112.954 151.108C112.384 150.488 113.955 150.378 114.405 150.288C114.855 150.198 116.045 150.288 116.225 149.558C116.645 147.988 111.224 147.478 110.224 147.238C108.576 146.925 106.9 146.787 105.223 146.828C104.231 146.79 103.249 146.619 102.303 146.318C101.382 146.018 100.472 145.848 99.5521 145.567C97.7414 145.005 95.8835 144.606 94.0012 144.377C93.7011 144.377 91.6108 144.207 91.5508 143.887C92.5647 143.543 93.6049 143.282 94.6613 143.107C95.0814 143.037 95.2314 143.197 95.5614 143.277C95.8915 143.357 96.4316 143.387 96.8817 143.507C101.222 144.471 105.674 144.835 110.114 144.587C110.704 144.587 111.204 144.347 111.784 144.327C112.364 144.307 112.714 144.327 113.174 144.327C114.648 144.332 116.116 144.134 117.535 143.737C118.795 143.387 120.156 143.207 121.386 142.837C121.776 142.717 123.056 142.587 123.106 142.127C122.367 142.017 121.615 142.017 120.876 142.127C119.767 142.163 118.657 142.12 117.555 141.997C116.255 141.827 114.955 141.857 113.654 141.687C112.811 141.705 111.978 141.494 111.244 141.077C111.604 140.587 112.644 140.487 113.194 140.387C114.375 140.177 115.585 140.057 116.765 139.887C119.765 139.476 122.766 139.326 125.766 139.176C127.387 139.096 129.027 138.806 130.657 138.876C131.917 138.876 133.138 139.166 134.398 139.146C135.398 139.146 136.328 139.146 137.288 139.146C137.765 139.143 138.24 139.096 138.709 139.006Z" fill="#470024"/>
</g>
<g style="mix-blend-mode:soft-light" opacity="0.5">
<g style="mix-blend-mode:soft-light" opacity="0.5">
<path d="M63.6952 79.0275C63.5152 80.0277 63.0351 81.1879 63.5552 82.148C63.8353 82.5838 64.2549 82.9117 64.7454 83.0782C66.0703 83.8577 67.6043 84.2071 69.1361 84.0784C70.3594 83.9387 71.5519 83.6009 72.6667 83.0782C73.3944 82.5556 73.8896 81.7698 74.0469 80.8878C74.215 80.5045 74.2451 80.0748 74.1321 79.6718C74.019 79.2688 73.7698 78.9174 73.4268 78.6775C73.2068 78.5674 73.0168 78.3874 72.7867 78.2974C72.4197 78.2026 72.0447 78.1423 71.6665 78.1174C70.8359 78.0325 70.0007 78.0024 69.1661 78.0274C68.586 78.0274 68.0159 78.0274 67.4358 78.0274C66.9228 78.0649 66.416 78.1622 65.9256 78.3174C65.1555 78.5174 64.1953 78.4774 63.6952 79.0275Z" fill="white"/>
</g>
<g style="mix-blend-mode:soft-light" opacity="0.5">
<path d="M74.6973 82.389C75.0883 81.9895 75.5246 81.637 75.9975 81.3389C76.2875 81.5689 76.7576 81.6189 76.9076 81.989C76.9968 82.1319 77.0345 82.3011 77.0145 82.4684C76.9944 82.6357 76.918 82.7912 76.7976 82.9091C76.6763 83.0501 76.5199 83.1566 76.3444 83.2181C76.1688 83.2795 75.9802 83.2937 75.7975 83.2592C75.4174 83.1692 74.8673 82.9991 74.7973 82.539L74.6973 82.389Z" fill="white"/>
</g>
<g style="mix-blend-mode:soft-light" opacity="0.5">
<path d="M70.5785 84.8677C71.1536 84.5463 71.7602 84.2848 72.3888 84.0876C72.7088 84.0076 72.9789 83.8276 73.3089 83.7575C73.6207 83.6835 73.9389 83.6399 74.2591 83.6275C74.6792 83.6275 74.8792 83.5575 75.1793 83.8776C75.4006 84.1072 75.5983 84.3585 75.7694 84.6277C75.8903 84.7608 75.9764 84.9218 76.0201 85.0963C76.0637 85.2709 76.0635 85.4534 76.0194 85.6278C75.8911 86.11 75.6354 86.5487 75.2793 86.8981C74.7133 87.4508 74.0294 87.868 73.2789 88.1183C72.4754 88.5163 71.5949 88.7347 70.6985 88.7584C70.2737 88.6641 69.856 88.5405 69.4483 88.3883C68.8082 88.2283 68.1481 88.2283 67.508 88.1183C66.8679 88.0082 65.9777 87.6082 66.2378 86.778C66.4718 86.3452 66.8015 85.9715 67.2019 85.6855C67.6024 85.3995 68.0628 85.2087 68.5481 85.1278C68.9182 85.0478 69.2883 85.0078 69.6683 84.9377C69.969 84.8872 70.2736 84.8638 70.5785 84.8677Z" fill="white"/>
</g>
<g style="mix-blend-mode:soft-light" opacity="0.5">
<path d="M78.0375 83.5084C77.6838 83.9097 77.4483 84.4014 77.3574 84.9286C77.5174 84.9286 77.5974 85.0086 77.7475 85.0086C77.8587 84.992 77.9666 84.9582 78.0675 84.9086C78.3576 84.7986 78.5676 84.7586 78.6476 84.4385C78.6782 84.3379 78.6887 84.2322 78.6784 84.1275C78.6681 84.0228 78.6373 83.9212 78.5876 83.8284C78.3937 83.6687 78.1636 83.5588 77.9175 83.5084L78.0375 83.5084Z" fill="white"/>
</g>
<g style="mix-blend-mode:soft-light" opacity="0.5">
<path d="M84.8783 96.8108C82.748 96.481 80.601 96.2707 78.4472 96.1806C76.0163 96.2372 73.6745 97.107 71.7961 98.6511C71.036 99.3012 70.1659 99.9513 70.1759 101.051C70.1993 101.413 70.3109 101.764 70.5009 102.072C70.691 102.381 70.9537 102.638 71.266 102.822C72.2872 103.475 73.4194 103.936 74.6066 104.182C75.7508 104.521 76.9219 104.762 78.1072 104.902C79.2002 105.032 80.3047 105.032 81.3977 104.902C82.5365 104.713 83.6573 104.429 84.7483 104.052C85.6724 103.864 86.5049 103.366 87.1087 102.642C87.4293 102.154 87.6061 101.585 87.6188 101.001C87.6188 99.7913 87.7188 98.6311 86.8186 97.7109C86.581 97.4278 86.284 97.2003 85.9487 97.0448C85.6134 96.8892 85.2479 96.8093 84.8783 96.8108Z" fill="white"/>
</g>
<g style="mix-blend-mode:soft-light" opacity="0.5">
<path d="M90.3496 96.9396C90.5164 97.4737 90.7809 97.9722 91.1297 98.4098C91.3998 98.1498 92.1299 98.2998 92.44 98.2998C92.7532 98.2901 93.0647 98.2498 93.3701 98.1798C93.8902 98.0898 94.5803 98.0297 94.5803 97.3696C94.5803 96.5495 93.6602 96.4295 93.03 96.4395C92.1599 96.4395 91.2498 96.2595 90.5997 96.9396L90.3496 96.9396Z" fill="white"/>
</g>
<g style="mix-blend-mode:soft-light" opacity="0.5">
<path d="M71.4453 105.642C72.2755 105.762 73.0856 105.852 73.9057 105.912C74.7283 105.952 75.5454 106.07 76.3461 106.262C76.5755 106.285 76.7969 106.359 76.9942 106.479C77.1914 106.598 77.3596 106.76 77.4863 106.952C77.6264 107.203 77.7264 107.353 77.6063 107.633C77.3584 108.01 76.9755 108.278 76.5362 108.383C75.9185 108.66 75.2797 108.887 74.6258 109.063C73.2669 109.47 71.8625 109.705 70.4452 109.763C70.076 109.759 69.7134 109.665 69.3879 109.491C69.0623 109.317 68.7835 109.067 68.5748 108.763C68.3968 108.48 68.2925 108.157 68.2715 107.823C68.2505 107.489 68.3136 107.156 68.4548 106.852C68.6217 106.481 68.8929 106.166 69.2357 105.945C69.5784 105.725 69.9778 105.61 70.3851 105.612C70.6838 105.605 70.9815 105.649 71.2653 105.742C71.4553 105.832 71.8054 105.852 71.4453 105.642Z" fill="white"/>
</g>
<g style="mix-blend-mode:soft-light" opacity="0.5">
<path d="M36.3714 102.782C36.1853 104.017 36.0984 105.264 36.1114 106.513C36.1042 106.768 36.1586 107.021 36.2701 107.251C36.3815 107.481 36.5466 107.68 36.7515 107.833C37.3577 108.085 38.0325 108.121 38.6618 107.933C39.4311 107.635 40.1602 107.242 40.8322 106.763C41.2776 106.437 41.6605 106.034 41.9623 105.573C42.4983 104.82 42.8417 103.948 42.9625 103.032C43.1408 101.992 43.1744 100.931 43.0625 99.8816C42.9135 98.8825 42.6062 97.9136 42.1523 97.0111C42.0333 96.5881 41.7652 96.2223 41.3975 95.9815C41.0298 95.7407 40.5874 95.641 40.152 95.7009C39.3738 95.8619 38.6315 96.1636 37.9616 96.5911C37.5036 96.8821 37.1309 97.2893 36.8815 97.7713C36.6601 98.2191 36.4954 98.6929 36.3914 99.1815C36.2784 99.5884 36.1948 100.003 36.1414 100.422C35.9777 101.214 36.0579 102.037 36.3714 102.782Z" fill="white"/>
</g>
<g style="mix-blend-mode:soft-light" opacity="0.5">
<path d="M39.8527 93.0796C39.7327 92.5095 39.3827 91.6794 39.6427 91.0793C39.6927 90.9793 39.7927 90.8392 39.8527 90.7392C39.9029 90.634 39.9754 90.541 40.0652 90.4667C40.155 90.3924 40.26 90.3386 40.3728 90.3092C40.9729 90.2192 41.503 90.8293 41.613 91.3093C41.7732 91.8544 41.7232 92.4396 41.473 92.9496C41.273 93.2497 40.4728 93.5997 40.2228 93.2497L39.8527 93.0796Z" fill="white"/>
</g>
<g style="mix-blend-mode:soft-light" opacity="0.5">
<path d="M41.2232 88.1084C41.0932 86.4981 40.5131 84.5678 41.5933 83.1075C41.9533 82.6175 42.5335 81.8673 43.2336 81.9573C43.6536 82.0174 44.0637 82.4974 44.3338 82.7975C44.7372 83.2761 45.0338 83.8354 45.2039 84.4378C45.4167 84.9406 45.5483 85.474 45.594 86.018C45.5851 86.6519 45.4736 87.2801 45.2639 87.8783C45.1211 88.2722 44.8941 88.6302 44.5987 88.9273C44.3033 89.2244 43.9466 89.4535 43.5536 89.5986C43.2822 89.6695 42.9984 89.6784 42.7232 89.6247C42.4479 89.5711 42.1882 89.4562 41.9633 89.2886C41.7605 89.1587 41.5889 88.9856 41.4609 88.7815C41.3329 88.5774 41.2517 88.3476 41.2232 88.1084Z" fill="white"/>
</g>
<g style="mix-blend-mode:soft-light" opacity="0.5">
<path d="M40.1027 80.2671C40.215 80.797 40.4363 81.2977 40.7528 81.7373C40.9128 81.6073 41.1328 81.6273 41.3129 81.5473C41.552 81.4529 41.7575 81.2892 41.903 81.0772C41.9953 80.9411 42.0574 80.7867 42.085 80.6245C42.1126 80.4623 42.1051 80.2961 42.063 80.1371C41.963 79.837 41.4629 79.487 41.2129 79.2969C40.6828 78.9069 40.3627 79.3769 39.9727 79.767L40.1027 80.2671Z" fill="white"/>
</g>
<g style="mix-blend-mode:soft-light" opacity="0.5">
<path d="M97.1927 104.901C97.8558 104.518 98.5562 104.203 99.283 103.961C99.7231 103.861 100.143 103.681 100.573 103.551C101.658 103.278 102.767 103.114 103.884 103.061C104.504 103.011 105.094 103.061 105.704 102.911C106.164 102.831 106.594 102.751 107.054 102.691C108.395 102.511 109.705 102.121 111.055 101.941C111.695 101.851 112.365 101.701 113.055 101.661C113.475 101.661 113.875 101.541 114.286 101.541C115.056 101.541 115.826 101.421 116.606 101.411C119.606 101.411 122.207 102.511 124.987 103.311C125.617 103.491 126.268 103.641 126.908 103.761C127.787 104.018 128.708 104.099 129.618 104.001C130.538 103.771 130.238 102.851 129.618 102.421C128.908 101.964 128.071 101.743 127.228 101.791C126.745 101.751 126.26 101.751 125.777 101.791C125.057 101.911 123.887 102.161 123.777 103.031C123.742 103.33 123.742 103.632 123.777 103.931C123.797 104.131 123.797 104.332 123.777 104.531C123.531 105.254 123.025 105.86 122.357 106.231C122.037 106.422 121.727 106.532 121.417 106.752C121.059 106.989 120.685 107.199 120.297 107.382C119.706 107.682 119.096 107.932 118.516 108.252C118.117 108.439 117.706 108.6 117.286 108.732C116.158 109.236 114.999 109.667 113.815 110.022C112.875 110.262 111.985 110.662 111.035 110.882C110.497 111.053 109.97 111.253 109.455 111.482C109.205 111.577 108.947 111.65 108.685 111.702C108.265 111.782 107.904 111.972 107.484 112.072C106.035 112.58 104.531 112.916 103.004 113.073C102.344 113.073 101.943 113.073 101.583 112.463C101.235 111.898 100.94 111.302 100.703 110.682C100.509 109.984 100.073 109.378 99.4731 108.972C98.715 108.68 97.9737 108.346 97.2527 107.972C96.9583 107.762 96.7234 107.479 96.5709 107.151C96.4183 106.824 96.3535 106.462 96.3826 106.101C96.3457 105.835 96.3984 105.564 96.5326 105.331C96.7207 105.144 96.9454 104.998 97.1927 104.901Z" fill="white"/>
</g>
<g style="mix-blend-mode:soft-light" opacity="0.5">
<path d="M129.537 101.34C130.061 101.257 130.574 101.116 131.067 100.92L131.317 100.83C131.544 100.81 131.771 100.81 131.998 100.83C132.258 100.83 132.718 100.76 132.938 100.95C133.318 101.29 132.938 101.66 132.648 101.95C132.436 102.081 132.202 102.172 131.958 102.22C131.858 102.22 131.747 102.22 131.647 102.22C131.547 102.22 131.407 102.36 131.277 102.37C131.118 102.334 130.961 102.287 130.807 102.23C130.644 102.206 130.485 102.155 130.337 102.08C130.067 101.9 130.117 101.52 129.907 101.36L129.537 101.34Z" fill="white"/>
</g>
<g style="mix-blend-mode:soft-light" opacity="0.5">
<path d="M81.0284 131.347C79.3682 131.587 77.7979 131.537 76.4177 132.507C75.8829 132.884 75.4018 133.331 74.9875 133.838C73.9873 135.028 76.1977 135.198 76.9878 135.298C78.6007 135.49 80.1774 135.914 81.6686 136.558C82.9483 137.228 84.4323 137.396 85.8293 137.028C86.7594 136.708 87.5395 136.518 87.9396 135.548C88.1003 135.126 88.1137 134.662 87.9775 134.232C87.8414 133.802 87.5636 133.43 87.1895 133.177C86.3066 132.422 85.328 131.786 84.279 131.287C83.1728 130.819 81.9369 130.755 80.7884 131.107L81.0284 131.347Z" fill="white"/>
</g>
<g style="mix-blend-mode:soft-light" opacity="0.5">
<path d="M78.4284 129.166C78.1007 129.342 77.7979 129.56 77.5282 129.816C77.4941 129.869 77.4824 129.934 77.4955 129.996C77.5086 130.057 77.5455 130.111 77.5982 130.146C77.9994 130.395 78.4666 130.517 78.9385 130.496C79.2585 130.496 79.5486 130.426 79.8586 130.416C80.3904 130.427 80.9108 130.262 81.3389 129.946C81.5589 129.796 81.5289 129.506 81.5089 129.256C81.5014 129.111 81.4534 128.972 81.3702 128.853C81.2871 128.735 81.1722 128.642 81.0388 128.586C80.5831 128.463 80.1056 128.444 79.6417 128.531C79.1777 128.618 78.7392 128.807 78.3584 129.086L78.4284 129.166Z" fill="white"/>
</g>
<g style="mix-blend-mode:soft-light" opacity="0.5">
<path d="M70.6375 135.777C71.0804 135.704 71.5298 135.681 71.9777 135.707C72.2078 135.707 72.4378 135.847 72.6679 135.897C73.328 136.047 73.9981 136.137 74.6682 136.287C75.0659 136.352 75.4237 136.566 75.6684 136.887C75.8684 137.137 76.0084 137.277 75.9484 137.617C75.7384 138.967 74.1781 139.297 73.0479 139.437C72.1518 139.529 71.2476 139.505 70.3575 139.367C69.3573 139.227 68.3572 139.137 67.427 138.927C66.7369 138.787 66.0368 138.647 65.3566 138.457C64.8994 138.401 64.4826 138.168 64.1964 137.807C64.0964 137.653 64.0308 137.479 64.0039 137.297C63.9771 137.115 63.9898 136.93 64.041 136.753C64.0922 136.577 64.1809 136.413 64.3009 136.274C64.4209 136.135 64.5695 136.023 64.7365 135.947C65.8386 135.461 67.056 135.298 68.2471 135.477C68.6772 135.477 69.0872 135.607 69.5273 135.617C69.894 135.691 70.2647 135.745 70.6375 135.777Z" fill="white"/>
</g>
</g>
<g style="mix-blend-mode:multiply" opacity="0.2">
<path d="M99.1828 66.0855C98.5448 66.4656 97.8241 66.6853 97.0825 66.7256C96.6964 66.6892 96.3124 66.6325 95.9323 66.5556L94.182 66.2155C93.5789 66.1021 92.9648 66.0585 92.3517 66.0855C91.2615 66.0855 90.1813 66.2155 89.0812 66.2155C88.1175 66.2276 87.1544 66.1641 86.2007 66.0255C85.3205 65.8955 84.4704 65.6354 83.6102 65.4354C83.2602 65.3554 82.9201 65.2154 82.6101 65.1554C82.3 65.0953 81.7499 65.0953 81.3098 65.0353C80.4742 64.9697 79.6449 64.8393 78.8295 64.6453C78.5413 64.5844 78.2832 64.4253 78.0993 64.1952C78.0293 64.0952 77.8893 63.7451 77.9693 63.6251C78.1493 63.345 78.8495 63.4751 79.0795 63.5451C79.8143 63.7785 80.5218 64.0903 81.1898 64.4752C82.38 65.1854 83.9503 64.7253 85.2605 64.9453C85.8206 65.0353 86.3907 64.8953 86.9508 64.9453C87.2984 65.0574 87.6335 65.2048 87.951 65.3854C88.3769 65.4871 88.8187 65.5041 89.2512 65.4354C90.29 65.3126 91.3028 65.0257 92.2517 64.5853C93.2921 64.0265 94.4356 63.6862 95.6122 63.5851C96.591 63.5322 97.5721 63.6266 98.5227 63.8651C98.8043 63.9237 99.0651 64.0567 99.2779 64.2501C99.4907 64.4436 99.6478 64.6906 99.7329 64.9653C99.8029 65.4954 99.3729 65.6754 99.1828 66.0855Z" fill="#470024"/>
</g>
<g style="mix-blend-mode:multiply" opacity="0.2">
<path d="M95.2905 46.8113C95.7333 46.8111 96.1753 46.8513 96.6108 46.9314C96.2514 46.9651 95.8941 47.0185 95.5406 47.0914C95.3045 47.1471 95.063 47.1773 94.8205 47.1814C94.6104 47.1814 93.5402 47.2814 93.9403 46.9314C94.3404 46.5813 94.9805 46.8113 95.2905 46.8113Z" fill="#470024"/>
</g>
<g style="mix-blend-mode:multiply" opacity="0.2">
<path d="M125.057 42.1997L125.057 42.2697C124.489 43.2389 123.818 44.1443 123.057 44.9702C122.345 45.7046 121.517 46.3163 120.606 46.7805C119.496 47.3961 118.314 47.8699 117.086 48.1907C115.838 48.517 114.562 48.7247 113.275 48.8108C112.315 48.7889 111.356 48.7121 110.405 48.5808C109.204 48.4608 108.004 48.3207 106.814 48.1507L104.024 47.7806C103.103 47.6506 102.183 47.4006 101.253 47.3206C100.583 47.2606 99.9029 47.2005 99.2528 47.1905C98.8427 47.1905 98.4726 47.0605 98.0726 47.0605C97.7994 47.0755 97.5256 47.0755 97.2524 47.0605L96.6523 46.9605C96.9224 46.9605 97.2024 46.9605 97.4725 46.8705C98.2226 46.7605 98.9827 46.8105 99.7328 46.7305C100.483 46.6504 101.163 46.7305 101.893 46.6004C103.124 46.4435 104.363 46.3566 105.604 46.3404C106.744 46.3404 107.914 46.4204 109.054 46.3404C109.226 46.3486 109.398 46.3188 109.557 46.2531C109.716 46.1874 109.859 46.0874 109.975 45.9603C110.145 45.6603 110.225 45.3402 109.925 45.1202C109.624 44.9002 108.074 44.4801 108.294 43.85C108.364 43.66 108.754 43.64 108.954 43.5999C109.644 43.4899 110.375 43.4499 111.075 43.3299C111.515 43.2599 111.895 43.0899 112.325 42.9798C112.755 42.8698 113.045 42.8398 113.405 42.7298C113.926 42.5963 114.459 42.5125 114.995 42.4798C116.146 42.4197 117.406 42.8998 118.536 42.4798C119.076 42.2998 119.543 41.9487 119.866 41.4796C120.016 41.2896 120.216 41.1295 120.376 40.9295C120.563 40.6495 120.763 40.3792 120.976 40.1194C122.197 40.6995 123.397 41.3096 124.567 41.9797C124.417 42.0497 124.337 42.1697 124.927 42.1797L125.057 42.1997Z" fill="#470024"/>
</g>
<g style="mix-blend-mode:multiply" opacity="0.2">
<path d="M124.434 45.4418C123.58 46.3562 122.635 47.1807 121.613 47.9023C120.656 48.4644 119.652 48.9429 118.613 49.3325C117.847 49.6638 117.044 49.9022 116.222 50.0426C115.823 50.114 115.432 50.2211 115.052 50.3627C114.847 50.3946 114.65 50.466 114.472 50.5727C114.212 50.8227 114.372 51.0828 114.642 51.1628C115.363 51.3227 116.111 51.3227 116.832 51.1628C118.281 51.0365 119.721 50.8194 121.143 50.5127C122.048 50.2884 122.911 49.924 123.703 49.4325C124.777 48.9123 125.69 48.1103 126.344 47.1121C126.674 46.422 126.864 45.7219 126.164 45.2218C125.887 44.9747 125.534 44.8299 125.164 44.8117C124.974 44.8117 124.123 44.8417 124.434 45.4418Z" fill="#470024"/>
</g>
<path style="mix-blend-mode:soft-light" opacity="0.5" d="M156.061 95.9905C156.061 97.4407 156.011 98.8809 155.901 100.301C155.558 105.513 154.55 110.659 152.9 115.614C152.884 115.672 152.864 115.729 152.84 115.784C152.962 115.188 153.029 114.582 153.04 113.973C153.098 113.632 153.189 113.297 153.31 112.973C153.345 112.577 153.345 112.179 153.31 111.783L153.31 106.502C153.31 105.502 153.57 104.502 153.56 103.502C153.56 102.972 153.56 102.442 153.56 101.901C153.56 101.361 153.77 100.901 153.82 100.341C153.98 98.8009 153.37 97.3407 153.31 95.8204C153.31 95.1203 153.31 94.4102 153.31 93.7001C153.29 93.4013 153.222 93.1076 153.11 92.8299C153.07 92.4376 153.07 92.0421 153.11 91.6497C153.045 91.2708 152.955 90.8966 152.84 90.5296C152.81 90.1768 152.81 89.8221 152.84 89.4694C152.86 88.843 152.793 88.2169 152.64 87.6091C152.56 87.279 152.64 86.949 152.54 86.6089C152.44 86.2688 152.31 86.0288 152.22 85.7387C152.03 85.0986 151.74 84.5185 151.54 83.8784C151.036 82.6913 150.722 81.4324 150.61 80.1478C150.494 78.8636 150.181 77.6051 149.679 76.4172C149.175 75.2298 148.501 74.1215 147.679 73.1266C147.259 72.4965 147.519 71.9965 147.349 71.3364C147.2 70.9132 146.933 70.5417 146.579 70.2662C146.021 69.9351 145.395 69.7366 144.749 69.6861C144.099 69.6161 143.598 70.1161 142.918 69.8961C143.008 69.516 144.109 69.056 144.519 68.976C144.929 68.8959 145.959 68.976 146.089 68.2158C146.169 67.6657 145.529 67.2157 145.199 66.8956C145.018 66.6764 144.851 66.4459 144.699 66.2055C144.459 65.9054 144.149 65.9055 143.869 65.6654C143.588 65.4254 143.438 65.1553 143.138 64.9153C142.942 64.7138 142.758 64.5 142.588 64.2752C142.143 63.808 141.665 63.3735 141.158 62.975C140.107 62.246 138.909 61.7577 137.647 61.5447C137.107 61.4977 136.584 61.3302 136.117 61.0546C135.761 60.7615 135.465 60.4013 135.247 59.9945C134.847 59.3744 134.847 59.2543 135.377 58.7443C135.587 58.5661 135.743 58.3339 135.83 58.0728C135.916 57.8118 135.929 57.532 135.867 57.264C135.643 56.1711 135.128 55.1588 134.377 54.3335C133.587 53.6921 132.648 53.2619 131.646 53.0833C131.146 52.9733 130.646 53.0833 130.136 52.9733C129.811 52.8698 129.476 52.8028 129.136 52.7733C128.376 52.7733 127.766 52.5232 127.006 52.5332L124.515 52.5332C123.852 52.6314 123.178 52.6314 122.515 52.5332C122.615 52.0831 123.595 51.8431 123.995 51.6531C124.781 51.3064 125.531 50.8844 126.236 50.3929C126.776 50.0345 127.255 49.5922 127.656 49.0826C127.959 48.7204 128.294 48.3857 128.656 48.0825C127.938 47.4481 127.133 46.9194 126.266 46.5122C125.265 46.0621 124.265 45.7021 123.265 45.332C122.265 44.962 121.395 44.892 120.475 44.6519C119.347 44.3488 118.332 43.7231 117.554 42.8516C116.878 42.1317 116.07 41.5478 115.174 41.1313C114.359 40.8323 113.508 40.6406 112.643 40.5612C112.233 40.4598 111.815 40.3929 111.393 40.3612C110.934 40.3912 110.472 40.3912 110.013 40.3612C109.461 40.2285 108.899 40.1415 108.333 40.1012C107.836 40.1448 107.335 40.128 106.842 40.0511C106.352 39.9311 105.842 39.9111 105.352 39.8011C103.922 39.4611 103.152 38.0408 102.192 37.0506C101.695 36.6047 101.058 36.3464 100.391 36.3205C99.4121 36.0539 98.4051 35.9029 97.3908 35.8705C96.2306 35.8705 95.0604 35.8705 93.9102 35.8705C93.2611 35.8606 92.6132 35.9277 91.9799 36.0705C91.3898 36.1905 90.8197 36.0705 90.2496 36.0705C89.2494 36.1905 88.2493 36.5406 87.1891 36.5806C86.7637 36.5424 86.3442 36.4551 85.9389 36.3205C85.5988 36.2605 84.9887 36.4906 84.6787 36.3205C84.0186 36.0305 85.4388 34.8703 83.8986 35.0503C82.3583 35.2303 80.608 35.7704 78.8977 36.1305C77.1691 36.4915 75.4654 36.9625 73.7969 37.5407C72.7731 37.8984 71.7712 38.3159 70.7964 38.7909C69.2313 39.5846 67.6059 40.2534 65.9355 40.7913C71.4259 37.9641 77.3142 35.9878 83.3985 34.9303C86.9489 34.3107 90.5462 33.9995 94.1503 34.0001C103.456 33.9806 112.645 36.0735 121.025 40.1212C122.245 40.7013 123.445 41.3114 124.615 41.9815L124.975 42.1815L125.115 42.2615C132.592 46.5881 139.088 52.4226 144.189 59.3944C147.824 64.4071 150.696 69.9315 152.71 75.7871L152.92 76.3772C152.99 76.5772 153.06 76.7873 153.12 76.9873C154.379 80.9161 155.247 84.9598 155.71 89.0593C155.83 90.1895 155.93 91.3297 155.981 92.4899C156.031 93.6501 156.061 94.8103 156.061 95.9905Z" fill="url(#paint1_radial_979_17567)"/>
<path style="mix-blend-mode:soft-light" opacity="0.5" d="M155.948 92.4901C155.898 91.3299 155.798 90.1897 155.678 89.0595C155.215 84.96 154.347 80.9163 153.088 76.9875C153.028 76.7875 152.958 76.5775 152.888 76.3774L152.678 75.7873C150.644 69.9317 147.752 64.4106 144.096 59.4046C138.996 52.4329 132.5 46.5984 125.023 42.2718L124.883 42.1917L124.523 41.9917C123.353 41.3216 122.153 40.7115 120.933 40.1314C112.553 36.0838 103.364 33.9908 94.0581 34.0104C90.4541 34.0098 86.8567 34.321 83.3063 34.9405C77.222 35.9981 71.3338 37.9743 65.8434 40.8015C58.8 44.4219 52.5129 49.3544 47.3204 55.3339C46.9203 55.794 46.5502 56.2741 46.1602 56.7442C51.2711 50.9914 57.4104 46.2427 64.2632 42.7418C72.7731 38.3926 82.173 36.0691 91.7292 35.9529C101.285 35.8366 110.739 37.9308 119.352 42.0717C120.573 42.6418 121.773 43.2619 122.943 43.932L123.303 44.1321L123.433 44.2121C133.283 49.9061 141.385 58.1908 146.857 68.1661C148.545 71.2241 149.964 74.4234 151.098 77.7276C151.168 77.9277 151.228 78.1177 151.308 78.3177C151.388 78.5178 151.438 78.7278 151.508 78.9278C152.767 82.8566 153.635 86.9003 154.098 90.9999C154.208 92.13 154.318 93.2702 154.368 94.4304C154.418 95.5906 154.478 96.7508 154.478 97.931C154.478 99.3812 154.418 100.821 154.318 102.242C153.976 107.453 152.968 112.599 151.318 117.554C151.302 117.612 151.282 117.669 151.258 117.724C149.108 124.063 145.95 130.014 141.906 135.347C141.466 135.927 140.996 136.477 140.546 137.038C141.546 135.877 142.546 134.697 143.546 133.447C147.578 128.118 150.726 122.174 152.868 115.844C152.892 115.789 152.912 115.732 152.928 115.674C154.578 110.719 155.586 105.573 155.928 100.361C156.038 98.9412 156.088 97.5009 156.088 96.0507C156.058 94.8105 156.018 93.6403 155.948 92.4901Z" fill="url(#paint2_radial_979_17567)"/>
<g style="mix-blend-mode:soft-light" opacity="0.5">
<path d="M115.473 81.4671C116.28 81.5871 117.097 81.6373 117.913 81.6171C117.853 81.3471 118.313 81.3271 118.283 81.007C117.957 80.7495 117.548 80.6181 117.133 80.637C116.833 80.637 116.043 80.797 115.973 81.137L115.473 81.4671Z" fill="#303132"/>
</g>
<g style="mix-blend-mode:soft-light" opacity="0.5">
<path d="M98.291 52.9426C99.0953 53.0622 99.9085 53.1124 100.721 53.0926C100.721 52.8225 101.122 52.8025 101.092 52.4825C100.769 52.2248 100.364 52.0933 99.9513 52.1124C99.6512 52.1124 98.8511 52.2724 98.7911 52.6125L98.291 52.9426Z" fill="#D4CBCF"/>
</g>
<g style="mix-blend-mode:soft-light" opacity="0.5">
<path d="M88.7012 139.547C89.5096 139.659 90.3257 139.706 91.1416 139.687C91.0816 139.417 91.5416 139.397 91.5116 139.077C91.1852 138.819 90.7769 138.688 90.3614 138.707C90.0614 138.707 89.2713 138.867 89.2013 139.217L88.7012 139.547Z" fill="#43DFF6"/>
</g>
<g style="mix-blend-mode:soft-light" opacity="0.5">
<path d="M46.0723 92.5503C46.8766 92.6699 47.6897 92.7201 48.5027 92.7003C48.4427 92.4302 48.9027 92.4102 48.8727 92.0902C48.5502 91.8325 48.1449 91.701 47.7325 91.7201C47.4325 91.7201 46.6324 91.8802 46.5723 92.2202L46.0723 92.5503Z" fill="#303132"/>
</g>
<g style="mix-blend-mode:soft-light" opacity="0.5">
<path d="M130.896 117.463C131.278 116.852 131.754 116.305 132.307 115.842C132.427 116.242 132.897 116.293 133.107 116.613C133.203 116.846 133.253 117.095 133.253 117.348C133.253 117.6 133.203 117.85 133.107 118.083C132.557 119.503 130.966 120.183 129.596 120.463C129.126 120.563 128.646 120.773 128.246 120.413C128.075 120.285 127.96 120.096 127.926 119.885C127.893 119.674 127.943 119.458 128.066 119.283C128.407 118.928 128.806 118.634 129.246 118.413C129.486 118.273 130.016 118.043 130.066 117.793L130.896 117.463Z" fill="#303132"/>
</g>
<g style="mix-blend-mode:soft-light" opacity="0.5">
<path d="M137.037 116.964C136.467 117.484 135.917 117.964 135.377 118.524C135.577 118.874 136.297 118.254 136.537 118.164C136.777 118.074 136.987 118.094 137.167 117.924C137.347 117.754 137.547 117.314 137.167 117.294L137.037 116.964Z" fill="#303132"/>
</g>
<g style="mix-blend-mode:soft-light" opacity="0.5">
<path d="M126.397 95.1697C125.827 95.6898 125.276 96.1699 124.736 96.73C124.936 97.08 125.656 96.4599 125.897 96.3599C126.137 96.2599 126.347 96.2999 126.527 96.1299C126.707 95.9598 126.907 95.5198 126.527 95.4998L126.397 95.1697Z" fill="#303132"/>
</g>
<g style="mix-blend-mode:soft-light" opacity="0.5">
<path d="M75.4083 39.3308C74.8482 39.8608 74.2881 40.3309 73.748 40.901C73.9481 41.2511 74.6682 40.631 74.9082 40.531C75.1483 40.4309 75.3683 40.471 75.5384 40.3009C75.7084 40.1309 75.9184 39.6808 75.5384 39.6708L75.4083 39.3308Z" fill="#43DFF6"/>
</g>
<g style="mix-blend-mode:soft-light" opacity="0.5">
<path d="M49.8032 100.341C49.6606 101.049 49.6949 101.78 49.9033 102.471C49.9033 102.711 49.9033 102.831 50.1433 102.851C50.3834 102.871 50.6334 103.171 50.8434 103.332C51.0534 103.492 51.6335 103.872 51.9636 103.802C52.2874 103.638 52.5606 103.389 52.7537 103.081C52.932 102.69 52.9742 102.25 52.8737 101.831C52.6837 101.161 52.3937 100.201 51.7135 99.9209C51.4491 99.8012 51.17 99.7172 50.8834 99.6709C50.4534 99.6109 50.3833 99.6709 50.1333 100.011L49.8032 100.341Z" fill="#303132"/>
</g>
<g style="mix-blend-mode:soft-light" opacity="0.5">
<path d="M75.4278 62.5837C75.2971 62.6744 75.1934 62.7988 75.1277 62.9438C75.1213 62.9494 75.1162 62.9563 75.1127 62.9641C75.1092 62.9718 75.1074 62.9803 75.1074 62.9888C75.1074 62.9973 75.1092 63.0057 75.1127 63.0135C75.1162 63.0212 75.1213 63.0281 75.1277 63.0338C75.1277 63.0838 75.1277 63.1638 75.1277 63.2138C75.1369 63.3038 75.1756 63.3881 75.2378 63.4538C75.3124 63.479 75.3932 63.479 75.4678 63.4538C75.5546 63.4168 75.6279 63.354 75.6778 63.2738C75.7378 63.1338 75.8379 62.9438 75.7678 62.7937C75.7405 62.7369 75.7069 62.6832 75.6678 62.6337C75.6078 62.5637 75.5878 62.5637 75.4978 62.5737L75.4278 62.5837Z" fill="#43DFF6"/>
</g>
<g style="mix-blend-mode:soft-light" opacity="0.5">
<path d="M75.4991 65.3346C75.358 66.0451 75.3889 66.7789 75.5892 67.475C75.5892 67.705 75.6392 67.8351 75.8292 67.8451C76.0569 68.0211 76.294 68.1847 76.5393 68.3351C76.8497 68.6112 77.2447 68.7734 77.6595 68.7952C77.9833 68.6313 78.2565 68.3824 78.4496 68.0751C78.6279 67.6834 78.6701 67.2434 78.5697 66.8249C78.3696 66.1548 78.0896 65.2046 77.3995 64.9146C77.1326 64.8014 76.8543 64.7176 76.5693 64.6645C76.1392 64.6145 76.0692 64.6645 75.8292 65.0046L75.4991 65.3346Z" fill="#303132"/>
</g>
<g style="mix-blend-mode:soft-light" opacity="0.5">
<path d="M54.6152 57.0931C55.43 57.3486 56.2939 57.4069 57.1356 57.2632C57.4889 57.0634 57.8236 56.8324 58.1358 56.5731C58.6228 56.3159 59.0625 55.9777 59.436 55.5729C59.5216 55.4733 59.5817 55.3545 59.6111 55.2265C59.6405 55.0986 59.6384 54.9654 59.6049 54.8385C59.5715 54.7115 59.5077 54.5946 59.419 54.4978C59.3303 54.401 59.2195 54.3271 59.096 54.2827C57.9858 53.8226 54.9553 54.2027 54.9853 55.903L54.6152 57.0931Z" fill="#303132"/>
</g>
<g style="mix-blend-mode:soft-light" opacity="0.5">
<path d="M115.795 76.3371C116.613 76.5924 117.48 76.6506 118.325 76.5072C118.675 76.3022 119.01 76.0715 119.326 75.817C119.81 75.5598 120.246 75.2215 120.616 74.8169C120.704 74.7189 120.766 74.6007 120.798 74.4728C120.829 74.3448 120.829 74.2111 120.796 74.0834C120.763 73.9558 120.7 73.8382 120.611 73.741C120.522 73.6439 120.41 73.5703 120.286 73.5267C119.165 73.0666 116.135 73.4467 116.175 75.1469L115.795 76.3371Z" fill="#303132"/>
</g>
<g style="mix-blend-mode:soft-light" opacity="0.5">
<path d="M50.9219 96.8707C51.0019 97.0507 51.432 98.3009 51.922 97.8008C52.0503 97.624 52.1251 97.4141 52.1375 97.196C52.1499 96.9779 52.0994 96.7608 51.992 96.5706C51.872 96.3906 51.582 95.9705 51.3119 96.0805C51.0419 96.1906 51.1619 96.2506 51.1219 96.3706C51.0862 96.4844 51.074 96.6042 51.0861 96.7228C51.0981 96.8415 51.1341 96.9564 51.1919 97.0607L50.9219 96.8707Z" fill="#303132"/>
</g>
<g style="mix-blend-mode:soft-light" opacity="0.5">
<path d="M52.6016 99.4212C52.6042 99.166 52.6695 98.9153 52.7916 98.6911C52.8716 98.7611 52.9916 98.6911 53.0817 98.7911C53.1622 98.8662 53.2298 98.9541 53.2817 99.0512C53.3572 99.1279 53.4137 99.2212 53.4467 99.3237C53.4797 99.4262 53.4882 99.5349 53.4717 99.6413C53.4342 99.7093 53.3811 99.7674 53.3168 99.8109C53.2525 99.8544 53.1787 99.8819 53.1016 99.8913C52.9416 99.8913 52.6616 99.8113 52.6616 99.6113L52.6016 99.4212Z" fill="#303132"/>
</g>
<g style="mix-blend-mode:soft-light" opacity="0.5">
<path d="M55.5254 135.126C55.938 135.828 56.4314 136.479 56.9956 137.066C57.4357 137.436 57.7758 137.896 58.1958 138.287C58.7965 138.887 59.4927 139.384 60.2562 139.757C60.6563 139.927 60.6863 139.757 60.5362 139.357C60.2762 138.697 59.7461 138.527 59.186 138.136C58.4263 137.689 57.7357 137.133 57.1357 136.486C56.7456 135.976 56.3955 135.106 55.5254 135.126Z" fill="#303132"/>
</g>
<g style="mix-blend-mode:soft-light" opacity="0.5">
<path d="M55.8949 134.006C55.6627 133.477 55.4915 132.924 55.3848 132.356C55.4243 132.282 55.4788 132.218 55.5448 132.166C55.5891 132.142 55.6386 132.128 55.6892 132.125C55.7398 132.123 55.7903 132.132 55.8367 132.153C55.8831 132.173 55.9242 132.204 55.9569 132.242C55.9895 132.281 56.0127 132.327 56.0249 132.376C56.0849 132.874 56.0849 133.378 56.0249 133.876L55.8949 134.006Z" fill="#303132"/>
</g>
<g style="mix-blend-mode:soft-light" opacity="0.5">
<path d="M133.878 113.902C134.075 113.695 134.296 113.514 134.538 113.362C134.598 113.422 134.678 113.362 134.748 113.362C134.818 113.362 134.958 113.562 135.008 113.662C135.118 113.912 134.948 114.122 134.748 114.272C134.548 114.422 133.678 114.472 133.748 113.972L133.878 113.902Z" fill="#303132"/>
</g>
<g style="mix-blend-mode:soft-light" opacity="0.5">
<path d="M56.2758 82.5974C56.4666 82.3911 56.6855 82.2127 56.9259 82.0673C56.996 82.1273 57.066 82.0673 57.146 82.0673C57.2602 82.1414 57.3478 82.25 57.396 82.3773C57.506 82.6174 57.336 82.8374 57.136 82.9774C56.9359 83.1175 56.0758 83.1875 56.1358 82.6874L56.2758 82.5974Z" fill="#43DFF6"/>
</g>
<g style="mix-blend-mode:soft-light" opacity="0.5">
<path d="M57.0446 101.76C57.4334 101.344 57.8777 100.984 58.3648 100.69C58.4848 100.81 58.6349 100.69 58.7849 100.78C59.0177 100.919 59.1946 101.135 59.285 101.39C59.505 101.88 59.1749 102.31 58.7749 102.6C58.3748 102.89 56.6445 103.01 56.7745 102.01L57.0446 101.76Z" fill="#303132"/>
</g>
<g style="mix-blend-mode:soft-light" opacity="0.5">
<path d="M71.9369 63.4446C72.3257 63.0288 72.77 62.6687 73.2571 62.3744C73.3772 62.4944 73.5372 62.3744 73.6772 62.4644C73.9099 62.6014 74.0896 62.8128 74.1873 63.0645C74.2811 63.299 74.2827 63.5603 74.1917 63.7959C74.1008 64.0315 73.9242 64.224 73.6972 64.3347C73.1771 64.7248 71.5669 64.7448 71.6969 63.7446L71.9369 63.4446Z" fill="#303132"/>
</g>
<g style="mix-blend-mode:soft-light" opacity="0.5">
<path d="M120.207 148.429C120.613 147.944 121.054 147.489 121.527 147.069C121.821 146.888 122.125 146.724 122.437 146.579C122.542 146.505 122.663 146.457 122.79 146.438C122.916 146.419 123.046 146.43 123.168 146.469C123.548 146.659 123.498 147.189 123.318 147.469C122.952 147.998 122.431 148.4 121.827 148.619C121.587 148.719 120.547 148.929 120.577 148.399L120.207 148.429Z" fill="#303132"/>
</g>
</g>
<g clip-path="url(#clip0_979_17567)">
<path d="M47.1992 5.54L92.4392 162.76H96.1092L49.4892 6.3L47.1992 5.54Z" fill="#BBBBBB"/>
<path d="M82.9395 144.52L94.6495 162.76H87.5194L76.6895 144.52H82.9395Z" fill="#BBBBBB"/>
<path d="M84.3996 144.52L96.1096 162.76H92.4396L81.5996 144.52H84.3996Z" fill="white"/>
<path d="M75.1006 144.52L63.3906 162.76H70.5206L81.3506 144.52H75.1006Z" fill="#BBBBBB"/>
<path d="M80.5203 144.52L68.8203 162.76H72.4903L83.3203 144.52H80.5203Z" fill="white"/>
<path d="M107.471 144.52L119.171 162.76H112.041L101.211 144.52H107.471Z" fill="#BBBBBB"/>
<path d="M108.921 144.52L120.631 162.76H116.961L106.131 144.52H108.921Z" fill="white"/>
<path d="M45.9793 144.52L34.2793 162.76H41.4093L52.2393 144.52H45.9793Z" fill="#BBBBBB"/>
<path d="M51.4092 144.52L39.6992 162.76H43.3692L54.2092 144.52H51.4092Z" fill="#DDCBD1"/>
<path d="M42.0491 145.74H109.389L166.319 72.52L132.389 71.02L75.5891 138.39H49.0291C45.1891 138.39 42.0391 145.73 42.0391 145.73L42.0491 145.74Z" fill="#BBBBBB"/>
<path d="M76.5098 145.74H112.33L166.09 79.8C167.8 77.7 167.9 74.73 166.33 72.52L110.06 138.4H83.4998C79.6598 138.4 76.5098 145.74 76.5098 145.74Z" fill="white"/>
<path d="M107.85 91.37C107.85 91.37 101.93 71.73 103.07 67.79C104.21 63.84 123.33 65.71 123.33 65.71L122.91 71.84L114.81 91.48L107.85 91.38V91.37Z" fill="white"/>
<path d="M62.4505 120.88C60.8205 123 56.8505 125.28 52.6505 127.26C46.1505 130.34 39.0705 132.71 39.0705 132.71L38.8705 136.45L20.0605 134.58C20.0605 134.58 22.2405 129.5 25.6705 129.28C29.1105 129.08 37.7305 131.15 37.7305 131.15C37.7305 131.15 43.5405 125.63 49.5105 120.58C54.2705 116.55 59.1305 112.83 61.2005 112.45C61.2005 112.45 66.6105 115.46 62.4505 120.87V120.88Z" fill="#EFEFEF"/>
<path d="M104.94 99.69C103.49 87.43 111.17 84.94 114.29 85.25C117.41 85.56 115.85 95.54 115.85 95.54L104.94 99.7V99.69Z" fill="#3E4B82"/>
<path d="M139.96 96.67C139.96 96.67 138.38 98.78 135.85 101.91C131.82 106.94 125.35 114.65 119.07 120.67C112.62 126.86 106.95 131.89 101.48 134.84C100.8 135.21 100.11 135.55 99.4298 135.85C96.9798 136.95 94.5398 137.6 92.0598 137.72C83.4398 138.13 63.0698 130.03 63.0698 130.03L59.8898 136.85L56.8098 143.47L50.0898 157.88L50.9198 162.76H32.8398C32.8398 162.76 33.4598 157.56 35.9498 157.15C38.4498 156.74 46.0298 158.18 46.0298 158.18C46.0298 158.18 48.0998 149.37 50.6298 140.25C51.1998 138.19 51.7898 136.11 52.3998 134.11C54.4498 127.27 56.5698 121.4 57.9798 120.47C61.2898 118.28 78.8798 120.6 81.8598 121.03H81.8698C82.1498 121.06 82.2998 121.09 82.2998 121.09L110.81 91.75L111.18 91.38C113.87 90.75 119.06 91.49 124.32 92.6C132.09 94.24 139.96 96.68 139.96 96.68V96.67Z" fill="#EFEFEF"/>
<path d="M135.85 101.91C131.82 106.94 125.35 114.65 119.07 120.67C112.62 126.86 106.95 131.89 101.48 134.84C100.8 135.21 100.11 135.55 99.4301 135.85C99.5901 133.54 99.6901 129.96 98.9301 128.16C97.7701 125.37 94.0801 124.49 94.0801 124.49L95.8501 120.53C95.8501 120.53 120.24 116.55 123.91 100.39C123.91 100.39 131.98 101.44 135.85 101.92V101.91Z" fill="white"/>
<path d="M127.231 96.32C127.231 96.32 114.371 96.4 110.811 91.74L111.181 91.37C113.871 90.74 119.061 91.48 124.321 92.59L127.131 93.42L127.231 96.32Z" fill="white"/>
<path d="M102.451 132.4L101.481 134.84C98.3206 136.55 95.2206 137.56 92.0606 137.72C83.4406 138.13 63.0706 130.03 63.0706 130.03L59.8906 136.85L56.8106 143.47L51.7006 142.89L50.6406 140.26C51.2106 138.2 51.8006 136.12 52.4106 134.12C54.4606 127.28 56.5806 121.41 57.9906 120.48C61.3006 118.29 78.8906 120.61 81.8706 121.04H81.8806C89.9806 125.42 102.461 132.41 102.461 132.41L102.451 132.4Z" fill="white"/>
<path d="M152.42 93.14L148.16 78.91C148.16 78.91 154.08 75.48 154.39 75.79C154.7 76.1 162.6 89.82 163.95 93.14C165.3 96.46 161.77 97.71 161.77 97.71L152.42 93.14Z" fill="white"/>
<path d="M121.049 98.44L117.199 96.98L115.119 99.89L118.029 101.24L121.049 98.44Z" fill="white"/>
<path d="M113.461 71.63L104.011 64.56C104.011 64.56 101.311 64.77 101.311 68.82C101.311 72.87 102.141 73.25 102.141 73.25L112.841 72.83L113.461 71.63Z" fill="#3E4B82"/>
<path d="M84.9902 115.89C84.9902 115.58 110.34 129.92 110.34 129.92L112.11 128.36L86.8602 113.92L84.9902 115.89Z" fill="#3E4B82"/>
<path d="M87.3794 122.54C100.889 120.88 102.959 131.27 100.569 134.8C98.1794 138.33 89.6594 138.64 86.8594 135.84C84.0494 133.03 87.3794 122.54 87.3794 122.54Z" fill="#3E4B82"/>
<path d="M153.901 79.79C153.711 80.38 153.501 80.95 153.261 81.5C153.251 81.53 153.231 81.55 153.231 81.58C152.271 83.86 150.971 85.82 149.371 87.44C149.321 87.49 149.271 87.54 149.211 87.6C144.071 92.72 136.001 94.43 126.711 92.69C123.741 92.13 119.431 90.55 116.561 88.83C116.031 88.5 115.541 88.17 115.111 87.84C108.631 82.73 107.741 74.98 111.801 65.83C117.441 53.09 127.811 48.95 139.611 52.76C140.681 53.11 141.711 53.53 142.691 54.02C152.431 58.79 157.141 69.78 153.901 79.8V79.79Z" fill="#EFEFEF"/>
<path d="M153.901 79.79C153.711 80.38 153.501 80.95 153.261 81.5C153.251 81.53 153.231 81.55 153.231 81.58C152.271 83.78 150.961 85.75 149.371 87.44C149.321 87.49 149.271 87.54 149.211 87.6C144.071 92.72 136.001 94.43 126.711 92.69C123.741 92.13 119.431 90.55 116.561 88.83C142.841 89.58 151.141 65.68 142.681 54.03C152.421 58.8 157.131 69.79 153.891 79.81L153.901 79.79Z" fill="white"/>
<path d="M142.49 84.04C140.98 86.81 139.39 89.08 138.22 89.71C133.42 92.35 126.95 91.75 121.04 89.43C116.73 87.74 112.57 84.14 110 80.35C109.64 79.82 109.38 79.23 109.23 78.61C108.36 75.03 108.48 71.66 110.35 66.27C112.4 61.21 115.26 56.17 116.95 55.5C119.96 54.3 127.21 55.33 132.79 57.38C133.05 57.47 133.29 57.56 133.53 57.65C133.68 57.72 133.85 57.78 134 57.85C134.37 57.99 134.74 58.16 135.09 58.33C135.37 58.45 135.64 58.59 135.92 58.74C136.2 58.88 136.47 59.02 136.75 59.17C137.02 59.32 137.29 59.47 137.55 59.63C137.82 59.79 138.08 59.96 138.35 60.12C139.13 60.61 139.89 61.15 140.61 61.72C140.85 61.91 141.08 62.11 141.32 62.3C141.72 62.65 142.11 62.99 142.48 63.35C142.71 63.57 142.93 63.79 143.14 64.02C143.36 64.24 143.56 64.47 143.77 64.71C143.96 64.94 144.16 65.17 144.35 65.41C144.73 65.89 145.07 66.38 145.39 66.88C146.13 68.02 146.69 69.21 147.04 70.44C147.63 72.55 145.18 79.11 142.49 84.03V84.04Z" fill="url(#paint3_linear_979_17567)"/>
<path d="M142.49 84.04C140.98 86.81 139.39 89.08 138.22 89.71C133.42 92.35 126.95 91.75 121.04 89.43C116.73 87.74 112.57 84.14 110 80.35C109.64 79.82 109.38 79.23 109.23 78.61C108.36 75.03 108.48 71.66 110.35 66.27C111.97 65.58 113.13 65.53 114.14 65.84C115.13 66.16 115.97 66.81 116.93 67.57C118.53 68.77 120.49 70.22 124.04 70.82C125.41 71.05 126.77 71.28 128.08 71.56C134.07 72.83 139.14 75.04 141.78 81.9C141.81 81.98 141.85 82.05 141.87 82.13C142.1 82.73 142.31 83.37 142.49 84.04Z" fill="url(#paint4_linear_979_17567)"/>
<path style="mix-blend-mode:screen" opacity="0.4" d="M141.869 82.14C141.109 83.58 138.469 83.19 134.909 81.46C129.439 78.82 127.229 71.43 120.219 71.38C113.219 71.34 114.489 66.33 110.359 66.28C111.979 65.59 113.139 65.54 114.149 65.86C115.129 66.17 115.969 66.83 116.939 67.58C118.539 68.78 120.489 70.24 124.049 70.83C125.429 71.06 126.779 71.29 128.089 71.58C134.079 72.85 139.159 75.05 141.789 81.91C141.819 81.99 141.849 82.07 141.879 82.15L141.869 82.14Z" fill="url(#paint5_linear_979_17567)"/>
<g style="mix-blend-mode:multiply" opacity="0.2">
<path d="M136.4 87.45C133.11 89.62 122.53 86.58 118.14 80.37C114.2 74.78 119.29 72.75 116.94 67.58C118.54 68.78 120.49 70.24 124.05 70.83C125.43 71.06 126.78 71.29 128.09 71.58C122.84 73.64 125.95 83.12 136.41 87.46L136.4 87.45Z" fill="#5C3A7D"/>
</g>
<g style="mix-blend-mode:multiply" opacity="0.2">
<path d="M142.49 84.04C140.98 86.81 139.39 89.08 138.22 89.71C133.42 92.35 126.95 91.75 121.04 89.43C116.73 87.74 112.57 84.14 110 80.35C109.64 79.82 109.38 79.23 109.23 78.61C108.36 75.03 108.48 71.66 110.35 66.27C111.97 65.58 113.13 65.53 114.14 65.84C113.45 66.02 112.82 66.35 112.24 66.78C108.31 69.81 107.69 78.3 118.69 84.24C122.77 86.44 126.4 87.42 129.53 87.6C131.73 87.74 133.66 87.47 135.33 86.96C138.37 86.03 140.46 84.28 141.42 82.63C141.58 82.38 141.7 82.14 141.78 81.9C141.82 81.98 141.85 82.06 141.87 82.14C142.1 82.73 142.31 83.37 142.49 84.03V84.04Z" fill="#5C3A7D"/>
</g>
<g style="mix-blend-mode:multiply" opacity="0.4">
<path d="M131.831 74.38C130.181 76.58 138.421 80.44 139.321 79.36C140.221 78.28 133.081 72.72 131.831 74.38Z" fill="#341F47"/>
</g>
<path d="M145.401 66.89C144.491 68 143.321 68.82 142.011 69.29C140.261 69.94 138.281 69.97 136.401 69.23C132.341 67.63 130.341 63.04 131.931 58.98C132.161 58.41 132.441 57.87 132.781 57.39C133.031 57.48 133.271 57.57 133.511 57.67C133.751 57.76 133.991 57.86 134.231 57.98C138.761 59.89 142.981 63.12 145.381 66.9L145.401 66.89Z" fill="url(#paint6_linear_979_17567)"/>
<path style="mix-blend-mode:screen" opacity="0.4" d="M142.011 69.29C140.261 69.94 138.281 69.97 136.401 69.23C132.341 67.63 130.341 63.04 131.931 58.98C132.161 58.41 132.441 57.87 132.781 57.39C133.031 57.48 133.271 57.57 133.511 57.67C133.751 57.76 133.991 57.86 134.231 57.98C131.771 63.34 135.741 70.27 141.991 69.3L142.011 69.29Z" fill="url(#paint7_linear_979_17567)"/>
<g opacity="0.6">
<path d="M123.499 64.92C123.369 65.26 122.989 65.42 122.649 65.29C122.309 65.16 122.149 64.78 122.279 64.44C122.409 64.1 122.789 63.94 123.129 64.07C123.469 64.2 123.629 64.58 123.499 64.92Z" fill="#CD99FF"/>
<path d="M126.86 62.39C126.78 62.6 126.54 62.7 126.33 62.62C126.12 62.54 126.02 62.3 126.1 62.09C126.18 61.88 126.42 61.78 126.63 61.86C126.84 61.94 126.94 62.18 126.86 62.39Z" fill="#CD99FF"/>
<path d="M119.84 57.52C119.74 57.77 119.46 57.9 119.21 57.8C118.96 57.7 118.83 57.42 118.93 57.17C119.03 56.92 119.31 56.79 119.56 56.89C119.81 56.99 119.93 57.27 119.84 57.52Z" fill="#CD99FF"/>
<path d="M118.609 64.66C118.489 64.95 118.159 65.1 117.869 64.98C117.579 64.86 117.429 64.53 117.549 64.24C117.669 63.95 117.999 63.8 118.289 63.92C118.579 64.04 118.729 64.37 118.609 64.66Z" fill="#CD99FF"/>
<path d="M135.6 71.34C135.5 71.59 135.22 71.72 134.97 71.62C134.72 71.52 134.59 71.24 134.69 70.99C134.79 70.74 135.07 70.61 135.32 70.71C135.57 70.81 135.69 71.09 135.6 71.34Z" fill="#CD99FF"/>
</g>
<path opacity="0.3" d="M144.24 69.2C144.24 69.2 144.15 69.16 144.1 69.13C125.06 60.33 111.91 64.07 111.31 78.2C107.89 70.04 115.99 58.26 118.19 57.93C129.08 56.3 139.61 63.82 144.24 69.2Z" fill="white"/>
<path d="M155.019 84.64C152.539 89.39 148.429 92.15 145.829 90.79C143.229 89.44 143.129 84.49 145.609 79.74C148.089 74.99 152.199 72.23 154.799 73.59C157.399 74.94 157.499 79.89 155.019 84.64Z" fill="#3E4B82"/>
<path d="M154.43 84.21C152.88 87.18 150.31 88.91 148.68 88.06C147.05 87.21 146.99 84.12 148.54 81.14C150.09 78.16 152.66 76.44 154.29 77.29C155.92 78.14 155.98 81.23 154.43 84.21Z" fill="#66D4D9"/>
<path d="M153.72 83.84C152.34 86.5 150.1 88.07 148.73 87.35C147.36 86.64 147.37 83.9 148.75 81.25C150.13 78.59 152.37 77.02 153.74 77.73C155.11 78.44 155.1 81.18 153.72 83.83V83.84Z" fill="#3E4B82"/>
<path opacity="0.3" d="M122.061 86.39C122.061 86.39 130.051 90 134.751 88.53C139.451 87.06 143.301 78.77 143.301 78.77C143.301 78.77 139.761 83.28 133.051 85.34C126.711 87.29 122.061 86.39 122.061 86.39Z" fill="white"/>
<path d="M92.0595 137.71C83.5795 137.44 57.6695 120.15 57.6695 120.15C57.6695 120.15 57.0495 113.6 61.1995 112.46C65.3595 111.32 88.8395 121.08 94.2395 125.76C99.6395 130.44 95.2795 137.81 92.0595 137.71Z" fill="#EFEFEF"/>
<path d="M141.2 92.2C141.1 92.51 139.96 96.67 139.96 96.67C139.96 96.67 138.43 96.63 136.07 96.49C132.2 96.25 126.09 95.78 120.83 94.83C116.42 94.05 112.6 92.94 111.18 91.37C110.13 90.22 112.42 85.24 112.42 85.24C115.66 87.41 121.11 88.92 126.4 89.97C130.71 90.82 134.91 91.36 137.73 91.71C139.86 91.97 141.2 92.12 141.2 92.2Z" fill="#EFEFEF"/>
<path d="M137.73 91.71C137.19 93.3 136.58 95.08 136.07 96.49C132.2 96.25 126.09 95.78 120.83 94.83C123.14 93.97 126.12 92.4 126.4 89.97C130.71 90.82 134.91 91.36 137.73 91.71Z" fill="white"/>
<path d="M52.6505 127.27C46.1505 130.35 39.0705 132.72 39.0705 132.72L38.8705 136.46L20.0605 134.59C20.0605 134.59 22.2405 129.51 25.6705 129.29C29.1105 129.09 37.7305 131.16 37.7305 131.16C37.7305 131.16 43.5405 125.64 49.5105 120.59C50.6005 122.82 51.9005 125.61 52.6605 127.26L52.6505 127.27Z" fill="#3E4B82"/>
<path d="M50.0898 157.87L50.9198 162.75H32.8398C32.8398 162.75 33.4598 157.55 35.9498 157.14C38.4498 156.73 46.0298 158.17 46.0298 158.17C46.0298 158.17 49.1398 144.92 52.3998 134.1C54.2698 134.75 57.6198 135.98 59.8798 136.83L50.0798 157.86L50.0898 157.87Z" fill="#3E4B82"/>
<path d="M94.6301 117.11L92.0602 120.81L86.4102 117.48L88.3302 114.04L94.6301 117.11Z" fill="#3E4B82"/>
<path d="M93.48 117.28L91.72 119.79L87.5 117.3L88.79 114.96L93.48 117.28Z" fill="#66D4D9"/>
<path d="M93.1096 117.28L91.5596 119.49L87.8496 117.3L88.9796 115.24L93.1096 117.28Z" fill="#3E4B82"/>
<g style="mix-blend-mode:screen" opacity="0.6">
<path d="M94.0198 117.32L91.9998 120.09L87.0098 117.37L87.4998 116.45L94.0198 117.32Z" fill="#6778C2"/>
</g>
<path d="M143.85 94.19C138.42 86.89 119.78 93.42 122.92 105.09C125.1 113.19 150.17 102.69 143.85 94.19Z" fill="#3E4B82"/>
<path d="M162.501 97.4C162.501 97.4 123.461 111.7 122.911 105.09C122.801 103.65 123.581 101.67 125.441 99.65C126.811 98.18 128.741 96.68 131.331 95.33C136.811 92.44 150.931 91.23 153.851 91.01C154.201 90.98 154.391 90.97 154.391 90.97L155.511 91.87L156.641 92.75L162.501 97.41V97.4Z" fill="#EFEFEF"/>
<path d="M162.501 97.4C162.501 97.4 123.461 111.7 122.911 105.09C122.801 103.65 123.581 101.67 125.441 99.65C127.001 105.5 153.431 94.14 156.641 92.74L162.501 97.4Z" fill="white"/>
<path d="M149.41 90.13L161.05 100.42C161.05 100.42 169.15 100.73 165.31 91.59C161.57 91.17 149.93 88.99 149.93 88.99L149.41 90.13Z" fill="#3E4B82"/>
<path d="M110.78 26.35C110.72 26.34 110.66 26.34 110.6 26.34C110.51 26.33 110.42 26.32 110.33 26.32C110.23 26.31 110.11 26.3 109.97 26.29C109.94 26.29 109.9 26.28 109.86 26.29C109.68 26.28 109.5 26.27 109.32 26.27C107.66 26.19 105.94 26.27 104.25 26.54C104 26.56 103.76 26.61 103.51 26.65C103.36 26.67 103.21 26.69 103.05 26.73C97.9798 27.74 93.2798 30.32 91.1898 34.86C86.9498 32.64 74.5698 32.45 69.7698 41.88C63.6798 39.66 53.1498 40.58 48.7198 49.26C35.2398 46.3 27.8498 55.73 27.8498 55.73C27.8498 55.73 17.6898 53.32 9.00977 60.71C9.00977 60.71 13.6398 49.66 20.8398 36.97C21.5698 35.72 22.3098 34.44 23.0698 33.16H23.0798C29.8198 21.83 38.3998 9.98 47.4198 4C60.3698 4.75 73.2098 8.56 83.9298 12.82C85.0598 13.27 86.1698 13.73 87.2398 14.19C100.8 19.94 110.22 25.99 110.75 26.34C110.76 26.34 110.76 26.35 110.77 26.35H110.78Z" fill="#EFEFEF"/>
<path d="M109.32 26.26C108.16 26.23 106.36 26.25 104.25 26.53C105.94 26.26 107.67 26.18 109.32 26.26Z" fill="#EFEFEF"/>
<path d="M47.42 4C29.87 27.09 27.84 55.73 27.84 55.73C27.84 55.73 17.68 53.32 9 60.71C9 60.71 27.1 17.48 47.42 4Z" fill="#E22440"/>
<path d="M69.7694 41.87C63.6794 39.65 53.1494 40.57 48.7194 49.25C45.5794 41.87 45.0194 12.69 47.4294 4C60.1694 13.79 69.7694 41.87 69.7694 41.87Z" fill="#E22440"/>
<path d="M110.78 26.35C110.72 26.34 110.66 26.34 110.6 26.34C110.51 26.33 110.42 26.32 110.33 26.32C110.23 26.31 110.11 26.3 109.97 26.29C109.94 26.29 109.9 26.28 109.86 26.29C109.68 26.28 109.5 26.27 109.32 26.27C107.66 26.19 105.94 26.27 104.25 26.54C104 26.56 103.76 26.61 103.51 26.65C103.36 26.67 103.21 26.69 103.05 26.73C97.9799 27.74 93.2799 30.32 91.1899 34.86C85.8199 28.2 65.8899 10.28 47.4199 4C78.8699 5.81 109.79 25.71 110.75 26.34C110.76 26.34 110.76 26.35 110.77 26.35H110.78Z" fill="#E22440"/>
<g style="mix-blend-mode:multiply" opacity="0.3">
<path d="M110.78 26.35C110.72 26.34 110.66 26.34 110.6 26.34C110.51 26.33 110.42 26.32 110.33 26.32C110.23 26.31 110.11 26.3 109.97 26.29C109.94 26.29 109.9 26.28 109.86 26.29C109.68 26.28 109.5 26.27 109.32 26.27C107.66 26.19 105.94 26.27 104.25 26.54C104 26.56 103.76 26.61 103.51 26.65C103.36 26.67 103.21 26.69 103.05 26.73C97.9798 27.74 93.2798 30.32 91.1898 34.86C86.9498 32.64 74.5698 32.45 69.7698 41.88C63.6798 39.66 53.1498 40.58 48.7198 49.26C35.2398 46.3 27.8498 55.73 27.8498 55.73C27.8498 55.73 17.6898 53.32 9.00977 60.71C9.00977 60.71 13.6398 49.66 20.8398 36.97C28.0698 48.94 84.0098 24.35 87.2598 14.19C100.82 19.94 110.24 25.99 110.77 26.34C110.78 26.34 110.78 26.35 110.79 26.35H110.78Z" fill="#B89CA6"/>
</g>
</g>
<defs>
<radialGradient id="paint0_radial_979_17567" cx="0" cy="0" r="1" gradientUnits="userSpaceOnUse" gradientTransform="translate(129.596 59.5135) rotate(3.3486) scale(94.1764 94.1764)">
<stop stop-color="#DBE7EE"/>
<stop offset="1" stop-color="#B7C5CD"/>
</radialGradient>
<radialGradient id="paint1_radial_979_17567" cx="0" cy="0" r="1" gradientUnits="userSpaceOnUse" gradientTransform="translate(141.098 49.1627) scale(49.9383 49.9383)">
<stop stop-color="#EBEBEB"/>
<stop offset="1" stop-color="#555F71"/>
</radialGradient>
<radialGradient id="paint2_radial_979_17567" cx="0" cy="0" r="1" gradientUnits="userSpaceOnUse" gradientTransform="translate(101.124 85.5239) rotate(90) scale(51.5136 54.9641)">
<stop stop-color="#DFDFDF"/>
<stop offset="1" stop-color="#DFDFDF" stop-opacity="0"/>
</radialGradient>
<linearGradient id="paint3_linear_979_17567" x1="128.57" y1="69.5884" x2="131.251" y2="59.1543" gradientUnits="userSpaceOnUse">
<stop stop-color="#5A397A"/>
<stop offset="1" stop-color="#372E63"/>
</linearGradient>
<linearGradient id="paint4_linear_979_17567" x1="122.892" y1="87.8417" x2="127.772" y2="70.0139" gradientUnits="userSpaceOnUse">
<stop stop-color="#5A397A"/>
<stop offset="1" stop-color="#804A8F"/>
</linearGradient>
<linearGradient id="paint5_linear_979_17567" x1="109.777" y1="67.7398" x2="142.472" y2="80.5922" gradientUnits="userSpaceOnUse">
<stop stop-color="#5A397A"/>
<stop offset="1" stop-color="#804A8F"/>
</linearGradient>
<linearGradient id="paint6_linear_979_17567" x1="130.822" y1="61.7965" x2="145.182" y2="67.4415" gradientUnits="userSpaceOnUse">
<stop stop-color="#76397A"/>
<stop offset="1" stop-color="#251F42"/>
</linearGradient>
<linearGradient id="paint7_linear_979_17567" x1="130.822" y1="61.7965" x2="143.06" y2="66.6074" gradientUnits="userSpaceOnUse">
<stop stop-color="#5A397A"/>
<stop offset="1" stop-color="#804A8F"/>
</linearGradient>
<clipPath id="clip0_979_17567">
<rect width="158.44" height="158.76" fill="white" transform="translate(9 4)"/>
</clipPath>
</defs>
</svg>
