<svg width="185" height="175" viewBox="0 0 185 175" fill="none" xmlns="http://www.w3.org/2000/svg">
<circle opacity="0.9" cx="88" cy="96" r="62" fill="white"/>
<g opacity="0.2">
<path style="mix-blend-mode:screen" opacity="0.5" d="M150.061 95.9897C150.061 97.4399 150.011 98.8802 149.901 100.3C149.559 105.512 148.55 110.658 146.9 115.613C146.885 115.671 146.865 115.728 146.84 115.783C144.698 122.113 141.55 128.057 137.519 133.386C131.191 141.757 122.842 148.384 113.255 152.649C108.736 154.673 103.987 156.134 99.1123 157C95.4816 157.656 91.8 157.991 88.1105 158C76.7043 158.003 65.5176 154.864 55.7784 148.927C46.0391 142.99 38.1238 134.485 32.9013 124.344C32.1212 122.814 31.391 121.234 30.7409 119.624C27.6497 112.135 26.0659 104.111 26.0802 96.0097C26.0802 95.4596 26.0802 94.9295 26.0802 94.3694C26.0802 93.8093 26.0802 93.4893 26.0802 93.0592C26.0802 92.8392 26.0802 92.5991 26.0802 92.3791C26.1335 91.4189 26.2135 90.4688 26.3202 89.5286C26.3202 88.9885 26.4402 88.4384 26.5002 87.8983C26.5602 87.3583 26.6503 86.8982 26.7303 86.3681C26.8103 85.838 26.9003 85.3679 27.0003 84.7878C27.1503 83.9177 27.3304 83.0775 27.5304 82.2274C27.6404 81.6873 27.7804 81.1672 27.9105 80.6271C28.3839 78.7868 28.934 76.9799 29.5607 75.2062C29.6507 74.9462 29.7408 74.6962 29.8408 74.4461C29.9408 74.1961 30.0908 73.786 30.2208 73.4459C30.3509 73.1059 30.6009 72.4458 30.7909 72.0157C30.981 71.5856 31.191 71.0856 31.401 70.6255C32.645 67.8551 34.0926 65.1806 35.7318 62.6241C35.9118 62.3341 36.1018 62.044 36.3018 61.764C36.5019 61.484 36.7919 61.0039 37.062 60.6338C38.3401 58.7862 39.7226 57.013 41.2027 55.3229C46.3989 49.3578 52.6857 44.439 59.7258 40.8305C65.2161 38.0033 71.1043 36.0271 77.1887 34.9696C80.739 34.35 84.3364 34.0388 87.9404 34.0394C97.2464 34.0199 106.435 36.1128 114.815 40.1604C116.035 40.7405 117.235 41.3506 118.406 42.0207L118.766 42.2208L118.906 42.3008C126.383 46.6274 132.878 52.4619 137.979 59.4336C141.685 64.4211 144.627 69.9324 146.71 75.7863L146.92 76.3764C146.99 76.5765 147.06 76.7865 147.12 76.9865C148.38 80.9153 149.247 84.959 149.711 89.0585C149.831 90.1887 149.931 91.3289 149.981 92.4891C150.031 93.6493 150.061 94.8095 150.061 95.9897Z" fill="url(#paint0_radial_972_17474)"/>
<g style="mix-blend-mode:multiply" opacity="0.2">
<path d="M150.061 95.99C150.061 97.4402 150.011 98.8805 149.901 100.301C149.738 100.996 149.393 101.634 148.901 102.151C147.993 102.934 146.891 103.456 145.71 103.661C144.01 104.041 142.229 104.211 140.499 104.461C138.388 104.737 136.308 105.216 134.288 105.892C130.457 107.192 126.715 108.742 123.086 110.532C119.27 112.44 115.327 114.081 111.284 115.443C109.124 116.153 106.874 116.593 104.693 117.273C103.693 117.594 102.633 117.834 101.603 118.074C100.162 118.424 98.7922 118.884 97.372 119.204C95.5317 119.624 93.7614 120.204 91.9211 120.624C89.8507 121.054 87.8104 121.824 85.72 122.134C84.0682 122.409 82.3914 122.503 80.7192 122.414C79.9891 122.354 79.269 122.254 78.5488 122.214C77.5487 122.144 76.5485 122.164 75.6184 122.094C74.2146 122.024 72.8074 122.095 71.4177 122.304C69.8454 122.546 68.2486 122.583 66.6669 122.414C65.1275 122.159 63.6096 121.788 62.1261 121.304C60.5549 120.851 58.9304 120.609 57.2953 120.584C56.6652 120.584 56.0351 120.704 55.415 120.754C54.7949 120.804 54.1048 120.844 53.4147 120.914C52.4335 121.009 51.4454 121.009 50.4642 120.914C48.9275 120.745 47.428 120.33 46.0234 119.684C44.4623 119.018 42.832 118.529 41.1626 118.224C39.6724 117.994 38.1621 117.434 36.6619 117.764C36.4135 117.802 36.163 117.826 35.9117 117.834C35.5817 117.834 35.2716 118.004 34.9116 118.044C34.5166 118.051 34.1278 118.143 33.7714 118.314C33.596 118.439 33.429 118.576 33.2713 118.724C33.1159 118.874 32.9487 119.011 32.7712 119.134C32.489 119.258 32.1982 119.362 31.9011 119.444C31.5069 119.598 31.0803 119.649 30.6609 119.594C27.5696 112.106 25.9858 104.081 26.0001 95.98C26.0001 95.4299 26.0001 94.8998 26.0001 94.3397C26.0001 93.7796 26.0001 93.4595 26.0001 93.0295C26.0001 92.8094 26.0001 92.5694 26.0001 92.3494C26.0534 91.3892 26.1334 90.439 26.2401 89.4989C26.2401 88.9588 26.3602 88.4087 26.4202 87.8686C26.4802 87.3285 26.5702 86.8684 26.6502 86.3384C26.7302 85.8083 26.8202 85.3382 26.9203 84.7581C27.0703 83.888 27.2503 83.0478 27.4503 82.1977C27.5604 81.6576 27.7004 81.1375 27.8304 80.5974C28.3038 78.7571 28.8539 76.9501 29.4807 75.1765C29.5707 74.9165 29.6607 74.6664 29.7607 74.4164C29.8607 74.1663 30.0108 73.7563 30.1408 73.4162C30.2708 73.0762 30.5208 72.416 30.7109 71.986C30.9009 71.5559 31.111 71.0558 31.321 70.5957C32.565 67.8253 34.0125 65.1509 35.6517 62.5944C35.8317 62.3044 36.0218 62.0143 36.2218 61.7343C36.4218 61.4542 36.7119 60.9741 36.9819 60.6041C38.26 58.7565 39.6425 56.9833 41.1226 55.2932C40.5925 56.5334 39.9224 57.8736 40.2325 59.2939C40.3118 59.6836 40.436 60.0629 40.6025 60.424C40.6319 60.4746 40.6554 60.5283 40.6725 60.5841C41.1826 59.824 41.6727 59.0438 42.2328 58.2937C42.9229 57.2935 43.583 56.2934 44.3332 55.3932C45.0833 54.4931 45.6934 53.903 46.3335 53.1628C46.5735 52.9128 47.1636 52.1627 47.5537 52.1627C47.6837 52.5827 47.2936 53.1628 47.1236 53.5129C46.8736 54.053 46.4635 54.5131 46.2535 55.0732C46.1935 55.2732 46.0834 55.6332 46.3735 55.6232C46.4913 55.557 46.6048 55.4835 46.7135 55.4032C47.0536 55.1632 47.3636 54.8931 47.7137 54.6431C48.1938 54.273 48.7139 53.973 49.204 53.6429C49.694 53.3129 50.5142 52.6428 51.2043 52.1827C53.0046 50.9025 54.8249 49.5623 56.7252 48.4321C58.7307 47.2501 60.7972 46.1751 62.9162 45.2115C64.0264 44.7014 65.1166 44.1514 66.2568 43.6813C67.1203 43.3424 68.0101 43.0748 68.9172 42.8811C69.6797 42.7347 70.4519 42.6444 71.2276 42.6111C71.8677 42.5511 72.5078 42.4811 73.1579 42.4811C73.808 42.4811 74.2681 42.3811 74.8382 42.3811C75.1762 42.3938 75.5116 42.4441 75.8384 42.5311C75.9284 42.5311 76.2685 42.5911 76.3385 42.6911C76.6385 43.1612 75.2883 43.0712 75.0883 43.1612C74.3306 43.6633 73.6414 44.2617 73.0379 44.9415C72.4578 45.4516 71.8577 45.8916 71.3076 46.4517C70.6977 46.9176 70.1932 47.5073 69.8274 48.182C69.7274 48.4421 69.5773 48.8221 69.7274 49.0822C69.8774 49.3422 70.3175 49.3222 70.6075 49.2722C71.4606 49.088 72.3021 48.8543 73.1279 48.5721C74.1781 48.242 75.2483 47.942 76.2784 47.5719C77.1665 47.2161 78.0929 46.9644 79.0389 46.8218C80.0391 46.7018 80.9292 46.5117 81.8794 46.3917C82.4285 46.3021 82.9834 46.252 83.5397 46.2417C84.0197 46.2417 84.4498 46.1017 84.9199 46.1117C85.78 46.1117 85.1399 47.0418 84.7198 47.2919C83.3962 48.1989 81.9286 48.8752 80.3791 49.2922C78.5774 49.5905 76.7967 50.0048 75.0483 50.5324C73.8281 50.9625 72.5678 51.3325 71.3576 51.8026C70.6975 52.0627 70.0574 52.3427 69.4173 52.6227C68.4972 53.0128 67.627 53.5129 66.7069 53.923C65.3021 54.6135 63.963 55.4303 62.7062 56.3634C61.496 57.1735 60.3658 58.0837 59.2056 58.9638C58.1815 59.7388 57.2216 60.595 56.3352 61.5242C55.502 62.3346 54.8241 63.2904 54.3348 64.3447C53.753 65.4711 53.3834 66.6951 53.2446 67.9553C53.2485 68.4564 53.3678 68.9499 53.5933 69.3974C53.8188 69.8449 54.1444 70.2345 54.5448 70.5357C55.4535 71.2298 56.545 71.6435 57.6854 71.7259C58.472 71.7427 59.2586 71.6892 60.0358 71.5659C61.1382 71.2493 62.261 71.0087 63.3963 70.8458C64.6326 70.7223 65.8769 70.6989 67.1169 70.7758C68.535 70.9073 69.9228 71.2653 71.2276 71.8359C72.4819 72.5093 73.6823 73.2783 74.8182 74.1363C76.4279 75.2751 77.9339 76.5536 79.319 77.957C80.1091 78.7071 80.7992 79.5372 81.6394 80.2173C82.2794 80.7677 82.9471 81.2851 83.6397 81.7676C85.2492 82.8155 87.0297 83.5738 88.9006 84.008C90.3977 84.4728 91.9897 84.5417 93.5213 84.208C94.6315 83.8979 95.6217 83.3179 96.7319 83.0278C97.4093 82.8678 98.1147 82.8678 98.7922 83.0278C99.8349 83.2434 100.898 83.3441 101.963 83.3279C102.503 83.3279 103.033 83.2478 103.583 83.2078C104.128 83.1882 104.672 83.2592 105.193 83.4179C105.573 83.5079 106.123 83.7379 105.643 84.148C105.163 84.5581 104.003 84.448 103.343 84.448C102.178 84.4046 101.011 84.4514 99.8524 84.5881C99.4423 84.6581 98.2421 84.8281 98.1621 85.3782C98.0621 86.0883 99.8024 86.0583 100.162 86.0083C101.223 85.8583 102.293 85.7683 103.353 85.6883C104.665 85.7014 105.973 85.8252 107.264 86.0583C108.564 86.1883 109.824 86.5884 111.134 86.6684C111.695 86.6664 112.254 86.589 112.795 86.4384C113.68 86.2429 114.554 86.0026 115.415 85.7183C116.865 85.2682 118.265 84.7181 119.746 84.428C121.029 84.1579 122.354 84.1579 123.636 84.428C124.266 84.5481 124.927 84.6381 125.567 84.7281C126.207 84.8181 126.857 84.7881 127.487 84.8681C129.328 84.9434 131.16 84.562 132.818 83.7579C134.713 82.7967 136.656 81.9321 138.639 81.1675C139.94 80.7724 141.282 80.5274 142.639 80.4374C142.964 80.3459 143.303 80.312 143.64 80.3374C143.81 80.3374 143.94 80.4974 144.1 80.5374C144.52 80.6674 144.6 80.3774 144.74 80.0573C144.917 79.7699 145.071 79.469 145.2 79.1572C145.29 78.8471 145.37 78.5171 145.48 78.157C145.59 77.7969 145.58 77.4169 145.71 77.0468C145.8 76.8468 146.37 75.8266 146.6 75.7966C146.75 75.8466 146.76 76.1667 146.77 76.3867C146.78 76.6067 146.77 76.5067 146.77 76.5467C146.789 76.71 146.851 76.8653 146.95 76.9968C148.267 80.9164 149.191 84.9568 149.711 89.0588C149.231 88.9088 148.71 88.7488 148.29 88.6287C147.59 88.4487 146.87 88.3687 146.16 88.2387C145.45 88.1086 144.86 87.9486 144.21 87.8686C142.808 87.7754 141.403 88.0118 140.109 88.5587C139.463 88.7808 138.834 89.0516 138.229 89.3689C137.659 89.6689 137.089 89.969 136.498 90.229C135.908 90.489 135.268 90.7391 134.618 90.9691C133.618 91.2992 132.758 91.7893 131.788 92.1393C130.287 92.6594 128.787 93.4295 127.297 93.7996C125.896 94.1964 124.458 94.4511 123.006 94.5597C121.746 94.6397 120.466 94.2997 119.196 94.4697C118.696 94.5397 118.195 94.7098 117.725 94.7998C117.311 94.9179 116.89 95.0114 116.465 95.0798C115.785 95.0798 115.125 95.1398 114.465 95.2098C113.345 95.3298 112.244 95.4299 111.124 95.4399C110.288 95.4564 109.453 95.5232 108.624 95.6399C107.844 95.7499 107.074 95.7799 106.293 95.8999C105.527 96.0016 104.779 96.2138 104.073 96.5301C103.883 96.6201 103.383 96.8501 103.423 97.1202C103.463 97.3902 103.723 97.4402 103.883 97.5002C104.431 97.6781 105.01 97.7428 105.583 97.6903C106.069 97.6835 106.553 97.6467 107.034 97.5802C107.704 97.5202 108.374 97.5802 109.034 97.5302C111.162 97.3506 113.306 97.5298 115.375 98.0603C116.664 98.3547 117.995 98.4157 119.306 98.2403C121.116 97.9803 122.846 97.4102 124.647 97.1202C127.807 96.6101 130.968 96.02 134.088 95.3899C135.598 95.0998 137.039 94.5897 138.549 94.3297L140.549 93.9496C141.469 93.7596 142.419 93.7196 143.35 93.5896C144.74 93.3995 146.07 92.9094 147.46 92.7394C148.31 92.6294 149.151 92.5294 149.991 92.4894C150.021 93.6396 150.061 94.8098 150.061 95.99Z" fill="#312C2F"/>
</g>
<g style="mix-blend-mode:multiply" opacity="0.2">
<path d="M137.51 133.397C128.131 145.816 114.418 154.246 99.1034 157.011C99.0892 156.98 99.0687 156.953 99.0433 156.931C98.2032 156.051 97.2831 155.271 96.3729 154.45C95.3845 153.508 94.3426 152.623 93.2524 151.8C91.2627 150.425 89.1956 149.166 87.0613 148.029C84.8695 146.685 82.5473 145.566 80.1302 144.689C78.8031 144.22 77.4508 143.826 76.0795 143.509C74.3793 143.179 72.619 143.108 70.8987 142.908C65.4455 142.213 59.9055 142.763 54.696 144.519C53.6165 144.873 52.5637 145.305 51.5455 145.809L51.3254 145.929C43.6081 140.245 37.304 132.86 32.9023 124.345C33.4466 124.13 34.0194 123.995 34.6026 123.945C35.0627 123.945 35.5228 123.945 35.9829 123.945C36.7994 124.046 37.5956 124.272 38.3433 124.615C40.3673 125.483 42.566 125.867 44.7643 125.736C45.3207 125.684 45.8723 125.59 46.4146 125.456C46.9247 125.316 47.4148 125.055 47.9249 124.965C48.6635 124.9 49.4065 124.9 50.1452 124.965C50.7358 125.028 51.3209 125.135 51.8955 125.286C52.4256 125.376 52.9657 125.416 53.5058 125.516C54.0599 125.666 54.6251 125.773 55.1961 125.836C57.058 125.829 58.9038 125.49 60.647 124.835C61.5335 124.583 62.4465 124.435 63.3674 124.395C65.7578 124.125 67.9982 124.965 70.2486 125.676C71.5226 126.01 72.8321 126.192 74.1492 126.216C75.4963 126.329 76.8483 126.372 78.1999 126.346C80.2807 126.284 82.357 126.117 84.4209 125.846C85.2511 125.756 86.0812 125.636 86.8913 125.466C88.4216 125.166 89.9618 124.945 91.4921 124.655C95.262 123.931 98.9885 122.996 102.654 121.855C104.254 121.345 105.814 120.705 107.425 120.195C108.082 119.991 108.749 119.824 109.425 119.695C110.075 119.486 110.775 119.486 111.425 119.695C111.525 119.725 111.616 119.776 111.694 119.845C111.772 119.914 111.833 119.999 111.875 120.094C111.917 120.189 111.938 120.291 111.936 120.395C111.934 120.499 111.91 120.601 111.865 120.695C111.655 121.125 110.965 121.475 110.585 121.695C110.003 121.991 109.389 122.219 108.755 122.375C107.585 122.775 106.425 123.245 105.254 123.635C104.544 123.875 103.814 123.995 103.094 124.165C102.256 124.383 101.434 124.657 100.634 124.985C99.9235 125.266 99.3234 125.716 98.5833 125.986C97.5831 126.356 96.5829 126.626 95.5828 126.986C93.0624 127.986 90.702 129.426 88.0215 129.986C87.1614 130.189 86.3133 130.439 85.4811 130.736C85.101 130.856 84.4809 131.076 84.4809 131.607C84.4809 132.407 85.6411 132.667 86.2012 132.797C87.0814 133.007 87.9215 133.337 88.8017 133.547C89.3875 133.708 89.9492 133.947 90.4719 134.257C91.2575 134.67 92.0904 134.986 92.9523 135.197C94.8753 135.699 96.8561 135.944 98.8433 135.927C101.594 135.817 104.304 135.267 107.065 135.427C108.24 135.528 109.403 135.746 110.535 136.077C111.645 136.367 112.756 136.557 113.896 136.737C116.854 137.129 119.847 137.186 122.817 136.907C124.925 136.756 127.02 136.466 129.088 136.037C130.538 135.861 131.963 135.526 133.339 135.037C133.969 134.777 134.629 134.647 135.259 134.347C135.639 134.157 135.979 134.007 136.37 133.847C136.741 133.675 137.121 133.525 137.51 133.397Z" fill="#282527"/>
</g>
<g style="mix-blend-mode:multiply" opacity="0.2">
<path d="M146.889 115.622C146.138 117.853 145.263 120.04 144.268 122.173L144.118 122.253C143.384 122.64 142.71 123.132 142.118 123.714C141.64 124.142 141.105 124.502 140.528 124.784C140.148 124.974 139.808 125.224 139.427 125.404C139.047 125.584 138.617 125.864 138.217 126.084C137.582 126.503 136.983 126.975 136.427 127.494C136.217 127.674 136.037 127.884 135.817 128.064C135.597 128.244 135.467 128.314 135.307 128.464C134.977 128.764 134.667 129.084 134.307 129.354C133.565 129.923 132.763 130.409 131.916 130.805C131.365 131.048 130.797 131.248 130.216 131.405C129.566 131.605 128.936 131.775 128.296 131.925C127.655 132.075 127.035 132.305 126.405 132.505C125.715 132.711 125.009 132.862 124.295 132.955C123.175 133.115 122.055 133.075 120.944 133.325C120.364 133.435 119.804 133.625 119.214 133.755C118.624 133.885 118.094 134.065 117.514 134.145C116.519 134.289 115.508 134.289 114.513 134.145C114.181 134.107 113.847 134.087 113.513 134.085C113.293 134.085 113.073 134.025 112.843 134.025L112.453 134.025C111.516 133.91 110.569 133.91 109.632 134.025C108.682 134.115 107.722 134.165 106.782 134.215C106.32 134.261 105.854 134.261 105.392 134.215C104.849 134.17 104.304 134.17 103.762 134.215C102.575 134.279 101.386 134.222 100.211 134.045C100.225 133.605 100.4 133.186 100.701 132.865C100.791 132.725 100.801 132.615 100.961 132.525C101.146 132.426 101.34 132.346 101.541 132.285C101.676 132.216 101.817 132.159 101.961 132.115C102.291 132.036 102.625 131.976 102.961 131.935C103.32 131.849 103.684 131.789 104.052 131.755C104.472 131.755 104.902 131.755 105.322 131.755L106.402 131.815C107.077 131.858 107.747 131.965 108.402 132.135C109.042 132.315 109.693 132.525 110.403 132.685C112.453 133.175 114.513 133.955 116.634 133.505C116.904 133.445 117.144 133.425 117.394 133.355C117.874 133.255 118.294 133.045 118.764 132.935C119.978 132.716 121.18 132.432 122.365 132.085C122.903 131.904 123.43 131.694 123.945 131.455C124.435 131.205 124.865 130.875 125.365 130.655C125.865 130.435 126.365 130.165 126.855 129.945L128.296 129.314C129.444 128.813 130.566 128.252 131.656 127.634C132.674 127.025 133.656 126.357 134.597 125.634C135.727 124.804 136.777 123.864 137.937 123.073C138.769 122.521 139.631 122.013 140.518 121.553C141.116 121.319 141.668 120.98 142.148 120.553C142.583 119.95 142.977 119.319 143.328 118.663C143.746 118.018 144.287 117.461 144.918 117.022C145.218 116.802 145.548 116.612 145.849 116.382C146.149 116.152 146.539 115.902 146.889 115.622Z" fill="#470024"/>
</g>
<g style="mix-blend-mode:multiply" opacity="0.2">
<path d="M126.708 45.6413C126.708 45.7313 126.758 45.8413 126.788 45.9414C126.708 46.0114 126.648 45.9614 126.708 45.6413Z" fill="#470024"/>
</g>
<g style="mix-blend-mode:multiply" opacity="0.2">
<path d="M142.442 66.2352C141.14 67.5055 139.614 68.5229 137.941 69.2357C135.62 70.2358 133.06 69.9458 130.63 70.2358C130.17 70.2858 129.819 70.5259 129.379 70.5859C128.939 70.6459 128.489 70.5059 128.059 70.5859C127.011 70.7689 125.952 70.8858 124.889 70.936C123.408 70.936 122.078 71.276 120.598 71.276C119.118 71.276 117.097 71.6661 115.807 71.206C115.937 70.5659 117.807 70.2659 118.418 70.0258C119.612 69.5424 120.889 69.2945 122.178 69.2957C122.938 69.2957 123.578 69.0056 124.329 68.9356C125.079 68.8656 125.639 69.0156 126.329 68.8856C127.019 68.7556 128.979 68.3455 128.769 67.2854C128.562 66.9169 128.302 66.5801 127.999 66.2852C127.635 65.9967 127.206 65.8011 126.749 65.7151C125.919 65.5351 125.369 65.5951 126.169 64.7149C126.689 64.1448 127.279 63.2047 126.089 62.9346C125.185 62.8769 124.278 63.0098 123.428 63.3247C122.984 63.3166 122.54 63.3333 122.098 63.3747C121.668 63.4747 121.218 63.7748 120.788 63.8848C120.358 63.9948 119.678 63.8848 119.108 64.0448C118.542 64.1884 117.961 64.2656 117.377 64.2749C115.147 64.3449 112.817 65.7351 110.576 65.215L107.856 64.6049C106.506 64.3149 104.925 64.7949 103.615 64.965C101.925 65.185 100.245 65.355 98.5343 65.6151C97.5341 65.7751 96.3139 66.2652 95.3438 65.8851C95.7238 65.4851 96.6739 65.435 97.194 65.285C98.6143 64.925 100.095 64.6449 101.525 64.3749C102.955 64.1048 104.675 63.8848 106.226 63.7048C107.226 63.5647 108.306 63.7648 109.296 63.5947C112.148 63.2244 114.949 62.5367 117.647 61.5444C120.198 60.5442 122.138 58.2739 124.099 56.3335C125.229 55.3973 126.178 54.2617 126.899 52.983C127.198 52.2274 127.455 51.4561 127.669 50.6726C127.837 49.8562 127.781 49.0098 127.509 48.2222C133.589 53.2197 138.658 59.3338 142.442 66.2352Z" fill="#470024"/>
</g>
<g style="mix-blend-mode:multiply" opacity="0.2">
<path d="M33.8527 70.4459C34.3879 68.9491 35.082 67.514 35.9231 66.1652C36.1883 65.9136 36.4725 65.6829 36.7732 65.4751C37.2033 65.095 37.7734 63.9848 38.4735 63.9748C39.3437 63.9748 38.2635 65.305 39.3237 65.235C40.3838 65.165 41.274 63.9848 42.1241 63.4547C42.5879 63.1392 43.1335 62.9654 43.6944 62.9546C44.1645 63.0847 44.0044 63.2347 44.0845 63.7048C44.4768 63.6517 44.8344 63.4515 45.0846 63.1447C45.747 62.3968 46.5153 61.7498 47.365 61.2243C47.8151 60.9743 49.6554 59.7441 50.2455 60.2842C50.8356 60.8243 49.1353 62.7646 48.9153 63.0346C47.9026 64.3432 47.1922 65.8598 46.8349 67.4754C46.2748 69.8758 48.1551 72.7063 50.2155 73.7364C50.7455 73.9965 51.2156 74.3565 51.6957 74.6666C52.3916 75.0684 53.1537 75.3428 53.9461 75.4767C55.7171 76.0553 57.5205 76.5296 59.347 76.897C61.288 77.0928 63.2475 76.9917 65.1579 76.5969C65.6099 76.379 66.1006 76.253 66.6016 76.2261C67.1026 76.1993 67.604 76.2722 68.0766 76.4406C68.5492 76.609 68.9837 76.8695 69.3548 77.2071C69.726 77.5447 70.0265 77.9526 70.2388 78.4072C70.8794 79.0545 71.6146 79.6008 72.4192 80.0275C73.3593 80.6476 74.4195 81.0877 75.4197 81.6377C76.0498 81.9978 76.5899 82.4679 77.21 82.8279C77.82 83.0815 78.3922 83.4181 78.9102 83.8281C79.3437 84.1529 79.7014 84.5679 79.9587 85.0446C80.216 85.5212 80.3668 86.048 80.4005 86.5886C80.4005 87.2887 79.8404 87.3487 79.4803 87.8788C80.3205 88.5189 81.4107 88.6089 82.2408 89.189C82.5008 89.359 83.241 89.6691 83.1109 90.0591C82.9309 90.6993 81.1106 90.5592 80.7805 90.5592C77.1799 90.5592 73.5694 90.4492 69.9788 90.5592C68.7141 90.5944 67.4553 90.745 66.2181 91.0093C65.9918 91.0245 65.7714 91.0877 65.5714 91.1946C65.3714 91.3015 65.1963 91.4497 65.0579 91.6294C65.6907 92.0771 66.4433 92.3245 67.2183 92.3395C69.0586 92.5696 70.8689 93.0396 72.7092 93.3397C74.5495 93.6397 76.0098 94.3399 77.7101 94.7899C78.4002 94.95 79.0703 95.19 79.7604 95.35C80.6672 95.4965 81.5826 95.5834 82.5008 95.6101C86.2314 95.9501 90.0021 95.08 93.7527 95.09C95.1529 95.107 96.5527 95.0335 97.9434 94.8699C99.1791 94.7016 100.391 94.3895 101.554 93.9398C102.274 93.6898 103.014 93.5797 103.744 93.3597C104.475 93.1397 105.185 92.8296 105.935 92.6496C107.244 92.3189 108.586 92.1377 109.935 92.1095C111.136 92.1095 112.286 92.4295 113.486 92.3395C115.396 92.1895 117.077 91.4194 118.947 91.1693C122.352 90.6879 125.684 89.7876 128.869 88.4889C130.128 88.0429 131.438 87.7573 132.769 87.6387C133.139 87.5887 133.459 87.4087 133.829 87.3687C134.162 87.3899 134.496 87.3899 134.83 87.3687C135.516 87.1598 136.164 86.8424 136.75 86.4285C137.587 85.8029 138.466 85.2348 139.38 84.7283C140.38 84.3082 141.471 84.0881 142.491 83.7281C142.891 83.5981 143.281 83.408 143.681 83.288C144.081 83.168 144.371 83.228 144.581 83.028C143.811 83.5417 142.958 83.9205 142.061 84.1482C141.19 84.4774 140.369 84.925 139.62 85.4784C139.21 85.9094 138.758 86.2981 138.27 86.6386C137.226 87.4685 136.067 88.1424 134.83 88.6389C132.759 89.199 130.779 90.0792 128.689 90.6392C126.598 91.1993 124.418 91.5194 122.307 91.9795C117.818 92.9436 113.276 93.6449 108.705 94.0798C106.878 94.2517 105.066 94.5592 103.284 95C102.584 95.18 102.044 95.5901 101.334 95.7601C100.464 95.9701 99.6437 96.2802 98.7935 96.5602C97.0633 97.1503 95.333 97.6404 93.6227 98.3105C92.7426 98.6606 91.1823 98.6606 90.8422 99.7308C91.5236 100.067 92.2937 100.179 93.0426 100.051C93.618 100.106 94.1974 100.106 94.7729 100.051C95.4594 99.8697 96.1288 99.6287 96.7732 99.3307C97.4033 99.0506 97.9934 98.8106 98.6435 98.5806C99.2936 98.3505 99.5537 98.0605 100.254 98.0705C100.651 98.1133 101.052 98.0964 101.444 98.0205C101.784 97.9204 101.984 97.7104 102.444 97.8704C102.284 98.2305 101.514 98.5206 101.164 98.7006C100.814 98.8806 100.224 98.9606 99.7837 99.3707C99.3436 99.7808 99.1036 100.051 99.7837 100.371C100.665 100.637 101.595 100.698 102.504 100.551C105.195 100.481 107.775 99.3607 110.505 99.9108C112.036 100.221 113.506 100.601 115.056 100.911C116.905 101.207 118.786 101.255 120.647 101.051C122.497 100.831 124.288 100.271 126.148 100.101C127.148 100.001 128.148 99.7207 129.149 99.5407C130.439 99.2907 131.739 99.0906 133.029 98.8506C134.64 98.5606 136.26 98.1705 137.87 97.9105C139.11 97.7004 140.37 97.6304 141.611 97.4204C142 97.352 142.396 97.3285 142.791 97.3504C143.231 97.3504 143.081 97.4804 143.381 97.5504C143.787 97.6434 144.184 97.7671 144.571 97.9205C144.951 98.0805 145.711 98.0205 145.791 98.5406C143.031 100.481 139.15 100.691 136 101.541C133.859 102.141 131.769 102.871 129.659 103.541C127.148 104.332 124.658 105.032 122.117 105.832C119.577 106.632 117.437 107.492 115.116 108.272C113.176 108.912 111.316 109.692 109.355 110.272C108.355 110.553 107.445 111.033 106.455 111.343C105.465 111.653 104.524 111.913 103.564 112.273C102.752 112.561 101.924 112.805 101.084 113.003C99.9837 113.283 99.0136 113.753 97.9534 114.113C96.8932 114.473 95.733 114.623 94.6729 115.053C93.8437 115.446 92.9881 115.78 92.1124 116.053C90.7022 116.434 89.302 116.764 87.8817 117.054C86.8816 117.284 85.8814 117.744 84.8812 117.934C83.7427 118.113 82.5931 118.213 81.4407 118.234C80.3505 118.234 79.3203 118.484 78.2101 118.484C77.2797 118.439 76.3473 118.459 75.4197 118.544C73.909 118.713 72.3884 118.776 70.8689 118.734L69.1386 118.734C68.4962 118.82 67.8441 118.799 67.2083 118.674C67.2883 118.464 68.2985 118.364 68.6485 118.294C69.3117 118.208 69.9818 118.188 70.6489 118.234C71.3493 118.267 72.0512 118.25 72.7492 118.184C73.5393 118.064 74.3795 118.094 75.1696 117.934C76.325 117.776 77.4704 117.552 78.6002 117.264C79.2703 117.064 79.7704 116.644 80.4105 116.414C80.9488 116.26 81.4968 116.143 82.0508 116.063C82.9148 115.851 83.7895 115.684 84.6712 115.563C85.1713 115.493 85.6714 115.563 86.1815 115.453C86.9706 115.301 87.7415 115.066 88.4818 114.753C89.8121 114.293 91.0322 113.813 92.3125 113.253C93.0085 113.01 93.6268 112.586 94.1028 112.023C95.0029 110.753 92.8625 111.023 92.1924 111.163C90.383 111.776 88.5218 112.225 86.6315 112.503C85.7914 112.573 84.9913 112.703 84.1511 112.753C83.091 112.813 82.1508 113.023 81.0406 113.013C79.9304 113.003 79.1003 113.223 78.1101 113.273C76.7199 113.273 75.3396 113.443 73.9494 113.563C72.3892 113.703 70.8589 114.023 69.3186 114.203C68.1584 114.343 67.0083 114.373 65.8481 114.533C64.1478 114.773 62.5075 115.223 60.8472 115.533C59.9071 115.713 58.9769 115.993 58.0468 116.163C57.0445 116.287 56.0281 116.23 55.0463 115.993C53.366 115.713 51.6857 115.593 50.0454 115.173C47.7343 114.548 45.6096 113.371 43.8544 111.743C42.2107 110.193 40.1422 109.17 37.9134 108.802C36.147 108.59 34.3555 108.81 32.6926 109.442C31.4072 109.884 30.049 110.074 28.6919 110.002C27.0716 109.912 27.9317 108.532 27.9618 107.452C28.0318 104.652 27.9618 101.851 28.2518 99.0606C28.3418 98.1205 29.252 89.6691 30.6422 90.3692C30.7743 91.03 30.8678 91.6979 30.9223 92.3695C30.9823 92.9396 31.4423 93.2397 31.4923 93.7698C31.9024 93.7698 32.2925 92.1095 32.3725 91.7694C32.6825 90.4592 33.0326 89.169 33.3026 87.8488C33.6606 86.2075 33.7785 84.523 33.6527 82.8479C33.6548 82.2077 33.493 81.5776 33.1826 81.0176C32.8826 80.5976 32.6825 80.6776 32.1825 80.6676C31.3223 80.6676 30.9423 79.6674 30.9322 78.9373C30.9515 77.6458 31.2269 76.371 31.7424 75.1867C32.1925 74.0665 32.7426 72.9863 33.1526 71.8261C33.2026 71.406 33.6927 70.2559 33.8527 70.4459Z" fill="#262626"/>
</g>
<g style="mix-blend-mode:multiply" opacity="0.2">
<path d="M132.709 139.006C127.155 144.766 120.544 149.402 113.235 152.659C112.093 152.251 110.914 151.956 109.715 151.779C108.995 151.779 107.524 151.728 106.954 151.108C106.384 150.488 107.955 150.378 108.405 150.288C108.855 150.198 110.045 150.288 110.225 149.558C110.645 147.988 105.224 147.478 104.224 147.238C102.576 146.925 100.9 146.787 99.223 146.828C98.231 146.79 97.2486 146.619 96.3026 146.318C95.3824 146.018 94.4723 145.848 93.5521 145.567C91.7414 145.005 89.8835 144.606 88.0012 144.377C87.7011 144.377 85.6108 144.207 85.5508 143.887C86.5647 143.543 87.6049 143.282 88.6613 143.107C89.0814 143.037 89.2314 143.197 89.5614 143.277C89.8915 143.357 90.4316 143.387 90.8817 143.507C95.2221 144.471 99.6745 144.835 104.114 144.587C104.704 144.587 105.204 144.347 105.784 144.327C106.364 144.307 106.714 144.327 107.174 144.327C108.648 144.332 110.116 144.134 111.535 143.737C112.795 143.387 114.156 143.207 115.386 142.837C115.776 142.717 117.056 142.587 117.106 142.127C116.367 142.017 115.615 142.017 114.876 142.127C113.767 142.163 112.657 142.12 111.555 141.997C110.255 141.827 108.955 141.857 107.654 141.687C106.811 141.705 105.978 141.494 105.244 141.077C105.604 140.587 106.644 140.487 107.194 140.387C108.375 140.177 109.585 140.057 110.765 139.887C113.765 139.476 116.766 139.326 119.766 139.176C121.387 139.096 123.027 138.806 124.657 138.876C125.917 138.876 127.138 139.166 128.398 139.146C129.398 139.146 130.328 139.146 131.288 139.146C131.765 139.143 132.24 139.096 132.709 139.006Z" fill="#470024"/>
</g>
<g style="mix-blend-mode:soft-light" opacity="0.5">
<g style="mix-blend-mode:soft-light" opacity="0.5">
<path d="M57.6952 79.0275C57.5152 80.0277 57.0351 81.1879 57.5552 82.148C57.8353 82.5838 58.2549 82.9117 58.7454 83.0782C60.0703 83.8577 61.6043 84.2071 63.1361 84.0784C64.3594 83.9387 65.5519 83.6009 66.6667 83.0782C67.3944 82.5556 67.8896 81.7698 68.0469 80.8878C68.215 80.5045 68.2451 80.0748 68.1321 79.6718C68.019 79.2688 67.7698 78.9174 67.4268 78.6775C67.2068 78.5674 67.0168 78.3874 66.7867 78.2974C66.4197 78.2026 66.0447 78.1423 65.6665 78.1174C64.8359 78.0325 64.0007 78.0024 63.1661 78.0274C62.586 78.0274 62.0159 78.0274 61.4358 78.0274C60.9228 78.0649 60.416 78.1622 59.9256 78.3174C59.1555 78.5174 58.1953 78.4774 57.6952 79.0275Z" fill="white"/>
</g>
<g style="mix-blend-mode:soft-light" opacity="0.5">
<path d="M68.6973 82.389C69.0883 81.9895 69.5246 81.637 69.9975 81.3389C70.2875 81.5689 70.7576 81.6189 70.9076 81.989C70.9968 82.1319 71.0345 82.3011 71.0145 82.4684C70.9944 82.6357 70.918 82.7912 70.7976 82.9091C70.6763 83.0501 70.5199 83.1566 70.3444 83.2181C70.1688 83.2795 69.9802 83.2937 69.7975 83.2592C69.4174 83.1692 68.8673 82.9991 68.7973 82.539L68.6973 82.389Z" fill="white"/>
</g>
<g style="mix-blend-mode:soft-light" opacity="0.5">
<path d="M64.5785 84.8677C65.1536 84.5463 65.7602 84.2848 66.3888 84.0876C66.7088 84.0076 66.9789 83.8276 67.3089 83.7575C67.6207 83.6835 67.9389 83.6399 68.2591 83.6275C68.6792 83.6275 68.8792 83.5575 69.1793 83.8776C69.4006 84.1072 69.5983 84.3585 69.7694 84.6277C69.8903 84.7608 69.9764 84.9218 70.0201 85.0963C70.0637 85.2709 70.0635 85.4534 70.0194 85.6278C69.8911 86.11 69.6354 86.5487 69.2793 86.8981C68.7133 87.4508 68.0294 87.868 67.2789 88.1183C66.4754 88.5163 65.5949 88.7347 64.6985 88.7584C64.2737 88.6641 63.856 88.5405 63.4483 88.3883C62.8082 88.2283 62.1481 88.2283 61.508 88.1183C60.8679 88.0082 59.9777 87.6082 60.2378 86.778C60.4718 86.3452 60.8015 85.9715 61.2019 85.6855C61.6024 85.3995 62.0628 85.2087 62.5481 85.1278C62.9182 85.0478 63.2883 85.0078 63.6683 84.9377C63.969 84.8872 64.2736 84.8638 64.5785 84.8677Z" fill="white"/>
</g>
<g style="mix-blend-mode:soft-light" opacity="0.5">
<path d="M72.0375 83.5084C71.6838 83.9097 71.4483 84.4014 71.3574 84.9286C71.5174 84.9286 71.5974 85.0086 71.7475 85.0086C71.8587 84.992 71.9666 84.9582 72.0675 84.9086C72.3576 84.7986 72.5676 84.7586 72.6476 84.4385C72.6782 84.3379 72.6887 84.2322 72.6784 84.1275C72.6681 84.0228 72.6373 83.9212 72.5876 83.8284C72.3937 83.6687 72.1636 83.5588 71.9175 83.5084L72.0375 83.5084Z" fill="white"/>
</g>
<g style="mix-blend-mode:soft-light" opacity="0.5">
<path d="M78.8783 96.8108C76.748 96.481 74.601 96.2707 72.4472 96.1806C70.0163 96.2372 67.6745 97.107 65.7961 98.6511C65.036 99.3012 64.1659 99.9513 64.1759 101.051C64.1993 101.413 64.3109 101.764 64.5009 102.072C64.691 102.381 64.9537 102.638 65.266 102.822C66.2872 103.475 67.4194 103.936 68.6066 104.182C69.7508 104.521 70.9219 104.762 72.1072 104.902C73.2002 105.032 74.3047 105.032 75.3977 104.902C76.5365 104.713 77.6573 104.429 78.7483 104.052C79.6724 103.864 80.5049 103.366 81.1087 102.642C81.4293 102.154 81.6061 101.585 81.6188 101.001C81.6188 99.7913 81.7188 98.6311 80.8186 97.7109C80.581 97.4278 80.284 97.2003 79.9487 97.0448C79.6134 96.8892 79.2479 96.8093 78.8783 96.8108Z" fill="white"/>
</g>
<g style="mix-blend-mode:soft-light" opacity="0.5">
<path d="M84.3496 96.9396C84.5164 97.4737 84.7809 97.9722 85.1297 98.4098C85.3998 98.1498 86.1299 98.2998 86.44 98.2998C86.7532 98.2901 87.0647 98.2498 87.3701 98.1798C87.8902 98.0898 88.5803 98.0297 88.5803 97.3696C88.5803 96.5495 87.6602 96.4295 87.03 96.4395C86.1599 96.4395 85.2498 96.2595 84.5997 96.9396L84.3496 96.9396Z" fill="white"/>
</g>
<g style="mix-blend-mode:soft-light" opacity="0.5">
<path d="M65.4453 105.642C66.2755 105.762 67.0856 105.852 67.9057 105.912C68.7283 105.952 69.5454 106.07 70.3461 106.262C70.5755 106.285 70.7969 106.359 70.9942 106.479C71.1914 106.598 71.3596 106.76 71.4863 106.952C71.6264 107.203 71.7264 107.353 71.6063 107.633C71.3584 108.01 70.9755 108.278 70.5362 108.383C69.9185 108.66 69.2797 108.887 68.6258 109.063C67.2669 109.47 65.8625 109.705 64.4452 109.763C64.076 109.759 63.7134 109.665 63.3879 109.491C63.0623 109.317 62.7835 109.067 62.5748 108.763C62.3968 108.48 62.2925 108.157 62.2715 107.823C62.2505 107.489 62.3136 107.156 62.4548 106.852C62.6217 106.481 62.8929 106.166 63.2357 105.945C63.5784 105.725 63.9778 105.61 64.3851 105.612C64.6838 105.605 64.9815 105.649 65.2653 105.742C65.4553 105.832 65.8054 105.852 65.4453 105.642Z" fill="white"/>
</g>
<g style="mix-blend-mode:soft-light" opacity="0.5">
<path d="M30.3714 102.782C30.1853 104.017 30.0984 105.264 30.1114 106.513C30.1042 106.768 30.1586 107.021 30.2701 107.251C30.3815 107.481 30.5466 107.68 30.7515 107.833C31.3577 108.085 32.0325 108.121 32.6618 107.933C33.4311 107.635 34.1602 107.242 34.8322 106.763C35.2776 106.437 35.6605 106.034 35.9623 105.573C36.4983 104.82 36.8417 103.948 36.9625 103.032C37.1408 101.992 37.1744 100.931 37.0625 99.8816C36.9135 98.8825 36.6062 97.9136 36.1523 97.0111C36.0333 96.5881 35.7652 96.2223 35.3975 95.9815C35.0298 95.7407 34.5874 95.641 34.152 95.7009C33.3738 95.8619 32.6315 96.1636 31.9616 96.5911C31.5036 96.8821 31.1309 97.2893 30.8815 97.7713C30.6601 98.2191 30.4954 98.6929 30.3914 99.1815C30.2784 99.5884 30.1948 100.003 30.1414 100.422C29.9777 101.214 30.0579 102.037 30.3714 102.782Z" fill="white"/>
</g>
<g style="mix-blend-mode:soft-light" opacity="0.5">
<path d="M33.8527 93.0796C33.7327 92.5095 33.3827 91.6794 33.6427 91.0793C33.6927 90.9793 33.7927 90.8392 33.8527 90.7392C33.9029 90.634 33.9754 90.541 34.0652 90.4667C34.155 90.3924 34.26 90.3386 34.3728 90.3092C34.9729 90.2192 35.503 90.8293 35.613 91.3093C35.7732 91.8544 35.7232 92.4396 35.473 92.9496C35.273 93.2497 34.4728 93.5997 34.2228 93.2497L33.8527 93.0796Z" fill="white"/>
</g>
<g style="mix-blend-mode:soft-light" opacity="0.5">
<path d="M35.2232 88.1084C35.0932 86.4981 34.5131 84.5678 35.5933 83.1075C35.9533 82.6175 36.5335 81.8673 37.2336 81.9573C37.6536 82.0174 38.0637 82.4974 38.3338 82.7975C38.7372 83.2761 39.0338 83.8354 39.2039 84.4378C39.4167 84.9406 39.5483 85.474 39.594 86.018C39.5851 86.6519 39.4736 87.2801 39.2639 87.8783C39.1211 88.2722 38.8941 88.6302 38.5987 88.9273C38.3033 89.2244 37.9466 89.4535 37.5536 89.5986C37.2822 89.6695 36.9984 89.6784 36.7232 89.6247C36.4479 89.5711 36.1882 89.4562 35.9633 89.2886C35.7605 89.1587 35.5889 88.9856 35.4609 88.7815C35.3329 88.5774 35.2517 88.3476 35.2232 88.1084Z" fill="white"/>
</g>
<g style="mix-blend-mode:soft-light" opacity="0.5">
<path d="M34.1027 80.2671C34.215 80.797 34.4363 81.2977 34.7528 81.7373C34.9128 81.6073 35.1328 81.6273 35.3129 81.5473C35.552 81.4529 35.7575 81.2892 35.903 81.0772C35.9953 80.9411 36.0574 80.7867 36.085 80.6245C36.1126 80.4623 36.1051 80.2961 36.063 80.1371C35.963 79.837 35.4629 79.487 35.2129 79.2969C34.6828 78.9069 34.3627 79.3769 33.9727 79.767L34.1027 80.2671Z" fill="white"/>
</g>
<g style="mix-blend-mode:soft-light" opacity="0.5">
<path d="M91.1927 104.901C91.8558 104.518 92.5562 104.203 93.283 103.961C93.7231 103.861 94.1432 103.681 94.5733 103.551C95.6578 103.278 96.7668 103.114 97.8838 103.061C98.5039 103.011 99.094 103.061 99.7041 102.911C100.164 102.831 100.594 102.751 101.054 102.691C102.395 102.511 103.705 102.121 105.055 101.941C105.695 101.851 106.365 101.701 107.055 101.661C107.475 101.661 107.875 101.541 108.286 101.541C109.056 101.541 109.826 101.421 110.606 101.411C113.606 101.411 116.207 102.511 118.987 103.311C119.617 103.491 120.268 103.641 120.908 103.761C121.787 104.018 122.708 104.099 123.618 104.001C124.538 103.771 124.238 102.851 123.618 102.421C122.908 101.964 122.071 101.743 121.228 101.791C120.745 101.751 120.26 101.751 119.777 101.791C119.057 101.911 117.887 102.161 117.777 103.031C117.742 103.33 117.742 103.632 117.777 103.931C117.797 104.131 117.797 104.332 117.777 104.531C117.531 105.254 117.025 105.86 116.357 106.231C116.037 106.422 115.727 106.532 115.417 106.752C115.059 106.989 114.685 107.199 114.297 107.382C113.706 107.682 113.096 107.932 112.516 108.252C112.117 108.439 111.706 108.6 111.286 108.732C110.158 109.236 108.999 109.667 107.815 110.022C106.875 110.262 105.985 110.662 105.035 110.882C104.497 111.053 103.97 111.253 103.455 111.482C103.205 111.577 102.947 111.65 102.685 111.702C102.265 111.782 101.904 111.972 101.484 112.072C100.035 112.58 98.5312 112.916 97.0037 113.073C96.3435 113.073 95.9435 113.073 95.5834 112.463C95.2346 111.898 94.9399 111.302 94.7033 110.682C94.5093 109.984 94.0732 109.378 93.4731 108.972C92.715 108.68 91.9737 108.346 91.2527 107.972C90.9583 107.762 90.7234 107.479 90.5709 107.151C90.4183 106.824 90.3535 106.462 90.3826 106.101C90.3457 105.835 90.3984 105.564 90.5326 105.331C90.7207 105.144 90.9454 104.998 91.1927 104.901Z" fill="white"/>
</g>
<g style="mix-blend-mode:soft-light" opacity="0.5">
<path d="M123.537 101.34C124.061 101.257 124.574 101.116 125.067 100.92L125.317 100.83C125.544 100.81 125.771 100.81 125.998 100.83C126.258 100.83 126.718 100.76 126.938 100.95C127.318 101.29 126.938 101.66 126.648 101.95C126.436 102.081 126.202 102.172 125.958 102.22C125.858 102.22 125.747 102.22 125.647 102.22C125.547 102.22 125.407 102.36 125.277 102.37C125.118 102.334 124.961 102.287 124.807 102.23C124.644 102.206 124.485 102.155 124.337 102.08C124.067 101.9 124.117 101.52 123.907 101.36L123.537 101.34Z" fill="white"/>
</g>
<g style="mix-blend-mode:soft-light" opacity="0.5">
<path d="M75.0284 131.347C73.3682 131.587 71.7979 131.537 70.4177 132.507C69.8829 132.884 69.4018 133.331 68.9875 133.838C67.9873 135.028 70.1977 135.198 70.9878 135.298C72.6007 135.49 74.1774 135.914 75.6686 136.558C76.9483 137.228 78.4323 137.396 79.8293 137.028C80.7594 136.708 81.5395 136.518 81.9396 135.548C82.1003 135.126 82.1137 134.662 81.9775 134.232C81.8414 133.802 81.5636 133.43 81.1895 133.177C80.3066 132.422 79.328 131.786 78.279 131.287C77.1728 130.819 75.9369 130.755 74.7884 131.107L75.0284 131.347Z" fill="white"/>
</g>
<g style="mix-blend-mode:soft-light" opacity="0.5">
<path d="M72.4284 129.166C72.1007 129.342 71.7979 129.56 71.5282 129.816C71.4941 129.869 71.4824 129.934 71.4955 129.996C71.5086 130.057 71.5455 130.111 71.5982 130.146C71.9994 130.395 72.4666 130.517 72.9385 130.496C73.2585 130.496 73.5486 130.426 73.8586 130.416C74.3904 130.427 74.9108 130.262 75.3389 129.946C75.5589 129.796 75.5289 129.506 75.5089 129.256C75.5014 129.111 75.4534 128.972 75.3702 128.853C75.2871 128.735 75.1722 128.642 75.0388 128.586C74.5831 128.463 74.1056 128.444 73.6417 128.531C73.1777 128.618 72.7392 128.807 72.3584 129.086L72.4284 129.166Z" fill="white"/>
</g>
<g style="mix-blend-mode:soft-light" opacity="0.5">
<path d="M64.6375 135.777C65.0804 135.704 65.5298 135.681 65.9777 135.707C66.2078 135.707 66.4378 135.847 66.6679 135.897C67.328 136.047 67.9981 136.137 68.6682 136.287C69.0659 136.352 69.4237 136.566 69.6684 136.887C69.8684 137.137 70.0084 137.277 69.9484 137.617C69.7384 138.967 68.1781 139.297 67.0479 139.437C66.1518 139.529 65.2476 139.505 64.3575 139.367C63.3573 139.227 62.3572 139.137 61.427 138.927C60.7369 138.787 60.0368 138.647 59.3566 138.457C58.8994 138.401 58.4826 138.168 58.1964 137.807C58.0964 137.653 58.0308 137.479 58.0039 137.297C57.9771 137.115 57.9898 136.93 58.041 136.753C58.0922 136.577 58.1809 136.413 58.3009 136.274C58.4209 136.135 58.5695 136.023 58.7365 135.947C59.8386 135.461 61.056 135.298 62.2471 135.477C62.6772 135.477 63.0872 135.607 63.5273 135.617C63.894 135.691 64.2647 135.745 64.6375 135.777Z" fill="white"/>
</g>
</g>
<g style="mix-blend-mode:multiply" opacity="0.2">
<path d="M93.1828 66.0855C92.5448 66.4656 91.8241 66.6853 91.0825 66.7256C90.6964 66.6892 90.3124 66.6325 89.9323 66.5556L88.182 66.2155C87.5789 66.1021 86.9648 66.0585 86.3517 66.0855C85.2615 66.0855 84.1813 66.2155 83.0812 66.2155C82.1175 66.2276 81.1544 66.1641 80.2007 66.0255C79.3205 65.8955 78.4704 65.6354 77.6102 65.4354C77.2602 65.3554 76.9201 65.2154 76.6101 65.1554C76.3 65.0953 75.7499 65.0953 75.3098 65.0353C74.4742 64.9697 73.6449 64.8393 72.8295 64.6453C72.5413 64.5844 72.2832 64.4253 72.0993 64.1952C72.0293 64.0952 71.8893 63.7451 71.9693 63.6251C72.1493 63.345 72.8495 63.4751 73.0795 63.5451C73.8143 63.7785 74.5218 64.0903 75.1898 64.4752C76.38 65.1854 77.9503 64.7253 79.2605 64.9453C79.8206 65.0353 80.3907 64.8953 80.9508 64.9453C81.2984 65.0574 81.6335 65.2048 81.951 65.3854C82.3769 65.4871 82.8187 65.5041 83.2512 65.4354C84.29 65.3126 85.3028 65.0257 86.2517 64.5853C87.2921 64.0265 88.4356 63.6862 89.6122 63.5851C90.591 63.5322 91.5721 63.6266 92.5227 63.8651C92.8043 63.9237 93.0651 64.0567 93.2779 64.2501C93.4907 64.4436 93.6478 64.6906 93.7329 64.9653C93.8029 65.4954 93.3729 65.6754 93.1828 66.0855Z" fill="#470024"/>
</g>
<g style="mix-blend-mode:multiply" opacity="0.2">
<path d="M89.2905 46.8113C89.7333 46.8111 90.1753 46.8513 90.6108 46.9314C90.2514 46.9651 89.8941 47.0185 89.5406 47.0914C89.3045 47.1471 89.063 47.1773 88.8205 47.1814C88.6104 47.1814 87.5402 47.2814 87.9403 46.9314C88.3404 46.5813 88.9805 46.8113 89.2905 46.8113Z" fill="#470024"/>
</g>
<g style="mix-blend-mode:multiply" opacity="0.2">
<path d="M119.057 42.1997L119.057 42.2697C118.489 43.2389 117.818 44.1443 117.057 44.9702C116.345 45.7046 115.517 46.3163 114.606 46.7805C113.496 47.3961 112.314 47.8699 111.086 48.1907C109.838 48.517 108.562 48.7247 107.275 48.8108C106.315 48.7889 105.356 48.7121 104.405 48.5808C103.204 48.4608 102.004 48.3207 100.814 48.1507L98.0236 47.7806C97.1034 47.6506 96.1832 47.4006 95.2531 47.3206C94.583 47.2606 93.9029 47.2005 93.2528 47.1905C92.8427 47.1905 92.4726 47.0605 92.0726 47.0605C91.7994 47.0755 91.5256 47.0755 91.2524 47.0605L90.6523 46.9605C90.9224 46.9605 91.2024 46.9605 91.4725 46.8705C92.2226 46.7605 92.9827 46.8105 93.7328 46.7305C94.483 46.6504 95.1631 46.7305 95.8932 46.6004C97.1241 46.4435 98.363 46.3566 99.6038 46.3404C100.744 46.3404 101.914 46.4204 103.054 46.3404C103.226 46.3486 103.398 46.3188 103.557 46.2531C103.716 46.1874 103.859 46.0874 103.975 45.9603C104.145 45.6603 104.225 45.3402 103.925 45.1202C103.624 44.9002 102.074 44.4801 102.294 43.85C102.364 43.66 102.754 43.64 102.954 43.5999C103.644 43.4899 104.375 43.4499 105.075 43.3299C105.515 43.2599 105.895 43.0899 106.325 42.9798C106.755 42.8698 107.045 42.8398 107.405 42.7298C107.926 42.5963 108.459 42.5125 108.995 42.4798C110.146 42.4197 111.406 42.8998 112.536 42.4798C113.076 42.2998 113.543 41.9487 113.866 41.4796C114.016 41.2896 114.216 41.1295 114.376 40.9295C114.563 40.6495 114.763 40.3792 114.976 40.1194C116.197 40.6995 117.397 41.3096 118.567 41.9797C118.417 42.0497 118.337 42.1697 118.927 42.1797L119.057 42.1997Z" fill="#470024"/>
</g>
<g style="mix-blend-mode:multiply" opacity="0.2">
<path d="M118.434 45.4418C117.58 46.3562 116.635 47.1807 115.613 47.9023C114.656 48.4644 113.652 48.9429 112.613 49.3325C111.847 49.6638 111.044 49.9022 110.222 50.0426C109.823 50.114 109.432 50.2211 109.052 50.3627C108.847 50.3946 108.65 50.466 108.472 50.5727C108.212 50.8227 108.372 51.0828 108.642 51.1628C109.363 51.3227 110.111 51.3227 110.832 51.1628C112.281 51.0365 113.721 50.8194 115.143 50.5127C116.048 50.2884 116.911 49.924 117.703 49.4325C118.777 48.9123 119.69 48.1103 120.344 47.1121C120.674 46.422 120.864 45.7219 120.164 45.2218C119.887 44.9747 119.534 44.8299 119.164 44.8117C118.974 44.8117 118.123 44.8417 118.434 45.4418Z" fill="#470024"/>
</g>
<path style="mix-blend-mode:soft-light" opacity="0.5" d="M150.061 95.9905C150.061 97.4407 150.011 98.8809 149.901 100.301C149.558 105.513 148.55 110.659 146.9 115.614C146.884 115.672 146.864 115.729 146.84 115.784C146.962 115.188 147.029 114.582 147.04 113.973C147.098 113.632 147.189 113.297 147.31 112.973C147.345 112.577 147.345 112.179 147.31 111.783L147.31 106.502C147.31 105.502 147.57 104.502 147.56 103.502C147.56 102.972 147.56 102.442 147.56 101.901C147.56 101.361 147.77 100.901 147.82 100.341C147.98 98.8009 147.37 97.3407 147.31 95.8204C147.31 95.1203 147.31 94.4102 147.31 93.7001C147.29 93.4013 147.222 93.1076 147.11 92.8299C147.07 92.4376 147.07 92.0421 147.11 91.6497C147.045 91.2708 146.955 90.8966 146.84 90.5296C146.81 90.1768 146.81 89.8221 146.84 89.4694C146.86 88.843 146.793 88.2169 146.64 87.6091C146.56 87.279 146.64 86.949 146.54 86.6089C146.44 86.2688 146.31 86.0288 146.22 85.7387C146.03 85.0986 145.74 84.5185 145.54 83.8784C145.036 82.6913 144.722 81.4324 144.61 80.1478C144.494 78.8636 144.181 77.6051 143.679 76.4172C143.175 75.2298 142.501 74.1215 141.679 73.1266C141.259 72.4965 141.519 71.9965 141.349 71.3364C141.2 70.9132 140.933 70.5417 140.579 70.2662C140.021 69.9351 139.395 69.7366 138.749 69.6861C138.099 69.6161 137.598 70.1161 136.918 69.8961C137.008 69.516 138.109 69.056 138.519 68.976C138.929 68.8959 139.959 68.976 140.089 68.2158C140.169 67.6657 139.529 67.2157 139.199 66.8956C139.018 66.6764 138.851 66.4459 138.699 66.2055C138.459 65.9054 138.149 65.9055 137.869 65.6654C137.588 65.4254 137.438 65.1553 137.138 64.9153C136.942 64.7138 136.758 64.5 136.588 64.2752C136.143 63.808 135.665 63.3735 135.158 62.975C134.107 62.246 132.909 61.7577 131.647 61.5447C131.107 61.4977 130.584 61.3302 130.117 61.0546C129.761 60.7615 129.465 60.4013 129.247 59.9945C128.847 59.3744 128.847 59.2543 129.377 58.7443C129.587 58.5661 129.743 58.3339 129.83 58.0728C129.916 57.8118 129.929 57.532 129.867 57.264C129.643 56.1711 129.128 55.1588 128.377 54.3335C127.587 53.6921 126.648 53.2619 125.646 53.0833C125.146 52.9733 124.646 53.0833 124.136 52.9733C123.811 52.8698 123.476 52.8028 123.136 52.7733C122.376 52.7733 121.766 52.5232 121.006 52.5332L118.515 52.5332C117.852 52.6314 117.178 52.6314 116.515 52.5332C116.615 52.0831 117.595 51.8431 117.995 51.6531C118.781 51.3064 119.531 50.8844 120.236 50.3929C120.776 50.0345 121.255 49.5922 121.656 49.0826C121.959 48.7204 122.294 48.3857 122.656 48.0825C121.938 47.4481 121.133 46.9194 120.266 46.5122C119.265 46.0621 118.265 45.7021 117.265 45.332C116.265 44.962 115.395 44.892 114.475 44.6519C113.347 44.3488 112.332 43.7231 111.554 42.8516C110.878 42.1317 110.07 41.5478 109.174 41.1313C108.359 40.8323 107.508 40.6406 106.643 40.5612C106.233 40.4598 105.815 40.3929 105.393 40.3612C104.934 40.3912 104.472 40.3912 104.013 40.3612C103.461 40.2285 102.899 40.1415 102.333 40.1012C101.836 40.1448 101.335 40.128 100.842 40.0511C100.352 39.9311 99.8422 39.9111 99.3521 39.8011C97.9219 39.4611 97.1517 38.0408 96.1916 37.0506C95.695 36.6047 95.0582 36.3464 94.3913 36.3205C93.4121 36.0539 92.4051 35.9029 91.3908 35.8705C90.2306 35.8705 89.0604 35.8705 87.9102 35.8705C87.2611 35.8606 86.6132 35.9277 85.9799 36.0705C85.3898 36.1905 84.8197 36.0705 84.2496 36.0705C83.2494 36.1905 82.2493 36.5406 81.1891 36.5806C80.7637 36.5424 80.3442 36.4551 79.9389 36.3205C79.5988 36.2605 78.9887 36.4906 78.6787 36.3205C78.0186 36.0305 79.4388 34.8703 77.8986 35.0503C76.3583 35.2303 74.608 35.7704 72.8977 36.1305C71.1691 36.4915 69.4654 36.9625 67.7969 37.5407C66.7731 37.8984 65.7712 38.3159 64.7964 38.7909C63.2313 39.5846 61.6059 40.2534 59.9355 40.7913C65.4259 37.9641 71.3142 35.9878 77.3985 34.9303C80.9489 34.3107 84.5462 33.9995 88.1503 34.0001C97.4562 33.9806 106.645 36.0735 115.025 40.1212C116.245 40.7013 117.445 41.3114 118.615 41.9815L118.975 42.1815L119.115 42.2615C126.592 46.5881 133.088 52.4226 138.189 59.3944C141.824 64.4071 144.696 69.9315 146.71 75.7871L146.92 76.3772C146.99 76.5772 147.06 76.7873 147.12 76.9873C148.379 80.9161 149.247 84.9598 149.71 89.0593C149.83 90.1895 149.93 91.3297 149.981 92.4899C150.031 93.6501 150.061 94.8103 150.061 95.9905Z" fill="url(#paint1_radial_972_17474)"/>
<path style="mix-blend-mode:soft-light" opacity="0.5" d="M149.948 92.4901C149.898 91.3299 149.798 90.1897 149.678 89.0595C149.215 84.96 148.347 80.9163 147.088 76.9875C147.028 76.7875 146.958 76.5775 146.888 76.3774L146.678 75.7873C144.644 69.9317 141.752 64.4106 138.096 59.4046C132.996 52.4329 126.5 46.5984 119.023 42.2718L118.883 42.1917L118.523 41.9917C117.353 41.3216 116.153 40.7115 114.933 40.1314C106.553 36.0838 97.364 33.9908 88.0581 34.0104C84.4541 34.0098 80.8567 34.321 77.3063 34.9405C71.222 35.9981 65.3338 37.9743 59.8434 40.8015C52.8 44.4219 46.5129 49.3544 41.3204 55.3339C40.9203 55.794 40.5502 56.2741 40.1602 56.7442C45.2711 50.9914 51.4104 46.2427 58.2632 42.7418C66.7731 38.3926 76.173 36.0691 85.7292 35.9529C95.2854 35.8366 104.739 37.9308 113.352 42.0717C114.573 42.6418 115.773 43.2619 116.943 43.932L117.303 44.1321L117.433 44.2121C127.283 49.9061 135.385 58.1908 140.857 68.1661C142.545 71.2241 143.964 74.4234 145.098 77.7276C145.168 77.9277 145.228 78.1177 145.308 78.3177C145.388 78.5178 145.438 78.7278 145.508 78.9278C146.767 82.8566 147.635 86.9003 148.098 90.9999C148.208 92.13 148.318 93.2702 148.368 94.4304C148.418 95.5906 148.478 96.7508 148.478 97.931C148.478 99.3812 148.418 100.821 148.318 102.242C147.976 107.453 146.968 112.599 145.318 117.554C145.302 117.612 145.282 117.669 145.258 117.724C143.108 124.063 139.95 130.014 135.906 135.347C135.466 135.927 134.996 136.477 134.546 137.038C135.546 135.877 136.546 134.697 137.546 133.447C141.578 128.118 144.726 122.174 146.868 115.844C146.892 115.789 146.912 115.732 146.928 115.674C148.578 110.719 149.586 105.573 149.928 100.361C150.038 98.9412 150.088 97.5009 150.088 96.0507C150.058 94.8105 150.018 93.6403 149.948 92.4901Z" fill="url(#paint2_radial_972_17474)"/>
<g style="mix-blend-mode:soft-light" opacity="0.5">
<path d="M109.473 81.4671C110.28 81.5871 111.097 81.6373 111.913 81.6171C111.853 81.3471 112.313 81.3271 112.283 81.007C111.957 80.7495 111.548 80.6181 111.133 80.637C110.833 80.637 110.043 80.797 109.973 81.137L109.473 81.4671Z" fill="#303132"/>
</g>
<g style="mix-blend-mode:soft-light" opacity="0.5">
<path d="M92.291 52.9426C93.0953 53.0622 93.9085 53.1124 94.7214 53.0926C94.7214 52.8225 95.1215 52.8025 95.0915 52.4825C94.769 52.2248 94.3637 52.0933 93.9513 52.1124C93.6512 52.1124 92.8511 52.2724 92.7911 52.6125L92.291 52.9426Z" fill="#D4CBCF"/>
</g>
<g style="mix-blend-mode:soft-light" opacity="0.5">
<path d="M82.7012 139.547C83.5096 139.659 84.3257 139.706 85.1416 139.687C85.0816 139.417 85.5416 139.397 85.5116 139.077C85.1852 138.819 84.7769 138.688 84.3614 138.707C84.0614 138.707 83.2713 138.867 83.2013 139.217L82.7012 139.547Z" fill="#43DFF6"/>
</g>
<g style="mix-blend-mode:soft-light" opacity="0.5">
<path d="M40.0723 92.5503C40.8766 92.6699 41.6897 92.7201 42.5027 92.7003C42.4427 92.4302 42.9027 92.4102 42.8727 92.0902C42.5502 91.8325 42.1449 91.701 41.7325 91.7201C41.4325 91.7201 40.6324 91.8802 40.5723 92.2202L40.0723 92.5503Z" fill="#303132"/>
</g>
<g style="mix-blend-mode:soft-light" opacity="0.5">
<path d="M124.896 117.463C125.278 116.852 125.754 116.305 126.307 115.842C126.427 116.242 126.897 116.293 127.107 116.613C127.203 116.846 127.253 117.095 127.253 117.348C127.253 117.6 127.203 117.85 127.107 118.083C126.557 119.503 124.966 120.183 123.596 120.463C123.126 120.563 122.646 120.773 122.246 120.413C122.075 120.285 121.96 120.096 121.926 119.885C121.893 119.674 121.943 119.458 122.066 119.283C122.407 118.928 122.806 118.634 123.246 118.413C123.486 118.273 124.016 118.043 124.066 117.793L124.896 117.463Z" fill="#303132"/>
</g>
<g style="mix-blend-mode:soft-light" opacity="0.5">
<path d="M131.037 116.964C130.467 117.484 129.917 117.964 129.377 118.524C129.577 118.874 130.297 118.254 130.537 118.164C130.777 118.074 130.987 118.094 131.167 117.924C131.347 117.754 131.547 117.314 131.167 117.294L131.037 116.964Z" fill="#303132"/>
</g>
<g style="mix-blend-mode:soft-light" opacity="0.5">
<path d="M120.397 95.1697C119.827 95.6898 119.276 96.1699 118.736 96.73C118.936 97.08 119.656 96.4599 119.897 96.3599C120.137 96.2599 120.347 96.2999 120.527 96.1299C120.707 95.9598 120.907 95.5198 120.527 95.4998L120.397 95.1697Z" fill="#303132"/>
</g>
<g style="mix-blend-mode:soft-light" opacity="0.5">
<path d="M69.4083 39.3308C68.8482 39.8608 68.2881 40.3309 67.748 40.901C67.9481 41.2511 68.6682 40.631 68.9082 40.531C69.1483 40.4309 69.3683 40.471 69.5384 40.3009C69.7084 40.1309 69.9184 39.6808 69.5384 39.6708L69.4083 39.3308Z" fill="#43DFF6"/>
</g>
<g style="mix-blend-mode:soft-light" opacity="0.5">
<path d="M43.8032 100.341C43.6606 101.049 43.6949 101.78 43.9033 102.471C43.9033 102.711 43.9033 102.831 44.1433 102.851C44.3834 102.871 44.6334 103.171 44.8434 103.332C45.0534 103.492 45.6335 103.872 45.9636 103.802C46.2874 103.638 46.5606 103.389 46.7537 103.081C46.932 102.69 46.9742 102.25 46.8737 101.831C46.6837 101.161 46.3937 100.201 45.7135 99.9209C45.4491 99.8012 45.17 99.7172 44.8834 99.6709C44.4534 99.6109 44.3833 99.6709 44.1333 100.011L43.8032 100.341Z" fill="#303132"/>
</g>
<g style="mix-blend-mode:soft-light" opacity="0.5">
<path d="M69.4278 62.5837C69.2971 62.6744 69.1934 62.7988 69.1277 62.9438C69.1213 62.9494 69.1162 62.9563 69.1127 62.9641C69.1092 62.9718 69.1074 62.9803 69.1074 62.9888C69.1074 62.9973 69.1092 63.0057 69.1127 63.0135C69.1162 63.0212 69.1213 63.0281 69.1277 63.0338C69.1277 63.0838 69.1277 63.1638 69.1277 63.2138C69.1369 63.3038 69.1756 63.3881 69.2378 63.4538C69.3124 63.479 69.3932 63.479 69.4678 63.4538C69.5546 63.4168 69.6279 63.354 69.6778 63.2738C69.7378 63.1338 69.8379 62.9438 69.7678 62.7937C69.7405 62.7369 69.7069 62.6832 69.6678 62.6337C69.6078 62.5637 69.5878 62.5637 69.4978 62.5737L69.4278 62.5837Z" fill="#43DFF6"/>
</g>
<g style="mix-blend-mode:soft-light" opacity="0.5">
<path d="M69.4991 65.3346C69.358 66.0451 69.3889 66.7789 69.5892 67.475C69.5892 67.705 69.6392 67.8351 69.8292 67.8451C70.0569 68.0211 70.294 68.1847 70.5393 68.3351C70.8497 68.6112 71.2447 68.7734 71.6595 68.7952C71.9833 68.6313 72.2565 68.3824 72.4496 68.0751C72.6279 67.6834 72.6701 67.2434 72.5697 66.8249C72.3696 66.1548 72.0896 65.2046 71.3995 64.9146C71.1326 64.8014 70.8543 64.7176 70.5693 64.6645C70.1392 64.6145 70.0692 64.6645 69.8292 65.0046L69.4991 65.3346Z" fill="#303132"/>
</g>
<g style="mix-blend-mode:soft-light" opacity="0.5">
<path d="M48.6152 57.0931C49.43 57.3486 50.2939 57.4069 51.1356 57.2632C51.4889 57.0634 51.8236 56.8324 52.1358 56.5731C52.6228 56.3159 53.0625 55.9777 53.436 55.5729C53.5216 55.4733 53.5817 55.3545 53.6111 55.2265C53.6405 55.0986 53.6384 54.9654 53.6049 54.8385C53.5715 54.7115 53.5077 54.5946 53.419 54.4978C53.3303 54.401 53.2195 54.3271 53.096 54.2827C51.9858 53.8226 48.9553 54.2027 48.9853 55.903L48.6152 57.0931Z" fill="#303132"/>
</g>
<g style="mix-blend-mode:soft-light" opacity="0.5">
<path d="M109.795 76.3371C110.613 76.5924 111.48 76.6506 112.325 76.5072C112.675 76.3022 113.01 76.0715 113.326 75.817C113.81 75.5598 114.246 75.2215 114.616 74.8169C114.704 74.7189 114.766 74.6007 114.798 74.4728C114.829 74.3448 114.829 74.2111 114.796 74.0834C114.763 73.9558 114.7 73.8382 114.611 73.741C114.522 73.6439 114.41 73.5703 114.286 73.5267C113.165 73.0666 110.135 73.4467 110.175 75.1469L109.795 76.3371Z" fill="#303132"/>
</g>
<g style="mix-blend-mode:soft-light" opacity="0.5">
<path d="M44.9219 96.8707C45.0019 97.0507 45.432 98.3009 45.922 97.8008C46.0503 97.624 46.1251 97.4141 46.1375 97.196C46.1499 96.9779 46.0994 96.7608 45.992 96.5706C45.872 96.3906 45.582 95.9705 45.3119 96.0805C45.0419 96.1906 45.1619 96.2506 45.1219 96.3706C45.0862 96.4844 45.074 96.6042 45.0861 96.7228C45.0981 96.8415 45.1341 96.9564 45.1919 97.0607L44.9219 96.8707Z" fill="#303132"/>
</g>
<g style="mix-blend-mode:soft-light" opacity="0.5">
<path d="M46.6016 99.4212C46.6042 99.166 46.6695 98.9153 46.7916 98.6911C46.8716 98.7611 46.9916 98.6911 47.0817 98.7911C47.1622 98.8662 47.2298 98.9541 47.2817 99.0512C47.3572 99.1279 47.4137 99.2212 47.4467 99.3237C47.4797 99.4262 47.4882 99.5349 47.4717 99.6413C47.4342 99.7093 47.3811 99.7674 47.3168 99.8109C47.2525 99.8544 47.1787 99.8819 47.1016 99.8913C46.9416 99.8913 46.6616 99.8113 46.6616 99.6113L46.6016 99.4212Z" fill="#303132"/>
</g>
<g style="mix-blend-mode:soft-light" opacity="0.5">
<path d="M49.5254 135.126C49.938 135.828 50.4314 136.479 50.9956 137.066C51.4357 137.436 51.7758 137.896 52.1958 138.287C52.7965 138.887 53.4927 139.384 54.2562 139.757C54.6563 139.927 54.6863 139.757 54.5362 139.357C54.2762 138.697 53.7461 138.527 53.186 138.136C52.4263 137.689 51.7357 137.133 51.1357 136.486C50.7456 135.976 50.3955 135.106 49.5254 135.126Z" fill="#303132"/>
</g>
<g style="mix-blend-mode:soft-light" opacity="0.5">
<path d="M49.8949 134.006C49.6627 133.477 49.4915 132.924 49.3848 132.356C49.4243 132.282 49.4788 132.218 49.5448 132.166C49.5891 132.142 49.6386 132.128 49.6892 132.125C49.7398 132.123 49.7903 132.132 49.8367 132.153C49.8831 132.173 49.9242 132.204 49.9569 132.242C49.9895 132.281 50.0127 132.327 50.0249 132.376C50.0849 132.874 50.0849 133.378 50.0249 133.876L49.8949 134.006Z" fill="#303132"/>
</g>
<g style="mix-blend-mode:soft-light" opacity="0.5">
<path d="M127.878 113.902C128.075 113.695 128.296 113.514 128.538 113.362C128.598 113.422 128.678 113.362 128.748 113.362C128.818 113.362 128.958 113.562 129.008 113.662C129.118 113.912 128.948 114.122 128.748 114.272C128.548 114.422 127.678 114.472 127.748 113.972L127.878 113.902Z" fill="#303132"/>
</g>
<g style="mix-blend-mode:soft-light" opacity="0.5">
<path d="M50.2758 82.5974C50.4666 82.3911 50.6855 82.2127 50.9259 82.0673C50.996 82.1273 51.066 82.0673 51.146 82.0673C51.2602 82.1414 51.3478 82.25 51.396 82.3773C51.506 82.6174 51.336 82.8374 51.136 82.9774C50.9359 83.1175 50.0758 83.1875 50.1358 82.6874L50.2758 82.5974Z" fill="#43DFF6"/>
</g>
<g style="mix-blend-mode:soft-light" opacity="0.5">
<path d="M51.0446 101.76C51.4334 101.344 51.8777 100.984 52.3648 100.69C52.4848 100.81 52.6349 100.69 52.7849 100.78C53.0177 100.919 53.1946 101.135 53.285 101.39C53.505 101.88 53.1749 102.31 52.7749 102.6C52.3748 102.89 50.6445 103.01 50.7745 102.01L51.0446 101.76Z" fill="#303132"/>
</g>
<g style="mix-blend-mode:soft-light" opacity="0.5">
<path d="M65.9369 63.4446C66.3257 63.0288 66.77 62.6687 67.2571 62.3744C67.3772 62.4944 67.5372 62.3744 67.6772 62.4644C67.9099 62.6014 68.0896 62.8128 68.1873 63.0645C68.2811 63.299 68.2827 63.5603 68.1917 63.7959C68.1008 64.0315 67.9242 64.224 67.6972 64.3347C67.1771 64.7248 65.5669 64.7448 65.6969 63.7446L65.9369 63.4446Z" fill="#303132"/>
</g>
<g style="mix-blend-mode:soft-light" opacity="0.5">
<path d="M114.207 148.429C114.613 147.944 115.054 147.489 115.527 147.069C115.821 146.888 116.125 146.724 116.437 146.579C116.542 146.505 116.663 146.457 116.79 146.438C116.916 146.419 117.046 146.43 117.168 146.469C117.548 146.659 117.498 147.189 117.318 147.469C116.952 147.998 116.431 148.4 115.827 148.619C115.587 148.719 114.547 148.929 114.577 148.399L114.207 148.429Z" fill="#303132"/>
</g>
</g>
<path d="M119.21 7.23C118.62 7.62 118.47 8.43 118.87 9.01C119.09 9.32 119.41 9.5 119.75 9.55C120.73 12.53 123.71 21.51 128.48 34.86C127.61 35.42 127.25 36.04 127.43 36.61C127.58 37.07 128.01 37.34 128.7 37.42C128.14 37.97 127.97 38.47 128.11 38.96C128.26 39.45 128.75 39.95 130.16 40C129.56 40.61 129.32 41.26 129.54 41.8C129.72 42.21 130.15 42.57 131.2 42.43C131.91 44.4 132.66 46.44 133.44 48.56L134.49 48.18C133.73 46.11 133 44.09 132.28 42.17C132.16 41.8 132.03 41.45 131.9 41.1C131.37 41.29 131.03 41.35 130.82 41.36C130.67 41.39 130.6 41.38 130.57 41.39C130.57 41.32 130.62 41.22 130.72 41.1C130.87 40.87 131.16 40.57 131.61 40.29C131.86 40.11 132.17 39.94 132.53 39.78C132.79 39.66 132.93 39.37 132.84 39.1C132.76 38.83 132.49 38.66 132.21 38.72C131.78 38.8 131.41 38.85 131.09 38.88C130.58 38.92 130.2 38.91 129.9 38.89C129.42 38.84 129.2 38.72 129.17 38.67C129.17 38.59 129.29 38.38 129.62 38.09C129.85 37.91 130.15 37.69 130.58 37.46C130.8 37.35 131.05 37.23 131.34 37.1C131.61 36.99 131.75 36.68 131.65 36.4C131.56 36.12 131.26 35.97 130.98 36.04C130.66 36.12 130.4 36.19 130.15 36.23C129.64 36.31 129.27 36.34 128.99 36.34C128.77 36.33 128.63 36.3 128.53 36.26C128.58 36.18 128.68 36.08 128.85 35.95C129.05 35.79 129.37 35.58 129.83 35.38C129.7 35.03 129.58 34.68 129.45 34.33C124.71 21.06 121.74 12.15 120.78 9.19C121.21 8.77 121.32 8.08 120.96 7.56C120.55 6.97 119.75 6.83 119.17 7.23H119.21Z" fill="#3E4B82"/>
<path d="M125.441 114.76L115.011 127.65L115.311 135.9L116.131 158.35L116.931 161.64H99.9609C99.9609 161.64 102.151 157.82 104.221 157.25C106.691 156.57 113.261 158.21 113.261 158.21C113.261 158.21 109.611 146.4 107.121 137.04C105.661 131.55 104.601 126.9 104.901 125.99C105.721 123.53 118.331 105.16 118.331 105.16L127.131 111.62L127.661 112.01L125.441 114.74V114.76Z" fill="white"/>
<path d="M156.17 99.96L151.01 101.69L134.51 107.19L111.27 54.83L127.15 49L137.26 45.28L156.17 99.96Z" fill="#BBBBBB"/>
<path d="M156.17 99.96L151.01 101.69L127.15 49L137.26 45.28L156.17 99.96Z" fill="white"/>
<path d="M97.1295 74.37C96.8095 74.48 97.6595 90.23 97.6595 90.23L87.8695 85.44L86.2695 88.95C86.2695 88.95 94.9995 103.32 102.56 101.08C110.12 98.84 105.65 73.72 105.65 73.72L97.1295 74.36V74.37Z" fill="#EFEFEF"/>
<path d="M96.2807 67.99C92.7707 71.18 93.6207 75.65 97.5607 77.46C101.501 79.27 109.271 78.84 109.271 78.84L105.651 70.11L96.2807 67.98V67.99Z" fill="#3E4B82"/>
<path d="M119.569 103.39C113.679 104.21 118.199 116.14 127.659 115.32C126.289 106.96 119.569 103.39 119.569 103.39Z" fill="#3E4B82"/>
<path d="M142.471 104.07C141.411 110.57 134.911 117.91 129.381 115.99C123.851 114.08 121.611 111.1 118.941 103.22C118.531 101.99 117.991 100.48 117.341 98.79C115.201 93.24 111.821 85.72 107.271 79.6C104.381 75.69 101.031 72.35 97.2207 70.44L103.081 66.61L124.451 58.59C124.451 58.59 131.521 61.43 138.091 78.11C141.531 86.84 143.521 97.58 142.461 104.08L142.471 104.07Z" fill="white"/>
<path d="M97.2307 70.43C107.381 70.83 119.581 62.69 121.481 60.25C123.381 57.81 118.041 59.71 118.041 59.71L97.9607 68.66L97.2207 70.43H97.2307Z" fill="#EFEFEF"/>
<path d="M129.65 65.93C129.65 65.93 128.52 85.73 126.27 92.62C124.75 97.25 120.18 98.48 117.34 98.79C115.2 93.24 111.82 85.72 107.27 79.6C115.81 82.8 119 68.69 119 68.69L129.65 65.94V65.93Z" fill="#EFEFEF"/>
<path d="M97.6602 90.23L100.64 102.79C100.64 102.79 106.6 102.47 106.81 97.68C105.75 95.87 97.6602 90.23 97.6602 90.23Z" fill="#3E4B82"/>
<path d="M127.24 113.39C127.65 102.01 137.38 94.75 143 99.96C148.62 105.17 137.38 116.14 137.38 116.14L127.24 113.4V113.39Z" fill="#3E4B82"/>
<path d="M116.711 100.45C124.591 100.13 142.261 90.87 142.261 90.87L143.011 93.85C143.011 93.85 125.451 103.43 117.361 102.26C117.151 101.73 116.721 100.45 116.721 100.45H116.711Z" fill="#3E4B82"/>
<path d="M144.24 161.65H127.92C127.92 161.65 127.1 159.74 129.43 157.54C131.76 155.34 139.84 157.41 139.84 157.41C139.84 157.41 131.68 146.68 126.18 137.97C123.55 133.77 121.52 130.03 121.34 128.2C120.98 124.52 123.28 119.01 125.43 114.76C126.02 113.61 126.61 112.54 127.12 111.64C127.59 110.8 128.02 110.09 128.33 109.57C134.01 100.24 142.28 99.3 142.42 106.15C142.57 113 131.08 127.93 131.08 127.93L134.22 135.66L142.87 156.99L144.25 161.65H144.24Z" fill="white"/>
<path d="M116.131 158.35L116.931 161.64H99.9609C99.9609 161.64 102.151 157.82 104.221 157.25C106.691 156.57 113.261 158.21 113.261 158.21C113.261 158.21 109.611 146.4 107.121 137.04L115.321 135.89L116.141 158.34L116.131 158.35Z" fill="#3E4B82"/>
<path d="M144.24 161.65H127.92C127.92 161.65 127.1 159.74 129.43 157.54C131.76 155.34 139.84 157.41 139.84 157.41C139.84 157.41 131.68 146.68 126.18 137.97C128.45 137.34 131.84 136.39 134.21 135.66L142.86 156.99L144.24 161.65Z" fill="#3E4B82"/>
<path d="M95.98 90.87L93.04 93.47L82.5 102.8L70 88.77L82.12 81.83L87.25 78.89L95.98 90.87Z" fill="#003752"/>
<path d="M95.9791 90.87L93.0391 93.47L82.1191 81.83L87.2491 78.89L95.9791 90.87Z" fill="#160D30"/>
<path d="M83.0891 97.21L77.4692 106.72C77.4692 106.72 63.9991 105.16 65.9391 93.24C70.8791 90.53 77.1791 88.3 77.1791 88.3C81.8291 88.59 83.0891 97.21 83.0891 97.21Z" fill="#160D30"/>
<path d="M77.4594 106.72C77.4594 106.72 63.9894 105.16 65.9294 93.24C74.9494 91.99 78.3394 102.17 77.4594 106.72Z" fill="#003752"/>
<path d="M76.0097 104.45C75.9997 104.62 75.9797 104.77 75.9397 104.92C75.9397 104.92 66.0097 103.78 67.4397 94.99C67.6797 94.96 67.9097 94.93 68.1297 94.93C73.9797 94.62 76.3397 101.06 75.9997 104.45H76.0097Z" fill="#160D30"/>
<path d="M76.01 104.45C73.86 104.01 67.15 102.08 68.14 94.93C73.99 94.62 76.35 101.06 76.01 104.45Z" fill="#C8EAF2"/>
<path d="M71.1401 98.72L69.2801 99.01C68.9601 98.08 68.8301 97.02 68.9601 95.84C68.9601 95.84 70.4201 96.09 71.0901 96.51C70.9701 97.16 70.9801 97.92 71.1501 98.72H71.1401Z" fill="#F5FDFF"/>
<path d="M75.1888 103.41C73.0488 103.33 70.9488 102.18 69.7988 100.18L71.3588 99.49C71.9188 101.07 73.1488 102.61 75.1888 103.41Z" fill="#F5FDFF"/>
<path d="M78.2793 85.51L79.7593 87.33L83.4793 84.7L82.1993 83.07L78.2793 85.51Z" fill="#C8EAF2"/>
<path d="M121.852 36.81C122.072 37.39 122.262 37.96 122.432 38.54C122.432 38.57 122.442 38.6 122.462 38.62C123.142 41 123.352 43.34 123.122 45.6C123.122 45.67 123.112 45.74 123.092 45.82C122.292 53.04 117.062 59.41 108.732 63.88C106.072 65.3 101.712 66.77 98.3918 67.22C97.7718 67.3 97.1818 67.35 96.6518 67.36C88.4018 67.43 82.8518 61.95 80.2918 52.27C76.7218 38.81 82.2118 29.09 93.7918 24.67C94.8418 24.27 95.9118 23.95 96.9718 23.72C107.552 21.35 118.102 26.97 121.852 36.8V36.81Z" fill="white"/>
<path d="M121.851 36.81C122.071 37.39 122.261 37.96 122.431 38.54C122.431 38.57 122.441 38.6 122.461 38.62C123.091 40.94 123.301 43.29 123.121 45.6C123.121 45.67 123.111 45.74 123.091 45.82C122.291 53.04 117.061 59.41 108.731 63.88C106.071 65.3 101.711 66.77 98.3907 67.22C119.351 51.35 110.861 27.52 96.9707 23.72C107.551 21.35 118.101 26.97 121.851 36.8V36.81Z" fill="#EFEFEF"/>
<path d="M115.611 47.27C116.171 50.38 116.341 53.14 115.831 54.36C113.731 59.42 108.321 63.01 102.261 64.9C97.841 66.28 92.341 66.08 87.961 64.73C87.351 64.54 86.781 64.24 86.271 63.85C83.351 61.6 81.331 58.9 79.421 53.53C77.851 48.31 76.921 42.58 77.831 41C79.431 38.18 85.731 34.44 91.351 32.55C91.611 32.46 91.851 32.37 92.101 32.3C92.261 32.26 92.431 32.2 92.591 32.16C92.971 32.04 93.361 31.94 93.751 31.85C94.051 31.77 94.341 31.71 94.651 31.65C94.951 31.58 95.251 31.53 95.571 31.46C95.871 31.41 96.181 31.36 96.491 31.31C96.801 31.26 97.111 31.23 97.421 31.19C98.341 31.09 99.271 31.02 100.191 31.02C100.501 31.02 100.801 31.02 101.101 31.02C101.631 31.04 102.151 31.07 102.661 31.11C102.981 31.14 103.281 31.17 103.601 31.22C103.911 31.26 104.211 31.31 104.521 31.37C104.821 31.43 105.111 31.48 105.411 31.55C106.001 31.69 106.581 31.86 107.141 32.05C108.431 32.48 109.621 33.05 110.661 33.8C112.441 35.07 114.631 41.73 115.621 47.25L115.611 47.27Z" fill="url(#paint3_linear_972_17474)"/>
<path d="M115.612 47.27C116.172 50.38 116.342 53.14 115.832 54.36C113.732 59.42 108.322 63.01 102.262 64.9C97.8419 66.28 92.3419 66.08 87.9619 64.73C87.3519 64.54 86.7819 64.24 86.2719 63.85C83.3519 61.6 81.3319 58.9 79.4219 53.53C80.2519 51.98 81.1319 51.22 82.1119 50.82C83.0819 50.45 84.1519 50.43 85.3719 50.42C87.3719 50.36 89.8019 50.26 92.9519 48.5C94.1619 47.82 95.3619 47.15 96.5619 46.55C102.022 43.79 107.362 42.34 113.712 46.04C113.782 46.09 113.862 46.12 113.932 46.16C114.482 46.49 115.042 46.85 115.602 47.26L115.612 47.27Z" fill="url(#paint4_linear_972_17474)"/>
<path style="mix-blend-mode:screen" opacity="0.4" d="M113.942 46.17C114.252 47.76 111.952 49.11 108.082 50C102.162 51.36 95.8116 46.98 90.3116 51.33C84.8316 55.68 82.6816 50.97 79.4316 53.52C80.2616 51.97 81.1416 51.21 82.1216 50.82C83.0816 50.45 84.1516 50.43 85.3716 50.42C87.3716 50.36 89.8016 50.27 92.9516 48.51C94.1716 47.83 95.3716 47.16 96.5716 46.56C102.032 43.8 107.372 42.34 113.722 46.04C113.792 46.09 113.862 46.12 113.942 46.17Z" fill="url(#paint5_linear_972_17474)"/>
<g style="mix-blend-mode:multiply" opacity="0.2">
<path d="M113.001 53.74C111.801 57.49 101.641 61.75 94.3309 59.65C87.7609 57.76 90.4609 52.99 85.3809 50.43C87.3809 50.37 89.8109 50.28 92.9609 48.52C94.1809 47.84 95.3809 47.17 96.5809 46.57C93.7809 51.47 102.131 56.91 113.011 53.75L113.001 53.74Z" fill="#5C3A7D"/>
</g>
<g style="mix-blend-mode:multiply" opacity="0.2">
<path d="M115.612 47.27C116.172 50.38 116.342 53.14 115.832 54.36C113.732 59.42 108.322 63.01 102.262 64.9C97.8419 66.28 92.3419 66.08 87.9619 64.73C87.3519 64.54 86.7819 64.24 86.2719 63.85C83.3519 61.6 81.3319 58.9 79.4219 53.53C80.2519 51.98 81.1319 51.22 82.1119 50.82C81.6819 51.39 81.4019 52.04 81.2219 52.74C80.0619 57.56 84.8819 64.57 97.1819 62.31C101.742 61.48 105.192 59.96 107.732 58.15C109.532 56.88 110.872 55.46 111.852 54.02C113.642 51.39 114.182 48.72 113.892 46.83C113.862 46.54 113.802 46.27 113.712 46.03C113.792 46.07 113.862 46.12 113.932 46.16C114.482 46.48 115.042 46.84 115.602 47.25L115.612 47.27Z" fill="#5C3A7D"/>
</g>
<g style="mix-blend-mode:multiply" opacity="0.4">
<path d="M101.25 46.4C101.34 49.15 110.18 47 110.21 45.59C110.24 44.18 101.18 44.32 101.25 46.4Z" fill="#341F47"/>
</g>
<path d="M107.141 32.07C107.131 33.5 106.721 34.87 106.001 36.06C105.041 37.66 103.511 38.92 101.591 39.52C97.4213 40.82 92.9913 38.49 91.6913 34.32C91.5113 33.73 91.3913 33.13 91.3613 32.55C91.6113 32.46 91.8613 32.38 92.1113 32.31C92.3613 32.24 92.6013 32.16 92.8713 32.1C97.6013 30.76 102.911 30.63 107.151 32.07H107.141Z" fill="url(#paint6_linear_972_17474)"/>
<path style="mix-blend-mode:screen" opacity="0.4" d="M106.001 36.06C105.041 37.66 103.511 38.92 101.591 39.52C97.4213 40.82 92.9913 38.49 91.6913 34.32C91.5113 33.73 91.3913 33.13 91.3613 32.55C91.6113 32.46 91.8613 32.38 92.1113 32.31C92.3613 32.24 92.6013 32.16 92.8713 32.1C94.3113 37.82 101.741 40.74 106.011 36.07L106.001 36.06Z" fill="url(#paint7_linear_972_17474)"/>
<g opacity="0.6">
<path d="M88.83 44.25C88.94 44.59 88.75 44.96 88.4 45.07C88.05 45.18 87.69 44.99 87.58 44.64C87.47 44.3 87.66 43.93 88.01 43.82C88.35 43.71 88.72 43.9 88.83 44.25Z" fill="#CD99FF"/>
<path d="M89.8703 40.17C89.9403 40.38 89.8203 40.61 89.6003 40.68C89.3903 40.75 89.1603 40.63 89.0903 40.41C89.0203 40.2 89.1403 39.97 89.3603 39.9C89.5703 39.83 89.8003 39.95 89.8703 40.17Z" fill="#CD99FF"/>
<path d="M81.3509 40.77C81.4309 41.03 81.2909 41.3 81.0309 41.38C80.7709 41.46 80.5009 41.32 80.4209 41.06C80.3409 40.8 80.4809 40.53 80.7409 40.45C81.0009 40.37 81.2709 40.51 81.3509 40.77Z" fill="#CD99FF"/>
<path d="M84.861 47.11C84.951 47.41 84.791 47.73 84.481 47.82C84.171 47.91 83.861 47.75 83.771 47.44C83.681 47.14 83.841 46.82 84.151 46.73C84.451 46.64 84.771 46.8 84.861 47.11Z" fill="#CD99FF"/>
<path d="M102.29 41.68C102.37 41.94 102.23 42.21 101.97 42.29C101.71 42.37 101.44 42.23 101.36 41.97C101.28 41.71 101.42 41.44 101.68 41.36C101.94 41.28 102.21 41.42 102.29 41.68Z" fill="#CD99FF"/>
</g>
<path opacity="0.3" d="M107.68 34.6C107.68 34.6 107.59 34.62 107.53 34.64C87.1702 39.69 79.2602 50.85 87.6402 62.24C79.8602 58.02 78.8002 43.76 80.3202 42.12C87.7902 34.04 100.71 33.3 107.69 34.6H107.68Z" fill="white"/>
<path d="M125.762 39.89C126.802 45.15 125.322 49.87 122.452 50.44C119.582 51.01 116.402 47.21 115.362 41.96C114.322 36.7 115.802 31.98 118.672 31.41C121.542 30.84 124.722 34.64 125.762 39.89Z" fill="#3E4B82"/>
<path d="M125.031 39.93C125.681 43.22 124.761 46.17 122.961 46.53C121.161 46.89 119.181 44.51 118.521 41.22C117.861 37.93 118.791 34.98 120.591 34.62C122.391 34.26 124.371 36.64 125.031 39.93Z" fill="#66D4D9"/>
<path d="M124.243 40.08C124.823 43.02 124.073 45.64 122.553 45.94C121.033 46.24 119.333 44.1 118.753 41.17C118.173 38.24 118.923 35.61 120.443 35.31C121.963 35.01 123.663 37.15 124.243 40.08Z" fill="#3E4B82"/>
<path opacity="0.3" d="M101.15 61.89C101.15 61.89 109.64 59.7 112.39 55.62C115.14 51.54 112.95 42.65 112.95 42.65C112.95 42.65 113.01 48.38 109.07 54.19C105.34 59.68 101.16 61.89 101.16 61.89H101.15Z" fill="white"/>
<path d="M124.279 58.83C123.269 59.98 119.889 61.66 115.849 63.39C110.249 65.8 103.369 68.28 99.7491 69.56C98.1891 70.11 97.2391 70.43 97.2391 70.43C97.2391 70.43 96.2891 69.37 95.5391 67.35C96.4191 67.22 97.3191 67.04 98.2191 66.81C104.219 65.35 110.239 62.1 114.759 59.19C119.319 56.27 122.359 53.71 122.359 53.71C122.359 53.71 124.389 56.48 124.289 58.82L124.279 58.83Z" fill="white"/>
<path d="M115.84 63.39C115.95 62 115.83 60.23 114.74 59.2C119.3 56.28 122.34 53.72 122.34 53.72C122.34 53.72 124.37 56.49 124.27 58.83C123.26 59.98 119.88 61.66 115.84 63.39Z" fill="#EFEFEF"/>
<path d="M118.311 74.59C114.901 67.14 117.781 58.84 124.591 58.2C131.401 57.56 132.251 68.74 128.211 74.91C124.171 81.08 118.311 74.59 118.311 74.59Z" fill="#3E4B82"/>
<path d="M129.48 69.05C129.38 75.86 121.82 93.63 120.43 94.92C119.78 95.52 114.13 93.87 108.35 91.95C107.99 91.83 107.63 91.7 107.29 91.59C101.21 89.55 95.3204 87.36 95.3204 87.36L89.4504 91.2C87.8904 92.22 85.8204 91.87 84.6704 90.42C84.1404 89.75 83.9004 88.98 83.9004 88.21C83.9004 86.77 84.7704 85.37 86.2704 84.83L89.9004 83.53L86.8504 82.41C86.3004 82.2 86.0104 81.58 86.2204 81.03C86.3804 80.59 86.7904 80.32 87.2304 80.32C87.3504 80.32 87.4804 80.34 87.6004 80.39L95.0004 83.2L108.09 85.09L109.24 85.26L116.38 86.29C116.38 86.29 116.92 71.17 120.32 65.53C123.72 59.9 129.58 62.24 129.47 69.05H129.48Z" fill="white"/>
<path d="M115.01 85.34L115.76 84.7L124.28 92.58C124.28 92.58 122.15 98.22 117.47 95.99C116.3 91.31 115.02 85.35 115.02 85.35L115.01 85.34Z" fill="#3E4B82"/>
<path d="M108.349 91.95C107.989 91.83 107.629 91.7 107.289 91.59C107.819 89.94 108.379 87.47 108.099 85.09L109.249 85.26C109.489 87.76 108.899 90.25 108.349 91.95Z" fill="#EFEFEF"/>
<path d="M99.7393 69.56C98.1793 70.11 97.2293 70.43 97.2293 70.43C97.2293 70.43 96.2793 69.37 95.5293 67.35C96.4093 67.22 97.3093 67.04 98.2093 66.81C98.1693 67.84 98.8593 68.79 99.7393 69.55V69.56Z" fill="#EFEFEF"/>
<path d="M70.5801 82.12L80.8301 85.78L90.0901 87.27L80.9301 83.79L70.5801 82.12Z" fill="#FFF2B0"/>
<path d="M80.4406 73.55L80.1406 84.72L81.5206 95.34L81.9706 85.41L80.4406 73.55Z" fill="#FFF2B0"/>
<path d="M73.8594 74.56L80.4994 85.3L87.7194 94.18L81.9194 84.48L73.8594 74.56Z" fill="#FFF2B0"/>
<path d="M87.6695 78.76L80.1095 83.93L74.4395 90.28L81.3295 85.84L87.6695 78.76Z" fill="#FFF2B0"/>
<path d="M45 150.67L65.09 130.64L66.15 133.4L55.31 153.59L45 150.67Z" fill="#E975C3"/>
<path d="M66.1505 133.4C66.1505 133.4 47.0005 151.73 47.2405 151.86C47.4805 151.98 56.2305 156.2 56.2305 156.2L65.6205 136.23L66.1505 133.41V133.4Z" fill="#BA56B5"/>
<path d="M45.4102 144.94L43.5202 149.66L41.4502 149.09L39.8402 148.65L38.7402 138.12L41.3002 135.47L45.4102 144.94Z" fill="#F587C0"/>
<path d="M41.4502 149.09L39.8402 148.65L38.7402 138.12L41.3002 135.47L40.5702 142.13L41.4502 149.09Z" fill="#BA56B5"/>
<path d="M59.69 117.71L50.26 150.4L49.99 150.36L49.18 150.26L43.84 149.61L43 149.51L46.25 115.5L56.66 110.62L59.69 117.71Z" fill="#E975C3"/>
<path d="M46.25 115.5L55.81 118.97L59.69 117.71L56.66 110.62L46.25 115.5Z" fill="#F587C0"/>
<path d="M56.6605 110.62L55.8105 118.97L59.6905 117.71L56.6605 110.62Z" fill="#D160AC"/>
<path d="M49.9898 150.36L43.8398 149.61L55.8098 118.97L49.9898 150.36Z" fill="#F587C0"/>
<path d="M59.6897 117.71L50.2597 150.4L49.9897 150.36L49.1797 150.26L55.8097 118.96L59.6897 117.71Z" fill="#BA56B5"/>
<path d="M72.3 162.78H21C21 162.78 27.47 154.11 32.97 150.37C34.18 149.55 35.33 148.97 36.36 148.77C42.11 147.65 60.95 150.18 64.84 153.63C68.71 157.07 72.3 162.78 72.3 162.78Z" fill="#BBBBBB"/>
<path d="M46.25 115.5L55.42 119.04L46.91 142.12L56.24 118.98L59.69 117.71L56.25 118.41L56.45 111.38L55.47 118.24L46.25 115.5Z" fill="#FFD3EA"/>
<path d="M52.2207 146.75L65.3707 133.43L65.2507 131.27L66.1507 133.4L52.2207 146.75Z" fill="#FFD3EA"/>
<path d="M41.2502 135.59L40.2402 141.91L41.3202 147.19L40.7802 141.83L41.2502 135.59Z" fill="#FFD3EA"/>
<path d="M72.2994 162.78H71.5894C69.3194 160.32 65.6494 156.99 61.4594 155.59C55.0794 153.46 32.6894 156.33 32.9694 150.37C34.1794 149.55 35.3294 148.97 36.3594 148.77C42.1094 147.65 60.9494 150.18 64.8394 153.63C68.7094 157.07 72.2994 162.78 72.2994 162.78Z" fill="#EFEFEF"/>
<path d="M125.19 97.29L126.01 101.71L119.67 103.39L118.57 99.61L125.19 97.29Z" fill="#3E4B82"/>
<path d="M124.501 98.22L125.041 101.23L120.311 102.49L119.551 99.93L124.501 98.22Z" fill="#66D4D9"/>
<path d="M124.241 98.48L124.721 101.13L120.551 102.24L119.891 99.98L124.241 98.48Z" fill="#3E4B82"/>
<g style="mix-blend-mode:screen" opacity="0.6">
<path d="M124.901 97.86L125.461 101.25L120.021 102.88L119.701 101.89L124.901 97.86Z" fill="#6778C2"/>
</g>
<defs>
<radialGradient id="paint0_radial_972_17474" cx="0" cy="0" r="1" gradientUnits="userSpaceOnUse" gradientTransform="translate(123.596 59.5135) rotate(3.3486) scale(94.1764 94.1764)">
<stop stop-color="#DBE7EE"/>
<stop offset="1" stop-color="#B7C5CD"/>
</radialGradient>
<radialGradient id="paint1_radial_972_17474" cx="0" cy="0" r="1" gradientUnits="userSpaceOnUse" gradientTransform="translate(135.098 49.1627) scale(49.9383 49.9383)">
<stop stop-color="#EBEBEB"/>
<stop offset="1" stop-color="#555F71"/>
</radialGradient>
<radialGradient id="paint2_radial_972_17474" cx="0" cy="0" r="1" gradientUnits="userSpaceOnUse" gradientTransform="translate(95.1243 85.5239) rotate(90) scale(51.5136 54.9641)">
<stop stop-color="#DFDFDF"/>
<stop offset="1" stop-color="#DFDFDF" stop-opacity="0"/>
</radialGradient>
<linearGradient id="paint3_linear_972_17474" x1="95.7212" y1="44.7055" x2="91.2797" y2="34.8905" gradientUnits="userSpaceOnUse">
<stop stop-color="#5A397A"/>
<stop offset="1" stop-color="#372E63"/>
</linearGradient>
<linearGradient id="paint4_linear_972_17474" x1="102.714" y1="62.4991" x2="95.3664" y2="45.5368" gradientUnits="userSpaceOnUse">
<stop stop-color="#5A397A"/>
<stop offset="1" stop-color="#804A8F"/>
</linearGradient>
<linearGradient id="paint5_linear_972_17474" x1="79.9026" y1="55.0601" x2="113.443" y2="44.6133" gradientUnits="userSpaceOnUse">
<stop stop-color="#5A397A"/>
<stop offset="1" stop-color="#804A8F"/>
</linearGradient>
<linearGradient id="paint6_linear_972_17474" x1="92.5904" y1="37.2513" x2="107.313" y2="32.6658" gradientUnits="userSpaceOnUse">
<stop stop-color="#76397A"/>
<stop offset="1" stop-color="#251F42"/>
</linearGradient>
<linearGradient id="paint7_linear_972_17474" x1="92.5904" y1="37.2513" x2="105.145" y2="33.3409" gradientUnits="userSpaceOnUse">
<stop stop-color="#5A397A"/>
<stop offset="1" stop-color="#804A8F"/>
</linearGradient>
</defs>
</svg>
