<svg width="792" height="320" preserveAspectRatio="none" viewBox="0 0 792 320" fill="none" xmlns="http://www.w3.org/2000/svg">
<g opacity="0.3">
<path fill-rule="evenodd" clip-rule="evenodd" d="M9.85928 84H3.24219V104.339L9.85928 84ZM3.24219 126.965L17.2204 84H22.5855L3.24219 143.455V126.965ZM3.24219 166.081V182.238L35.2035 84H29.9466L3.24219 166.081ZM42.5646 84L3.24219 204.864V221.028L47.8235 84H42.5646ZM55.1846 84L3.24219 243.654V259.812L60.4415 84H55.1846ZM67.8027 84L3.24219 282.438V298.602L73.0615 84H67.8027ZM80.4227 84L3.96683 319H9.22362L85.6795 84H80.4227ZM93.0406 84L16.5848 319H21.8436L98.2994 84H93.0406ZM105.661 84L29.2047 319H34.4616L110.917 84H105.661ZM118.279 84L41.8228 319H47.0816L123.537 84H118.279ZM130.899 84L54.4427 319H59.7016L136.157 84H130.899ZM143.519 84L67.0627 319H72.3197L148.776 84H143.519ZM156.137 84L79.6809 319H84.9398L161.396 84H156.137ZM168.757 84L96.7521 305.318L97.6594 303.868H102.481L174.014 84H168.757ZM181.375 84L109.842 303.868H115.101L186.634 84H181.375ZM193.995 84L122.462 303.868H127.719L199.252 84H193.995ZM206.613 84L135.08 303.868H140.339L211.872 84H206.613ZM219.233 84L147.7 303.868H152.959L224.492 84H219.233ZM231.853 84L160.32 303.868H165.577L237.11 84H231.853ZM244.471 84L172.938 303.868H178.197L249.73 84H244.471ZM257.091 84L184.698 306.512L188.422 311.223L262.348 84H257.091ZM269.709 84L193.636 317.821L194.568 319H198.512L274.968 84H269.709ZM282.329 84L205.873 319H211.13L287.586 84H282.329ZM294.947 84L218.491 319H223.75L300.206 84H294.947ZM307.567 84L231.111 319H236.368L312.824 84H307.567ZM320.185 84L243.729 319H248.988L325.444 84H320.185ZM332.805 84L256.349 319H261.608L338.064 84H332.805ZM345.425 84L268.969 319H274.363L350.819 84H345.425ZM358.18 84L281.724 319H286.411L362.867 84H358.18ZM370.228 84L293.772 319H299.029L375.485 84H370.228ZM382.846 84L306.39 319H311.649L388.105 84H382.846ZM395.466 84L319.01 319H324.267L400.723 84H395.466ZM408.084 84L331.628 319H336.887L413.343 84H408.084ZM420.704 84L344.248 319H349.505L425.961 84H420.704ZM433.322 84L356.866 319H362.125L438.581 84H433.322ZM445.942 84L369.486 319H374.743L451.199 84H445.942ZM458.56 84L382.104 319H387.363L463.819 84H458.56ZM471.18 84L394.724 319H399.983L476.439 84H471.18ZM483.8 84L407.344 319H412.601L489.057 84H483.8ZM496.418 84L419.962 319H425.221L501.677 84H496.418ZM509.038 84L432.582 319H437.839L514.295 84H509.038ZM521.656 84L445.2 319H450.459L526.915 84H521.656ZM534.276 84L457.82 319H463.077L539.533 84H534.276ZM546.894 84L470.438 319H475.697L552.153 84H546.894ZM559.514 84L483.058 319H488.317L564.773 84H559.514ZM572.134 84L495.678 319H500.935L577.391 84H572.134ZM584.752 84L508.296 319H513.555L590.011 84H584.752ZM595.999 88.2214L520.916 319H526.173L599.623 93.2407L595.999 88.2214ZM604.697 100.269L533.534 319H538.793L609.074 102.98H606.654L604.697 100.269ZM616.435 102.98L546.154 319H551.411L621.692 102.98H616.435ZM629.053 102.98L558.772 319H564.031L634.312 102.98H629.053ZM641.673 102.98L571.392 319H576.649L646.93 102.98H641.673ZM654.291 102.98L584.01 319H589.269L664.031 89.2062L654.99 102.98H654.291ZM673.086 84L596.63 319H601.889L678.345 84H673.086ZM685.706 84L609.25 319H614.645L691.101 84H685.706ZM698.462 84L622.006 319H627.645L704.1 84H698.462ZM711.462 84L635.006 319H640.41L716.866 84H711.462ZM724.227 84L647.772 319H653.028L729.484 84H724.227ZM736.845 84L660.39 319H665.648L742.104 84H736.845ZM749.465 84L673.01 319H678.266L754.722 84H749.465ZM762.083 84L685.628 319H690.886L767.342 84H762.083ZM774.703 84L698.248 319H703.504L779.96 84H774.703ZM787.321 84L710.866 319H716.124L789.242 94.26V84H787.321ZM789.242 116.886L723.486 319H728.742L789.242 133.044V116.886ZM789.242 155.67L736.104 319H741.362L789.242 171.833V155.67ZM789.242 194.459L748.724 319H753.982L789.242 210.623V194.459ZM789.242 233.249L761.344 319H766.6L789.242 249.407V233.249ZM789.242 272.033L780.52 298.842L789.242 285.003V272.033Z" fill="#0F0F11"/>
</g>
<path d="M499.296 84.5117L490.544 74.7133L299.839 74.7133L292.133 84.5117L499.296 84.5117Z" fill="#E22440"/>
<path d="M484.429 87.6316L476.874 96.0895L312.259 96.0895L305.608 87.6316L484.429 87.6316Z" fill="#E22440"/>
<path d="M238.242 84.5117L252.834 88.1861L541.395 88.1861L554.242 84.5118L238.242 84.5117Z" fill="#E22440"/>
<path d="M2 98.5V83.5H17" stroke="#E22440" stroke-width="3"/>
<path d="M2 303.5V318.5H17" stroke="#E22440" stroke-width="3"/>
<path d="M790.242 98.5V83.5H775.242" stroke="#E22440" stroke-width="3"/>
<path d="M790.242 303.5V318.5H775.242" stroke="#E22440" stroke-width="3"/>
</svg>
