<svg width="373" height="360" viewBox="0 0 373 360" fill="none" preserveAspectRatio="none"  xmlns="http://www.w3.org/2000/svg">
<path fill-rule="evenodd" clip-rule="evenodd" d="M137.137 353.423H358.142V181.78V10.1365L355.245 6.90533H15.1311V353.423H137.137ZM0.757812 352.086V247.24L8.55726 239.44V233.423L0.757812 241.223V235.206L8.55726 227.407V221.39L0.757812 229.189V223.173L8.55726 215.373V209.357L0.757812 217.156V211.139L8.55726 203.34V197.323L0.757812 205.123V199.106L8.55726 191.306V185.29L0.757812 193.089V187.072L8.55726 179.273V173.256L0.757812 181.056V175.039L8.55726 167.24V161.223L1.98344 167.797V161.78L8.55726 155.206V149.189L3.76617 153.981V147.964L8.55726 143.173V0.442932H357.919L372.515 14.9276V246.682L364.716 254.482V273.646L370.176 279.106V354.983L365.385 359.886H8.55726L0.757812 352.086ZM138.919 3.00561H11.2313V357.323H362.042V8.24237L356.805 3.00561H138.919ZM137.137 8.24237H354.688L356.917 10.6936V352.198H16.3567V8.24237H137.137ZM364.716 356.878V277.435L367.502 280.22V353.981L364.716 356.878ZM8.55726 294.928V243.006L3.32049 248.242V289.691L8.55726 294.928ZM369.953 137.267V169.691L364.716 174.928V142.504L369.953 137.267ZM369.953 16.0418V134.593L364.716 139.83V10.805L369.953 16.0418Z" fill="#6A6A6A"/>
</svg>
