<svg width="26" height="39" viewBox="0 0 26 39" fill="none"  preserveAspectRatio="none" xmlns="http://www.w3.org/2000/svg">
<rect x="6.99683" y="0.518921" width="12.4733" height="16.8118" rx="6.23664" fill="white" fill-opacity="0.3"/>
<rect x="7.53914" y="1.06124" width="11.3887" height="15.7272" rx="5.69433" stroke="white" stroke-opacity="0.9" stroke-width="1.08463"/>
<path d="M0.489258 32.2444C0.489258 25.2059 6.19514 19.5 13.2337 19.5C20.2723 19.5 25.9781 25.2059 25.9781 32.2444V33.5601C25.9781 36.2779 23.7749 38.4811 21.0571 38.4811H5.41028C2.69247 38.4811 0.489258 36.2779 0.489258 33.5601V32.2444Z" fill="white" fill-opacity="0.3"/>
<path d="M1.03157 32.2444C1.03157 25.5054 6.49465 20.0423 13.2337 20.0423C19.9728 20.0423 25.4358 25.5054 25.4358 32.2444V33.5601C25.4358 35.9784 23.4754 37.9388 21.0571 37.9388H5.41028C2.99199 37.9388 1.03157 35.9784 1.03157 33.5601V32.2444Z" stroke="white" stroke-opacity="0.9" stroke-width="1.08463"/>
</svg>
