<svg width="356" height="360"  preserveAspectRatio="none"  viewBox="0 0 356 360" fill="none" xmlns="http://www.w3.org/2000/svg">
<rect width="343" height="346" transform="translate(6 8)" fill="url(#paint0_linear_825_2366)" fill-opacity="0.4"/>
<g clip-path="url(#clip0_825_2366)">
<path d="M260.139 8L252.994 4.65437e-07L97.2913 1.40774e-05L91 8.00001L260.139 8Z" fill="#C71A33"/>
</g>
<g clip-path="url(#clip1_825_2366)">
<path d="M122 10L126.647 16L227.908 16L232 10L122 10Z" fill="#C71A33"/>
</g>
<g clip-path="url(#clip2_825_2366)">
<path d="M47 8L58.9137 11L294.511 11L305 8.00005L47 8Z" fill="#C71A33"/>
</g>
<path fill-rule="evenodd"  class="inner" clip-rule="evenodd" d="M30 132.451L45.9347 83.4734L54.4172 73H56.7033L30 155.077V132.451ZM30 193.864V171.238L61.9613 73H69.3224L30 193.864ZM30 232.651V210.025L74.5804 73H81.9416L30 232.651ZM31.1186 268H30V248.812L87.1995 73H94.5607L31.1186 268ZM43.7377 268H36.3766L99.8186 73H107.18L43.7377 268ZM58.0264 262.868H54.4172L49.862 265.337L112.438 73H119.799L58.0264 262.868ZM70.4888 263.35L69.3666 262.868H63.2843L125.057 73H132.418L70.4888 263.35ZM81.5951 268H81.326L75.1027 265.33L137.676 73H145.037L81.5951 268ZM94.2142 268H86.8531L150.295 73H157.656L94.2142 268ZM106.833 268H99.4722L162.914 73H170.275L106.833 268ZM119.452 268H112.091L175.533 73H182.895L119.452 268ZM132.072 268H124.71L188.152 73H189.709L194.493 76.1356L132.072 268ZM144.691 268H137.33L198.827 78.9758L203.412 81.9803H205.211L144.691 268ZM157.31 268H149.949L210.469 81.9803H217.83L157.31 268ZM169.929 268H162.568L223.088 81.9803H230.449L169.929 268ZM182.548 268H175.187L235.707 81.9803H243.068L182.548 268ZM195.167 268H187.806L248.326 81.9803H251.748L256.894 78.2706L195.167 268ZM207.786 268H200.425L263.763 73.3191L264.206 73H271.228L207.786 268ZM220.405 268H213.044L276.486 73H281.647H283.847L220.405 268ZM233.025 268H225.663L289.105 73H296.467L233.025 268ZM245.644 268H238.283L301.725 73H309.086L245.644 268ZM258.263 268H250.902L314.344 73H321.705L258.263 268ZM270.882 268H263.521L325 79.0331V101.659L270.882 268ZM283.501 268H276.14L325 117.82V140.446L283.501 268ZM296.12 268H288.759L325 156.607V179.233L296.12 268ZM314.252 251.057L303.573 268H301.378L325 195.394V218.02L314.252 251.057Z" fill="#181919"/>
<path d="M6 339.5V354.5H21" stroke="#C71A33" stroke-width="3"/>
<path d="M350 339.5V354.5H335" stroke="#C71A33"   stroke-width="3"/>
<path d="M6 22.5V7.5H21" stroke="#C71A33" stroke-width="3"  />
<path d="M350 22.5V7.5H335" stroke="#C71A33"  stroke-width="3"/>
<defs>
<linearGradient id="paint0_linear_825_2366" x1="29.2578" y1="28.5826" x2="443.553" y2="477.689" gradientUnits="userSpaceOnUse">
<stop stop-color="#282929"/>
<stop offset="1" stop-color="#282929" stop-opacity="0"/>
</linearGradient>
<clipPath id="clip0_825_2366">
<rect width="169.139" height="8" fill="white" transform="translate(260.139 8) rotate(180)"/>
</clipPath>
<clipPath id="clip1_825_2366">
<rect width="110" height="5.99998" fill="white" transform="translate(122 10)"/>
</clipPath>
<clipPath id="clip2_825_2366">
<rect width="282" height="7.99995" fill="white" transform="translate(47 8)"/>
</clipPath>
</defs>
</svg>
