<svg width="29" height="30" viewBox="0 0 29 30" fill="none" xmlns="http://www.w3.org/2000/svg">
<g filter="url(#filter0_d_306_17)">
<path d="M7.07617 7.20117L5.68164 5.80664C5.02539 5.19141 4 5.64258 4 6.50391V11.0156C4 11.5898 4.41016 12 4.98438 12H9.49609C10.3574 12 10.8086 10.9746 10.1934 10.3184L8.92188 9.08789C10.3574 7.65234 12.3262 6.75 14.5 6.75C18.8477 6.75 22.375 10.2773 22.375 14.625C22.375 18.9727 18.8477 22.5 14.5 22.5C12.8184 22.5 11.2598 22.0078 9.98828 21.1055C9.37305 20.6953 8.55273 20.8184 8.14258 21.4336C7.73242 22.0078 7.89648 22.8281 8.4707 23.2793C10.1934 24.4277 12.2441 25.125 14.5 25.125C20.2832 25.125 25 20.4492 25 14.625C25 8.8418 20.2832 4.125 14.5 4.125C11.5879 4.125 8.96289 5.31445 7.07617 7.20117ZM14.5 9.375C13.9258 9.375 13.5156 9.82617 13.5156 10.3594V14.625C13.5156 14.9121 13.5977 15.1582 13.8027 15.3223L16.7559 18.2754C17.125 18.6855 17.7402 18.6855 18.1094 18.2754C18.5195 17.9062 18.5195 17.291 18.1094 16.9219L15.4434 14.2559V10.3594C15.4434 9.82617 15.0332 9.375 14.459 9.375H14.5Z" fill="white" fill-opacity="0.6" shape-rendering="crispEdges"/>
</g>
<defs>
<filter id="filter0_d_306_17" x="0" y="0.125" width="29" height="29" filterUnits="userSpaceOnUse" color-interpolation-filters="sRGB">
<feFlood flood-opacity="0" result="BackgroundImageFix"/>
<feColorMatrix in="SourceAlpha" type="matrix" values="0 0 0 0 0 0 0 0 0 0 0 0 0 0 0 0 0 0 127 0" result="hardAlpha"/>
<feOffset/>
<feGaussianBlur stdDeviation="2"/>
<feComposite in2="hardAlpha" operator="out"/>
<feColorMatrix type="matrix" values="0 0 0 0 0 0 0 0 0 0 0 0 0 0 0 0 0 0 0.15 0"/>
<feBlend mode="normal" in2="BackgroundImageFix" result="effect1_dropShadow_306_17"/>
<feBlend mode="normal" in="SourceGraphic" in2="effect1_dropShadow_306_17" result="shape"/>
</filter>
</defs>
</svg>
