<svg width="31" height="31" viewBox="0 0 31 31" fill="none" xmlns="http://www.w3.org/2000/svg">
<path d="M7.31247 23.6695H23.8798C24.2111 23.6695 24.4596 23.5177 24.6253 23.2139C24.791 22.9102 24.7634 22.6203 24.5425 22.3441L19.9865 16.2556C19.8208 16.0347 19.5999 15.9243 19.3238 15.9243C19.0477 15.9243 18.8268 16.0347 18.6611 16.2556L14.3536 22.0128L11.2886 17.9124C11.123 17.6915 10.9021 17.581 10.6259 17.581C10.3498 17.581 10.1289 17.6915 9.96324 17.9124L6.64978 22.3441C6.42888 22.6203 6.40127 22.9102 6.56694 23.2139C6.73262 23.5177 6.98113 23.6695 7.31247 23.6695ZM3.99901 30.2964C3.08781 30.2964 2.30749 29.9723 1.65805 29.3239C1.00971 28.6745 0.685547 27.8942 0.685547 26.983V3.78874C0.685547 2.87754 1.00971 2.09722 1.65805 1.44778C2.30749 0.799448 3.08781 0.475281 3.99901 0.475281H27.1933C28.1045 0.475281 28.8848 0.799448 29.5342 1.44778C30.1825 2.09722 30.5067 2.87754 30.5067 3.78874V26.983C30.5067 27.8942 30.1825 28.6745 29.5342 29.3239C28.8848 29.9723 28.1045 30.2964 27.1933 30.2964H3.99901ZM3.99901 26.983H27.1933V3.78874H3.99901V26.983Z" fill="white"/>
</svg>
