<svg width="19" height="20" viewBox="0 0 19 20" fill="none" xmlns="http://www.w3.org/2000/svg">
<path d="M7.8322 11.2389C8.2422 11.6289 8.2422 12.2689 7.8322 12.6589C7.4422 13.0489 6.8022 13.0489 6.4122 12.6589C5.47558 11.7208 4.94951 10.4495 4.94951 9.12387C4.94951 7.7983 5.47558 6.5269 6.4122 5.58887L9.9522 2.04887C10.8902 1.11225 12.1616 0.586182 13.4872 0.586182C14.8128 0.586182 16.0842 1.11225 17.0222 2.04887C17.9588 2.9869 18.4849 4.2583 18.4849 5.58387C18.4849 6.90945 17.9588 8.18085 17.0222 9.11887L15.5322 10.6089C15.5422 9.78887 15.4122 8.96887 15.1322 8.18887L15.6022 7.70887C15.8825 7.43156 16.1051 7.1014 16.257 6.7375C16.4089 6.37361 16.4871 5.9832 16.4871 5.58887C16.4871 5.19455 16.4089 4.80414 16.257 4.44024C16.1051 4.07635 15.8825 3.74619 15.6022 3.46887C15.3249 3.18854 14.9947 2.96598 14.6308 2.81409C14.2669 2.6622 13.8765 2.584 13.4822 2.584C13.0879 2.584 12.6975 2.6622 12.3336 2.81409C11.9697 2.96598 11.6395 3.18854 11.3622 3.46887L7.8322 6.99887C7.55187 7.27619 7.32931 7.60635 7.17742 7.97024C7.02553 8.33414 6.94733 8.72455 6.94733 9.11887C6.94733 9.5132 7.02553 9.90361 7.17742 10.2675C7.32931 10.6314 7.55187 10.9616 7.8322 11.2389ZM10.6522 6.99887C11.0422 6.60887 11.6822 6.60887 12.0722 6.99887C13.0088 7.9369 13.5349 9.20829 13.5349 10.5339C13.5349 11.8595 13.0088 13.1308 12.0722 14.0689L8.5322 17.6089C7.59418 18.5455 6.32278 19.0716 4.9972 19.0716C3.67163 19.0716 2.40023 18.5455 1.4622 17.6089C0.525582 16.6708 -0.000488281 15.3995 -0.000488281 14.0739C-0.000488281 12.7483 0.525582 11.4769 1.4622 10.5389L2.9522 9.04887C2.9422 9.86887 3.0722 10.6889 3.3522 11.4789L2.8822 11.9489C2.60187 12.2262 2.37931 12.5563 2.22742 12.9202C2.07553 13.2841 1.99733 13.6745 1.99733 14.0689C1.99733 14.4632 2.07553 14.8536 2.22742 15.2175C2.37931 15.5814 2.60187 15.9116 2.8822 16.1889C3.15952 16.4692 3.48968 16.6918 3.85357 16.8437C4.21747 16.9955 4.60788 17.0737 5.0022 17.0737C5.39653 17.0737 5.78694 16.9955 6.15083 16.8437C6.51473 16.6918 6.84489 16.4692 7.1222 16.1889L10.6522 12.6589C10.9325 12.3816 11.1551 12.0514 11.307 11.6875C11.4589 11.3236 11.5371 10.9332 11.5371 10.5389C11.5371 10.1445 11.4589 9.75414 11.307 9.39024C11.1551 9.02635 10.9325 8.69619 10.6522 8.41887C10.5551 8.32787 10.4777 8.2179 10.4247 8.09578C10.3718 7.97365 10.3445 7.84197 10.3445 7.70887C10.3445 7.57578 10.3718 7.44409 10.4247 7.32197C10.4777 7.19985 10.5551 7.08988 10.6522 6.99887Z"  fill="white"/>
</svg>
