<svg width="39" height="43" viewBox="0 0 39 43" fill="none" xmlns="http://www.w3.org/2000/svg">
<path d="M19.1064 21.9633C13.816 21.9633 9.51221 17.2547 9.51221 11.4646C9.51221 5.67456 13.816 0.965988 19.1064 0.965988C24.3969 0.965988 28.7007 5.67456 28.7007 11.4646C28.7007 17.2547 24.3969 21.9633 19.1064 21.9633ZM19.1064 4.89349C15.9822 4.89349 13.4365 7.8407 13.4365 11.4646C13.4365 15.0886 15.979 18.0358 19.1064 18.0358C22.2339 18.0358 24.7732 15.0886 24.7732 11.4646C24.7732 7.8407 22.2307 4.89349 19.1064 4.89349Z" fill="white"/>
<path d="M33.3553 42.0308H4.8572C2.17878 42.0308 0 39.8521 0 37.1768C0 32.2848 1.06567 25.5524 10.271 22.9752C11.3177 22.6811 12.3991 23.2914 12.6901 24.3381C12.981 25.3816 12.3738 26.4663 11.3271 26.7572C5.18291 28.4775 3.92434 32.1457 3.92434 37.1294C3.92434 37.6891 4.34176 38.1065 4.85404 38.1065H33.3553C33.8676 38.1065 34.285 37.6891 34.285 37.1768C34.285 32.1457 33.0264 28.4775 26.8822 26.7572C25.8387 26.4663 25.2284 25.3816 25.5193 24.3381C25.8102 23.2914 26.8917 22.6779 27.9384 22.9752C37.1437 25.5524 38.2094 32.2848 38.2094 37.1294C38.2094 39.8552 36.0306 42.034 33.3522 42.034L33.3553 42.0308Z" fill="white"/>
</svg>
