<svg width="29" height="30" viewBox="0 0 29 30" fill="none" xmlns="http://www.w3.org/2000/svg">
<g filter="url(#filter0_d_306_27)">
<path d="M4 4.125H25V21.1875H16.4688L10.5625 25.125V21.1875H4V4.125ZM10.8906 9.70312V9.99023H12.8594V9.70312C12.8594 9.53906 12.9824 9.375 13.1875 9.375H15.4844C15.8535 9.375 16.1406 9.66211 16.1406 10.0312C16.1406 10.2363 16.0176 10.4414 15.8125 10.5645L14.0078 11.5898L13.5156 11.877V12.4512V12.9844V13.9688H15.4844V13.0254L16.7969 12.2461C17.5762 11.7949 18.1094 10.9336 18.1094 10.0312C18.1094 8.5957 16.9199 7.40625 15.4844 7.40625H13.1875C11.916 7.40625 10.8906 8.47266 10.8906 9.70312ZM13.5156 15.2812V17.25H15.4844V15.2812H13.5156Z" fill="white" fill-opacity="0.6" shape-rendering="crispEdges"/>
</g>
<defs>
<filter id="filter0_d_306_27" x="0" y="0.125" width="29" height="29" filterUnits="userSpaceOnUse" color-interpolation-filters="sRGB">
<feFlood flood-opacity="0" result="BackgroundImageFix"/>
<feColorMatrix in="SourceAlpha" type="matrix" values="0 0 0 0 0 0 0 0 0 0 0 0 0 0 0 0 0 0 127 0" result="hardAlpha"/>
<feOffset/>
<feGaussianBlur stdDeviation="2"/>
<feComposite in2="hardAlpha" operator="out"/>
<feColorMatrix type="matrix" values="0 0 0 0 0 0 0 0 0 0 0 0 0 0 0 0 0 0 0.15 0"/>
<feBlend mode="normal" in2="BackgroundImageFix" result="effect1_dropShadow_306_27"/>
<feBlend mode="normal" in="SourceGraphic" in2="effect1_dropShadow_306_27" result="shape"/>
</filter>
</defs>
</svg>
