<svg width="44" height="41" viewBox="0 0 44 41" fill="none" xmlns="http://www.w3.org/2000/svg">
<path d="M40.8242 0.753906L24.249 13.0645L27.3142 5.80141L40.8242 0.753906Z" fill="#E2761B"/>
<path fill-rule="evenodd" clip-rule="evenodd" d="M41.1105 0.595801C41.1885 0.73916 41.1491 0.918052 41.018 1.01536L24.4429 13.3259C24.3243 13.414 24.1614 13.4118 24.0452 13.3206C23.929 13.2294 23.8883 13.0717 23.9457 12.9356L27.0109 5.67248C27.0459 5.58944 27.1136 5.5245 27.1981 5.49296L40.708 0.445451C40.8609 0.388335 41.0325 0.452442 41.1105 0.595801ZM27.5596 6.05733L25.0163 12.0839L38.7695 1.86917L27.5596 6.05733Z" fill="#E2761B"/>
<path d="M2.55762 0.753906L18.9995 13.1811L16.0843 5.80142L2.55762 0.753906Z" fill="#E4761B"/>
<path fill-rule="evenodd" clip-rule="evenodd" d="M2.27094 0.594651C2.34923 0.452085 2.52026 0.388541 2.67265 0.445404L16.1993 5.49291C16.2863 5.52536 16.3554 5.59317 16.3895 5.67949L19.3047 13.0592C19.3587 13.1957 19.3152 13.3515 19.1982 13.4404C19.0813 13.5292 18.9196 13.5294 18.8025 13.4409L2.36057 1.01371C2.23081 0.915635 2.19265 0.737218 2.27094 0.594651ZM4.54506 1.84346L18.2665 12.2145L15.8336 6.05583L4.54506 1.84346Z" fill="#E4761B"/>
<path d="M34.8588 29.2868L30.4443 36.0501L39.8897 38.6489L42.605 29.4367L34.8588 29.2868Z" fill="#E4761B"/>
<path fill-rule="evenodd" clip-rule="evenodd" d="M34.5849 29.1081C34.6467 29.0136 34.7527 28.9575 34.8656 28.9597L42.6118 29.1096C42.714 29.1116 42.8093 29.1611 42.8697 29.2435C42.9301 29.3259 42.9486 29.4318 42.9197 29.5298L40.2044 38.7419C40.1539 38.9132 39.9755 39.0125 39.8032 38.9651L30.3579 36.3664C30.257 36.3387 30.1755 36.2644 30.1384 36.1666C30.1014 36.0687 30.1133 35.9591 30.1705 35.8715L34.5849 29.1081ZM35.0344 29.6183L30.9645 35.8537L39.6669 38.248L42.1698 29.7564L35.0344 29.6183Z" fill="#E4761B"/>
<path d="M0.808594 29.4367L3.50726 38.6489L12.9526 36.0501L8.53811 29.2868L0.808594 29.4367Z" fill="#E4761B"/>
<path fill-rule="evenodd" clip-rule="evenodd" d="M8.53223 28.9597C8.64514 28.9575 8.75121 29.0136 8.81293 29.1081L13.2274 35.8715C13.2846 35.9591 13.2965 36.0687 13.2595 36.1666C13.2224 36.2644 13.1409 36.3387 13.04 36.3664L3.59464 38.9651C3.42222 39.0126 3.24361 38.913 3.19333 38.7414L0.494661 29.5292C0.465966 29.4313 0.484564 29.3256 0.544963 29.2433C0.605362 29.161 0.70066 29.1116 0.802711 29.1096L8.53223 28.9597ZM1.24397 29.7564L3.73154 38.2479L12.4334 35.8537L8.36345 29.6183L1.24397 29.7564Z" fill="#E4761B"/>
<path d="M12.4211 17.8612L9.78906 21.8426L19.1678 22.259L18.8346 12.1807L12.4211 17.8612Z" fill="#E4761B"/>
<path fill-rule="evenodd" clip-rule="evenodd" d="M18.9646 11.8802C19.0812 11.9303 19.1583 12.0434 19.1625 12.1703L19.4957 22.2486C19.4987 22.3399 19.4635 22.4282 19.3986 22.4924C19.3337 22.5566 19.2449 22.5908 19.1537 22.5867L9.775 22.1703C9.65712 22.165 9.55117 22.0968 9.49761 21.9917C9.44405 21.8865 9.45117 21.7607 9.51624 21.6623L12.1483 17.6809C12.1641 17.657 12.1829 17.6353 12.2043 17.6164L18.6178 11.9358C18.7129 11.8517 18.848 11.83 18.9646 11.8802ZM12.6711 18.0783L10.3817 21.5413L18.8291 21.9164L18.5307 12.8883L12.6711 18.0783Z" fill="#E4761B"/>
<path d="M30.9614 17.8605L24.4646 12.0634L24.248 22.2583L33.6101 21.8419L30.9614 17.8605Z" fill="#E4761B"/>
<path fill-rule="evenodd" clip-rule="evenodd" d="M24.3324 11.7634C24.4496 11.7123 24.5858 11.7342 24.6812 11.8193L31.178 17.6165C31.1988 17.635 31.2172 17.6562 31.2327 17.6794L33.8814 21.6608C33.9468 21.7592 33.9542 21.8852 33.9007 21.9905C33.8473 22.0959 33.7412 22.1643 33.6231 22.1696L24.2611 22.586C24.1706 22.5901 24.0824 22.5564 24.0176 22.4931C23.9528 22.4297 23.9171 22.3424 23.919 22.2518L24.1356 12.0568C24.1383 11.929 24.2151 11.8144 24.3324 11.7634ZM24.7756 12.7816L24.5815 21.9159L33.0145 21.5408L30.7104 18.0774L24.7756 12.7816Z" fill="#E4761B"/>
<path d="M12.9531 36.0514L18.5837 33.3028L13.7194 29.5046L12.9531 36.0514Z" fill="#E4761B"/>
<path fill-rule="evenodd" clip-rule="evenodd" d="M13.5936 29.2028C13.7028 29.1572 13.8282 29.174 13.9215 29.2469L18.7858 33.045C18.8748 33.1145 18.9218 33.225 18.91 33.3374C18.8982 33.4497 18.8294 33.5481 18.7279 33.5976L13.0973 36.3463C12.9897 36.3988 12.8619 36.3884 12.7642 36.3192C12.6664 36.2499 12.6143 36.1328 12.6282 36.0138L13.3945 29.467C13.4083 29.3494 13.4844 29.2484 13.5936 29.2028ZM13.9775 30.1219L13.3487 35.4944L17.9693 33.2388L13.9775 30.1219Z" fill="#E4761B"/>
<path d="M24.7979 33.3028L30.4451 36.0514L29.6621 29.5046L24.7979 33.3028Z" fill="#E4761B"/>
<path fill-rule="evenodd" clip-rule="evenodd" d="M29.7865 29.2026C29.8957 29.2481 29.9719 29.3488 29.9859 29.4662L30.7689 36.013C30.7831 36.132 30.7312 36.2493 30.6335 36.3188C30.5358 36.3883 30.408 36.3989 30.3002 36.3464L24.653 33.5978C24.5514 33.5483 24.4824 33.45 24.4706 33.3376C24.4587 33.2251 24.5057 33.1146 24.5947 33.045L29.459 29.2469C29.5522 29.1741 29.6774 29.1572 29.7865 29.2026ZM25.4117 33.2384L30.047 35.4945L29.4043 30.1209L25.4117 33.2384Z" fill="#E4761B"/>
<path d="M30.446 36.0521L24.7988 33.3035L25.2486 36.985L25.1986 38.5342L30.446 36.0521Z" fill="#D7C1B3"/>
<path fill-rule="evenodd" clip-rule="evenodd" d="M24.6071 33.0372C24.7048 32.9675 24.8328 32.9568 24.9407 33.0094L30.5879 35.758C30.7012 35.8132 30.7729 35.9284 30.7722 36.0544C30.7715 36.1804 30.6986 36.2949 30.5846 36.3487L25.3372 38.8309C25.234 38.8797 25.1129 38.8712 25.0174 38.8086C24.922 38.746 24.866 38.6382 24.8697 38.5241L24.9189 37.0001L24.4722 33.3437C24.4576 33.2245 24.5094 33.107 24.6071 33.0372ZM25.1956 33.8621L25.5723 36.9457C25.5744 36.9624 25.5751 36.9792 25.5746 36.996L25.5419 38.0092L29.6873 36.0484L25.1956 33.8621Z" fill="#D7C1B3"/>
<path d="M12.9521 36.0521L18.1996 38.5342L18.1662 36.985L18.5827 33.3035L12.9521 36.0521Z" fill="#D7C1B3"/>
<path fill-rule="evenodd" clip-rule="evenodd" d="M18.7721 33.0363C18.8698 33.1052 18.9222 33.2219 18.9087 33.3408L18.4947 37.0004L18.5276 38.5277C18.53 38.6412 18.4735 38.7478 18.3783 38.8096C18.283 38.8714 18.1626 38.8794 18.0599 38.8309L12.8125 36.3487C12.6987 36.2949 12.6258 36.1805 12.625 36.0546C12.6242 35.9287 12.6957 35.8134 12.8089 35.7582L18.4395 33.0095C18.5469 32.9571 18.6744 32.9673 18.7721 33.0363ZM13.709 36.0479L17.8611 38.012L17.8392 36.9925C17.8389 36.9779 17.8395 36.9632 17.8412 36.9486L18.1905 33.8602L13.709 36.0479Z" fill="#D7C1B3"/>
<path d="M18.2856 27.0718L13.5879 25.6892L16.9029 24.1733L18.2856 27.0718Z" fill="#233447"/>
<path fill-rule="evenodd" clip-rule="evenodd" d="M16.7652 23.8758C16.9279 23.8014 17.1201 23.8713 17.1971 24.0327L18.5798 26.9313C18.6355 27.048 18.6173 27.1865 18.5334 27.2849C18.4495 27.3833 18.3156 27.4231 18.1916 27.3866L13.4939 26.004C13.3628 25.9654 13.2694 25.8494 13.2596 25.713C13.2499 25.5767 13.3258 25.4486 13.4502 25.3917L16.7652 23.8758ZM14.5201 25.623L17.6723 26.5507L16.7445 24.6058L14.5201 25.623Z" fill="#233447"/>
<path d="M25.0996 27.0718L26.4823 24.1733L29.8139 25.6892L25.0996 27.0718Z" fill="#233447"/>
<path fill-rule="evenodd" clip-rule="evenodd" d="M26.1841 24.0327C26.261 23.8715 26.4529 23.8016 26.6155 23.8756L29.9472 25.3915C30.0718 25.4482 30.148 25.5763 30.1383 25.7129C30.1286 25.8494 30.035 25.9655 29.9037 26.004L25.1894 27.3867C25.0653 27.4231 24.9315 27.3831 24.8477 27.2847C24.7639 27.1864 24.7458 27.0479 24.8015 26.9313L26.1841 24.0327ZM26.637 24.6052L25.7085 26.5516L28.8742 25.6231L26.637 24.6052Z" fill="#233447"/>
<path d="M12.9526 36.0522L13.7522 29.2889L8.53809 29.4388L12.9526 36.0522Z" fill="#CD6116"/>
<path fill-rule="evenodd" clip-rule="evenodd" d="M13.9944 29.0661C14.0587 29.1364 14.0892 29.2312 14.078 29.3257L13.2784 36.0891C13.2623 36.2254 13.1629 36.3372 13.0295 36.3692C12.896 36.4012 12.7568 36.3466 12.6806 36.2325L8.26607 29.6191C8.19991 29.52 8.19278 29.3927 8.24747 29.2869C8.30215 29.181 8.41002 29.1131 8.52914 29.1097L13.7432 28.9598C13.8384 28.9571 13.9301 28.9959 13.9944 29.0661ZM9.13969 29.7477L12.7321 35.1294L13.3827 29.6257L9.13969 29.7477Z" fill="#CD6116"/>
<path d="M29.6465 29.2889L30.4461 36.0522L34.8606 29.4388L29.6465 29.2889Z" fill="#CD6116"/>
<path fill-rule="evenodd" clip-rule="evenodd" d="M29.4033 29.0661C29.4676 28.9959 29.5592 28.9571 29.6544 28.9598L34.8685 29.1097C34.9876 29.1131 35.0955 29.181 35.1502 29.2869C35.2049 29.3927 35.1977 29.52 35.1316 29.6191L30.7171 36.2325C30.6409 36.3466 30.5016 36.4012 30.3682 36.3692C30.2347 36.3372 30.1354 36.2254 30.1193 36.0891L29.3197 29.3257C29.3085 29.2312 29.339 29.1364 29.4033 29.0661ZM30.0149 29.6257L30.6656 35.1294L34.258 29.7477L30.0149 29.6257Z" fill="#CD6116"/>
<path d="M33.6091 21.8419L24.2471 22.2583L25.1133 27.0726L26.496 24.174L29.8277 25.69L33.6091 21.8419Z" fill="#CD6116"/>
<path fill-rule="evenodd" clip-rule="evenodd" d="M33.9088 21.7089C33.9636 21.8319 33.9376 21.9759 33.8433 22.0719L30.0618 25.92C29.9653 26.0182 29.8177 26.0456 29.6924 25.9886L26.6536 24.6059L25.4095 27.2141C25.3482 27.3425 25.2111 27.4167 25.0702 27.3977C24.9292 27.3788 24.8165 27.271 24.7913 27.131L23.9251 22.3167C23.9084 22.2237 23.9326 22.128 23.9916 22.0542C24.0506 21.9804 24.1386 21.9356 24.233 21.9314L33.595 21.515C33.7295 21.509 33.854 21.5859 33.9088 21.7089ZM24.6363 22.5694L25.2561 26.0138L26.2007 24.0334C26.2776 23.8722 26.4695 23.8023 26.6321 23.8763L29.7551 25.2972L32.7923 22.2066L24.6363 22.5694Z" fill="#CD6116"/>
<path d="M13.5872 25.69L16.9189 24.174L18.2849 27.0726L19.1678 22.2583L9.78906 21.8419L13.5872 25.69Z" fill="#CD6116"/>
<path fill-rule="evenodd" clip-rule="evenodd" d="M9.4882 21.7092C9.54292 21.5861 9.66748 21.509 9.80212 21.515L19.1808 21.9314C19.2754 21.9356 19.3636 21.9806 19.4226 22.0546C19.4816 22.1287 19.5056 22.2247 19.4885 22.3178L18.6056 27.1321C18.58 27.2721 18.4668 27.3795 18.3257 27.3979C18.1846 27.4163 18.0477 27.3414 17.987 27.2127L16.7588 24.6065L13.7214 25.9886C13.5963 26.0455 13.4491 26.0183 13.3525 25.9205L9.55442 22.0724C9.45975 21.9765 9.43347 21.8324 9.4882 21.7092ZM10.6075 22.2066L13.6582 25.2974L16.7817 23.8763C16.9449 23.802 17.1374 23.8727 17.2138 24.0348L18.1451 26.011L18.7762 22.5693L10.6075 22.2066Z" fill="#CD6116"/>
<path d="M9.78906 21.8416L13.7205 29.5045L13.5872 25.6897L9.78906 21.8416Z" fill="#E4751F"/>
<path fill-rule="evenodd" clip-rule="evenodd" d="M9.59749 21.5766C9.72851 21.4818 9.90912 21.4968 10.0227 21.6119L13.8209 25.46C13.8786 25.5185 13.9122 25.5965 13.9151 25.6787L14.0484 29.4935C14.0537 29.6468 13.9519 29.7834 13.8034 29.822C13.6549 29.8606 13.4995 29.791 13.4295 29.6545L9.49807 21.9916C9.42424 21.8477 9.46647 21.6714 9.59749 21.5766ZM11.0546 23.5901L13.3423 28.0491L13.2647 25.8293L11.0546 23.5901Z" fill="#E4751F"/>
<path d="M29.8297 25.6897L29.6631 29.5045L33.6111 21.8416L29.8297 25.6897Z" fill="#E4751F"/>
<path fill-rule="evenodd" clip-rule="evenodd" d="M33.8017 21.5766C33.9329 21.6715 33.9751 21.8481 33.9009 21.9921L29.9528 29.655C29.8824 29.7918 29.7262 29.8611 29.5775 29.8215C29.4288 29.782 29.3276 29.6444 29.3343 29.4906L29.5009 25.6758C29.5044 25.595 29.5378 25.5182 29.5945 25.4605L33.376 21.6124C33.4895 21.4969 33.6704 21.4816 33.8017 21.5766ZM30.15 25.8301L30.054 28.0279L32.3287 23.613L30.15 25.8301Z" fill="#E4751F"/>
<path d="M19.169 22.2593L18.2861 27.0736L19.3856 32.7542L19.6355 25.2745L19.169 22.2593Z" fill="#E4751F"/>
<path fill-rule="evenodd" clip-rule="evenodd" d="M19.1741 21.9301C19.3339 21.9323 19.4688 22.0496 19.4933 22.2076L19.9597 25.2228C19.9628 25.2429 19.9641 25.2634 19.9634 25.2838L19.7135 32.7634C19.7079 32.9301 19.5781 33.0659 19.4119 33.0791C19.2457 33.0922 19.0961 32.9784 19.0644 32.8147L17.965 27.1342C17.9572 27.0941 17.957 27.053 17.9644 27.0129L18.8473 22.1986C18.8761 22.0413 19.0142 21.9279 19.1741 21.9301ZM18.62 27.0703L19.1556 29.8378L19.3075 25.2926L19.1421 24.2234L18.62 27.0703Z" fill="#E4751F"/>
<path d="M24.2486 22.2593L23.7988 25.2579L23.9987 32.7542L25.1148 27.0736L24.2486 22.2593Z" fill="#E4751F"/>
<path fill-rule="evenodd" clip-rule="evenodd" d="M24.2443 21.9301C24.4046 21.9278 24.5431 22.0418 24.5715 22.1997L25.4377 27.0139C25.445 27.054 25.4446 27.0951 25.4368 27.1351L24.3207 32.8156C24.2885 32.9795 24.1382 33.0929 23.9718 33.079C23.8054 33.065 23.6761 32.9281 23.6717 32.7612L23.4718 25.2649C23.4713 25.2457 23.4725 25.2266 23.4753 25.2076L23.9251 22.2091C23.9489 22.0505 24.084 21.9324 24.2443 21.9301ZM24.2784 24.2707L24.1276 25.2763L24.2479 29.7876L24.782 27.0693L24.2784 24.2707Z" fill="#E4751F"/>
<path d="M25.1142 27.0727L23.998 32.7532L24.7977 33.303L29.6619 29.5048L29.8285 25.6901L25.1142 27.0727Z" fill="#F6851B"/>
<path fill-rule="evenodd" clip-rule="evenodd" d="M30.031 25.4323C30.1143 25.4975 30.1609 25.5989 30.1563 25.7045L29.9897 29.5193C29.9855 29.6151 29.9396 29.7042 29.864 29.7632L24.9998 33.5614C24.8871 33.6493 24.7303 33.6541 24.6125 33.5731L23.8129 33.0234C23.7053 32.9494 23.6519 32.8184 23.6771 32.6902L24.7932 27.0097C24.8167 26.8898 24.9051 26.7929 25.0224 26.7585L29.7368 25.3759C29.8382 25.3461 29.9478 25.3671 30.031 25.4323ZM25.3978 27.3313L24.3615 32.6054L24.7858 32.8971L29.3417 29.3398L29.4817 26.1335L25.3978 27.3313Z" fill="#F6851B"/>
<path d="M13.5859 25.6901L13.7192 29.5048L18.5835 33.303L19.3831 32.7532L18.2836 27.0727L13.5859 25.6901Z" fill="#F6851B"/>
<path fill-rule="evenodd" clip-rule="evenodd" d="M13.3856 25.4314C13.4688 25.3668 13.5779 25.3462 13.6789 25.3759L18.3766 26.7586C18.4941 26.7932 18.5825 26.8904 18.6057 27.0106L19.7052 32.6912C19.73 32.8191 19.6765 32.9495 19.5692 33.0234L18.7696 33.5731C18.6517 33.6541 18.495 33.6493 18.3823 33.5614L13.518 29.7632C13.4417 29.7036 13.3956 29.6133 13.3923 29.5165L13.259 25.7017C13.2553 25.5965 13.3024 25.4959 13.3856 25.4314ZM13.9297 26.1328L14.0418 29.3408L18.5963 32.8971L19.0211 32.605L18.0003 27.3309L13.9297 26.1328Z" fill="#F6851B"/>
<path d="M25.1981 38.5327L25.248 36.9835L24.8316 36.617H18.5513L18.1682 36.9835L18.2015 38.5327L12.9541 36.0506L14.7865 37.5499L18.5014 40.1319H24.8815L28.613 37.5499L30.4455 36.0506L25.1981 38.5327Z" fill="#C0AD9E"/>
<path fill-rule="evenodd" clip-rule="evenodd" d="M12.6777 35.8763C12.7661 35.7364 12.945 35.6844 13.0947 35.7552L17.8631 38.0107L17.8411 36.9913C17.8392 36.8994 17.8758 36.811 17.9422 36.7475L18.3254 36.381C18.3863 36.3227 18.4674 36.2901 18.5518 36.2901H24.832C24.9117 36.2901 24.9887 36.3192 25.0485 36.3718L25.4649 36.7383C25.5384 36.8029 25.5791 36.897 25.576 36.9948L25.5433 38.008L30.3059 35.7552C30.4555 35.6844 30.6344 35.7364 30.7229 35.8763C30.8113 36.0162 30.7815 36.2001 30.6534 36.3049L28.821 37.8042C28.8142 37.8097 28.8072 37.815 28.7999 37.82L25.0684 40.4021C25.0137 40.44 24.9486 40.4603 24.882 40.4603H18.5018C18.435 40.4603 18.3697 40.4398 18.3149 40.4017L14.6 37.8196C14.593 37.8147 14.5862 37.8096 14.5796 37.8042L12.7471 36.3049C12.619 36.2001 12.5892 36.0162 12.6777 35.8763ZM15.3675 37.5551L18.6045 39.8051H24.7797L28.0274 37.5578L25.3386 38.8296C25.2354 38.8784 25.1143 38.87 25.0188 38.8074C24.9234 38.7448 24.8674 38.637 24.8711 38.5229L24.9161 37.1281L24.7084 36.9454H18.6833L18.4993 37.1213L18.5295 38.5264C18.532 38.6399 18.4755 38.7466 18.3802 38.8084C18.285 38.8701 18.1645 38.8782 18.0619 38.8296L15.3675 37.5551Z" fill="#C0AD9E"/>
<path d="M24.799 33.3017L23.9994 32.752H19.385L18.5854 33.3017L18.1689 36.9833L18.5521 36.6168H24.8323L25.2488 36.9833L24.799 33.3017Z" fill="#161616"/>
<path fill-rule="evenodd" clip-rule="evenodd" d="M19.1979 32.4846C19.2525 32.447 19.3173 32.4269 19.3835 32.4269H23.9979C24.0642 32.4269 24.1289 32.447 24.1835 32.4846L24.9831 33.0343C25.0605 33.0875 25.1113 33.1713 25.1227 33.2646L25.5725 36.9461C25.589 37.081 25.5204 37.2121 25.4002 37.2756C25.2799 37.339 25.133 37.3216 25.0309 37.2317L24.7072 36.9469H18.6821L18.3939 37.2225C18.2943 37.3179 18.1456 37.3406 18.022 37.2793C17.8984 37.2181 17.8264 37.086 17.8419 36.949L18.2584 33.2675C18.2691 33.1731 18.3201 33.0881 18.3983 33.0343L19.1979 32.4846ZM19.4853 33.0822L18.8927 33.4896L18.5757 36.2917H24.8309C24.8314 36.2917 24.8319 36.2917 24.8325 36.2917L24.4902 33.4906L23.8962 33.0822H19.4853Z" fill="#161616"/>
<path d="M41.5239 13.8641L42.9399 7.06746L40.8243 0.753906L24.7988 12.648L30.9625 17.8621L39.6748 20.4109L41.6072 18.162L40.7743 17.5623L42.1069 16.3462L41.0741 15.5466L42.4068 14.5304L41.5239 13.8641Z" fill="#763D16"/>
<path fill-rule="evenodd" clip-rule="evenodd" d="M40.921 0.439755C41.0211 0.471213 41.1001 0.548717 41.1334 0.648209L43.249 6.96176C43.2675 7.01683 43.271 7.07582 43.2591 7.13267L41.8855 13.7261L42.6027 14.2673C42.6845 14.3291 42.7327 14.4255 42.7329 14.528C42.7332 14.6305 42.6855 14.7272 42.604 14.7894L41.6104 15.547L42.306 16.0856C42.3825 16.1448 42.4289 16.2347 42.4328 16.3314C42.4367 16.428 42.3977 16.5214 42.3263 16.5866L41.2918 17.5306L41.7971 17.8945C41.8716 17.9481 41.9202 18.0305 41.931 18.1217C41.9419 18.2128 41.914 18.3043 41.8542 18.3739L39.9218 20.6228C39.838 20.7204 39.7048 20.7598 39.5814 20.7237L30.869 18.175C30.8251 18.1621 30.7843 18.1402 30.7494 18.1107L24.5858 12.8966C24.5094 12.832 24.4667 12.736 24.4699 12.636C24.4731 12.536 24.5218 12.443 24.6021 12.3834L40.6275 0.489227C40.7118 0.426691 40.8209 0.408297 40.921 0.439755ZM25.3244 12.6632L31.1196 17.5656L39.5625 20.0355L41.1246 18.2177L40.5814 17.8265C40.5013 17.7689 40.4514 17.6782 40.4457 17.5796C40.44 17.4811 40.4791 17.3852 40.552 17.3187L41.5969 16.3652L40.8721 15.8041C40.7916 15.7418 40.7447 15.6456 40.745 15.5438C40.7454 15.442 40.7931 15.3462 40.874 15.2845L41.8633 14.5302L41.3251 14.124C41.2239 14.0476 41.1758 13.9198 41.2017 13.7957L42.5996 7.08586L40.6556 1.2844L25.3244 12.6632Z" fill="#763D16"/>
<path d="M0.459961 7.06746L1.87593 13.8641L0.976374 14.5304L2.30905 15.5466L1.29288 16.3462L2.62556 17.5623L1.79264 18.162L3.70836 20.4109L12.4207 17.8621L18.5844 12.648L2.55893 0.753906L0.459961 7.06746Z" fill="#763D16"/>
<path fill-rule="evenodd" clip-rule="evenodd" d="M2.4608 0.439872C2.561 0.408254 2.67028 0.426609 2.75465 0.489227L18.7801 12.3834C18.8604 12.443 18.9091 12.536 18.9123 12.636C18.9155 12.736 18.8728 12.832 18.7964 12.8966L12.6328 18.1107C12.5978 18.1402 12.5571 18.1621 12.5132 18.175L3.80081 20.7237C3.67686 20.76 3.54318 20.72 3.45943 20.6217L1.54371 18.3728C1.48436 18.3032 1.45686 18.2118 1.46787 18.121C1.47888 18.0301 1.5274 17.948 1.60168 17.8945L2.10706 17.5306L1.07252 16.5866C1.00141 16.5217 0.962441 16.4289 0.965953 16.3327C0.969465 16.2365 1.01511 16.1467 1.09076 16.0871L1.77455 15.5491L0.778193 14.7894C0.696284 14.7269 0.648517 14.6296 0.649233 14.5266C0.649949 14.4236 0.699065 14.3269 0.781835 14.2656L1.5129 13.7241L0.139699 7.13267C0.127907 7.07607 0.131304 7.01736 0.149543 6.9625L2.24851 0.648946C2.28165 0.549245 2.36061 0.47149 2.4608 0.439872ZM2.72752 1.28508L0.799161 7.08545L2.19713 13.7957C2.2232 13.9208 2.17411 14.0497 2.0714 14.1258L1.52213 14.5326L2.50816 15.2845C2.58874 15.3459 2.63635 15.4412 2.63712 15.5425C2.6379 15.6438 2.59174 15.7398 2.51211 15.8025L1.79965 16.3631L2.84686 17.3187C2.91977 17.3852 2.9588 17.4811 2.9531 17.5796C2.94739 17.6782 2.89756 17.7689 2.81745 17.8265L2.27302 18.2185L3.82057 20.0352L12.2626 17.5656L18.0577 12.6632L2.72752 1.28508Z" fill="#763D16"/>
<path d="M39.6748 20.4088L30.9624 17.86L33.6111 21.8414L29.6631 29.5043L34.8605 29.4377H42.6067L39.6748 20.4088Z" fill="#F6851B"/>
<path fill-rule="evenodd" clip-rule="evenodd" d="M30.697 17.6664C30.7786 17.5555 30.9208 17.5074 31.0529 17.5461L39.7653 20.0948C39.8693 20.1252 39.9515 20.2051 39.9849 20.3081L42.9168 29.337C42.9492 29.4367 42.9319 29.5459 42.8702 29.6307C42.8086 29.7156 42.7101 29.7658 42.6052 29.7658H34.8612L29.6658 29.8324C29.5508 29.8338 29.4435 29.7749 29.383 29.6771C29.3225 29.5793 29.3177 29.457 29.3704 29.3547L33.2302 21.863L30.6882 18.042C30.6119 17.9274 30.6155 17.7773 30.697 17.6664ZM31.7315 18.4273L33.8824 21.6604C33.9483 21.7594 33.9553 21.8863 33.9009 21.992L30.2025 29.1702L34.859 29.1105L42.1544 29.1105L39.4152 20.6751L31.7315 18.4273Z" fill="#F6851B"/>
<path d="M12.4205 17.86L3.70814 20.4088L0.80957 29.4377H8.53909L13.7199 29.5043L9.78847 21.8414L12.4205 17.86Z" fill="#F6851B"/>
<path fill-rule="evenodd" clip-rule="evenodd" d="M12.6846 17.666C12.7662 17.7767 12.7701 17.9265 12.6943 18.0412L10.1679 21.8628L14.0118 29.3552C14.0643 29.4575 14.0593 29.5797 13.9988 29.6774C13.9383 29.775 13.831 29.8339 13.7161 29.8324L8.53739 29.7658H0.810041C0.705372 29.7658 0.607004 29.7158 0.545333 29.6312C0.483661 29.5466 0.466111 29.4377 0.498105 29.338L3.39668 20.3091C3.4299 20.2056 3.5123 20.1254 3.61662 20.0948L12.329 17.5461C12.461 17.5075 12.603 17.5554 12.6846 17.666ZM3.96742 20.6749L1.2593 29.1105H8.54378L13.1805 29.1702L9.49745 21.9915C9.44344 21.8862 9.4504 21.7599 9.51565 21.6612L11.6543 18.4262L3.96742 20.6749Z" fill="#F6851B"/>
<path d="M24.2486 22.2581L24.7983 12.6462L27.3304 5.79956H16.0859L18.5847 12.6462L19.1678 22.2581L19.3677 25.2899L19.3843 32.7529H23.9987L24.032 25.2899L24.2486 22.2581Z" fill="#F6851B"/>
<path fill-rule="evenodd" clip-rule="evenodd" d="M15.816 5.61217C15.8773 5.52454 15.9775 5.47235 16.0845 5.47235H27.3289C27.4361 5.47235 27.5365 5.52479 27.5978 5.61275C27.659 5.70071 27.6734 5.81307 27.6362 5.91361L25.1211 12.7142L24.5739 22.2819L24.3581 25.3028L24.3248 32.7548C24.324 32.9352 24.1776 33.081 23.9972 33.081H19.3828C19.2022 33.081 19.0556 32.9347 19.0552 32.7541L19.0386 25.3015L18.8394 22.2801L18.2591 12.7141L15.7767 5.91229C15.74 5.81183 15.7547 5.6998 15.816 5.61217ZM16.5528 6.12758L18.891 12.5343C18.9018 12.564 18.9083 12.5952 18.9102 12.6268L19.4932 22.237L19.6931 25.2688C19.6935 25.2757 19.6938 25.2827 19.6938 25.2896L19.7097 32.4257H23.6711L23.7029 25.2889C23.703 25.2816 23.7032 25.2743 23.7038 25.267L23.9202 22.2375L24.4697 12.6279C24.4716 12.5954 24.4783 12.5634 24.4896 12.533L26.8584 6.12758H16.5528Z" fill="#F6851B"/>
</svg>
