<svg width="84"  height="96" viewBox="0 0 84 96" fill="none" xmlns="http://www.w3.org/2000/svg">
<path class="frameTwitter dsa" d="M82 71.0001L82 24.9999L42 2L2.00001 24.9999L2 71.0001L42 94L82 71.0001Z"  fill="#181919"  stroke="#C71A33" stroke-width="3"/>
<g filter="url(#filter0_f_825_2280)">
<path  d="M62.08 37.3265C60.7112 37.9177 59.2526 38.3096 57.732 38.4998C59.2963 37.5802 60.4903 36.135 61.0517 34.3931C59.5931 35.2494 57.9827 35.8542 56.2665 36.1917C54.8816 34.7397 52.9078 33.8405 50.7545 33.8405C46.5767 33.8405 43.2133 37.1793 43.2133 41.2724C43.2133 41.8613 43.2639 42.4276 43.3882 42.9667C37.1146 42.6654 31.5634 39.7049 27.8343 35.195C27.1832 36.3072 26.8013 37.5802 26.8013 38.9506C26.8013 41.5238 28.1471 43.8048 30.1532 45.1254C28.9408 45.1027 27.7515 44.7562 26.7438 44.2103C26.7438 44.2329 26.7438 44.2624 26.7438 44.2918C26.7438 47.9024 29.3595 50.9015 32.7896 51.5924C32.1754 51.7577 31.5059 51.837 30.8112 51.837C30.3281 51.837 29.8403 51.8098 29.3825 51.7101C30.3603 54.6526 33.1347 56.8158 36.4337 56.886C33.8663 58.8634 30.6064 60.0549 27.0774 60.0549C26.4586 60.0549 25.865 60.0277 25.2715 59.953C28.6142 62.0754 32.5757 63.2873 36.8478 63.2873C50.7338 63.2873 58.3255 51.9616 58.3255 42.1445C58.3255 41.816 58.314 41.4989 58.2979 41.184C59.7956 40.1375 61.054 38.8306 62.08 37.3265Z" fill="#1E9CEA"/>
</g>
<g filter="url(#filter1_d_825_2280)">
<path  d="M63 36.0961C61.3916 36.7908 59.6779 37.2512 57.8911 37.4748C59.7292 36.3942 61.1321 34.6961 61.7917 32.6494C60.0779 33.6555 58.1857 34.3661 56.1692 34.7627C54.5419 33.0566 52.2226 32 49.6925 32C44.7836 32 40.8317 35.9231 40.8317 40.7325C40.8317 41.4245 40.8911 42.0899 41.0371 42.7233C33.6657 42.3694 27.143 38.8907 22.7613 33.5916C21.9963 34.8984 21.5476 36.3942 21.5476 38.0044C21.5476 41.0279 23.1289 43.7081 25.486 45.2598C24.0615 45.2332 22.664 44.826 21.48 44.1845C21.48 44.2111 21.48 44.2457 21.48 44.2803C21.48 48.5228 24.5535 52.0467 28.5838 52.8585C27.8621 53.0528 27.0755 53.1459 26.2591 53.1459C25.6915 53.1459 25.1184 53.114 24.5805 52.9969C25.7293 56.4542 28.9893 58.996 32.8656 59.0785C29.8489 61.402 26.0185 62.802 21.872 62.802C21.1448 62.802 20.4474 62.77 19.75 62.6822C23.6776 65.1761 28.3324 66.6 33.3521 66.6C49.6682 66.6 58.5885 53.2923 58.5885 41.7572C58.5885 41.3713 58.575 40.9987 58.5561 40.6287C60.3158 39.3991 61.7944 37.8634 63 36.0961Z" fill="#1E9CEA"/>
<path d="M32.8771 58.538C29.5536 58.4672 26.7129 56.4725 25.4217 53.6585C25.7041 53.6794 25.9852 53.6865 26.2591 53.6865C27.1156 53.6865 27.9502 53.5889 28.7243 53.3805L28.6906 52.3285C25.1516 51.6157 22.4064 48.681 22.058 45.061C23.1127 45.5059 24.283 45.778 25.4759 45.8003L27.3434 45.8352L25.7833 44.8082C23.5692 43.3507 22.0882 40.8357 22.0882 38.0044C22.0882 36.7697 22.3697 35.6055 22.8674 34.5486C27.3307 39.6155 33.7705 42.9156 41.0112 43.2633L41.7242 43.2976L41.5639 42.6019C41.4293 42.0175 41.3723 41.3943 41.3723 40.7325C41.3723 36.228 45.0759 32.5406 49.6925 32.5406C52.0708 32.5406 54.2499 33.5338 55.778 35.1358L55.9826 35.3503L56.2735 35.2931C57.8252 34.988 59.3073 34.5016 60.6958 33.8413C59.9848 35.1516 58.9183 36.2438 57.6171 37.0087L57.9582 38.0112C59.1546 37.8615 60.3204 37.6083 61.4461 37.2519C60.5113 38.3618 59.4456 39.3476 58.2464 40.1856L58.0008 40.3571L58.0161 40.6563C58.0348 41.0211 58.0479 41.3838 58.0479 41.7572C58.0479 53.0515 49.3149 66.0594 33.3521 66.0594C29.2442 66.0594 25.3885 65.0859 21.9901 63.3422C26.2141 63.3159 30.1157 61.8789 33.1955 59.5068L34.4109 58.5706L32.8771 58.538Z" stroke="url(#paint0_linear_825_2280)" stroke-width="1.08125"/>
</g>
<defs>
<filter id="filter0_f_825_2280" x="12.3885" y="20.9575" width="62.5746" height="55.2128" filterUnits="userSpaceOnUse" color-interpolation-filters="sRGB">
<feFlood flood-opacity="0" result="BackgroundImageFix"/>
<feBlend mode="normal" in="SourceGraphic" in2="BackgroundImageFix" result="shape"/>
<feGaussianBlur stdDeviation="6.44149" result="effect1_foregroundBlur_825_2280"/>
</filter>
<filter id="filter1_d_825_2280" x="13.2625" y="30.9187" width="56.225" height="47.575" filterUnits="userSpaceOnUse" color-interpolation-filters="sRGB">
<feFlood flood-opacity="0" result="BackgroundImageFix"/>
<feColorMatrix in="SourceAlpha" type="matrix" values="0 0 0 0 0 0 0 0 0 0 0 0 0 0 0 0 0 0 127 0" result="hardAlpha"/>
<feOffset dy="5.40625"/>
<feGaussianBlur stdDeviation="3.24375"/>
<feComposite in2="hardAlpha" operator="out"/>
<feColorMatrix type="matrix" values="0 0 0 0 0 0 0 0 0 0 0 0 0 0 0 0 0 0 0.45 0"/>
<feBlend mode="normal" in2="BackgroundImageFix" result="effect1_dropShadow_825_2280"/>
<feBlend mode="normal" in="SourceGraphic" in2="effect1_dropShadow_825_2280" result="shape"/>
</filter>
<linearGradient id="paint0_linear_825_2280" x1="39.2125" y1="38.4875" x2="41.375" y2="66.6" gradientUnits="userSpaceOnUse">
<stop stop-color="#5AC0FF"/>
<stop offset="1" stop-color="#5AC0FF" stop-opacity="0"/>
</linearGradient>
</defs>
</svg>
