<svg width="84" height="96" viewBox="0 0 84 96" fill="none" xmlns="http://www.w3.org/2000/svg">
<path d="M82 71.0001L82 24.9999L42 2L2.00001 24.9999L2 71.0001L42 94L82 71.0001Z" fill="url(#paint0_radial_825_2424)"/>
<path fill-rule="evenodd" class="frame" clip-rule="evenodd" d="M83.5 24.1321L83.5 71.8679L42 95.7303L0.500004 71.8679L0.500007 24.1321L42 0.269713L83.5 24.1321ZM80.5 25.8677L42 3.73029L3.50001 25.8677L3.5 70.1323L42 92.2697L80.5 70.1323L80.5 25.8677Z" fill="#C71A33"/>
<path d="M20.8181 48.6282C31.8261 43.8333 39.1647 40.6719 42.834 39.1446C53.3228 34.7833 55.4996 34.0259 56.9213 34.0002C57.2339 33.9952 57.9301 34.0725 58.3843 34.4397C58.7618 34.7494 58.868 35.1683 58.9211 35.4623C58.9683 35.7561 59.0332 36.4257 58.9801 36.9484C58.4138 42.9184 55.9538 57.4056 54.7032 64.0924C54.1782 66.9217 53.134 67.8702 52.1252 67.9629C49.9307 68.1646 48.2672 66.514 46.1434 65.1224C42.8222 62.9438 40.9462 61.5882 37.7194 59.4627C33.9911 57.0063 36.4097 55.6559 38.5335 53.4496C39.088 52.8721 48.7509 44.0852 48.9338 43.2882C48.9574 43.1885 48.981 42.8169 48.7568 42.621C48.5385 42.4246 48.2141 42.4918 47.9781 42.5449C47.6418 42.6204 42.3384 46.1293 32.0502 53.0709C30.5459 54.1056 29.1832 54.61 27.9562 54.5835C26.6112 54.5545 24.0155 53.8213 22.0865 53.1948C19.7268 52.4261 17.8449 52.0197 18.0101 50.7142C18.0927 50.0346 19.0307 49.3391 20.8181 48.6282Z" fill="#1A1E21"/>
<path d="M20.8181 46.6282C31.8261 41.8333 39.1647 38.6719 42.834 37.1446C53.3228 32.7833 55.4996 32.0259 56.9213 32.0002C57.2339 31.9952 57.9301 32.0725 58.3843 32.4397C58.7618 32.7494 58.868 33.1683 58.9211 33.4623C58.9683 33.7561 59.0332 34.4257 58.9801 34.9484C58.4138 40.9184 55.9538 55.4056 54.7032 62.0924C54.1782 64.9217 53.134 65.8702 52.1252 65.9629C49.9307 66.1646 48.2672 64.514 46.1434 63.1224C42.8222 60.9438 40.9462 59.5882 37.7194 57.4627C33.9911 55.0063 36.4097 53.6559 38.5335 51.4496C39.088 50.8721 48.7509 42.0852 48.9338 41.2882C48.9574 41.1885 48.981 40.8169 48.7568 40.621C48.5385 40.4246 48.2141 40.4918 47.9781 40.5449C47.6418 40.6204 42.3384 44.1293 32.0502 51.0709C30.5459 52.1056 29.1832 52.61 27.9562 52.5835C26.6112 52.5545 24.0155 51.8213 22.0865 51.1948C19.7268 50.4261 17.8449 50.0197 18.0101 48.7142C18.0927 48.0346 19.0307 47.3391 20.8181 46.6282Z" fill="#1DA6FF"/>
<path fill-rule="evenodd" clip-rule="evenodd" d="M42.834 37.1446C39.1647 38.6719 31.8261 41.8333 20.8181 46.6282C19.0307 47.3391 18.0927 48.0346 18.0101 48.7142C17.9756 48.9865 18.0303 49.2197 18.1597 49.4252C18.5917 49.1617 19.1446 48.8961 19.8181 48.6282C30.8261 43.8333 38.1647 40.6719 41.834 39.1446C52.3228 34.7833 54.4996 34.0259 55.9213 34.0002C56.2339 33.9952 56.9301 34.0725 57.3843 34.4397C57.7618 34.7494 57.868 35.1683 57.9211 35.4623C57.9683 35.7561 58.0332 36.4257 57.9801 36.9484C57.4138 42.9184 54.9538 57.4056 53.7032 64.0924C53.6233 64.5229 53.5314 64.9099 53.4294 65.257C53.9519 64.6723 54.409 63.6775 54.7032 62.0924C55.9538 55.4056 58.4138 40.9184 58.9801 34.9484C59.0332 34.4257 58.9683 33.7561 58.9211 33.4623C58.868 33.1683 58.7618 32.7494 58.3843 32.4397C57.9301 32.0725 57.2339 31.9952 56.9213 32.0002C55.4996 32.0259 53.3228 32.7833 42.834 37.1446ZM35.7851 55.1833C36.0448 54.9068 36.3382 54.624 36.6447 54.3286C36.935 54.0487 37.2371 53.7575 37.5335 53.4496C37.6661 53.3115 38.3198 52.7037 39.2403 51.8479C42.1682 49.1257 47.7946 43.8946 47.9338 43.2882C47.9563 43.1929 47.9789 42.8488 47.7848 42.6477C45.9565 44.5333 42.3787 47.8597 40.2403 49.8479C39.3198 50.7037 38.6661 51.3115 38.5335 51.4496C38.2371 51.7575 37.935 52.0487 37.6447 52.3286C36.5908 53.3445 35.6918 54.2111 35.7851 55.1833Z" fill="#63C1FF"/>
<defs>
<radialGradient id="paint0_radial_825_2424" cx="0" cy="0" r="1" gradientUnits="userSpaceOnUse" gradientTransform="translate(42 48) rotate(-180) scale(40 46)">
<stop stop-color="#093856"/>
<stop offset="1" stop-color="#181919"/>
</radialGradient>
</defs>
</svg>
