<svg width="31" height="31" viewBox="0 0 31 31" fill="none" xmlns="http://www.w3.org/2000/svg">
<path fill-opacity="0.6" d="M6.83542 24.1125H23.4027C23.7341 24.1125 23.9826 23.9606 24.1483 23.6569C24.3139 23.3531 24.2863 23.0632 24.0654 22.7871L19.5094 16.6986C19.3437 16.4777 19.1228 16.3672 18.8467 16.3672C18.5706 16.3672 18.3497 16.4777 18.184 16.6986L13.8765 22.4557L10.8116 18.3553C10.6459 18.1344 10.425 18.024 10.1489 18.024C9.87276 18.024 9.65187 18.1344 9.48619 18.3553L6.17273 22.7871C5.95183 23.0632 5.92422 23.3531 6.08989 23.6569C6.25557 23.9606 6.50408 24.1125 6.83542 24.1125ZM3.52196 30.7394C2.61076 30.7394 1.83044 30.4152 1.181 29.7669C0.532663 29.1174 0.208496 28.3371 0.208496 27.4259V4.23168C0.208496 3.32047 0.532663 2.54015 1.181 1.89071C1.83044 1.24238 2.61076 0.918213 3.52196 0.918213H26.7162C27.6274 0.918213 28.4077 1.24238 29.0572 1.89071C29.7055 2.54015 30.0297 3.32047 30.0297 4.23168V27.4259C30.0297 28.3371 29.7055 29.1174 29.0572 29.7669C28.4077 30.4152 27.6274 30.7394 26.7162 30.7394H3.52196ZM3.52196 27.4259H26.7162V4.23168H3.52196V27.4259Z" fill="white"/>
</svg>
