<svg width="149" height="149" viewBox="0 0 149 149" fill="none" xmlns="http://www.w3.org/2000/svg">
<rect x="80.2817" y="-6.10352e-05" width="4.01408" height="4.01408" fill="#343435"/>
<rect x="32.1128" width="4.01408" height="4.01408" fill="#343435"/>
<rect x="96.3384" width="4.01408" height="4.01408" fill="#343435"/>
<rect x="48.1689" width="4.01408" height="4.01408" fill="#343435"/>
<rect x="112.394" y="-6.10352e-05" width="4.01408" height="4.01408" fill="#343435"/>
<rect x="144.507" width="4.01408" height="4.01408" fill="#343435"/>
<rect x="32.1128" width="4.01408" height="4.01408" fill="#0DE463"/>
<rect x="96.3384" width="4.01408" height="4.01408" fill="#343435"/>
<rect x="48.1689" width="4.01408" height="4.01408" fill="#343435"/>
<rect x="112.394" y="-6.10352e-05" width="4.01408" height="4.01408" fill="#343435"/>
<rect x="144.507" width="4.01408" height="4.01408" fill="#12F36C"/>
<rect x="64.2251" y="16.0566" width="4.01408" height="4.01408" fill="#343435"/>
<rect x="16.0566" y="16.0566" width="4.01408" height="4.01408" fill="#343435"/>
<rect x="80.2817" y="16.0566" width="4.01408" height="4.01408" fill="#343435"/>
<rect x="96.3384" y="16.0566" width="4.01408" height="4.01408" fill="#343435"/>
<rect x="48.1689" y="16.0566" width="4.01408" height="4.01408" fill="#343435"/>
<rect x="112.394" y="16.0566" width="4.01408" height="4.01408" fill="#343435"/>
<rect x="144.507" y="16.0566" width="4.01408" height="4.01408" fill="#343435"/>
<rect x="96.3384" y="16.0566" width="4.01408" height="4.01408" fill="#12F36C"/>
<rect x="48.1689" y="16.0566" width="4.01408" height="4.01408" fill="#343435"/>
<rect x="112.394" y="16.0566" width="4.01408" height="4.01408" fill="#343435"/>
<rect x="144.507" y="16.0566" width="4.01408" height="4.01408" fill="#343435"/>
<rect y="32.1125" width="4.01408" height="4.01408" fill="#343435"/>
<rect x="64.2251" y="32.1125" width="4.01408" height="4.01408" fill="#343435"/>
<rect x="16.0566" y="32.1125" width="4.01408" height="4.01408" fill="#0DE463"/>
<rect x="80.2817" y="32.1125" width="4.01408" height="4.01408" fill="#343435"/>
<rect x="32.1128" y="32.1125" width="4.01408" height="4.01408" fill="#343435"/>
<rect x="96.3384" y="32.1125" width="4.01408" height="4.01408" fill="#343435"/>
<rect x="128.451" y="32.1125" width="4.01408" height="4.01408" fill="#343435"/>
<rect x="48.1689" y="32.1125" width="4.01408" height="4.01408" fill="#343435"/>
<rect x="112.394" y="32.1125" width="4.01408" height="4.01408" fill="#343435"/>
<rect x="144.507" y="32.1125" width="4.01408" height="4.01408" fill="#343435"/>
<rect x="32.1128" y="32.1125" width="4.01408" height="4.01408" fill="#343435"/>
<rect x="96.3384" y="32.1125" width="4.01408" height="4.01408" fill="#343435"/>
<rect x="128.451" y="32.1125" width="4.01408" height="4.01408" fill="#343435"/>
<rect x="48.1689" y="32.1125" width="4.01408" height="4.01408" fill="#343435"/>
<rect x="112.394" y="32.1125" width="4.01408" height="4.01408" fill="#343435"/>
<rect x="144.507" y="32.1125" width="4.01408" height="4.01408" fill="#343435"/>
<rect x="64.2251" y="48.1689" width="4.01408" height="4.01408" fill="#343435"/>
<rect x="16.0566" y="48.169" width="4.01408" height="4.01408" fill="#343435"/>
<rect x="80.2817" y="48.169" width="4.01408" height="4.01408" fill="#343435"/>
<rect x="32.1128" y="48.1689" width="4.01408" height="4.01408" fill="#343435"/>
<rect x="96.3384" y="48.1689" width="4.01408" height="4.01408" fill="#343435"/>
<rect x="48.1689" y="48.1689" width="4.01408" height="4.01408" fill="#343435"/>
<rect x="112.394" y="48.169" width="4.01408" height="4.01408" fill="#343435"/>
<rect x="32.1128" y="48.1689" width="4.01408" height="4.01408" fill="#343435"/>
<rect x="96.3384" y="48.1689" width="4.01408" height="4.01408" fill="#343435"/>
<rect x="48.1689" y="48.1689" width="4.01408" height="4.01408" fill="#343435"/>
<rect x="112.394" y="48.169" width="4.01408" height="4.01408" fill="#343435"/>
<rect y="64.2249" width="4.01408" height="4.01408" fill="#343435"/>
<rect x="64.2251" y="64.2249" width="4.01408" height="4.01408" fill="#343435"/>
<rect x="16.0566" y="64.2249" width="4.01408" height="4.01408" fill="#343435"/>
<rect x="80.2817" y="64.2249" width="4.01408" height="4.01408" fill="#343435"/>
<rect x="32.1128" y="64.2249" width="4.01408" height="4.01408" fill="#343435"/>
<rect x="96.3384" y="64.2249" width="4.01408" height="4.01408" fill="#343435"/>
<rect x="128.451" y="64.2249" width="4.01408" height="4.01408" fill="#343435"/>
<rect x="48.1689" y="64.2249" width="4.01408" height="4.01408" fill="#343435"/>
<rect x="112.394" y="64.2249" width="4.01408" height="4.01408" fill="#343435"/>
<rect x="144.507" y="64.2249" width="4.01408" height="4.01408" fill="#343435"/>
<rect x="32.1128" y="64.2249" width="4.01408" height="4.01408" fill="#343435"/>
<rect x="96.3384" y="64.2249" width="4.01408" height="4.01408" fill="#343435"/>
<rect x="128.451" y="64.2249" width="4.01408" height="4.01408" fill="#12F36C"/>
<rect x="48.1689" y="64.2249" width="4.01408" height="4.01408" fill="#343435"/>
<rect x="112.394" y="64.2249" width="4.01408" height="4.01408" fill="#343435"/>
<rect x="64.2251" y="80.2817" width="4.01408" height="4.01408" fill="#343435"/>
<rect x="16.0566" y="80.2817" width="4.01408" height="4.01408" fill="#12F36C"/>
<rect x="80.2817" y="80.2817" width="4.01408" height="4.01408" fill="#343435"/>
<rect x="32.1128" y="80.2817" width="4.01408" height="4.01408" fill="#343435"/>
<rect x="96.3384" y="80.2817" width="4.01408" height="4.01408" fill="#343435"/>
<rect x="128.451" y="80.2817" width="4.01408" height="4.01408" fill="#343435"/>
<rect x="48.1689" y="80.2817" width="4.01408" height="4.01408" fill="#343435"/>
<rect x="112.394" y="80.2817" width="4.01408" height="4.01408" fill="#343435"/>
<rect x="144.507" y="80.2817" width="4.01408" height="4.01408" fill="#343435"/>
<rect x="32.1128" y="80.2817" width="4.01408" height="4.01408" fill="#343435"/>
<rect x="96.3384" y="80.2817" width="4.01408" height="4.01408" fill="#343435"/>
<rect x="128.451" y="80.2817" width="4.01408" height="4.01408" fill="#343435"/>
<rect x="48.1689" y="80.2817" width="4.01408" height="4.01408" fill="#343435"/>
<rect x="112.394" y="80.2817" width="4.01408" height="4.01408" fill="#343435"/>
<rect x="144.507" y="80.2817" width="4.01408" height="4.01408" fill="#343435"/>
<rect y="96.3378" width="4.01408" height="4.01408" fill="#343435"/>
<rect x="64.2251" y="96.3379" width="4.01408" height="4.01408" fill="#343435"/>
<rect x="16.0566" y="96.3378" width="4.01408" height="4.01408" fill="#343435"/>
<rect x="80.2817" y="96.3378" width="4.01408" height="4.01408" fill="#343435"/>
<rect x="32.1128" y="96.3379" width="4.01408" height="4.01408" fill="#343435"/>
<rect x="96.3384" y="96.3379" width="4.01408" height="4.01408" fill="#343435"/>
<rect x="128.451" y="96.3379" width="4.01408" height="4.01408" fill="#343435"/>
<rect x="48.1689" y="96.3379" width="4.01408" height="4.01408" fill="#343435"/>
<rect x="112.394" y="96.3378" width="4.01408" height="4.01408" fill="#343435"/>
<rect x="32.1128" y="96.3379" width="4.01408" height="4.01408" fill="#343435"/>
<rect x="96.3384" y="96.3379" width="4.01408" height="4.01408" fill="#343435"/>
<rect x="128.451" y="96.3379" width="4.01408" height="4.01408" fill="#343435"/>
<rect x="48.1689" y="96.3379" width="4.01408" height="4.01408" fill="#343435"/>
<rect x="112.394" y="96.3378" width="4.01408" height="4.01408" fill="#12F36C"/>
<rect y="112.394" width="4.01408" height="4.01408" fill="#12F36C"/>
<rect x="64.2251" y="112.394" width="4.01408" height="4.01408" fill="#343435"/>
<rect x="80.2817" y="112.394" width="4.01408" height="4.01408" fill="#343435"/>
<rect x="32.1128" y="112.394" width="4.01408" height="4.01408" fill="#343435"/>
<rect x="96.3384" y="112.394" width="4.01408" height="4.01408" fill="#343435"/>
<rect x="128.451" y="112.394" width="4.01408" height="4.01408" fill="#343435"/>
<rect x="48.1689" y="112.394" width="4.01408" height="4.01408" fill="#343435"/>
<rect x="112.394" y="112.394" width="4.01408" height="4.01408" fill="#343435"/>
<rect x="144.507" y="112.394" width="4.01408" height="4.01408" fill="#343435"/>
<rect x="32.1128" y="112.394" width="4.01408" height="4.01408" fill="#343435"/>
<rect x="96.3384" y="112.394" width="4.01408" height="4.01408" fill="#343435"/>
<rect x="128.451" y="112.394" width="4.01408" height="4.01408" fill="#343435"/>
<rect x="48.1689" y="112.394" width="4.01408" height="4.01408" fill="#343435"/>
<rect x="112.394" y="112.394" width="4.01408" height="4.01408" fill="#343435"/>
<rect x="64.2251" y="128.45" width="4.01408" height="4.01408" fill="#343435"/>
<rect x="16.0566" y="128.45" width="4.01408" height="4.01408" fill="#343435"/>
<rect x="80.2817" y="128.45" width="4.01408" height="4.01408" fill="#343435"/>
<rect x="32.1128" y="128.45" width="4.01408" height="4.01408" fill="#343435"/>
<rect x="128.451" y="128.45" width="4.01408" height="4.01408" fill="#343435"/>
<rect x="48.1689" y="128.45" width="4.01408" height="4.01408" fill="#343435"/>
<rect x="112.394" y="128.45" width="4.01408" height="4.01408" fill="#343435"/>
<rect x="144.507" y="128.45" width="4.01408" height="4.01408" fill="#343435"/>
<rect x="32.1128" y="128.45" width="4.01408" height="4.01408" fill="#3F3F44"/>
<rect x="128.451" y="128.45" width="4.01408" height="4.01408" fill="#12F36C"/>
<rect x="48.1689" y="128.45" width="4.01408" height="4.01408" fill="#343435"/>
<rect x="112.394" y="128.45" width="4.01408" height="4.01408" fill="#343435"/>
<rect x="144.507" y="128.45" width="4.01408" height="4.01408" fill="#343435"/>
<rect y="144.507" width="4.01408" height="4.01408" fill="#343435"/>
<rect x="64.2251" y="144.507" width="4.01408" height="4.01408" fill="#12F36C"/>
<rect x="16.0566" y="144.507" width="4.01408" height="4.01408" fill="#12F36C"/>
<rect x="96.3384" y="144.507" width="4.01408" height="4.01408" fill="#343435"/>
<rect x="48.1689" y="144.507" width="4.01408" height="4.01408" fill="#343435"/>
<rect x="112.394" y="144.507" width="4.01408" height="4.01408" fill="#343435"/>
<rect x="96.3384" y="144.507" width="4.01408" height="4.01408" fill="#343435"/>
<rect x="48.1689" y="144.507" width="4.01408" height="4.01408" fill="#343435"/>
<rect x="112.394" y="144.507" width="4.01408" height="4.01408" fill="#343435"/>
<g filter="url(#filter0_dii_611_3688)">
<rect x="29.2603" y="30" width="89" height="89" rx="44.5" fill="#1B1B1F"/>
</g>
<g filter="url(#filter1_i_611_3688)">
<rect x="38.2603" y="39" width="71" height="71" rx="35.5" stroke="url(#paint0_linear_611_3688)" stroke-width="2"/>
</g>
<g clip-path="url(#clip0_611_3688)">
<g filter="url(#filter2_dii_611_3688)">
<path d="M68.8382 89.4992C68.4477 89.8897 67.8146 89.8897 67.424 89.4992L55.5799 77.655C55.1894 77.2645 55.1894 76.6313 55.5799 76.2408L60.0605 71.7602C60.4514 71.3693 61.0854 71.3697 61.4757 71.7612L67.4237 77.726C67.8142 78.1176 68.4484 78.1179 68.8392 77.7266L88.0449 58.5016C88.4353 58.1107 89.0688 58.1106 89.4594 58.5012L93.9407 62.9825C94.3312 63.373 94.3312 64.0062 93.9407 64.3967L68.8382 89.4992Z" fill="#12F36C"/>
</g>
</g>
<defs>
<filter id="filter0_dii_611_3688" x="15.2603" y="20" width="117" height="117" filterUnits="userSpaceOnUse" color-interpolation-filters="sRGB">
<feFlood flood-opacity="0" result="BackgroundImageFix"/>
<feColorMatrix in="SourceAlpha" type="matrix" values="0 0 0 0 0 0 0 0 0 0 0 0 0 0 0 0 0 0 127 0" result="hardAlpha"/>
<feOffset dy="4"/>
<feGaussianBlur stdDeviation="7"/>
<feComposite in2="hardAlpha" operator="out"/>
<feColorMatrix type="matrix" values="0 0 0 0 0 0 0 0 0 0 0 0 0 0 0 0 0 0 0.25 0"/>
<feBlend mode="normal" in2="BackgroundImageFix" result="effect1_dropShadow_611_3688"/>
<feBlend mode="normal" in="SourceGraphic" in2="effect1_dropShadow_611_3688" result="shape"/>
<feColorMatrix in="SourceAlpha" type="matrix" values="0 0 0 0 0 0 0 0 0 0 0 0 0 0 0 0 0 0 127 0" result="hardAlpha"/>
<feOffset dy="4"/>
<feGaussianBlur stdDeviation="2"/>
<feComposite in2="hardAlpha" operator="arithmetic" k2="-1" k3="1"/>
<feColorMatrix type="matrix" values="0 0 0 0 0.239583 0 0 0 0 0.239583 0 0 0 0 0.25 0 0 0 1 0"/>
<feBlend mode="normal" in2="shape" result="effect2_innerShadow_611_3688"/>
<feColorMatrix in="SourceAlpha" type="matrix" values="0 0 0 0 0 0 0 0 0 0 0 0 0 0 0 0 0 0 127 0" result="hardAlpha"/>
<feOffset dy="-3"/>
<feGaussianBlur stdDeviation="2"/>
<feComposite in2="hardAlpha" operator="arithmetic" k2="-1" k3="1"/>
<feColorMatrix type="matrix" values="0 0 0 0 0 0 0 0 0 0 0 0 0 0 0 0 0 0 0.25 0"/>
<feBlend mode="normal" in2="effect2_innerShadow_611_3688" result="effect3_innerShadow_611_3688"/>
</filter>
<filter id="filter1_i_611_3688" x="37.2603" y="38" width="73" height="74" filterUnits="userSpaceOnUse" color-interpolation-filters="sRGB">
<feFlood flood-opacity="0" result="BackgroundImageFix"/>
<feBlend mode="normal" in="SourceGraphic" in2="BackgroundImageFix" result="shape"/>
<feColorMatrix in="SourceAlpha" type="matrix" values="0 0 0 0 0 0 0 0 0 0 0 0 0 0 0 0 0 0 127 0" result="hardAlpha"/>
<feOffset dy="1"/>
<feGaussianBlur stdDeviation="0.5"/>
<feComposite in2="hardAlpha" operator="arithmetic" k2="-1" k3="1"/>
<feColorMatrix type="matrix" values="0 0 0 0 0 0 0 0 0 0 0 0 0 0 0 0 0 0 0.45 0"/>
<feBlend mode="normal" in2="shape" result="effect1_innerShadow_611_3688"/>
</filter>
<filter id="filter2_dii_611_3688" x="31.2871" y="38.2083" width="86.9465" height="79.5837" filterUnits="userSpaceOnUse" color-interpolation-filters="sRGB">
<feFlood flood-opacity="0" result="BackgroundImageFix"/>
<feColorMatrix in="SourceAlpha" type="matrix" values="0 0 0 0 0 0 0 0 0 0 0 0 0 0 0 0 0 0 127 0" result="hardAlpha"/>
<feOffset dy="4"/>
<feGaussianBlur stdDeviation="12"/>
<feComposite in2="hardAlpha" operator="out"/>
<feColorMatrix type="matrix" values="0 0 0 0 0 0 0 0 0 0 0 0 0 0 0 0 0 0 0.25 0"/>
<feBlend mode="normal" in2="BackgroundImageFix" result="effect1_dropShadow_611_3688"/>
<feBlend mode="normal" in="SourceGraphic" in2="effect1_dropShadow_611_3688" result="shape"/>
<feColorMatrix in="SourceAlpha" type="matrix" values="0 0 0 0 0 0 0 0 0 0 0 0 0 0 0 0 0 0 127 0" result="hardAlpha"/>
<feOffset dy="1"/>
<feGaussianBlur stdDeviation="0.5"/>
<feComposite in2="hardAlpha" operator="arithmetic" k2="-1" k3="1"/>
<feColorMatrix type="matrix" values="0 0 0 0 0.300833 0 0 0 0 0.95 0 0 0 0 0.559351 0 0 0 1 0"/>
<feBlend mode="normal" in2="shape" result="effect2_innerShadow_611_3688"/>
<feColorMatrix in="SourceAlpha" type="matrix" values="0 0 0 0 0 0 0 0 0 0 0 0 0 0 0 0 0 0 127 0" result="hardAlpha"/>
<feOffset dy="-1"/>
<feGaussianBlur stdDeviation="2"/>
<feComposite in2="hardAlpha" operator="arithmetic" k2="-1" k3="1"/>
<feColorMatrix type="matrix" values="0 0 0 0 0 0 0 0 0 0 0 0 0 0 0 0 0 0 0.25 0"/>
<feBlend mode="normal" in2="effect2_innerShadow_611_3688" result="effect3_innerShadow_611_3688"/>
</filter>
<linearGradient id="paint0_linear_611_3688" x1="84.2603" y1="116" x2="-29.2397" y2="125.5" gradientUnits="userSpaceOnUse">
<stop stop-color="#24B65E"/>
<stop offset="1" stop-color="#24B65E" stop-opacity="0"/>
</linearGradient>
<clipPath id="clip0_611_3688">
<rect width="50" height="50" fill="white" transform="translate(49.7603 49)"/>
</clipPath>
</defs>
</svg>
