<svg width="60" height="59" viewBox="0 0 60 59" fill="none" xmlns="http://www.w3.org/2000/svg">
<rect x="0.603378" y="0.478378" width="58.0432" height="58.0432" stroke="#C71A33" stroke-width="0.956757"/>
<path d="M37.3762 20.7743L19.6573 27.6425C18.9443 27.9623 18.7031 28.6028 19.485 28.9504L24.0306 30.4025L35.0215 23.5748C35.6216 23.1462 36.236 23.2605 35.7073 23.732L26.2677 32.3232L25.9711 35.9589C26.2458 36.5203 26.7487 36.5229 27.0694 36.2439L29.6811 33.7599L34.1539 37.1266C35.1927 37.7448 35.758 37.3458 35.9815 36.2128L38.9153 22.2492C39.2199 20.8545 38.7004 20.24 37.3762 20.7743Z" fill="#FF2242"/>
<g filter="url(#filter0_f_416_1198)">
<path d="M37.3762 20.7743L19.6573 27.6425C18.9443 27.9623 18.7031 28.6028 19.485 28.9504L24.0306 30.4025L35.0215 23.5748C35.6216 23.1462 36.236 23.2605 35.7073 23.732L26.2677 32.3232L25.9711 35.9589C26.2458 36.5203 26.7487 36.5229 27.0694 36.2439L29.6811 33.7599L34.1539 37.1266C35.1927 37.7448 35.758 37.3458 35.9815 36.2128L38.9153 22.2492C39.2199 20.8545 38.7004 20.24 37.3762 20.7743Z" fill="#FF2242"/>
</g>
<defs>
<filter id="filter0_f_416_1198" x="5" y="5" width="48" height="47.9999" filterUnits="userSpaceOnUse" color-interpolation-filters="sRGB">
<feFlood flood-opacity="0" result="BackgroundImageFix"/>
<feBlend mode="normal" in="SourceGraphic" in2="BackgroundImageFix" result="shape"/>
<feGaussianBlur stdDeviation="7" result="effect1_foregroundBlur_416_1198"/>
</filter>
</defs>
</svg>
