<svg width="59" height="59" viewBox="0 0 59 59" fill="none" xmlns="http://www.w3.org/2000/svg">
<rect x="0.478378" y="0.478378" width="58.0432" height="58.0432" stroke="#C71A33" stroke-width="0.956757"/>
<path d="M39 22.9237C38.2563 23.25 37.4637 23.4662 36.6375 23.5712C37.4875 23.0637 38.1363 22.2662 38.4413 21.305C37.6488 21.7775 36.7737 22.1113 35.8412 22.2975C35.0887 21.4963 34.0163 21 32.8463 21C30.5763 21 28.7487 22.8425 28.7487 25.1013C28.7487 25.4263 28.7762 25.7387 28.8438 26.0362C25.435 25.87 22.4188 24.2363 20.3925 21.7475C20.0388 22.3613 19.8313 23.0638 19.8313 23.82C19.8313 25.24 20.5625 26.4987 21.6525 27.2275C20.9937 27.215 20.3475 27.0237 19.8 26.7225C19.8 26.735 19.8 26.7512 19.8 26.7675C19.8 28.76 21.2212 30.415 23.085 30.7963C22.7512 30.8875 22.3875 30.9312 22.01 30.9312C21.7475 30.9312 21.4825 30.9163 21.2337 30.8612C21.765 32.485 23.2725 33.6787 25.065 33.7175C23.67 34.8087 21.8987 35.4663 19.9812 35.4663C19.645 35.4663 19.3225 35.4512 19 35.41C20.8162 36.5812 22.9688 37.25 25.29 37.25C32.835 37.25 36.96 31 36.96 25.5825C36.96 25.4012 36.9538 25.2263 36.945 25.0525C37.7588 24.475 38.4425 23.7538 39 22.9237Z" fill="#FF2242"/>
<g filter="url(#filter0_f_268_2858)">
<path d="M39 22.9237C38.2563 23.25 37.4637 23.4662 36.6375 23.5712C37.4875 23.0637 38.1363 22.2662 38.4413 21.305C37.6488 21.7775 36.7738 22.1113 35.8412 22.2975C35.0887 21.4963 34.0163 21 32.8463 21C30.5763 21 28.7487 22.8425 28.7487 25.1013C28.7487 25.4262 28.7762 25.7387 28.8438 26.0362C25.435 25.87 22.4187 24.2363 20.3925 21.7475C20.0388 22.3612 19.8313 23.0637 19.8313 23.82C19.8313 25.24 20.5625 26.4987 21.6525 27.2275C20.9937 27.215 20.3475 27.0237 19.8 26.7225C19.8 26.735 19.8 26.7512 19.8 26.7675C19.8 28.76 21.2212 30.415 23.085 30.7963C22.7513 30.8875 22.3875 30.9312 22.01 30.9312C21.7475 30.9312 21.4825 30.9163 21.2337 30.8612C21.765 32.485 23.2725 33.6787 25.065 33.7175C23.67 34.8087 21.8987 35.4663 19.9812 35.4663C19.645 35.4663 19.3225 35.4513 19 35.41C20.8162 36.5812 22.9688 37.25 25.29 37.25C32.835 37.25 36.96 31 36.96 25.5825C36.96 25.4012 36.9538 25.2263 36.945 25.0525C37.7588 24.475 38.4425 23.7537 39 22.9237Z" fill="#FF2242"/>
</g>
<defs>
<filter id="filter0_f_268_2858" x="5" y="7" width="48" height="44.25" filterUnits="userSpaceOnUse" color-interpolation-filters="sRGB">
<feFlood flood-opacity="0" result="BackgroundImageFix"/>
<feBlend mode="normal" in="SourceGraphic" in2="BackgroundImageFix" result="shape"/>
<feGaussianBlur stdDeviation="7" result="effect1_foregroundBlur_268_2858"/>
</filter>
</defs>
</svg>
