<svg width="31" height="31" viewBox="0 0 31 31" fill="none" xmlns="http://www.w3.org/2000/svg">
<g filter="url(#filter0_d_306_22)">
<path d="M13.5977 6.88867L12.0801 7.46289C11.957 7.50391 11.875 7.62695 11.875 7.75C11.875 7.91406 11.957 8.03711 12.0801 8.07812L13.5977 8.65234L14.1719 10.1699C14.2129 10.293 14.3359 10.375 14.5 10.375C14.623 10.375 14.7461 10.293 14.7871 10.1699L15.3613 8.65234L16.9199 8.07812C17.043 8.03711 17.125 7.91406 17.125 7.75C17.125 7.62695 17.043 7.50391 16.9199 7.46289L15.3613 6.88867L14.7871 5.33008C14.7461 5.20703 14.623 5.125 14.5 5.125C14.3359 5.125 14.2129 5.20703 14.1719 5.33008L13.5977 6.88867ZM5.88672 21.3672C5.10742 22.1465 5.10742 23.377 5.88672 24.1562L7.28125 25.5508C8.06055 26.3301 9.29102 26.3301 10.0703 25.5508L25.6973 9.92383C26.4766 9.14453 26.4766 7.91406 25.6973 7.13477L24.3027 5.74023C23.5234 4.96094 22.293 4.96094 21.5137 5.74023L5.88672 21.3672ZM23.8516 8.5293L19.5449 12.8359L18.6016 11.8926L22.9082 7.58594L23.8516 8.5293ZM4.28711 9.96484C4.12305 10.0059 4 10.2109 4 10.375C4 10.5801 4.12305 10.7852 4.28711 10.8262L6.625 11.6875L7.48633 14.0254C7.52734 14.1895 7.73242 14.3125 7.9375 14.3125C8.10156 14.3125 8.30664 14.1895 8.34766 14.0254L9.25 11.6875L11.5469 10.8262C11.752 10.7852 11.875 10.5801 11.875 10.375C11.875 10.2109 11.752 10.0059 11.5469 9.96484L9.25 9.0625L8.34766 6.76562C8.30664 6.56055 8.10156 6.4375 7.9375 6.4375C7.73242 6.4375 7.52734 6.56055 7.48633 6.76562L6.625 9.0625L4.28711 9.96484ZM18.7246 20.4648C18.5605 20.5059 18.4375 20.7109 18.4375 20.875C18.4375 21.0801 18.5605 21.2852 18.7246 21.3262L21.0625 22.1875L21.9238 24.5254C21.9648 24.6895 22.1699 24.8125 22.375 24.8125C22.5391 24.8125 22.7441 24.6895 22.7852 24.5254L23.6875 22.1875L25.9844 21.3262C26.1895 21.2852 26.3125 21.0801 26.3125 20.875C26.3125 20.7109 26.1895 20.5059 25.9844 20.4648L23.6875 19.5625L22.7852 17.2656C22.7441 17.0605 22.5391 16.9375 22.375 16.9375C22.1699 16.9375 21.9648 17.0605 21.9238 17.2656L21.0625 19.5625L18.7246 20.4648Z" fill="white" fill-opacity="0.6" shape-rendering="crispEdges"/>
</g>
<defs>
<filter id="filter0_d_306_22" x="0" y="0.960938" width="30.4766" height="29.3691" filterUnits="userSpaceOnUse" color-interpolation-filters="sRGB">
<feFlood flood-opacity="0" result="BackgroundImageFix"/>
<feColorMatrix in="SourceAlpha" type="matrix" values="0 0 0 0 0 0 0 0 0 0 0 0 0 0 0 0 0 0 127 0" result="hardAlpha"/>
<feOffset/>
<feGaussianBlur stdDeviation="2"/>
<feComposite in2="hardAlpha" operator="out"/>
<feColorMatrix type="matrix" values="0 0 0 0 0 0 0 0 0 0 0 0 0 0 0 0 0 0 0.15 0"/>
<feBlend mode="normal" in2="BackgroundImageFix" result="effect1_dropShadow_306_22"/>
<feBlend mode="normal" in="SourceGraphic" in2="effect1_dropShadow_306_22" result="shape"/>
</filter>
</defs>
</svg>
