<svg width="41" height="41" viewBox="0 0 41 41" fill="none" xmlns="http://www.w3.org/2000/svg">
<rect x="0.242188" y="0.942932" width="40" height="40" rx="20" fill="#E22440"/>
<path d="M24.4814 32.0891L21.9963 29.5828C21.2906 28.871 20.1494 28.871 19.4512 29.5828L16.9661 32.0891C16.2378 32.8236 15.0516 32.8236 14.3233 32.0891L13.1221 30.8776L16.9285 27.0386C19.0232 24.926 22.4168 24.926 24.5114 27.0386L28.3179 30.8776L27.1166 32.0891C26.3959 32.8236 25.2172 32.8236 24.4814 32.0891Z" fill="white"/>
<path d="M10.9896 28.7191L9.78838 27.5076C9.06012 26.7731 9.06012 25.5768 9.78838 24.8423L12.2735 22.336C12.9792 21.6242 12.9792 20.4733 12.2735 19.7691L9.78838 17.2627C9.06012 16.5283 9.06012 15.3319 9.78838 14.5974L10.9896 13.3859L14.7961 17.2249C16.8908 19.3375 16.8908 22.76 14.7961 24.8726L10.9896 28.7191Z" fill="white"/>
<path d="M20.7566 16.6268C19.3827 16.6268 18.0087 16.1044 16.9652 15.0443L13.1587 11.2053L14.3599 9.99379C15.0882 9.25931 16.2744 9.25931 17.0027 9.99379L19.4878 12.5001C20.186 13.2043 21.3347 13.2043 22.0329 12.5001L24.518 9.99379C25.2463 9.25931 26.4325 9.25931 27.1608 9.99379L28.362 11.2053L24.5556 15.0443C23.5045 16.0892 22.1305 16.6268 20.7566 16.6268Z" fill="white"/>
<path d="M30.4947 28.6895L26.6882 24.8505C24.5935 22.738 24.5935 19.3154 26.6882 17.2029L30.4947 13.3639L31.6959 14.5754C32.4242 15.3099 32.4242 16.5062 31.6959 17.2407L29.2108 19.747C28.5051 20.4588 28.5051 21.6097 29.2108 22.3139L31.6959 24.8203C32.4242 25.5547 32.4242 26.7511 31.6959 27.4856L30.4947 28.6895Z" fill="white"/>
</svg>
