<svg width="217" height="67" viewBox="0 0 217 67" fill="none" xmlns="http://www.w3.org/2000/svg">
<rect y="13.187" width="40.4066" height="40.4066" rx="20.2033" fill="#C71A33"/>
<path d="M24.5067 45.9982L21.6464 43.1378C20.8341 42.3255 19.5206 42.3255 18.7169 43.1378L15.8566 45.9982C15.0184 46.8364 13.653 46.8364 12.8148 45.9982L11.4321 44.6155L15.8134 40.2343C18.2244 37.8233 22.1303 37.8233 24.5413 40.2343L28.9226 44.6155L27.5399 45.9982C26.7103 46.8364 25.3536 46.8364 24.5067 45.9982Z" fill="white"/>
<path d="M8.97811 42.1526L7.59547 40.77C6.75724 39.9318 6.75724 38.5664 7.59547 37.7282L10.4558 34.8678C11.2681 34.0555 11.2681 32.742 10.4558 31.9384L7.59547 29.078C6.75724 28.2398 6.75724 26.8744 7.59547 26.0362L8.97811 24.6536L13.3594 29.0348C15.7703 31.4458 15.7703 35.3518 13.3594 37.7627L8.97811 42.1526Z" fill="white"/>
<path d="M20.2208 28.3522C18.6394 28.3522 17.058 27.7559 15.8568 26.5461L11.4756 22.1649L12.8582 20.7822C13.6965 19.944 15.0618 19.944 15.9 20.7822L18.7604 23.6426C19.564 24.4462 20.8862 24.4462 21.6899 23.6426L24.5502 20.7822C25.3884 19.944 26.7538 19.944 27.592 20.7822L28.9747 22.1649L24.5934 26.5461C23.3836 27.7387 21.8022 28.3522 20.2208 28.3522Z" fill="white"/>
<path d="M31.4287 42.1181L27.0475 37.7369C24.6365 35.3259 24.6365 31.4199 27.0475 29.0089L31.4287 24.6277L32.8114 26.0103C33.6496 26.8486 33.6496 28.2139 32.8114 29.0521L29.951 31.9125C29.1387 32.7248 29.1387 34.0383 29.951 34.842L32.8114 37.7023C33.6496 38.5405 33.6496 39.9059 32.8114 40.7441L31.4287 42.1181Z" fill="white"/>
<path d="M58.4165 26.2112V15.8833H62.0978C62.9013 15.8833 63.567 16.0295 64.0948 16.322C64.6226 16.6145 65.0177 17.0146 65.2799 17.5222C65.5421 18.0265 65.6733 18.5947 65.6733 19.2268C65.6733 19.8622 65.5405 20.4337 65.2749 20.9413C65.0126 21.4456 64.6159 21.8457 64.0847 22.1416C63.5569 22.434 62.8929 22.5803 62.0928 22.5803H59.5612V21.259H61.9516C62.4592 21.259 62.8711 21.1716 63.1871 20.9968C63.5031 20.8186 63.7351 20.5766 63.883 20.2706C64.0309 19.9647 64.1049 19.6167 64.1049 19.2268C64.1049 18.8368 64.0309 18.4905 63.883 18.1879C63.7351 17.8853 63.5014 17.6483 63.1821 17.4769C62.866 17.3054 62.4492 17.2197 61.9314 17.2197H59.9748V26.2112H58.4165Z" fill="white" fill-opacity="0.5"/>
<path d="M70.893 26.3675C70.1669 26.3675 69.5331 26.2011 68.9919 25.8683C68.4506 25.5354 68.0303 25.0698 67.7311 24.4714C67.4319 23.873 67.2823 23.1737 67.2823 22.3735C67.2823 21.57 67.4319 20.8674 67.7311 20.2656C68.0303 19.6638 68.4506 19.1965 68.9919 18.8637C69.5331 18.5308 70.1669 18.3644 70.893 18.3644C71.6192 18.3644 72.2529 18.5308 72.7942 18.8637C73.3355 19.1965 73.7557 19.6638 74.0549 20.2656C74.3542 20.8674 74.5038 21.57 74.5038 22.3735C74.5038 23.1737 74.3542 23.873 74.0549 24.4714C73.7557 25.0698 73.3355 25.5354 72.7942 25.8683C72.2529 26.2011 71.6192 26.3675 70.893 26.3675ZM70.8981 25.1017C71.3688 25.1017 71.7587 24.9774 72.068 24.7286C72.3773 24.4798 72.6059 24.1486 72.7539 23.7351C72.9052 23.3216 72.9808 22.8661 72.9808 22.3685C72.9808 21.8743 72.9052 21.4204 72.7539 21.0069C72.6059 20.59 72.3773 20.2555 72.068 20.0034C71.7587 19.7512 71.3688 19.6251 70.8981 19.6251C70.424 19.6251 70.0307 19.7512 69.718 20.0034C69.4087 20.2555 69.1784 20.59 69.0272 21.0069C68.8792 21.4204 68.8053 21.8743 68.8053 22.3685C68.8053 22.8661 68.8792 23.3216 69.0272 23.7351C69.1784 24.1486 69.4087 24.4798 69.718 24.7286C70.0307 24.9774 70.424 25.1017 70.8981 25.1017Z" fill="white" fill-opacity="0.5"/>
<path d="M77.9787 26.2112L75.6993 18.4653H77.2576L78.7755 24.1537H78.8511L80.3741 18.4653H81.9323L83.4452 24.1285H83.5209L85.0287 18.4653H86.587L84.3126 26.2112H82.7745L81.2011 20.6186H81.0851L79.5117 26.2112H77.9787Z" fill="white" fill-opacity="0.5"/>
<path d="M91.4689 26.3675C90.7057 26.3675 90.0484 26.2045 89.4971 25.8784C88.9491 25.5489 88.5255 25.0866 88.2263 24.4916C87.9304 23.8931 87.7825 23.1922 87.7825 22.3887C87.7825 21.5952 87.9304 20.896 88.2263 20.2908C88.5255 19.6857 88.9424 19.2133 89.4769 18.8737C90.0148 18.5342 90.6435 18.3644 91.363 18.3644C91.8 18.3644 92.2236 18.4367 92.6338 18.5813C93.0439 18.7258 93.4121 18.9528 93.7382 19.2621C94.0643 19.5713 94.3215 19.9731 94.5097 20.4673C94.698 20.9582 94.7921 21.5549 94.7921 22.2575V22.7921H88.6347V21.6625H93.3146C93.3146 21.2658 93.2339 20.9144 93.0725 20.6085C92.9111 20.2992 92.6842 20.0555 92.3917 19.8773C92.1026 19.6991 91.763 19.61 91.373 19.61C90.9494 19.61 90.5796 19.7142 90.2636 19.9227C89.9509 20.1278 89.7089 20.3967 89.5374 20.7295C89.3693 21.059 89.2853 21.4171 89.2853 21.8037V22.6862C89.2853 23.2039 89.376 23.6443 89.5576 24.0074C89.7425 24.3705 89.9997 24.6479 90.3292 24.8395C90.6586 25.0278 91.0436 25.1219 91.484 25.1219C91.7697 25.1219 92.0303 25.0816 92.2656 25.0009C92.501 24.9168 92.7044 24.7924 92.8758 24.6277C93.0473 24.463 93.1784 24.2596 93.2692 24.0175L94.6963 24.2747C94.582 24.6949 94.3769 25.0631 94.0811 25.3791C93.7886 25.6918 93.4205 25.9355 92.9767 26.1103C92.5363 26.2818 92.0337 26.3675 91.4689 26.3675Z" fill="white" fill-opacity="0.5"/>
<path d="M96.8135 26.2112V18.4653H98.2709V19.6957H98.3515C98.4927 19.2789 98.7415 18.9511 99.0979 18.7124C99.4576 18.4703 99.8644 18.3493 100.318 18.3493C100.412 18.3493 100.523 18.3526 100.651 18.3594C100.782 18.3661 100.885 18.3745 100.959 18.3846V19.8269C100.898 19.81 100.791 19.7916 100.636 19.7714C100.481 19.7479 100.327 19.7361 100.172 19.7361C99.8157 19.7361 99.498 19.8117 99.2189 19.963C98.9432 20.1109 98.7247 20.3177 98.5633 20.5833C98.402 20.8455 98.3213 21.1447 98.3213 21.4809V26.2112H96.8135Z" fill="white" fill-opacity="0.5"/>
<path d="M105.673 26.3675C104.91 26.3675 104.253 26.2045 103.701 25.8784C103.153 25.5489 102.73 25.0866 102.43 24.4916C102.135 23.8931 101.987 23.1922 101.987 22.3887C101.987 21.5952 102.135 20.896 102.43 20.2908C102.73 19.6857 103.146 19.2133 103.681 18.8737C104.219 18.5342 104.848 18.3644 105.567 18.3644C106.004 18.3644 106.428 18.4367 106.838 18.5813C107.248 18.7258 107.616 18.9528 107.942 19.2621C108.268 19.5713 108.526 19.9731 108.714 20.4673C108.902 20.9582 108.996 21.5549 108.996 22.2575V22.7921H102.839V21.6625H107.519C107.519 21.2658 107.438 20.9144 107.277 20.6085C107.115 20.2992 106.888 20.0555 106.596 19.8773C106.307 19.6991 105.967 19.61 105.577 19.61C105.154 19.61 104.784 19.7142 104.468 19.9227C104.155 20.1278 103.913 20.3967 103.742 20.7295C103.573 21.059 103.489 21.4171 103.489 21.8037V22.6862C103.489 23.2039 103.58 23.6443 103.762 24.0074C103.947 24.3705 104.204 24.6479 104.533 24.8395C104.863 25.0278 105.248 25.1219 105.688 25.1219C105.974 25.1219 106.234 25.0816 106.47 25.0009C106.705 24.9168 106.908 24.7924 107.08 24.6277C107.251 24.463 107.383 24.2596 107.473 24.0175L108.9 24.2747C108.786 24.6949 108.581 25.0631 108.285 25.3791C107.993 25.6918 107.625 25.9355 107.181 26.1103C106.74 26.2818 106.238 26.3675 105.673 26.3675Z" fill="white" fill-opacity="0.5"/>
<path d="M113.917 26.3625C113.292 26.3625 112.734 26.2028 112.243 25.8834C111.756 25.5606 111.372 25.1017 111.093 24.5067C110.818 23.9083 110.68 23.1905 110.68 22.3534C110.68 21.5162 110.819 20.8001 111.098 20.2051C111.381 19.61 111.767 19.1545 112.258 18.8384C112.749 18.5224 113.305 18.3644 113.927 18.3644C114.408 18.3644 114.795 18.4451 115.087 18.6065C115.383 18.7645 115.612 18.9494 115.773 19.1612C115.938 19.373 116.066 19.5596 116.156 19.721H116.247V15.8833H117.755V26.2112H116.282V25.0059H116.156C116.066 25.1707 115.934 25.3589 115.763 25.5707C115.595 25.7825 115.363 25.9674 115.067 26.1255C114.771 26.2835 114.388 26.3625 113.917 26.3625ZM114.25 25.0765C114.684 25.0765 115.05 24.9622 115.349 24.7336C115.652 24.5016 115.881 24.1806 116.035 23.7704C116.193 23.3603 116.272 22.8829 116.272 22.3382C116.272 21.8003 116.195 21.3296 116.04 20.9262C115.886 20.5228 115.659 20.2084 115.36 19.9832C115.06 19.7579 114.69 19.6453 114.25 19.6453C113.796 19.6453 113.418 19.763 113.115 19.9983C112.813 20.2337 112.584 20.5547 112.43 20.9615C112.278 21.3683 112.203 21.8272 112.203 22.3382C112.203 22.856 112.28 23.3216 112.435 23.7351C112.589 24.1486 112.818 24.4764 113.12 24.7185C113.426 24.9572 113.803 25.0765 114.25 25.0765Z" fill="white" fill-opacity="0.5"/>
<path d="M124.483 26.2112V15.8833H125.991V19.721H126.081C126.169 19.5596 126.295 19.373 126.46 19.1612C126.624 18.9494 126.853 18.7645 127.146 18.6065C127.438 18.4451 127.825 18.3644 128.305 18.3644C128.931 18.3644 129.489 18.5224 129.98 18.8384C130.47 19.1545 130.855 19.61 131.134 20.2051C131.417 20.8001 131.558 21.5162 131.558 22.3534C131.558 23.1905 131.419 23.9083 131.14 24.5067C130.86 25.1017 130.477 25.5606 129.99 25.8834C129.502 26.2028 128.946 26.3625 128.321 26.3625C127.85 26.3625 127.465 26.2835 127.166 26.1255C126.87 25.9674 126.638 25.7825 126.47 25.5707C126.302 25.3589 126.172 25.1707 126.081 25.0059H125.955V26.2112H124.483ZM125.96 22.3382C125.96 22.8829 126.039 23.3603 126.197 23.7704C126.355 24.1806 126.584 24.5016 126.883 24.7336C127.183 24.9622 127.549 25.0765 127.983 25.0765C128.433 25.0765 128.81 24.9572 129.112 24.7185C129.415 24.4764 129.643 24.1486 129.798 23.7351C129.956 23.3216 130.035 22.856 130.035 22.3382C130.035 21.8272 129.958 21.3683 129.803 20.9615C129.652 20.5547 129.423 20.2337 129.117 19.9983C128.815 19.763 128.437 19.6453 127.983 19.6453C127.546 19.6453 127.176 19.7579 126.873 19.9832C126.574 20.2084 126.347 20.5228 126.192 20.9262C126.038 21.3296 125.96 21.8003 125.96 22.3382Z" fill="white" fill-opacity="0.5"/>
<path d="M134.289 29.1159C134.064 29.1159 133.859 29.0974 133.674 29.0604C133.489 29.0268 133.351 28.9898 133.26 28.9495L133.624 27.714C133.899 27.7879 134.145 27.8199 134.36 27.8098C134.575 27.7997 134.765 27.719 134.93 27.5677C135.098 27.4164 135.246 27.1693 135.373 26.8264L135.56 26.312L132.726 18.4653H134.34L136.301 24.4764H136.382L138.344 18.4653H139.962L136.77 27.245C136.622 27.6484 136.434 27.9896 136.205 28.2687C135.977 28.5511 135.705 28.7629 135.389 28.9041C135.073 29.0453 134.706 29.1159 134.289 29.1159Z" fill="white" fill-opacity="0.5"/>
<path d="M61.233 34.0254C61.5082 34.0254 61.5792 34.0963 61.6591 34.2028L65.2364 38.9739H65.3607L68.8138 34.2294C68.9114 34.1052 69.0623 34.0343 69.2576 34.0343H71.4235C71.6455 34.0343 71.7253 34.2294 71.6188 34.3535L66.7721 40.4372L72.1692 47.2126C72.2935 47.39 72.2225 47.5585 71.9917 47.5585H69.808C69.6127 47.5585 69.4351 47.4875 69.3109 47.3101L65.2808 41.9005H65.1565L61.3129 47.2924C61.162 47.4698 60.9933 47.5673 60.7892 47.5673H58.6232C58.4457 47.5673 58.3481 47.4166 58.4723 47.2481L63.7895 40.4904L58.9961 34.4067C58.8984 34.2294 58.9428 34.0343 59.1736 34.0343H61.233V34.0254Z" fill="white" fill-opacity="0.5"/>
<path d="M82.661 34.0254C85.617 34.0254 87.7563 36.1627 87.7563 38.8675C87.7563 41.6522 85.617 43.7362 82.661 43.7362H78.3647V47.2126C78.3647 47.4343 78.267 47.5585 78.0628 47.5585H76.4473C76.2253 47.5585 76.1011 47.4343 76.1011 47.2126V34.3801C76.1011 34.1584 76.2253 34.0343 76.4473 34.0343H82.661V34.0254ZM82.661 41.6255C84.4719 41.6255 85.4927 40.4549 85.4927 38.8675C85.4927 37.3067 84.4719 36.1361 82.661 36.1361H78.3647V41.6255H82.661Z" fill="white" fill-opacity="0.5"/>
<path d="M92.506 44.4546C93.4025 44.4546 94.1748 45.1995 94.1748 46.0952C94.1748 46.9909 93.4025 47.7625 92.506 47.7625C91.6094 47.7625 90.8638 46.9909 90.8638 46.0952C90.8638 45.1995 91.6094 44.4546 92.506 44.4546Z" fill="white" fill-opacity="0.5"/>
<path d="M109.159 47.5584C108.982 47.5584 108.84 47.4874 108.733 47.3367L104.286 41.723L100.984 37.1824L100.859 37.209L101.01 41.2353V47.2214C101.01 47.4431 100.886 47.5672 100.638 47.5672H99.0752C98.88 47.5672 98.7734 47.4431 98.7734 47.2214V34.38C98.7734 34.1583 98.8711 34.0342 99.093 34.0342H100.558C100.806 34.0342 101.002 34.1051 101.126 34.2825L105.901 40.242L108.884 44.3658L109.008 44.3392L108.831 40.3396V34.38C108.831 34.1583 108.955 34.0342 109.177 34.0342H110.739C110.961 34.0342 111.059 34.1583 111.059 34.38V47.2214C111.059 47.4431 110.961 47.5672 110.739 47.5672H109.159V47.5584Z" fill="white" fill-opacity="0.5"/>
<path d="M126.158 34.0254C126.335 34.0254 126.504 34.1762 126.504 34.3713V35.7902C126.504 35.9676 126.326 36.1094 126.158 36.1094H118.302V39.4617H125.456C125.678 39.4617 125.802 39.5858 125.802 39.8075V41.2265C125.802 41.4482 125.678 41.5457 125.456 41.5457H118.302V45.4478H126.406C126.628 45.4478 126.726 45.5453 126.726 45.7493V47.2126C126.726 47.4343 126.628 47.5585 126.406 47.5585H116.366C116.145 47.5585 116.047 47.4343 116.047 47.2126V34.3801C116.047 34.1584 116.145 34.0343 116.366 34.0343H126.158V34.0254Z" fill="white" fill-opacity="0.5"/>
<path d="M142.26 34.0254C142.482 34.0254 142.606 34.1495 142.606 34.3713V35.7902C142.606 36.0119 142.482 36.1361 142.26 36.1361H137.662V47.2126C137.662 47.39 137.538 47.5585 137.316 47.5585H135.753C135.532 47.5585 135.407 47.4343 135.407 47.2126V36.1361H130.809C130.587 36.1361 130.463 36.0119 130.463 35.7902V34.3713C130.463 34.1495 130.587 34.0254 130.809 34.0254H142.26Z" fill="white" fill-opacity="0.5"/>
<path d="M148.056 34.0254C148.278 34.0254 148.402 34.0963 148.456 34.2737L151.589 44.9246H151.713L154.723 34.2737C154.776 34.0963 154.9 34.0254 155.069 34.0254H156.738C156.915 34.0254 157.039 34.0963 157.084 34.2737L160.164 44.9246H160.288L163.395 34.3003C163.448 34.1229 163.573 34.0254 163.741 34.0254H165.579C165.801 34.0254 165.881 34.1229 165.801 34.3446L161.575 47.2569C161.504 47.452 161.354 47.5585 161.149 47.5585H159.09C158.895 47.5585 158.77 47.4609 158.691 47.2392L155.956 37.7323H155.832L153.125 47.2658C153.071 47.4609 152.947 47.5673 152.779 47.5673H150.693C150.471 47.5673 150.32 47.4698 150.249 47.2658L145.997 34.3003C145.926 34.1229 145.997 34.0254 146.219 34.0254H148.056Z" fill="white" fill-opacity="0.5"/>
<path d="M176.17 33.8303C180.093 33.8303 183.156 36.7569 183.156 40.8097C183.156 44.8359 180.102 47.7625 176.17 47.7625C172.246 47.7625 169.184 44.8359 169.184 40.8097C169.184 36.7569 172.237 33.8303 176.17 33.8303ZM171.465 40.8097C171.465 43.5944 173.382 45.6518 176.161 45.6518C178.948 45.6518 180.857 43.5944 180.857 40.8097C180.857 38.0073 178.939 35.941 176.161 35.941C173.382 35.941 171.465 37.9984 171.465 40.8097Z" fill="white" fill-opacity="0.5"/>
<path d="M194.189 34.0254C197.145 34.0254 199.311 36.1627 199.311 38.8675C199.311 40.7564 198.29 42.3439 196.727 43.142L198.991 47.1682C199.115 47.39 198.991 47.5673 198.716 47.5673H196.905C196.683 47.5673 196.505 47.39 196.408 47.2215L194.597 43.7185C194.526 43.7451 194.402 43.7451 194.251 43.7451H189.901V47.2215C189.901 47.4432 189.804 47.5673 189.582 47.5673H188.019C187.744 47.5673 187.646 47.39 187.646 47.2215V34.3801C187.646 34.1584 187.771 34.0343 187.993 34.0343H194.189V34.0254ZM194.189 41.6255C196 41.6255 197.047 40.4549 197.047 38.8675C197.047 37.3067 196 36.1361 194.189 36.1361H189.892V41.6255H194.189Z" fill="white" fill-opacity="0.5"/>
<path d="M205.942 34.0254C206.164 34.0254 206.288 34.1495 206.288 34.3713V40.3308L212.697 34.3003C212.875 34.1229 213.123 34.0254 213.416 34.0254H215.653C215.875 34.0254 215.973 34.2471 215.804 34.4245L209.839 39.8607L216.123 47.1328C216.301 47.3101 216.194 47.5585 215.928 47.5585H213.94C213.638 47.5585 213.389 47.4609 213.194 47.2392L208.197 41.3329L206.279 42.876V47.2215C206.279 47.4432 206.155 47.5673 205.933 47.5673H204.371C204.149 47.5673 204.024 47.4432 204.024 47.2215V34.3801C204.024 34.1584 204.149 34.0343 204.371 34.0343H205.942V34.0254Z" fill="white" fill-opacity="0.5"/>
</svg>
