<svg width="41" height="41" viewBox="0 0 41 41" fill="none" xmlns="http://www.w3.org/2000/svg">
<rect y="0.187012" width="40.4066" height="40.4066" rx="20.2033" fill="#C71A33"/>
<path d="M24.5067 32.9982L21.6464 30.1378C20.8341 29.3255 19.5206 29.3255 18.7169 30.1378L15.8566 32.9982C15.0184 33.8364 13.653 33.8364 12.8148 32.9982L11.4321 31.6155L15.8134 27.2343C18.2244 24.8233 22.1303 24.8233 24.5413 27.2343L28.9226 31.6155L27.5399 32.9982C26.7103 33.8364 25.3536 33.8364 24.5067 32.9982Z" fill="white"/>
<path d="M8.97811 29.1526L7.59547 27.77C6.75724 26.9318 6.75724 25.5664 7.59547 24.7282L10.4558 21.8678C11.2681 21.0555 11.2681 19.742 10.4558 18.9384L7.59547 16.078C6.75724 15.2398 6.75724 13.8744 7.59547 13.0362L8.97811 11.6536L13.3594 16.0348C15.7703 18.4458 15.7703 22.3518 13.3594 24.7627L8.97811 29.1526Z" fill="white"/>
<path d="M20.2208 15.3522C18.6394 15.3522 17.058 14.7559 15.8568 13.5461L11.4756 9.16488L12.8582 7.78224C13.6965 6.94401 15.0618 6.94401 15.9 7.78224L18.7604 10.6426C19.564 11.4462 20.8862 11.4462 21.6899 10.6426L24.5502 7.78224C25.3884 6.94401 26.7538 6.94401 27.592 7.78224L28.9747 9.16488L24.5934 13.5461C23.3836 14.7387 21.8022 15.3522 20.2208 15.3522Z" fill="white"/>
<path d="M31.4287 29.1181L27.0475 24.7369C24.6365 22.3259 24.6365 18.4199 27.0475 16.0089L31.4287 11.6277L32.8114 13.0103C33.6496 13.8486 33.6496 15.2139 32.8114 16.0521L29.951 18.9125C29.1387 19.7248 29.1387 21.0383 29.951 21.842L32.8114 24.7023C33.6496 25.5405 33.6496 26.9059 32.8114 27.7441L31.4287 29.1181Z" fill="white"/>
</svg>
