<svg width="316" height="23" viewBox="0 0 316 23" fill="none" xmlns="http://www.w3.org/2000/svg">
<path d="M8.3539 11.4331L0.963911 0.508736H3.69499L9.7355 9.53737L15.7118 0.508736H18.4428L11.085 11.5616L18.7641 23H16.0331L9.70337 13.4573L3.37369 23H0.642608L8.3539 11.4331ZM30.9581 0.508736H43.8103L46.7663 3.46473V10.6941L43.7781 13.6822H33.4V23H30.9581V0.508736ZM42.75 11.5616L44.3565 9.9872V4.20373L42.75 2.62934H33.4V11.5616H42.75ZM55.6536 22.0682V20.6545L56.5854 19.7227H57.9991L58.9309 20.6545V22.0682L57.9991 23H56.5854L55.6536 22.0682ZM71.2215 19.4657V4.04308L74.7558 0.508736H84.3949L87.8008 3.91456V5.9709H85.3589V4.71782L83.3025 2.6936H75.8483L73.6634 4.84634V18.6624L75.8483 20.8151H83.3025L85.3589 18.7909V17.5378H87.8008V19.5942L84.3949 23H74.7558L71.2215 19.4657ZM100.809 0.508736H103.251V10.6941H114.882V0.508736H117.324V23H114.882V12.8789H103.251V23H100.809V0.508736ZM137.529 0.508736H140.163L148.164 23H145.625L143.537 16.9274H134.155L132.066 23H129.528L137.529 0.508736ZM142.83 14.8068L138.878 3.33621H138.814L134.894 14.8068H142.83ZM160.377 0.508736H162.819V20.8473H174.257V23H160.377V0.508736ZM186.631 0.508736H189.073V20.8473H200.511V23H186.631V0.508736ZM212.885 0.508736H227.408V2.6936H215.327V10.5977H226.476V12.7825H215.327V20.8151H227.408V23H212.885V0.508736ZM240.582 0.508736H242.96L254.688 19.0158H254.752V0.508736H257.065V23H254.688L242.96 4.4929H242.896V23H240.582V0.508736ZM270.877 19.4657V4.04308L274.411 0.508736H284.243L287.649 3.91456V5.9709H285.207V4.71782L283.15 2.6936H275.503L273.319 4.84634V18.6624L275.503 20.8151H283.022L285.207 18.6624V13.4573H280.13V11.2724H287.649V19.4657L284.114 23H274.411L270.877 19.4657ZM301.154 0.508736H315.677V2.6936H303.596V10.5977H314.746V12.7825H303.596V20.8151H315.677V23H301.154V0.508736Z" fill="#EB566C"/>
</svg>
