<svg width="42" height="42" viewBox="0 0 42 42" fill="none" xmlns="http://www.w3.org/2000/svg">
<rect x="0.33798" y="0.33798" width="41.0083" height="41.0083" stroke="#C71A33" stroke-width="0.67596"/>
<path d="M32.1893 14.5991C31.3798 14.9542 30.5173 15.1896 29.618 15.3038C30.5431 14.7515 31.2492 13.8835 31.5812 12.8373C30.7186 13.3516 29.7663 13.7148 28.7514 13.9175C27.9324 13.0455 26.7651 12.5054 25.4917 12.5054C23.0211 12.5054 21.0321 14.5107 21.0321 16.969C21.0321 17.3228 21.0621 17.6629 21.1355 17.9867C17.4255 17.8057 14.1427 16.0276 11.9374 13.3189C11.5524 13.9869 11.3266 14.7515 11.3266 15.5746C11.3266 17.1201 12.1225 18.49 13.3088 19.2832C12.5918 19.2696 11.8885 19.0614 11.2926 18.7336C11.2926 18.7472 11.2926 18.7649 11.2926 18.7825C11.2926 20.9511 12.8394 22.7524 14.8679 23.1673C14.5046 23.2666 14.1087 23.3142 13.6979 23.3142C13.4122 23.3142 13.1238 23.2979 12.853 23.2381C13.4312 25.0053 15.0719 26.3045 17.0228 26.3467C15.5046 27.5344 13.5768 28.25 11.4898 28.25C11.1239 28.25 10.7729 28.2337 10.4219 28.1888C12.3986 29.4635 14.7413 30.1914 17.2677 30.1914C25.4795 30.1914 29.969 23.3891 29.969 17.4928C29.969 17.2956 29.9622 17.1051 29.9527 16.916C30.8383 16.2875 31.5825 15.5025 32.1893 14.5991Z" fill="#C71A33"/>
</svg>
